<svg
  width="24"
  height="24"
  viewBox="0 0 24 24"
  fill="none"
  xmlns="http://www.w3.org/2000/svg"
>
  <path
    fillRule="evenodd"
    clipRule="evenodd"
    d="M8.58958 7.31498C8.10345 6.82885 8.10345 6.04067 8.58958 5.55454C9.07571 5.06841 9.86389 5.06841 10.35 5.55454L17.6948 12.8994C17.7334 12.8345 17.7815 12.6994 17.7815 12.4827C17.7815 12.4098 17.6877 12.1807 17.5561 11.8591C17.0741 10.6814 16.0844 8.26305 17.3288 7.72974C18.4963 7.22938 19.418 9.80171 20.094 11.688C20.3353 12.3614 20.5452 12.9473 20.7239 13.2748C20.7451 13.3138 20.7671 13.3539 20.7898 13.3951C21.4904 14.6695 22.7748 17.006 19.7054 20.4043C16.5367 23.9124 11.8969 22.2149 10.3126 20.6306C9.58144 19.8994 8.88792 19.1833 8.26683 18.5344C8.26181 18.5296 8.25681 18.5247 8.25185 18.5197L3.61069 13.8785C3.12456 13.3924 3.12456 12.6042 3.61069 12.1181C4.09682 11.632 4.885 11.632 5.37113 12.1181L8.84618 15.5932L9.01749 15.4382L3.83662 10.2573C3.35049 9.77116 3.35049 8.98298 3.83662 8.49685C4.32275 8.01072 5.11092 8.01072 5.59706 8.49685L10.866 13.7657L11.0376 13.6104L5.4212 7.99397C4.93507 7.50784 4.93507 6.71966 5.4212 6.23353C5.90733 5.7474 6.6955 5.7474 7.18164 6.23353L12.8861 11.938L13.0575 11.7829L8.58958 7.31498Z"
    fill="#0AAF3B"
  />
  <path
    d="M12.3965 2.97119C12.8179 2.95516 13.8202 3.11962 14.4579 3.90569C15.0955 4.69176 15.2707 5.6575 15.2786 6.04211"
    stroke="#98D69F"
    strokeWidth="1.19251"
    strokeLinecap="round"
  />
  <path
    d="M15.1699 1.29346C15.4306 1.28404 16.0509 1.38818 16.4465 1.88013C16.8421 2.37208 16.9518 2.97561 16.9572 3.21588"
    stroke="#98D69F"
    strokeWidth="1.19251"
    strokeLinecap="round"
  />
  <path
    d="M7.33594 20.6328C6.91816 20.6905 5.90451 20.6262 5.19213 19.9071C4.47974 19.1881 4.20977 18.2444 4.16383 17.8625"
    stroke="#98D69F"
    strokeWidth="1.19251"
    strokeLinecap="round"
  />
  <path
    d="M4.74219 22.5767C4.48371 22.6119 3.85617 22.5697 3.4138 22.1193C2.97143 21.669 2.80246 21.0793 2.77327 20.8407"
    stroke="#98D69F"
    strokeWidth="1.19251"
    strokeLinecap="round"
  />
</svg>
