<?xml version="1.0" encoding="utf-8"?>
<svg width="32" height="32" viewBox="0 0 32 32" fill="none" xmlns="http://www.w3.org/2000/svg">
  <defs/>
  <path fill-rule="evenodd" clip-rule="evenodd" d="M 19.184 10.44 C 19.215 11.541 18.936 12.068 18.423 12.448 C 17.617 13.049 16.714 13.168 16.714 13.168 L 16.712 14.038 C 16.712 14.038 18.152 14.14 18.73 14.367 C 19.147 14.53 19.319 14.762 19.484 15.022 C 19.756 15.446 22.425 19.194 22.601 19.202 L 26.711 21.415 C 27.324 21.761 27.519 22.497 27.137 23.06 C 26.757 23.621 26.091 23.631 25.478 23.281 C 24.967 23 21.117 21.056 20.852 20.91 C 20.73 20.841 20.595 20.744 20.488 20.633 C 20.393 20.546 20.299 20.463 20.085 20.17 L 18.073 17.764 L 18.001 23.063 C 20.372 24.129 25.958 25.361 24.925 27.487 C 23.816 29.762 18.57 27.292 16.036 26.341 C 13.502 27.292 8.055 29.762 6.947 27.487 C 5.915 25.361 11.705 24.119 14.076 23.054 L 13.915 17.842 L 12.068 20.323 C 11.975 20.521 11.879 20.684 11.706 20.803 C 11.62 20.899 11.299 21.057 11.182 21.125 C 11.289 20.993 6.758 23.398 6.572 23.621 C 5.96 23.968 5.261 23.838 4.881 23.276 C 4.497 22.714 4.691 21.98 5.303 21.629 L 9.242 19.409 C 9.255 19.379 9.269 19.347 9.285 19.319 C 9.443 19.391 11.792 15.651 12.105 15.215 C 12.51 14.657 12.434 14.616 13.061 14.403 C 13.736 14.172 14.769 14.103 14.813 14.113 C 14.803 14.102 14.76 13.194 14.76 13.194 C 14.76 13.194 13.617 13.087 13.073 12.504 C 12.652 12.056 12.354 11.262 12.357 10.628 C 12.362 8.678 13.625 7.542 15.961 7.562 C 18.299 7.586 19.148 8.855 19.184 10.44 Z" />
  <path d="M 8.079 12.516 L 10.641 12.009" stroke-width="0.8" stroke-linecap="round" style=""/>
  <path d="M 8.107 8.336 L 10.608 9.04" stroke-width="0.8" stroke-linecap="round" style=""/>
  <path d="M 10.698 4.839 L 12.351 6.377" stroke-width="0.8" stroke-linecap="round" style=""/>
  <path d="M 23.392 12.01 L 20.832 11.501" stroke-width="0.8" stroke-linecap="round" style=""/>
  <path d="M 23.767 8.336 L 21.265 9.04" stroke-width="0.8" stroke-linecap="round" style=""/>
  <path d="M 21.176 4.839 L 19.526 6.377" stroke-width="0.8" stroke-linecap="round" style=""/>
  <path d="M 15.938 5.435 L 15.936 3.045" stroke-width="0.8" stroke-linecap="round" style=""/>
</svg>