<svg viewBox="0 0 18 23" fill="none" xmlns="http://www.w3.org/2000/svg">
<path fillRule="evenodd" clipRule="evenodd" d="M11.5938 7.5C11.5938 8.49613 11.1083 9.37886 10.3611 9.92449L11.4413 10.1692C11.6672 10.2203 11.8571 10.3724 11.9564 10.5817L13.7839 14.4338C13.7957 14.4588 13.8064 14.484 13.8161 14.5094L16.8232 16.3681C17.293 16.6585 17.4384 17.2747 17.148 17.7445C16.8577 18.2143 16.2414 18.3597 15.7716 18.0694L12.3364 15.9461C12.2444 15.8892 12.1648 15.8198 12.0985 15.7414C11.9665 15.6401 11.8578 15.5042 11.7878 15.3394L11.5938 14.8828V16.8594C13.4052 17.7494 16.2484 19.6685 15.4582 21.4489C14.6134 23.3525 10.5299 22.2421 8.59384 21.4489C6.65773 22.2421 2.57429 23.3525 1.72944 21.4489C0.939302 19.6685 3.78247 17.7494 5.59384 16.8594V15.3227L5.50977 15.5206C5.43977 15.6855 5.33109 15.8213 5.19906 15.9226C5.13276 16.001 5.05317 16.0704 4.96113 16.1273L1.52591 18.2506C1.05612 18.5409 0.439885 18.3955 0.149511 17.9257C-0.140863 17.4559 0.00458121 16.8397 0.47437 16.5493L3.48149 14.6906C3.49111 14.6652 3.50183 14.64 3.51368 14.615L5.34116 10.7629C5.44043 10.5536 5.63031 10.4015 5.85621 10.3504L6.98126 10.0956C7.00475 10.088 7.02844 10.0809 7.0523 10.0742C6.17856 9.54981 5.59384 8.59319 5.59384 7.5C5.59384 5.84315 6.93698 4.5 8.59384 4.5C10.2507 4.5 11.5938 5.84315 11.5938 7.5Z"/>
<path d="M2.59387 8.92383L4.54835 8.49953" strokeLinecap="round"/>
<path d="M2.61365 5.42578L4.52447 6.01633" strokeLinecap="round"/>
<path d="M4.59387 2.5L5.85465 3.78858" strokeLinecap="round"/>
<path d="M14.2883 8.5L12.3339 8.0757" strokeLinecap="round"/>
<path d="M14.5748 5.42578L12.664 6.01633" strokeLinecap="round"/>
<path d="M12.5946 2.5L11.3338 3.78858" strokeLinecap="round"/>
<path d="M8.59387 3L8.59387 1" strokeLinecap="round"/>
</svg>
