<svg
  width="32"
  height="32"
  viewBox="0 0 32 32"
  fill="none"
  xmlns="http://www.w3.org/2000/svg"
  data-testid="Dalrempit-icon"
>
  <path
    fillRule="evenodd"
    clipRule="evenodd"
    d="M18.594 11.5c0 .996-.486 1.879-1.233 2.425l1.08.244a.754.754 0 0 1 .515.413l1.828 3.852c.012.025.022.05.032.075l3.007 1.86a1 1 0 1 1-1.051 1.7l-3.436-2.123a1 1 0 0 1-.237-.205.995.995 0 0 1-.311-.402l-.194-.456v1.976c1.811.89 4.654 2.81 3.864 4.59-.845 1.903-4.928.793-6.864 0-1.936.793-6.02 1.903-6.865 0-.79-1.78 2.054-3.7 3.865-4.59v-1.536l-.084.198a.995.995 0 0 1-.31.402.998.998 0 0 1-.239.204l-3.435 2.124a1 1 0 0 1-1.052-1.702l3.008-1.858a.99.99 0 0 1 .032-.076l1.827-3.852c.1-.21.29-.361.515-.413l1.125-.254.071-.022a3 3 0 1 1 4.542-2.574z"
  />
  <path
    d="m9.594 12.924 1.954-.424M9.613 9.426l1.911.59M11.594 6.5l1.26 1.289M21.29 12.5l-1.955-.424M21.574 9.426l-1.91.59M19.596 6.5l-1.261 1.289M15.594 7V5"
    strokeWidth=".8"
    strokeLinecap="round"
  />
</svg>