<svg width="72" height="73" viewBox="0 0 72 73" fill="none" xmlns="http://www.w3.org/2000/svg">
<circle cx="36" cy="36.709" r="35.5" fill="white" stroke="#98D69F"/>
<path fill-rule="evenodd" clip-rule="evenodd" d="M28.0218 54.709C31.2767 54.709 34.1692 53.1573 35.9999 50.7532C37.8306 53.1573 40.7231 54.709 43.978 54.709C49.5129 54.709 53.9998 50.2221 53.9998 44.6873C53.9998 41.4323 52.4479 38.5397 50.0438 36.709C52.4479 34.8783 53.9998 31.9858 53.9998 28.7307C53.9998 23.1959 49.5129 18.709 43.978 18.709C40.7231 18.709 37.8306 20.2607 35.9999 22.6648C34.1692 20.2607 31.2767 18.709 28.0218 18.709C22.4869 18.709 18 23.1959 18 28.7307C18 31.9858 19.5518 34.8783 21.956 36.709C19.5518 38.5397 18 41.4323 18 44.6873C18 50.2221 22.4869 54.709 28.0218 54.709Z" fill="#6BC778"/>
</svg>
