<svg width="186" height="69" viewBox="0 0 186 69" fill="none" xmlns="http://www.w3.org/2000/svg">
<path d="M25.7599 23.6522V27.8687H21.546V32.2384H17.562V39.9814H30.127V23.6522H25.7599ZM4.69049 26.1054V21.659H8.67452V17.1359H12.965V12.7661H17.2555V8.47294H21.6226V4.40981H26.2196V0.5H43.0751V4.25648H47.0591V39.6747H52.1924V43.1246H55.4102V51.5575H52.1924V54.854H47.0591V65.2035H43.688V68.5H32.9618V65.2035H29.5907V54.854H4.53726V51.5575H0.783081V26.1054H4.69049Z" fill="#45BB5A"/>
<path d="M96.2179 16.2926H89.7055V20.509H85.0319V48.491H89.7055V52.6308H96.2179V48.491H100.891V20.509H96.2179V16.2926ZM106.025 68.5H79.9753V64.2069H75.5316V59.3004H71.3177V53.7041H67.4103V15.6026H71.3177V10.0829H75.5316V5.17644H79.9753V0.5H106.025V5.17644H110.392V10.0829H114.682V15.6026H118.59V53.7041H114.682V59.3004H110.392V64.2069H106.025V68.5Z" fill="#45BB5A"/>
<path d="M155.567 23.6522V27.8687H151.353V32.2384H147.369V39.9814H159.934V23.6522H155.567ZM134.497 26.1054V21.659H138.481V17.1359H142.772V12.7661H147.062V8.47294H151.429V4.40981H156.026V0.5H172.882V4.25648H176.866V39.6747H181.999V43.1246H185.217V51.5575H181.999V54.854H176.866V65.2035H173.495V68.5H162.768V65.2035H159.397V54.854H134.344V51.5575H130.59V26.1054H134.497Z" fill="#45BB5A"/>
</svg>
