<svg width="25" height="25" viewBox="0 0 25 25" fill="none" xmlns="http://www.w3.org/2000/svg">
<mask id="mask0_620_20253" style="mask-type:alpha" maskUnits="userSpaceOnUse" x="0" y="0" width="25" height="25">
<rect x="0.5" y="0.5" width="24" height="24" fill="#D9D9D9"/>
</mask>
<g mask="url(#mask0_620_20253)">
<path d="M10.398 14.2308L12.5 12.9615L14.602 14.2308L14.0402 11.8327L15.8962 10.2327L13.4635 10.027L12.5 7.76925L11.5365 10.027L9.10375 10.2327L10.9598 11.8327L10.398 14.2308ZM6.27885 20.6304C6.14687 20.687 6 20.5902 6 20.4466V5.80775C6 5.30258 6.175 4.875 6.525 4.525C6.875 4.175 7.30258 4 7.80775 4H17.1923C17.6974 4 18.125 4.175 18.475 4.525C18.825 4.875 19 5.30258 19 5.80775V20.4466C19 20.5902 18.8531 20.687 18.7211 20.6304L12.5 17.9615L6.27885 20.6304Z" fill="#0AAF3B"/>
</g>
</svg>
