<svg width="233" height="461" viewBox="0 0 233 461" fill="none" xmlns="http://www.w3.org/2000/svg">
<g clip-path="url(#clip0_0_1)">
<path d="M74.6543 370.572C74.6543 370.572 53.6843 412.632 53.6743 412.662C51.9343 421.352 50.5743 428.992 50.2343 433.022C50.2343 433.042 50.2343 433.062 50.2343 433.092C50.1043 434.612 50.1243 435.602 50.3343 435.902C50.3543 435.932 50.3543 435.952 50.3743 435.962C52.6143 438.232 121.624 454.122 124.224 453.862C126.824 453.622 126.294 446.192 124.104 443.442C121.894 440.682 98.2043 422.782 98.2043 422.782L118.744 380.662L74.6543 370.572Z" fill="#AD6359"/>
<path d="M123.174 453.862C120.584 454.112 52.6044 438.222 50.3744 435.962C50.3544 435.942 50.3444 435.922 50.3344 435.892C50.1144 435.582 50.1044 434.592 50.2244 433.082C50.2244 433.052 50.2244 433.042 50.2344 433.012C50.5744 428.992 51.9344 421.342 53.6644 412.652C53.6644 412.642 56.3544 407.262 58.6844 402.582L102.224 414.522L98.2043 422.772C98.2043 422.772 120.854 440.672 123.054 443.432C125.254 446.182 125.774 453.612 123.174 453.862Z" fill="#EBEBEB"/>
<path d="M125.082 451.251C124.814 451.94 124.468 452.22 124.105 452.252H124.095L124.076 452.253C124.077 452.253 124.07 452.254 124.051 452.253C124.034 452.253 124.011 452.252 123.981 452.25C123.92 452.245 123.842 452.237 123.744 452.224C123.547 452.198 123.287 452.155 122.965 452.097C122.323 451.979 121.45 451.8 120.379 451.567C118.238 451.1 115.316 450.419 111.873 449.589C104.988 447.927 96.029 445.669 87.082 443.331C78.1346 440.992 69.2028 438.576 62.3714 436.598C58.9549 435.608 56.0688 434.73 53.9703 434.028C52.9202 433.676 52.0744 433.371 51.4606 433.119C51.1532 432.993 50.9115 432.884 50.7347 432.792C50.6464 432.746 50.5795 432.707 50.5314 432.675C50.5075 432.659 50.4915 432.647 50.4815 432.64C50.477 432.628 50.4703 432.608 50.4628 432.578C50.4417 432.494 50.4234 432.367 50.4135 432.19C50.3936 431.836 50.4097 431.344 50.4635 430.715C50.5707 429.462 50.8214 427.734 51.1869 425.636C51.9127 421.471 53.0829 415.895 54.4464 409.797L98.2133 420.436L98.1429 420.687L98.0532 421.007L98.3138 421.214L98.6244 420.822C98.3138 421.214 98.3139 421.214 98.3141 421.214L98.3149 421.215L98.3181 421.217L98.3308 421.227L98.381 421.267L98.5775 421.423C98.7497 421.56 99.0026 421.761 99.3253 422.017C99.9707 422.531 100.895 423.268 102.011 424.161C104.244 425.948 107.242 428.359 110.308 430.859C113.375 433.36 116.506 435.947 119.005 438.085C120.254 439.155 121.343 440.109 122.185 440.884C123.038 441.668 123.607 442.24 123.846 442.554C124.325 443.188 124.725 444.117 125.009 445.185C125.292 446.248 125.451 447.415 125.466 448.499C125.481 449.59 125.35 450.561 125.082 451.251Z" fill="#263238" stroke="#222222"/>
<path d="M124.014 449.872C112.424 446.612 65.3743 434.562 53.6743 432.222C53.5743 432.202 53.5643 432.262 53.6543 432.292C65.0743 435.772 112.214 447.442 123.964 450.062C124.214 450.122 124.254 449.942 124.014 449.872Z" fill="white"/>
<path d="M102.344 421.912C97.9743 419.882 92.1843 419.162 87.8443 421.532C87.6743 421.622 87.8143 421.862 87.9743 421.852C92.8643 421.582 97.3243 421.742 102.184 422.482C102.524 422.532 102.664 422.052 102.354 421.912H102.344Z" fill="white"/>
<path d="M105.144 424.752C100.774 422.722 94.9844 422.002 90.6444 424.372C90.4744 424.462 90.6144 424.702 90.7744 424.692C95.6644 424.422 100.124 424.582 104.984 425.322C105.324 425.372 105.464 424.892 105.154 424.752H105.144Z" fill="white"/>
<path d="M107.954 427.592C103.584 425.562 97.7943 424.842 93.4543 427.212C93.2843 427.302 93.4243 427.542 93.5843 427.532C98.4743 427.262 102.934 427.422 107.794 428.162C108.134 428.212 108.274 427.732 107.964 427.592H107.954Z" fill="white"/>
<path d="M125.804 450.542C126.924 451.332 125.594 455.422 124.614 455.532C123.634 455.642 48.2943 436.072 47.0843 435.462C45.8743 434.852 47.5243 430.372 49.0643 430.512C50.6143 430.652 125.804 450.542 125.804 450.542Z" fill="#FFC727"/>
<path d="M63.5243 419.852C59.1443 416.062 53.2543 422.862 57.6443 426.652C62.0243 430.442 67.9143 423.642 63.5243 419.852Z" fill="white"/>
<path d="M58.8444 399.222L109.314 411.952C109.314 411.952 156.364 327.052 155.314 305.472C153.864 275.672 118.914 184.162 118.914 184.162H77.0744C77.0744 184.162 104.844 283.112 105.204 299.762C105.394 308.472 58.8544 399.222 58.8544 399.222H58.8444Z" fill="#37474F"/>
<path d="M84.7406 394.668C88.1043 395.53 91.3871 396.402 94.4374 397.233C93.0105 396.861 91.5531 396.478 90.0896 396.092C88.3 395.619 86.5024 395.14 84.7406 394.668Z" fill="#263238" stroke="#222222"/>
<path d="M108.198 278.627L108.29 279.011H108.3C108.542 280.014 108.794 281.021 109.047 282.03C110.472 287.711 111.919 293.477 111.565 299.221L111.565 299.221C111.211 305.025 108.709 310.375 106.221 315.697C105.878 316.429 105.536 317.161 105.2 317.893C99.0803 331.212 92.9306 344.511 86.7708 357.801C84.7214 362.221 83.2438 365.511 81.9394 368.416C81.7716 368.789 81.6066 369.157 81.4437 369.519C83.4266 364.828 85.2171 360.642 88.6589 353.13C93.5685 342.42 98.5048 331.717 103.441 321.015C104.547 318.617 105.653 316.219 106.758 313.821C108.197 310.703 109.625 307.526 110.508 304.148C111.415 300.694 111.618 297.192 111.211 293.654C110.846 290.429 110.095 287.259 109.356 284.137C109.257 283.72 109.159 283.303 109.061 282.888C108.261 279.456 107.441 276.025 106.61 272.604C103.259 258.768 99.6879 244.994 95.967 231.261C95.1327 228.182 94.2854 225.106 93.4286 222.034C94.8365 226.983 96.2131 231.942 97.5721 236.904C101.36 250.737 104.869 264.661 108.198 278.627Z" fill="#263238" stroke="#222222"/>
<path d="M107.234 387.202C107.234 387.202 108.854 433.492 108.854 433.522C109.114 442.372 109.504 450.132 110.084 454.132C110.084 454.152 110.084 454.172 110.094 454.192C110.314 455.702 110.554 456.662 110.824 456.912C110.844 456.932 110.854 456.952 110.874 456.962C113.564 458.672 184.384 458.632 186.854 457.792C189.334 456.972 187.144 449.852 184.394 447.662C181.624 445.472 154.514 433.362 154.514 433.362L152.454 387.102L107.234 387.192V387.202Z" fill="#AD6359"/>
<path d="M108.514 424.021C108.514 424.021 108.844 433.491 108.844 433.521C109.104 442.371 109.494 450.131 110.074 454.131C110.074 454.151 110.074 454.171 110.084 454.191C110.384 455.681 110.644 456.661 110.814 456.911C110.834 456.931 110.844 456.951 110.864 456.961C113.554 458.671 184.374 458.631 186.844 457.791C189.324 456.971 187.134 449.851 184.384 447.661C181.614 445.471 154.504 433.361 154.504 433.361L154.294 423.711L108.504 424.011L108.514 424.021Z" fill="#EBEBEB"/>
<path d="M186.744 457.235L186.742 457.235C186.743 457.235 186.742 457.235 186.74 457.236C186.736 457.237 186.729 457.239 186.718 457.241C186.701 457.245 186.677 457.249 186.648 457.254C186.588 457.263 186.509 457.273 186.411 457.284C186.213 457.304 185.95 457.323 185.623 457.34C184.97 457.375 184.08 457.403 182.984 457.425C180.792 457.467 177.791 457.483 174.249 457.473C167.166 457.454 157.928 457.335 148.683 457.135C139.437 456.936 130.189 456.656 123.086 456.316C119.533 456.146 116.523 455.961 114.319 455.764C113.216 455.665 112.323 455.564 111.667 455.461C111.339 455.41 111.079 455.359 110.886 455.311C110.789 455.286 110.715 455.264 110.661 455.244C110.633 455.234 110.615 455.226 110.603 455.221C110.597 455.211 110.586 455.193 110.571 455.166C110.532 455.09 110.484 454.971 110.434 454.801C110.332 454.463 110.234 453.98 110.14 453.357C109.954 452.113 109.796 450.374 109.665 448.248C109.403 444.027 109.246 438.33 109.156 432.084L154.195 432.279L154.185 432.542L154.172 432.874L154.473 433.015L154.684 432.562C154.473 433.015 154.473 433.015 154.473 433.015L154.474 433.015L154.478 433.017L154.493 433.024L154.551 433.051L154.778 433.157C154.977 433.25 155.27 433.387 155.643 433.562C156.39 433.912 157.46 434.414 158.753 435.024C161.339 436.244 164.815 437.894 168.377 439.614C171.939 441.335 175.585 443.125 178.512 444.625C179.975 445.375 181.255 446.051 182.254 446.609C183.265 447.174 183.952 447.598 184.257 447.848C184.871 448.354 185.476 449.165 186 450.138C186.521 451.106 186.945 452.205 187.211 453.256C187.478 454.315 187.576 455.291 187.475 456.025C187.373 456.77 187.095 457.124 186.744 457.235Z" fill="#263238" stroke="#222222"/>
<path d="M186.124 454.932C174.094 454.452 125.534 453.642 113.604 454.082C113.504 454.082 113.504 454.152 113.604 454.162C125.514 454.902 174.084 455.312 186.114 455.142C186.364 455.142 186.374 454.952 186.114 454.942L186.124 454.932Z" fill="white"/>
<path d="M158.554 432.762C153.834 431.802 148.034 432.442 144.364 435.762C144.224 435.892 144.404 436.092 144.564 436.042C149.254 434.642 153.634 433.762 158.534 433.362C158.884 433.332 158.904 432.832 158.564 432.762H158.554Z" fill="white"/>
<path d="M161.944 434.882C157.224 433.922 151.424 434.562 147.754 437.882C147.614 438.012 147.794 438.212 147.954 438.162C152.644 436.762 157.024 435.882 161.924 435.482C162.274 435.452 162.294 434.952 161.954 434.882H161.944Z" fill="white"/>
<path d="M165.324 436.992C160.604 436.032 154.804 436.672 151.134 439.992C150.994 440.122 151.174 440.322 151.334 440.272C156.024 438.872 160.404 437.992 165.304 437.592C165.654 437.562 165.674 437.062 165.334 436.992H165.324Z" fill="white"/>
<path d="M188.024 455.172C189.294 455.682 188.954 459.972 188.024 460.302C187.094 460.632 109.274 459.082 107.954 458.762C106.634 458.442 107.194 453.702 108.734 453.482C110.274 453.262 188.024 455.172 188.024 455.172Z" fill="#FFC727"/>
<path d="M120.314 439.762C115.184 437.092 111.024 445.072 116.164 447.742C121.304 450.412 125.454 442.432 120.314 439.762Z" fill="white"/>
<path d="M114.654 184.122C114.654 184.122 114.654 184.132 114.644 184.162C114.464 185.022 104.024 226.262 102.724 227.042C101.254 227.912 140.624 280.902 145.304 306.912C148.294 323.552 155.104 420.532 155.104 420.532H104.944C104.944 420.532 100.024 338.182 98.3843 311.032C97.7443 300.502 56.7143 255.302 53.3443 220.542C52.3443 210.292 60.6643 184.122 60.6643 184.122H114.664H114.654Z" fill="#37474F"/>
<path d="M102.963 376.433C103.026 377.882 103.089 379.331 103.152 380.779C102.96 378.205 102.771 376.005 102.584 373.824L102.557 373.517C102.195 369.298 101.838 365.082 101.474 358.265C101.222 353.554 100.924 348.863 100.626 344.179C100.243 338.152 99.8599 332.136 99.5789 326.103C99.5891 326.19 99.5994 326.276 99.6096 326.363C100.158 331.015 100.702 335.636 101.046 340.367L101.046 340.368C101.918 352.364 102.44 364.399 102.963 376.433Z" fill="#263238" stroke="#222222"/>
<path d="M142.784 296.96L143.264 296.821C142.274 293.411 140.834 290.161 139.194 287.021C136.47 281.796 133.448 276.704 130.435 271.629C129.666 270.332 128.897 269.037 128.134 267.741C124.334 261.281 120.474 254.861 116.514 248.501M142.784 296.96C141.806 293.593 140.382 290.375 138.751 287.253L138.751 287.253C136.034 282.041 133.02 276.964 130.009 271.89C129.238 270.592 128.468 269.295 127.703 267.995L127.703 267.995C123.905 261.538 120.047 255.121 116.09 248.766M142.784 296.96C143.784 300.416 144.39 303.978 144.869 307.558C145.487 312.226 146.067 316.913 146.544 321.605M142.784 296.96L146.544 321.605M116.09 248.766L116.514 248.501M116.09 248.766C116.09 248.766 116.09 248.766 116.09 248.766L116.514 248.501M116.09 248.766C114.677 246.498 113.265 244.235 111.848 241.976M116.514 248.501C114.284 244.921 112.054 241.351 109.804 237.791M109.804 237.791L109.485 237.993C110.272 239.321 111.059 240.649 111.848 241.976M109.804 237.791L109.485 237.993C109.122 237.38 108.759 236.768 108.396 236.155C107.356 234.4 106.317 232.645 105.274 230.89C106.806 233.177 108.332 235.467 109.804 237.791ZM111.848 241.976C111.028 240.669 110.206 239.363 109.382 238.059C107.91 235.735 106.385 233.446 104.851 231.157C105.89 232.907 106.928 234.657 107.965 236.407C109.978 239.806 111.99 243.203 114.014 246.591C117.854 253.031 121.644 259.501 125.424 265.961M111.848 241.976C112.711 243.429 113.576 244.882 114.444 246.335L114.444 246.335C118.285 252.777 122.076 259.249 125.856 265.709M125.856 265.709C125.856 265.709 125.856 265.709 125.856 265.709L125.424 265.961M125.856 265.709L125.424 265.961M125.856 265.709C129.585 272.068 133.318 278.443 136.882 284.9L136.444 285.141C132.884 278.691 129.154 272.321 125.424 265.961M146.544 321.605C146.035 318.525 145.568 315.435 145.1 312.343C144.739 309.961 144.378 307.576 143.998 305.193L143.998 305.191C143.416 301.6 142.68 298.015 141.435 294.552L146.544 321.605ZM102.845 227.508C102.81 227.531 102.765 227.55 102.712 227.559L102.534 227.261C102.444 227.122 102.663 226.982 102.754 227.12C102.754 227.121 102.754 227.121 102.754 227.121C102.756 227.124 102.757 227.126 102.758 227.128C102.821 227.222 102.884 227.316 102.946 227.41C102.916 227.454 102.88 227.486 102.845 227.508ZM140.964 294.721C142.194 298.141 142.924 301.691 143.504 305.271C143.883 307.647 144.243 310.026 144.603 312.405C145.373 317.49 146.143 322.576 147.095 327.628L140.964 294.721Z" fill="#263238" stroke="#222222"/>
<path d="M130.143 411.711C128.23 411.696 126.305 411.677 124.426 411.653C128.248 411.647 131.932 411.681 135.275 411.741C133.604 411.735 131.879 411.725 130.143 411.711Z" fill="#263238" stroke="#222222"/>
<path d="M104.874 226.387C104.299 226.647 103.721 226.903 103.142 227.157C103.717 226.893 104.295 226.637 104.874 226.387Z" fill="#263238" stroke="#222222"/>
<path d="M102.029 213.496C102.658 209.326 103.005 205.14 103.192 200.95C103.15 202.951 103.038 204.954 102.866 206.959C102.607 209.943 102.209 212.92 101.721 215.88L101.721 215.881C101.668 216.206 101.597 216.553 101.52 216.92C101.512 216.961 101.503 217.002 101.494 217.043C101.426 217.369 101.355 217.71 101.292 218.051C101.153 218.814 101.049 219.623 101.127 220.372C101.166 220.771 101.242 221.159 101.37 221.507C101.157 220.989 101.077 220.317 101.098 219.518C101.122 218.597 101.28 217.57 101.472 216.524C101.536 216.175 101.604 215.823 101.672 215.472C101.804 214.788 101.935 214.112 102.029 213.496L102.029 213.496ZM109.453 211.859C109.283 212.761 108.846 214.541 108.177 216.414C108.222 216.268 108.266 216.12 108.31 215.973C109.425 212.191 110.005 207.965 110.122 206.656C110.284 204.866 110.433 203.107 110.56 201.346C110.439 204.907 110.095 208.451 109.453 211.859L109.453 211.859Z" fill="#263238" stroke="#222222"/>
<path d="M103.468 222.929C103.253 223.567 103.015 224.19 102.774 224.823C102.975 224.182 103.204 223.547 103.461 222.936L103.465 222.936C103.466 222.934 103.467 222.931 103.468 222.929Z" fill="#263238" stroke="#222222"/>
<path d="M107.459 364.102C106.054 345.88 104.63 326.644 104.083 318.169L104.083 318.169C103.844 314.494 103.572 310.733 102.535 307.114C101.513 303.538 99.6484 300.366 97.6735 297.329C97.2492 296.676 96.8246 296.024 96.4001 295.372C96.4872 295.504 96.5744 295.636 96.6615 295.767C98.3297 298.287 99.975 300.773 101.22 303.49L101.22 303.49C103.736 308.978 104.078 315.117 104.418 321.214C104.47 322.144 104.521 323.073 104.581 323.998L104.57 324.008L104.585 324.234C104.905 329.079 105.516 337.444 106.224 347.124C106.617 352.503 107.04 358.289 107.459 364.102ZM63.948 239.801C62.6867 237.068 61.558 234.287 60.6336 231.45C62.3828 236.663 64.7845 241.629 67.3319 246.464C74.2692 259.638 81.836 272.48 89.7611 285.068L89.7613 285.068C90.6362 286.455 91.517 287.841 92.4037 289.224C90.1021 285.666 87.8242 282.096 85.6107 278.48L85.6106 278.48C81.6938 272.085 77.8868 265.61 74.1996 259.085C74.0404 258.803 73.8811 258.521 73.7218 258.239C70.2964 252.176 66.8623 246.097 63.948 239.801Z" fill="#263238" stroke="#222222"/>
<path d="M76.0272 210.72C77.031 208.259 77.3998 205.665 77.5618 203.077C77.598 203.858 77.6046 204.639 77.5746 205.421C77.3987 209.759 75.8993 213.715 72.5119 216.431C71.1374 217.53 69.6303 218.406 68.0441 219.147C71.425 217.172 74.4816 214.513 76.0272 210.72Z" fill="#263238" stroke="#222222"/>
<path d="M112.574 130.821C115.794 138.971 136.444 168.231 149.914 169.621C163.654 171.041 193.394 150.991 196.544 148.921C198.604 147.561 184.664 123.571 181.464 125.581C172.844 131.001 152.564 144.641 148.684 142.791C140.534 138.891 134.254 133.481 122.524 125.761C114.344 120.381 109.024 121.831 112.574 130.821Z" fill="#AD6359"/>
<path d="M214.184 137.231C207.494 144.101 196.944 149.371 193.564 149.791C190.184 150.211 178.984 130.801 180.314 127.571C181.634 124.341 195.374 106.861 201.384 105.721C207.394 104.581 218.514 132.781 214.184 137.231Z" fill="#AD6359"/>
<path d="M205.074 110.471C205.074 110.471 198.624 113.351 196.544 114.441C194.774 115.361 191.204 117.531 191.924 120.971C192.624 124.281 197.394 122.681 197.734 122.571C197.454 122.741 192.624 125.701 193.704 129.081C194.824 132.591 199.334 130.171 199.634 130.011C199.514 130.151 209.404 122.981 211.844 124.601C214.604 126.431 212.444 138.541 212.474 138.621C212.474 138.621 234.044 121.481 232.584 117.561C230.834 112.871 216.394 123.841 216.394 123.841C216.394 123.841 219.234 120.631 218.464 117.941C218.064 116.561 215.514 115.971 215.514 115.971C215.514 115.971 217.514 114.151 216.684 111.801C216.034 109.921 213.564 109.621 213.564 109.621C213.564 109.621 231.274 103.621 227.014 98.8211C224.414 95.8911 206.324 104.001 201.394 105.731C201.394 105.731 205.604 107.391 205.094 110.471H205.074Z" fill="#AD6359"/>
<mask id="path-34-inside-1_0_1" fill="white">
<path d="M213.174 109.511C213.234 109.511 213.234 109.421 213.174 109.421C207.404 109.381 201.054 111.111 196.324 114.481C196.164 114.591 196.284 114.891 196.474 114.801C202.004 112.251 207.124 110.441 213.174 109.511Z"/>
</mask>
<path d="M213.174 109.511C213.234 109.511 213.234 109.421 213.174 109.421C207.404 109.381 201.054 111.111 196.324 114.481C196.164 114.591 196.284 114.891 196.474 114.801C202.004 112.251 207.124 110.441 213.174 109.511Z" fill="#263238"/>
<path d="M213.174 109.511V108.511H213.098L213.022 108.523L213.174 109.511ZM213.174 109.421L213.167 110.421H213.174V109.421ZM196.324 114.481L196.891 115.305L196.898 115.3L196.904 115.296L196.324 114.481ZM196.474 114.801L196.055 113.893L196.046 113.897L196.474 114.801ZM213.174 110.511C213.46 110.511 213.749 110.394 213.955 110.161C214.145 109.947 214.219 109.69 214.219 109.466C214.219 109.242 214.145 108.985 213.955 108.771C213.749 108.538 213.46 108.421 213.174 108.421V110.421C212.918 110.421 212.652 110.315 212.46 110.1C212.285 109.902 212.219 109.668 212.219 109.466C212.219 109.264 212.285 109.03 212.46 108.833C212.652 108.617 212.918 108.511 213.174 108.511V110.511ZM213.181 108.421C207.232 108.38 200.669 110.158 195.744 113.667L196.904 115.296C201.439 112.064 207.577 110.382 213.167 110.421L213.181 108.421ZM195.758 113.657C195.168 114.062 195.188 114.74 195.351 115.115C195.442 115.323 195.617 115.562 195.912 115.704C196.238 115.862 196.599 115.848 196.902 115.705L196.046 113.897C196.254 113.799 196.529 113.781 196.784 113.905C197.008 114.013 197.128 114.186 197.185 114.317C197.28 114.537 197.32 115.01 196.891 115.305L195.758 113.657ZM196.893 115.709C202.368 113.185 207.396 111.411 213.326 110.499L213.022 108.523C206.853 109.471 201.641 111.317 196.055 113.893L196.893 115.709Z" fill="#222222" mask="url(#path-34-inside-1_0_1)"/>
<mask id="path-36-inside-2_0_1" fill="white">
<path d="M215.584 115.911C215.654 115.911 215.634 115.791 215.564 115.791C209.614 115.791 202.514 117.921 197.524 122.451C197.354 122.611 197.354 122.921 197.564 122.751C201.114 119.991 210.134 116.711 215.584 115.911Z"/>
</mask>
<path d="M215.584 115.911C215.654 115.911 215.634 115.791 215.564 115.791C209.614 115.791 202.514 117.921 197.524 122.451C197.354 122.611 197.354 122.921 197.564 122.751C201.114 119.991 210.134 116.711 215.584 115.911Z" fill="#263238"/>
<path d="M215.584 115.911V114.911H215.511L215.439 114.922L215.584 115.911ZM197.524 122.451L196.852 121.711L196.845 121.717L196.839 121.723L197.524 122.451ZM197.564 122.751L196.95 121.962L196.943 121.968L196.935 121.974L197.564 122.751ZM215.584 116.911C215.932 116.911 216.276 116.737 216.474 116.414C216.639 116.142 216.643 115.867 216.613 115.687C216.562 115.378 216.269 114.791 215.564 114.791V116.791C214.929 116.791 214.682 116.264 214.64 116.015C214.615 115.865 214.615 115.62 214.767 115.371C214.951 115.07 215.271 114.911 215.584 114.911V116.911ZM215.564 114.791C209.414 114.791 202.059 116.984 196.852 121.711L198.196 123.191C202.97 118.858 209.815 116.791 215.564 116.791V114.791ZM196.839 121.723C196.563 121.983 196.377 122.382 196.404 122.79C196.415 122.963 196.518 123.574 197.171 123.76C197.706 123.913 198.103 123.601 198.193 123.528L196.935 121.974C196.96 121.954 197.029 121.901 197.141 121.858C197.253 121.816 197.465 121.764 197.719 121.837C198.319 122.007 198.393 122.562 198.399 122.659C198.41 122.816 198.373 122.925 198.351 122.978C198.324 123.041 198.281 123.112 198.21 123.179L196.839 121.723ZM198.178 123.54C199.829 122.257 202.854 120.789 206.212 119.533C209.552 118.283 213.097 117.287 215.729 116.9L215.439 114.922C212.621 115.335 208.932 116.379 205.511 117.659C202.109 118.933 198.849 120.485 196.95 121.962L198.178 123.54Z" fill="#222222" mask="url(#path-36-inside-2_0_1)"/>
<path d="M206.107 125.796C206.083 125.806 206.058 125.817 206.034 125.827C206.332 125.693 206.637 125.567 206.95 125.449C207.476 125.253 207.969 125.085 208.47 124.948C207.639 125.199 206.863 125.474 206.107 125.796Z" fill="#263238" stroke="#222222"/>
<path d="M193.504 129.039C193.212 128.041 193.459 127.006 193.916 126.1C193.478 127.007 193.259 128.045 193.556 129.016C193.92 130.225 194.894 131.073 196.206 131.051C196.742 131.055 197.292 130.956 197.825 130.793C197.806 130.824 197.787 130.855 197.768 130.886C197.265 131.046 196.746 131.141 196.194 131.141V131.141L196.187 131.141C195.599 131.149 194.958 130.96 194.481 130.574C193.993 130.17 193.681 129.633 193.504 129.039Z" fill="#263238" stroke="#222222"/>
<mask id="path-40-inside-3_0_1" fill="white">
<path d="M199.244 129.661C198.804 130.181 198.424 130.711 198.094 131.291C198.724 131.081 199.324 130.781 199.904 130.441L199.244 129.661Z"/>
</mask>
<path d="M199.244 129.661C198.804 130.181 198.424 130.711 198.094 131.291C198.724 131.081 199.324 130.781 199.904 130.441L199.244 129.661Z" fill="#263238"/>
<path d="M199.244 129.661L200.008 129.015L199.244 128.113L198.481 129.015L199.244 129.661ZM198.094 131.291L197.225 130.797L195.934 133.065L198.41 132.24L198.094 131.291ZM199.904 130.441L200.41 131.304L201.435 130.703L200.668 129.795L199.904 130.441ZM198.481 129.015C198.007 129.575 197.59 130.156 197.225 130.797L198.963 131.786C199.259 131.267 199.602 130.787 200.008 130.307L198.481 129.015ZM198.41 132.24C199.129 132 199.794 131.665 200.41 131.304L199.398 129.578C198.854 129.898 198.32 130.162 197.778 130.342L198.41 132.24ZM200.668 129.795L200.008 129.015L198.481 130.307L199.141 131.087L200.668 129.795Z" fill="#222222" mask="url(#path-40-inside-3_0_1)"/>
<mask id="path-42-inside-4_0_1" fill="white">
<path d="M196.364 122.491C195.954 122.821 195.574 123.171 195.214 123.531C195.754 123.531 196.304 123.451 196.824 123.281L196.374 122.491H196.364Z"/>
</mask>
<path d="M196.364 122.491C195.954 122.821 195.574 123.171 195.214 123.531C195.754 123.531 196.304 123.451 196.824 123.281L196.374 122.491H196.364Z" fill="#263238"/>
<path d="M196.364 122.491V121.491H196.012L195.737 121.712L196.364 122.491ZM195.214 123.531L194.507 122.824L192.8 124.531H195.214V123.531ZM196.824 123.281L197.135 124.232L198.299 123.851L197.693 122.786L196.824 123.281ZM196.374 122.491L197.243 121.996L196.955 121.491H196.374V122.491ZM195.737 121.712C195.293 122.069 194.886 122.445 194.507 122.824L195.921 124.238C196.262 123.898 196.615 123.573 196.991 123.27L195.737 121.712ZM195.214 124.531C195.851 124.531 196.506 124.437 197.135 124.232L196.513 122.331C196.102 122.465 195.657 122.531 195.214 122.531V124.531ZM197.693 122.786L197.243 121.996L195.505 122.986L195.955 123.776L197.693 122.786ZM196.374 121.491H196.364V123.491H196.374V121.491Z" fill="#222222" mask="url(#path-42-inside-4_0_1)"/>
<path d="M182.324 124.701C182.324 124.701 189.924 100.411 197.964 108.031C200.354 110.291 207.454 122.451 205.044 123.921C201.924 125.821 198.014 121.311 196.014 118.081C196.014 118.081 194.594 126.701 188.294 127.511C184.344 128.011 182.334 124.701 182.334 124.701H182.324Z" fill="#AD6359"/>
<path d="M205.13 120.576C205.047 120.318 204.958 120.06 204.864 119.804C204.967 120.06 205.067 120.319 205.164 120.58C205.38 121.199 205.559 121.793 205.595 122.458C205.613 122.785 205.584 123.114 205.462 123.411L205.457 123.424L205.452 123.436C205.405 123.571 205.347 123.68 205.212 123.848C205.098 123.976 204.968 124.084 204.835 124.17C204.272 124.522 203.599 124.585 202.952 124.497C202.304 124.38 201.714 124.121 201.146 123.799C200.026 123.13 199.109 122.218 198.289 121.231L198.289 121.231L198.285 121.227C198.052 120.953 197.828 120.672 197.613 120.385C197.835 120.663 198.064 120.934 198.303 121.196C199.137 122.13 200.07 123.081 201.184 123.714C201.723 124.032 202.346 124.285 202.965 124.385C203.576 124.483 204.229 124.437 204.783 124.095C205.43 123.75 205.55 123.034 205.529 122.455C205.506 121.844 205.323 121.158 205.13 120.576Z" fill="#263238" stroke="#222222"/>
<path d="M193.524 151.911L177.124 127.191C177.124 127.191 173.844 126.951 169.454 129.031C162.314 132.411 150.114 142.001 148.294 141.351C145.344 140.311 134.504 132.731 124.964 125.861C115.424 118.991 101.984 115.891 113.274 134.951C124.564 154.011 141.144 168.941 148.304 170.931C152.984 172.231 177.134 165.741 188.654 158.471C192.724 155.901 193.534 151.921 193.534 151.921L193.524 151.911Z" fill="#FFC727"/>
<path d="M173.716 137.745C173.716 137.745 173.716 137.745 173.715 137.745L173.87 137.65C173.87 137.65 173.871 137.65 173.871 137.65C173.467 136.99 173.057 136.337 172.65 135.688C172.098 134.809 171.55 133.935 171.022 133.053L173.716 137.745ZM173.716 137.745L173.871 137.65L173.716 137.745ZM181.956 150.866C181.956 150.866 181.957 150.866 181.957 150.867L182.136 150.752C182.136 150.752 182.135 150.752 182.135 150.752L181.956 150.866ZM183.654 153.948C183.654 153.949 183.654 153.949 183.654 153.949L184.078 153.72C184.078 153.72 184.078 153.72 184.078 153.72L183.654 153.948Z" fill="#263238" stroke="#222222"/>
<path opacity="0.1" d="M145.344 169.671C137.244 165.301 123.204 151.721 113.264 134.951C108.374 126.681 108.124 122.591 110.194 121.161L145.344 169.681V169.671Z" fill="black"/>
<path d="M54.3543 208.661L129.004 211.761C129.324 211.461 132.124 210.361 131.694 200.151C130.714 176.911 123.134 135.341 118.474 126.371C113.034 115.901 102.164 117.051 98.1343 119.361C93.9043 121.791 89.9743 125.031 84.9143 131.991C72.4843 149.101 58.7143 179.651 53.8743 196.531C51.8643 203.531 54.1943 208.441 54.3443 208.651L54.3543 208.661Z" fill="#FFC727"/>
<path opacity="0.1" d="M105.264 204.251C112.574 204.551 119.844 204.851 127.104 205.221L126.694 205.671L125.054 194.351L125.294 194.671C123.954 194.001 122.844 192.961 121.994 191.771C121.124 190.581 120.584 189.221 120.134 187.861C119.684 186.491 119.404 185.081 119.214 183.671C119.024 182.251 118.914 180.841 118.924 179.391L119.314 179.811L102.094 178.871L102.464 178.581L101.804 181.231C101.564 182.111 101.234 182.961 100.944 183.831C100.624 184.681 100.214 185.511 99.8343 186.341L99.1343 187.531C99.0143 187.731 98.9043 187.931 98.7843 188.121L98.3643 188.671C97.2843 190.151 95.8843 191.461 94.1843 192.231C92.4943 192.991 90.5743 193.251 88.7543 192.801L88.9543 192.721L83.1543 203.341L105.254 204.251H105.264ZM88.6543 192.571L88.7143 192.451L88.8543 192.481C90.5643 192.861 92.4043 192.551 93.9943 191.821C95.5943 191.071 96.9143 189.801 97.9243 188.361L98.3243 187.831C98.4443 187.641 98.5443 187.451 98.6543 187.251L99.3143 186.091C99.6643 185.271 100.054 184.471 100.354 183.631C100.614 182.771 100.934 181.941 101.154 181.071L101.764 178.451L101.834 178.151H102.134L119.354 179.001L119.744 179.021V179.421C119.744 180.791 119.854 182.191 120.044 183.561C120.234 184.931 120.524 186.291 120.954 187.601C121.394 188.901 121.914 190.181 122.704 191.281C123.474 192.381 124.464 193.311 125.654 193.921L125.864 194.021L125.894 194.241L127.474 205.561L127.544 206.031L127.064 206.011C119.684 205.631 112.314 205.171 104.984 204.711L83.1643 203.341L88.6543 192.561V192.571Z" fill="black"/>
<path d="M92.8843 121.081C74.5743 123.481 49.3243 130.651 41.2443 136.241C35.5843 140.151 22.7443 167.331 20.4343 175.441C19.4343 178.941 44.9543 191.081 46.9943 187.761C49.4443 183.781 60.7943 152.491 62.0243 152.351C63.3643 152.201 83.8543 141.111 96.6443 132.191C110.664 122.411 100.074 120.141 92.8943 121.081H92.8843Z" fill="#AD6359"/>
<path d="M19.1342 174.841L51.6242 184.141C51.6242 184.141 54.4042 181.091 55.6642 176.401C57.7142 168.771 58.7942 157.851 60.0842 156.401C62.1642 154.061 84.8942 141.601 94.8442 135.351C104.804 129.101 112.154 116.961 90.2542 120.241C68.3442 123.521 43.9942 131.781 38.4342 135.861C34.5142 138.741 25.3142 153.861 20.1142 164.111C17.9442 168.401 19.1242 174.841 19.1242 174.841H19.1342Z" fill="#FFC727"/>
<mask id="path-53-inside-5_0_1" fill="white">
<path d="M75.4743 146.791C77.4143 145.651 79.3743 144.531 81.3343 143.431C83.5343 142.201 85.7543 140.991 87.9943 139.821C90.1743 138.681 92.3943 137.651 94.6043 136.581C94.7643 136.501 94.9043 136.781 94.7443 136.861C91.8943 138.391 89.0743 139.991 86.2543 141.591C87.7643 141.071 89.2843 140.551 90.8143 140.081C90.9443 140.041 91.0043 140.231 90.8843 140.271C89.0643 140.921 87.2243 141.511 85.3743 142.081C84.6943 142.471 84.0143 142.851 83.3343 143.241C79.5443 145.381 73.6543 147.851 75.4743 146.791Z"/>
</mask>
<path d="M75.4743 146.791C77.4143 145.651 79.3743 144.531 81.3343 143.431C83.5343 142.201 85.7543 140.991 87.9943 139.821C90.1743 138.681 92.3943 137.651 94.6043 136.581C94.7643 136.501 94.9043 136.781 94.7443 136.861C91.8943 138.391 89.0743 139.991 86.2543 141.591C87.7643 141.071 89.2843 140.551 90.8143 140.081C90.9443 140.041 91.0043 140.231 90.8843 140.271C89.0643 140.921 87.2243 141.511 85.3743 142.081C84.6943 142.471 84.0143 142.851 83.3343 143.241C79.5443 145.381 73.6543 147.851 75.4743 146.791Z" fill="#263238"/>
<path d="M75.4743 146.791L75.9776 147.655L75.9809 147.653L75.4743 146.791ZM81.3343 143.431L80.8463 142.558L80.8449 142.559L81.3343 143.431ZM87.9943 139.821L88.4573 140.707L88.4577 140.707L87.9943 139.821ZM94.6043 136.581L95.0401 137.481L95.0515 137.476L94.6043 136.581ZM94.7443 136.861L94.2971 135.967L94.2841 135.973L94.2713 135.98L94.7443 136.861ZM86.2543 141.591L85.7608 140.721L86.5799 142.537L86.2543 141.591ZM90.8143 140.081L91.1079 141.037L91.1084 141.037L90.8143 140.081ZM90.8843 140.271L90.5681 139.322L90.558 139.326L90.5479 139.329L90.8843 140.271ZM85.3743 142.081L85.0798 141.125L84.9734 141.158L84.8768 141.214L85.3743 142.081ZM83.3343 143.241L83.826 144.112L83.8318 144.109L83.3343 143.241ZM75.9809 147.653C77.914 146.517 79.8681 145.401 81.8237 144.303L80.8449 142.559C78.8804 143.662 76.9146 144.785 74.9677 145.929L75.9809 147.653ZM81.8223 144.304C84.0161 143.077 86.2276 141.872 88.4573 140.707L87.5313 138.935C85.281 140.11 83.0524 141.325 80.8463 142.558L81.8223 144.304ZM88.4577 140.707C90.6194 139.577 92.8104 138.561 95.0401 137.481L94.1685 135.681C91.9782 136.742 89.7291 137.785 87.5309 138.935L88.4577 140.707ZM95.0515 137.476C94.7965 137.603 94.5065 137.591 94.2757 137.478C94.0764 137.38 93.9608 137.23 93.8999 137.108C93.839 136.987 93.7885 136.804 93.8299 136.586C93.8778 136.334 94.042 136.094 94.2971 135.967L95.1915 137.756C95.5265 137.588 95.7333 137.284 95.7949 136.959C95.85 136.668 95.7846 136.406 95.6887 136.214C95.5928 136.022 95.4222 135.812 95.1566 135.682C94.8596 135.536 94.4921 135.519 94.1571 135.687L95.0515 137.476ZM94.2713 135.98C91.4093 137.517 88.5791 139.122 85.7608 140.721L86.7478 142.461C89.5695 140.86 92.3793 139.266 95.2173 137.742L94.2713 135.98ZM86.5799 142.537C88.0907 142.016 89.596 141.501 91.1079 141.037L90.5206 139.125C88.9726 139.601 87.4379 140.126 85.9287 140.646L86.5799 142.537ZM91.1084 141.037C90.8884 141.105 90.626 141.088 90.3942 140.953C90.1824 140.83 90.0564 140.644 89.9969 140.47C89.9378 140.297 89.9226 140.073 90.0151 139.844C90.1176 139.591 90.3252 139.403 90.5681 139.322L91.2005 141.22C91.5033 141.119 91.7485 140.893 91.8694 140.594C91.9803 140.319 91.9645 140.043 91.8892 139.822C91.8134 139.601 91.6555 139.373 91.3997 139.224C91.1238 139.063 90.8052 139.038 90.5202 139.125L91.1084 141.037ZM90.5479 139.329C88.7477 139.972 86.9234 140.557 85.0798 141.125L85.6687 143.037C87.5252 142.465 89.3809 141.87 91.2206 141.213L90.5479 139.329ZM84.8768 141.214C84.5396 141.407 84.202 141.598 83.8616 141.791C83.522 141.983 83.1796 142.177 82.8368 142.374L83.8318 144.109C84.169 143.915 84.5066 143.724 84.847 143.531C85.1866 143.339 85.529 143.145 85.8718 142.949L84.8768 141.214ZM82.8426 142.37C80.9867 143.418 78.5995 144.556 76.8995 145.3C76.0397 145.676 75.3957 145.935 75.0916 146.034C75.0101 146.06 74.9976 146.061 75.0254 146.056C75.0361 146.054 75.0614 146.05 75.0966 146.047C75.1258 146.045 75.1987 146.041 75.293 146.055C75.3632 146.065 75.5998 146.105 75.8173 146.307C76.1054 146.575 76.17 146.939 76.116 147.22C76.0745 147.435 75.9722 147.576 75.9406 147.618C75.8974 147.675 75.8583 147.713 75.8418 147.729C75.8079 147.76 75.7868 147.774 75.7991 147.765C75.8188 147.751 75.8725 147.716 75.9776 147.655L74.971 145.927C74.8486 145.998 74.735 146.068 74.6429 146.133C74.5993 146.164 74.5361 146.211 74.4735 146.27C74.4425 146.299 74.3924 146.349 74.3413 146.417C74.3019 146.469 74.195 146.619 74.1521 146.842C74.0966 147.13 74.1629 147.5 74.4559 147.772C74.6782 147.979 74.9227 148.022 75.0039 148.034C75.184 148.06 75.3359 148.032 75.3726 148.025C75.4913 148.004 75.6154 147.967 75.7117 147.935C76.1185 147.803 76.8426 147.508 77.7016 147.132C79.4391 146.371 81.8919 145.204 83.826 144.112L82.8426 142.37Z" fill="#222222" mask="url(#path-53-inside-5_0_1)"/>
<mask id="path-55-inside-6_0_1" fill="white">
<path d="M22.1542 166.781C23.4442 167.011 24.7142 167.541 25.9642 167.921C27.0942 168.271 28.2342 168.601 29.3642 168.961C31.8242 169.751 34.2942 170.521 36.7542 171.321C39.2042 172.121 41.6642 172.901 44.1142 173.721C46.5442 174.541 49.0142 175.281 51.4042 176.231C51.4942 176.271 51.4442 176.411 51.3542 176.391C48.8242 175.921 46.3442 175.191 43.8642 174.511C41.4242 173.831 39.0042 173.081 36.5942 172.311C34.1442 171.521 31.7042 170.661 29.2842 169.781C28.1142 169.351 26.9642 168.891 25.8042 168.431C24.5842 167.951 23.2542 167.551 22.1142 166.901C22.0542 166.871 22.0742 166.761 22.1542 166.781Z"/>
</mask>
<path d="M22.1542 166.781C23.4442 167.011 24.7142 167.541 25.9642 167.921C27.0942 168.271 28.2342 168.601 29.3642 168.961C31.8242 169.751 34.2942 170.521 36.7542 171.321C39.2042 172.121 41.6642 172.901 44.1142 173.721C46.5442 174.541 49.0142 175.281 51.4042 176.231C51.4942 176.271 51.4442 176.411 51.3542 176.391C48.8242 175.921 46.3442 175.191 43.8642 174.511C41.4242 173.831 39.0042 173.081 36.5942 172.311C34.1442 171.521 31.7042 170.661 29.2842 169.781C28.1142 169.351 26.9642 168.891 25.8042 168.431C24.5842 167.951 23.2542 167.551 22.1142 166.901C22.0542 166.871 22.0742 166.761 22.1542 166.781Z" fill="#263238"/>
<path d="M22.1542 166.781L21.9117 167.751L21.945 167.76L21.9787 167.766L22.1542 166.781ZM25.9642 167.921L26.2601 166.966L26.2551 166.964L25.9642 167.921ZM29.3642 168.961L29.67 168.009L29.6678 168.008L29.3642 168.961ZM36.7542 171.321L37.0646 170.371L37.0635 170.37L36.7542 171.321ZM44.1142 173.721L44.434 172.774L44.4316 172.773L44.1142 173.721ZM51.4042 176.231L51.8104 175.317L51.7921 175.309L51.7736 175.302L51.4042 176.231ZM51.3542 176.391L51.5712 175.415L51.5541 175.411L51.5369 175.408L51.3542 176.391ZM43.8642 174.511L43.5958 175.475L43.5998 175.476L43.8642 174.511ZM36.5942 172.311L36.2873 173.263L36.2899 173.264L36.5942 172.311ZM29.2842 169.781L28.9393 170.72L28.9425 170.721L29.2842 169.781ZM25.8042 168.431L26.1729 167.502L26.1704 167.501L25.8042 168.431ZM22.1142 166.901L22.6096 166.033L22.5858 166.019L22.5614 166.007L22.1142 166.901ZM21.9787 167.766C23.1963 167.983 24.2848 168.456 25.6734 168.878L26.2551 166.964C25.1437 166.627 23.6921 166.04 22.3298 165.797L21.9787 167.766ZM25.6684 168.876C26.8305 169.236 27.9274 169.553 29.0607 169.914L29.6678 168.008C28.5411 167.649 27.358 167.306 26.2601 166.966L25.6684 168.876ZM29.0585 169.913C31.5332 170.708 33.9834 171.472 36.445 172.272L37.0635 170.37C34.605 169.571 32.1153 168.794 29.67 168.009L29.0585 169.913ZM36.4438 172.272C38.9057 173.076 41.3505 173.851 43.7968 174.67L44.4316 172.773C41.978 171.952 39.5027 171.167 37.0646 170.371L36.4438 172.272ZM43.7945 174.669C46.2684 175.504 48.6772 176.223 51.0349 177.16L51.7736 175.302C49.3512 174.339 46.82 173.579 44.434 172.774L43.7945 174.669ZM50.9981 177.145C50.7715 177.044 50.5907 176.852 50.5049 176.611C50.4265 176.391 50.4438 176.18 50.498 176.018C50.5963 175.723 50.9721 175.282 51.5712 175.415L51.1373 177.367C51.8264 177.521 52.2721 177.02 52.3954 176.65C52.5273 176.254 52.4419 175.598 51.8104 175.317L50.9981 177.145ZM51.5369 175.408C49.0598 174.948 46.6349 174.234 44.1287 173.547L43.5998 175.476C46.0535 176.148 48.5886 176.895 51.1716 177.374L51.5369 175.408ZM44.1327 173.548C41.7103 172.873 39.3039 172.127 36.8986 171.359L36.2899 173.264C38.7046 174.035 41.1382 174.79 43.5958 175.475L44.1327 173.548ZM36.9011 171.359C34.4676 170.575 32.0404 169.719 29.626 168.841L28.9425 170.721C31.3681 171.603 33.8209 172.468 36.2873 173.263L36.9011 171.359ZM29.6292 168.843C28.4739 168.418 27.3376 167.964 26.1729 167.502L25.4356 169.361C26.5908 169.819 27.7546 170.284 28.9393 170.72L29.6292 168.843ZM26.1704 167.501C24.8414 166.978 23.6669 166.635 22.6096 166.033L21.6189 167.77C22.8416 168.467 24.3271 168.925 25.4381 169.362L26.1704 167.501ZM22.5614 166.007C23.0546 166.253 23.1303 166.765 23.0493 167.075C23.0026 167.254 22.8859 167.472 22.653 167.624C22.4019 167.789 22.125 167.805 21.9117 167.751L22.3968 165.811C22.1435 165.748 21.8341 165.77 21.5586 165.95C21.3014 166.118 21.1684 166.362 21.1141 166.57C21.0182 166.938 21.1139 167.519 21.667 167.796L22.5614 166.007Z" fill="#222222" mask="url(#path-55-inside-6_0_1)"/>
<path d="M110.204 136.251C110.204 136.251 101.484 121.761 93.8343 120.051L82.4743 121.571C82.4743 121.571 80.1843 121.711 79.8743 120.201C79.1243 116.471 84.3243 110.891 92.5643 107.491C100.104 104.371 112.794 108.721 120.824 113.231C128.524 117.561 131.814 123.621 127.874 128.351C123.934 133.081 110.204 136.241 110.204 136.241V136.251Z" fill="#FFC727"/>
<path opacity="0.1" d="M111.694 133.931C111.694 133.931 122.944 129.631 124.974 125.861C127.004 122.091 119.954 116.171 115.154 113.311C107.724 108.891 102.114 107.981 96.4942 111.101C90.8742 114.221 111.694 133.931 111.694 133.931Z" fill="black"/>
<path d="M99.1157 108.595C99.0129 108.514 98.9278 108.446 98.8649 108.395C98.825 108.363 98.794 108.338 98.7732 108.321L98.7497 108.302L98.744 108.297L98.7426 108.296L98.7423 108.296L98.7423 108.296L98.4243 108.681C98.468 109.18 98.4681 109.18 98.4682 109.179L98.4685 109.179L98.4693 109.179L98.4718 109.179L98.4804 109.178L98.5119 109.175C98.539 109.173 98.5781 109.169 98.6278 109.163C98.7141 109.154 98.8324 109.14 98.9748 109.12L99.1157 108.595ZM99.1157 108.595C99.1432 108.617 99.1721 108.64 99.2022 108.663C99.3335 108.766 99.487 108.885 99.6556 109.013M99.1157 108.595L99.6556 109.013M99.6556 109.013C99.852 109.162 100.069 109.323 100.295 109.485C100.715 109.787 101.159 110.086 101.556 110.316C101.976 110.559 102.269 110.678 102.412 110.695C102.531 110.709 102.77 110.662 103.13 110.509C103.468 110.364 103.842 110.156 104.197 109.936C104.551 109.718 104.874 109.494 105.11 109.325C105.228 109.241 105.323 109.17 105.389 109.121C105.422 109.097 105.447 109.078 105.464 109.065L105.482 109.051L105.487 109.047L105.488 109.046L105.488 109.046L105.488 109.046L105.488 109.047L106.079 109.66C105.953 108.986 105.794 108.264 105.62 107.544C105.303 106.232 104.942 104.941 104.66 103.977C104.65 103.941 104.639 103.905 104.629 103.87C104.566 104.05 104.499 104.24 104.428 104.434C104.035 105.52 103.514 106.832 103.067 107.484C102.785 107.894 102.318 108.181 101.856 108.387C101.381 108.599 100.843 108.756 100.349 108.871C100.107 108.927 99.8725 108.974 99.6556 109.013ZM105.794 109.441L106.083 109.683C106.083 109.683 106.083 109.683 106.083 109.683C106.027 109.636 105.938 109.561 105.794 109.441ZM106.047 109.914C106.072 109.886 106.094 109.861 106.112 109.839C106.201 110.331 106.27 110.794 106.313 111.209C106.366 111.727 106.375 112.144 106.337 112.44C106.319 112.588 106.291 112.683 106.267 112.737C106.261 112.75 106.257 112.758 106.253 112.764C105.674 113.069 105.046 113.126 104.541 113.098C104.287 113.084 104.073 113.049 103.923 113.018C103.849 113.003 103.791 112.988 103.754 112.978C103.736 112.974 103.723 112.97 103.715 112.968L103.699 112.962L103.61 112.928C103.533 112.898 103.425 112.857 103.297 112.808C103.19 112.766 103.07 112.719 102.944 112.67C102.987 112.646 103.03 112.621 103.072 112.596C103.578 112.295 104.092 111.874 104.544 111.46C105 111.044 105.407 110.62 105.7 110.302C105.846 110.143 105.965 110.009 106.047 109.914ZM106.247 112.773C106.247 112.773 106.247 112.773 106.248 112.772L106.247 112.773Z" fill="#263238" stroke="#222222"/>
<path d="M125.534 103.761C125.064 107.721 127.504 111.261 130.984 111.671C134.454 112.081 137.654 109.201 138.114 105.241C138.584 101.281 136.144 97.7414 132.664 97.3314C129.194 96.9214 125.994 99.8014 125.534 103.761Z" fill="#455A64"/>
<path d="M123.464 103.772C122.944 108.182 125.654 112.112 129.524 112.572C133.384 113.022 136.944 109.822 137.464 105.422C137.984 101.012 135.274 97.0815 131.404 96.6215C127.544 96.1615 123.984 99.3715 123.464 103.772Z" fill="#C7C7C7"/>
<path d="M113.034 133.401C108.594 133.661 103.044 127.031 102.084 121.561C102.024 121.181 103.644 118.011 105.434 114.071C106.514 111.671 107.654 108.981 108.514 106.441L123.094 115.731C123.094 115.731 119.714 120.511 118.234 124.941C118.114 125.311 118.034 125.671 117.984 126.021C116.844 129.461 115.024 133.291 113.014 133.411L113.034 133.401Z" fill="#AD6359"/>
<path d="M109.348 116.458C108.647 113.158 108.923 109.743 109.273 107.489L122.403 115.861C122.327 115.975 122.237 116.11 122.136 116.264C121.794 116.786 121.322 117.529 120.803 118.412C119.769 120.172 118.536 122.51 117.78 124.773L117.78 124.774C117.692 125.039 117.617 125.314 117.564 125.584C117.22 125.498 116.862 125.387 116.494 125.245L116.494 125.245L116.489 125.243C112.098 123.601 110.128 120.125 109.348 116.458Z" fill="#263238" stroke="#222222"/>
<path d="M107.474 88.8014C104.734 94.3914 105.094 111.881 108.664 116.341C113.844 122.811 123.684 124.941 129.524 118.401C135.184 112.071 134.314 89.2814 130.194 85.0914C124.134 78.9114 111.524 80.5414 107.474 88.8014Z" fill="#AD6359"/>
<path d="M119.762 98.1744L119.696 98.1895C119.592 98.189 119.472 98.1339 119.385 98.0208C119.289 97.896 119.29 97.7809 119.355 97.6865L119.355 97.6862C119.737 97.1349 120.159 96.8408 120.805 96.6514L120.805 96.6514L120.81 96.6499C121.458 96.4526 121.967 96.4599 122.32 96.7842C122.34 96.8043 122.377 96.865 122.388 96.9578C122.393 97.0007 122.391 97.0382 122.386 97.0661C122.381 97.0882 122.375 97.0993 122.373 97.1028C122.141 97.3987 121.89 97.4805 121.405 97.6387C121.34 97.6599 121.27 97.6825 121.196 97.7072L121.196 97.7072L121.193 97.7082C121.039 97.7607 120.896 97.8122 120.758 97.8616C120.416 97.9843 120.109 98.0942 119.762 98.1744Z" fill="#263238" stroke="#222222"/>
<path d="M131.907 98.4101L131.609 98.354L131.314 98.792C131.133 98.7409 130.957 98.6839 130.778 98.6264C130.626 98.5774 130.473 98.528 130.314 98.4815L130.457 98.0023C130.457 98.0022 130.457 98.0021 130.456 98.002C130.372 97.9768 130.293 97.9541 130.22 97.9329C129.746 97.7961 129.494 97.7235 129.253 97.437C129.252 97.4345 129.245 97.4239 129.24 97.4012C129.233 97.3728 129.229 97.3346 129.233 97.2909C129.236 97.2473 129.246 97.2069 129.26 97.1747C129.273 97.1417 129.286 97.1273 129.288 97.125C129.629 96.7835 130.138 96.7555 130.8 96.9257L130.803 96.9265C131.46 97.0907 131.896 97.369 132.281 97.8963L132.281 97.8963L132.282 97.8983C132.355 97.9974 132.357 98.116 132.269 98.2402C132.173 98.3752 132.027 98.4326 131.907 98.4101Z" fill="#263238" stroke="#222222"/>
<mask id="path-67-inside-7_0_1" fill="white">
<path d="M121.064 112.562C121.344 112.842 121.614 113.232 122.034 113.272C122.444 113.312 122.924 113.142 123.304 113.002C123.344 112.992 123.374 113.032 123.354 113.062C123.034 113.512 122.384 113.772 121.844 113.662C121.314 113.552 121.064 113.092 120.944 112.602C120.924 112.532 121.014 112.512 121.054 112.552L121.064 112.562Z"/>
</mask>
<path d="M121.064 112.562C121.344 112.842 121.614 113.232 122.034 113.272C122.444 113.312 122.924 113.142 123.304 113.002C123.344 112.992 123.374 113.032 123.354 113.062C123.034 113.512 122.384 113.772 121.844 113.662C121.314 113.552 121.064 113.092 120.944 112.602C120.924 112.532 121.014 112.512 121.054 112.552L121.064 112.562Z" fill="#263238"/>
<path d="M121.064 112.562L120.357 113.268L120.357 113.269L121.064 112.562ZM122.034 113.272L122.131 112.276L122.129 112.276L122.034 113.272ZM123.304 113.002L123.062 112.031L123.009 112.045L122.959 112.063L123.304 113.002ZM123.354 113.062L124.169 113.641L124.178 113.629L124.186 113.616L123.354 113.062ZM121.844 113.662L121.641 114.641L121.645 114.642L121.844 113.662ZM120.944 112.602L121.916 112.364L121.911 112.345L121.906 112.327L120.944 112.602ZM121.054 112.552L121.762 111.845L121.761 111.845L121.054 112.552ZM120.357 113.269C120.41 113.322 120.457 113.374 120.543 113.466C120.618 113.547 120.718 113.653 120.833 113.755C121.062 113.958 121.428 114.218 121.94 114.267L122.129 112.276C122.221 112.285 122.242 112.331 122.16 112.259C122.121 112.223 122.074 112.176 122.007 112.104C121.95 112.043 121.858 111.941 121.771 111.855L120.357 113.269ZM121.937 114.267C122.617 114.333 123.32 114.062 123.65 113.94L122.959 112.063C122.529 112.222 122.272 112.29 122.131 112.276L121.937 114.267ZM123.547 113.972C123.176 114.065 122.798 113.925 122.571 113.641C122.347 113.362 122.258 112.903 122.522 112.507L124.186 113.616C124.471 113.19 124.376 112.696 124.133 112.392C123.886 112.084 123.473 111.929 123.062 112.031L123.547 113.972ZM122.539 112.482C122.446 112.614 122.192 112.712 122.044 112.682L121.645 114.642C122.577 114.831 123.623 114.41 124.169 113.641L122.539 112.482ZM122.048 112.683C122.039 112.681 122.043 112.681 122.05 112.685C122.056 112.689 122.051 112.688 122.038 112.671C122.006 112.629 121.958 112.535 121.916 112.364L119.973 112.84C120.12 113.438 120.524 114.409 121.641 114.641L122.048 112.683ZM121.906 112.327C121.962 112.523 121.964 112.791 121.819 113.05C121.682 113.293 121.473 113.421 121.307 113.479C121.021 113.579 120.635 113.547 120.347 113.259L121.761 111.845C121.434 111.517 120.983 111.474 120.647 111.592C120.456 111.658 120.226 111.802 120.076 112.068C119.918 112.349 119.917 112.646 119.983 112.876L121.906 112.327ZM120.347 113.258L120.357 113.268L121.772 111.855L121.762 111.845L120.347 113.258Z" fill="#222222" mask="url(#path-67-inside-7_0_1)"/>
<path d="M129.012 108.318C128.998 108.319 128.964 108.325 128.921 108.347L128.924 108.615L128.744 108.54C128.719 108.6 128.714 108.653 128.715 108.69C128.715 108.691 128.715 108.692 128.715 108.693L128.715 108.69L128.715 108.69C128.713 108.635 128.711 108.58 128.709 108.525L128.223 108.324C128.152 108.294 128.077 108.262 127.999 108.23C127.793 108.143 127.569 108.048 127.342 107.962C127.321 107.954 127.3 107.946 127.279 107.938C127.182 107.903 127.093 107.872 127.011 107.846C127.016 107.949 127.022 108.061 127.029 108.181C127.036 108.291 127.044 108.407 127.052 108.526L127.234 108.172L127.734 108.15L127.734 108.15L127.734 108.15L127.734 108.151L127.734 108.155L127.735 108.167L127.736 108.213C127.738 108.254 127.74 108.312 127.743 108.385C127.743 108.394 127.743 108.404 127.744 108.414C128.351 108.684 129.229 109.013 129.214 108.672C129.09 105.19 128.951 101.363 128.246 97.8436C128.294 99.2717 128.417 100.703 128.545 102.149C128.553 102.239 128.561 102.329 128.569 102.419C128.729 104.212 128.89 106.029 128.914 107.855L128.92 108.307C128.95 108.312 128.975 108.316 128.996 108.317C129.003 108.318 129.008 108.318 129.012 108.318ZM129.012 108.318C129.016 108.318 129.018 108.318 129.018 108.318C129.018 108.317 129.016 108.317 129.012 108.318ZM127.244 110.702L127.134 110.685V110.572V110.462V110.456V110.352V110.352V110.352V110.351V110.351V110.351V110.351V110.351V110.351V110.351V110.351V110.35V110.35V110.35V110.35V110.35V110.35V110.35V110.35V110.35V110.349V110.349V110.349V110.349V110.349V110.349V110.349V110.349V110.348V110.348V110.348V110.348V110.348V110.348V110.348V110.348V110.348V110.347V110.347V110.347V110.347V110.347V110.347V110.347V110.347V110.346V110.346V110.346V110.346V110.346V110.346V110.346V110.346V110.346V110.345V110.345V110.345V110.345V110.345V110.345V110.345V110.345V110.345V110.344V110.344V110.344V110.344V110.344V110.344V110.344V110.344V110.343V110.343V110.343V110.343V110.343V110.343V110.343V110.343V110.343V110.342V110.342V110.342V110.342V110.342V110.342V110.342V110.342V110.342C127.143 110.253 127.144 110.15 127.142 110.057C127.14 109.938 127.134 109.795 127.125 109.64C127.112 109.394 127.092 109.107 127.072 108.821C127.068 108.762 127.064 108.703 127.06 108.644L125.054 110.777C125.497 110.869 125.958 110.902 126.455 110.869C126.458 110.869 126.461 110.868 126.464 110.868C126.538 110.863 126.612 110.857 126.686 110.849L126.712 110.846L126.744 110.843L126.984 110.818L127.004 110.962M127.244 110.702H127.134V110.802L126.99 110.817L127.004 110.962M127.244 110.702C127.224 110.832 127.144 110.942 127.004 110.962M127.244 110.702V110.572V110.462C127.274 109.924 127.265 109.222 127.253 108.738L126.744 110.992C126.799 110.992 126.847 110.984 126.898 110.976C126.931 110.971 126.966 110.966 127.004 110.962M128.033 96.8644C127.988 96.8908 127.94 96.9075 127.896 96.914C127.845 96.9214 127.786 96.9192 127.725 96.9003C127.725 96.7859 127.724 96.6714 127.724 96.5569C127.724 96.5555 127.724 96.554 127.724 96.5525C127.724 96.5456 127.724 96.5387 127.724 96.5318C127.724 96.4018 127.914 96.3718 127.944 96.5018C127.947 96.5118 127.949 96.5218 127.952 96.5318C127.952 96.532 127.952 96.5322 127.952 96.5324C127.98 96.6426 128.006 96.7533 128.033 96.8644ZM127.747 97.9016C128.394 101.108 128.564 104.588 128.685 107.858C128.69 107.989 128.694 108.119 128.699 108.249C128.646 108.233 128.587 108.213 128.523 108.191C128.453 108.166 128.382 108.139 128.311 108.111C127.949 107.967 127.593 107.794 127.463 107.727L127.001 107.489C127.001 107.451 127.001 107.42 127.003 107.396C127.004 107.382 127.005 107.375 127.005 107.375C127.005 107.375 127.004 107.382 127.001 107.393L127.001 107.393C126.999 107.401 126.992 107.433 126.971 107.474L126.697 107.333L126.714 107.709C126.693 107.717 126.671 107.723 126.647 107.729L127.747 97.9016ZM126.433 110.513C125.995 110.54 125.551 110.512 125.13 110.423L126.75 110.329C126.75 110.337 126.75 110.344 126.749 110.352C126.748 110.38 126.747 110.407 126.745 110.434L126.744 110.448V110.462V110.492H126.69L126.65 110.501L126.636 110.504C126.609 110.51 126.566 110.512 126.464 110.512H126.449L126.433 110.513ZM126.758 108.985C126.766 109.399 126.769 109.897 126.751 110.312L126.735 108.193L126.735 108.194L126.735 108.194L126.735 108.197L126.735 108.208L126.737 108.252C126.739 108.291 126.741 108.348 126.743 108.418C126.748 108.56 126.754 108.759 126.758 108.985Z" fill="#263238" stroke="#222222"/>
<path d="M123.84 111.486L123.84 111.486L123.833 111.488C123.501 111.602 123.167 111.628 122.833 111.531C122.535 111.444 122.43 111.293 122.381 111.119C122.321 110.902 122.342 110.603 122.429 110.266L122.429 110.266L122.429 110.263C122.469 110.104 122.522 109.949 122.577 109.809C122.72 109.911 122.891 110.023 123.089 110.138C123.551 110.406 124.162 110.688 124.899 110.867C124.6 111.116 124.233 111.358 123.84 111.486Z" fill="#263238" stroke="#222222"/>
<path d="M123.994 111.962C123.584 112.102 123.144 112.142 122.694 112.012C121.764 111.742 121.754 110.882 121.944 110.142C122.954 110.272 123.934 110.972 123.994 111.962Z" fill="#FF97B8"/>
<mask id="path-72-inside-8_0_1" fill="white">
<path d="M119.154 101.222C119.474 101.132 119.804 101.122 120.134 101.122C120.464 101.132 120.804 101.192 121.124 101.302C121.444 101.422 121.764 101.592 122.044 101.832C122.314 102.082 122.524 102.392 122.664 102.732L122.914 103.352L122.254 103.202C121.814 103.102 121.314 103.032 120.844 103.032C120.364 103.032 119.884 103.092 119.414 103.342C119.714 102.892 120.254 102.622 120.784 102.512C121.324 102.402 121.864 102.412 122.424 102.512L122.014 102.982C121.804 102.492 121.414 102.102 120.894 101.832C120.384 101.562 119.784 101.362 119.154 101.212V101.222Z"/>
</mask>
<path d="M119.154 101.222C119.474 101.132 119.804 101.122 120.134 101.122C120.464 101.132 120.804 101.192 121.124 101.302C121.444 101.422 121.764 101.592 122.044 101.832C122.314 102.082 122.524 102.392 122.664 102.732L122.914 103.352L122.254 103.202C121.814 103.102 121.314 103.032 120.844 103.032C120.364 103.032 119.884 103.092 119.414 103.342C119.714 102.892 120.254 102.622 120.784 102.512C121.324 102.402 121.864 102.412 122.424 102.512L122.014 102.982C121.804 102.492 121.414 102.102 120.894 101.832C120.384 101.562 119.784 101.362 119.154 101.212V101.222Z" fill="#263238"/>
<path d="M119.154 101.222H118.154V102.542L119.425 102.184L119.154 101.222ZM120.134 101.122L120.165 100.122L120.15 100.122H120.134V101.122ZM121.124 101.302L121.476 100.365L121.463 100.36L121.449 100.356L121.124 101.302ZM122.044 101.832L122.724 101.098L122.71 101.085L122.695 101.072L122.044 101.832ZM122.664 102.732L123.592 102.358L123.589 102.351L122.664 102.732ZM122.914 103.352L122.693 104.327L124.557 104.75L123.842 102.978L122.914 103.352ZM122.254 103.202L122.476 102.226L122.476 102.226L122.254 103.202ZM119.414 103.342L118.582 102.787L119.884 104.224L119.414 103.342ZM120.784 102.512L120.585 101.532L120.581 101.532L120.784 102.512ZM122.424 102.512L123.178 103.169L124.339 101.838L122.6 101.527L122.424 102.512ZM122.014 102.982L121.095 103.376L121.722 104.838L122.768 103.639L122.014 102.982ZM120.894 101.832L120.427 102.715L120.434 102.719L120.894 101.832ZM119.154 101.212L119.386 100.239L118.154 99.9455V101.212H119.154ZM119.425 102.184C119.601 102.135 119.81 102.122 120.134 102.122V100.122C119.798 100.122 119.347 100.128 118.884 100.259L119.425 102.184ZM120.104 102.121C120.337 102.128 120.577 102.171 120.799 102.247L121.449 100.356C121.032 100.212 120.592 100.135 120.165 100.122L120.104 102.121ZM120.773 102.238C121.01 102.327 121.222 102.443 121.394 102.591L122.695 101.072C122.307 100.74 121.879 100.516 121.476 100.365L120.773 102.238ZM121.365 102.565C121.523 102.711 121.652 102.899 121.74 103.112L123.589 102.351C123.397 101.884 123.106 101.452 122.724 101.098L121.365 102.565ZM121.737 103.106L121.987 103.726L123.842 102.978L123.592 102.358L121.737 103.106ZM123.136 102.376L122.476 102.226L122.033 104.177L122.693 104.327L123.136 102.376ZM122.476 102.226C121.982 102.114 121.406 102.032 120.844 102.032V104.032C121.223 104.032 121.647 104.089 122.033 104.177L122.476 102.226ZM120.844 102.032C120.281 102.032 119.617 102.101 118.945 102.459L119.884 104.224C120.152 104.082 120.448 104.032 120.844 104.032V102.032ZM120.246 103.896C120.349 103.743 120.606 103.57 120.988 103.491L120.581 101.532C119.903 101.673 119.08 102.04 118.582 102.787L120.246 103.896ZM120.984 103.491C121.379 103.411 121.79 103.414 122.249 103.496L122.6 101.527C121.939 101.409 121.27 101.392 120.585 101.532L120.984 103.491ZM121.671 101.854L121.261 102.324L122.768 103.639L123.178 103.169L121.671 101.854ZM122.934 102.588C122.618 101.851 122.045 101.302 121.355 100.944L120.434 102.719C120.784 102.901 120.991 103.132 121.095 103.376L122.934 102.588ZM121.362 100.948C120.753 100.625 120.065 100.4 119.386 100.239L118.923 102.184C119.504 102.323 120.016 102.498 120.427 102.715L121.362 100.948ZM118.154 101.212V101.222H120.154V101.212H118.154Z" fill="#222222" mask="url(#path-72-inside-8_0_1)"/>
<mask id="path-74-inside-9_0_1" fill="white">
<path d="M120.734 104.092C121.254 103.982 121.744 103.962 122.234 103.722C122.344 103.672 122.784 103.422 122.774 103.332C122.774 103.102 122.684 102.832 122.604 102.582C122.734 102.812 122.894 103.032 122.924 103.322C122.854 103.562 122.644 103.792 122.324 103.922C121.814 104.132 121.184 104.152 120.734 104.082V104.092Z"/>
</mask>
<path d="M120.734 104.092C121.254 103.982 121.744 103.962 122.234 103.722C122.344 103.672 122.784 103.422 122.774 103.332C122.774 103.102 122.684 102.832 122.604 102.582C122.734 102.812 122.894 103.032 122.924 103.322C122.854 103.562 122.644 103.792 122.324 103.922C121.814 104.132 121.184 104.152 120.734 104.082V104.092Z" fill="#263238"/>
<path d="M120.734 104.092H119.734V105.325L120.941 105.07L120.734 104.092ZM122.234 103.722L121.821 102.811L121.807 102.817L121.795 102.823L122.234 103.722ZM122.774 103.332H121.774V103.387L121.78 103.442L122.774 103.332ZM122.604 102.582L123.475 102.089L121.652 102.886L122.604 102.582ZM122.924 103.322L123.884 103.602L123.939 103.413L123.919 103.219L122.924 103.322ZM122.324 103.922L121.948 102.995L121.944 102.997L122.324 103.922ZM120.734 104.082L120.888 103.093L119.734 102.914V104.082H120.734ZM120.941 105.07C121.048 105.047 121.157 105.028 121.283 105.007C121.403 104.988 121.546 104.964 121.688 104.937C121.979 104.88 122.319 104.794 122.674 104.62L121.795 102.823C121.66 102.889 121.51 102.933 121.303 102.974C121.196 102.995 121.089 103.012 120.955 103.035C120.828 103.056 120.681 103.081 120.527 103.113L120.941 105.07ZM122.648 104.632C122.761 104.58 122.944 104.478 123.096 104.379C123.172 104.329 123.277 104.257 123.373 104.171C123.419 104.131 123.496 104.059 123.568 103.96C123.609 103.902 123.813 103.624 123.768 103.221L121.78 103.442C121.758 103.236 121.805 103.073 121.842 102.981C121.879 102.886 121.924 102.82 121.949 102.785C121.999 102.716 122.042 102.679 122.046 102.675C122.059 102.664 122.049 102.674 122.003 102.704C121.963 102.73 121.917 102.757 121.876 102.781C121.828 102.808 121.809 102.816 121.821 102.811L122.648 104.632ZM123.774 103.332C123.774 102.909 123.618 102.467 123.557 102.277L121.652 102.886C121.696 103.023 121.727 103.12 121.75 103.211C121.774 103.304 121.774 103.337 121.774 103.332H123.774ZM121.734 103.074C121.771 103.14 121.818 103.217 121.843 103.26C121.873 103.312 121.893 103.347 121.907 103.376C121.935 103.432 121.931 103.439 121.93 103.424L123.919 103.219C123.861 102.66 123.531 102.188 123.475 102.089L121.734 103.074ZM121.964 103.042C121.972 103.014 121.982 102.994 121.989 102.982C121.997 102.97 122.002 102.965 122.002 102.964C122.003 102.963 121.989 102.979 121.948 102.995L122.701 104.848C123.248 104.626 123.713 104.188 123.884 103.602L121.964 103.042ZM121.944 102.997C121.647 103.119 121.212 103.144 120.888 103.093L120.581 105.07C121.157 105.159 121.982 105.144 122.705 104.846L121.944 102.997ZM119.734 104.082V104.092H121.734V104.082H119.734Z" fill="#222222" mask="url(#path-74-inside-9_0_1)"/>
<mask id="path-76-inside-10_0_1" fill="white">
<path d="M132.114 101.581C131.834 101.491 131.554 101.481 131.264 101.481C130.974 101.501 130.684 101.551 130.394 101.671C130.114 101.791 129.834 101.961 129.594 102.211C129.354 102.461 129.164 102.771 129.044 103.121L128.824 103.741L129.394 103.591C129.784 103.491 130.214 103.421 130.634 103.411C131.054 103.411 131.474 103.461 131.874 103.711C131.614 103.271 131.144 102.991 130.684 102.891C130.214 102.781 129.744 102.791 129.254 102.911L129.614 103.381C129.804 102.891 130.144 102.501 130.594 102.231C131.044 101.961 131.564 101.751 132.114 101.601V101.581Z"/>
</mask>
<path d="M132.114 101.581C131.834 101.491 131.554 101.481 131.264 101.481C130.974 101.501 130.684 101.551 130.394 101.671C130.114 101.791 129.834 101.961 129.594 102.211C129.354 102.461 129.164 102.771 129.044 103.121L128.824 103.741L129.394 103.591C129.784 103.491 130.214 103.421 130.634 103.411C131.054 103.411 131.474 103.461 131.874 103.711C131.614 103.271 131.144 102.991 130.684 102.891C130.214 102.781 129.744 102.791 129.254 102.911L129.614 103.381C129.804 102.891 130.144 102.501 130.594 102.231C131.044 101.961 131.564 101.751 132.114 101.601V101.581Z" fill="#263238"/>
<path d="M132.114 101.581H133.114V100.852L132.42 100.629L132.114 101.581ZM131.264 101.481V100.481H131.23L131.196 100.484L131.264 101.481ZM130.394 101.671L130.012 100.747L130.001 100.752L130.394 101.671ZM129.044 103.121L129.987 103.456L129.99 103.446L129.044 103.121ZM128.824 103.741L127.882 103.407L127.249 105.19L129.079 104.709L128.824 103.741ZM129.394 103.591L129.146 102.623L129.14 102.624L129.394 103.591ZM130.634 103.411V102.411H130.623L130.611 102.412L130.634 103.411ZM131.874 103.711L131.344 104.559L132.735 103.203L131.874 103.711ZM130.684 102.891L130.457 103.865L130.464 103.867L130.472 103.869L130.684 102.891ZM129.254 102.911L129.017 101.94L127.53 102.304L128.461 103.52L129.254 102.911ZM129.614 103.381L128.821 103.99L129.903 105.403L130.547 103.743L129.614 103.381ZM132.114 101.601L132.378 102.566L133.114 102.365V101.601H132.114ZM132.42 100.629C131.981 100.488 131.565 100.481 131.264 100.481V102.481C131.544 102.481 131.688 102.495 131.808 102.533L132.42 100.629ZM131.196 100.484C130.837 100.509 130.432 100.574 130.012 100.747L130.777 102.595C130.936 102.529 131.112 102.494 131.333 102.479L131.196 100.484ZM130.001 100.752C129.629 100.912 129.227 101.15 128.873 101.519L130.316 102.904C130.442 102.773 130.6 102.671 130.788 102.591L130.001 100.752ZM128.873 101.519C128.53 101.876 128.265 102.313 128.099 102.797L129.99 103.446C130.064 103.23 130.179 103.047 130.316 102.904L128.873 101.519ZM128.102 102.787L127.882 103.407L129.767 104.076L129.987 103.456L128.102 102.787ZM129.079 104.709L129.649 104.559L129.14 102.624L128.57 102.774L129.079 104.709ZM129.643 104.56C129.975 104.475 130.328 104.419 130.658 104.411L130.611 102.412C130.101 102.424 129.594 102.508 129.146 102.623L129.643 104.56ZM130.634 104.411C130.978 104.411 131.177 104.455 131.344 104.559L132.404 102.863C131.772 102.468 131.13 102.411 130.634 102.411V104.411ZM132.735 103.203C132.305 102.475 131.569 102.06 130.897 101.914L130.472 103.869C130.72 103.923 130.924 104.068 131.014 104.22L132.735 103.203ZM130.912 101.918C130.275 101.769 129.645 101.786 129.017 101.94L129.492 103.883C129.844 103.797 130.154 103.794 130.457 103.865L130.912 101.918ZM128.461 103.52L128.821 103.99L130.408 102.773L130.048 102.303L128.461 103.52ZM130.547 103.743C130.652 103.471 130.839 103.251 131.109 103.089L130.08 101.374C129.45 101.752 128.957 102.312 128.682 103.02L130.547 103.743ZM131.109 103.089C131.466 102.874 131.899 102.697 132.378 102.566L131.851 100.637C131.23 100.806 130.622 101.048 130.08 101.374L131.109 103.089ZM133.114 101.601V101.581H131.114V101.601H133.114Z" fill="#222222" mask="url(#path-76-inside-10_0_1)"/>
<mask id="path-78-inside-11_0_1" fill="white">
<path d="M130.724 104.451C130.274 104.341 129.844 104.321 129.414 104.091C129.314 104.041 128.934 103.791 128.944 103.711C128.944 103.481 129.024 103.211 129.094 102.961C128.974 103.191 128.844 103.411 128.804 103.711C128.864 103.951 129.054 104.181 129.324 104.311C129.774 104.521 130.314 104.531 130.714 104.461L130.724 104.451Z"/>
</mask>
<path d="M130.724 104.451C130.274 104.341 129.844 104.321 129.414 104.091C129.314 104.041 128.934 103.791 128.944 103.711C128.944 103.481 129.024 103.211 129.094 102.961C128.974 103.191 128.844 103.411 128.804 103.711C128.864 103.951 129.054 104.181 129.324 104.311C129.774 104.521 130.314 104.531 130.714 104.461L130.724 104.451Z" fill="#263238"/>
<path d="M130.724 104.451L131.432 105.158L132.688 103.902L130.962 103.48L130.724 104.451ZM129.414 104.091L129.886 103.21L129.874 103.203L129.862 103.197L129.414 104.091ZM128.944 103.711L129.937 103.835L129.944 103.774V103.711H128.944ZM129.094 102.961L130.057 103.231L128.208 102.499L129.094 102.961ZM128.804 103.711L127.813 103.579L127.788 103.769L127.834 103.954L128.804 103.711ZM129.324 104.311L128.891 105.212L128.902 105.218L129.324 104.311ZM130.714 104.461L130.887 105.446L131.198 105.392L131.422 105.168L130.714 104.461ZM130.962 103.48C130.822 103.446 130.689 103.42 130.577 103.399C130.457 103.376 130.367 103.359 130.275 103.339C130.102 103.302 129.987 103.264 129.886 103.21L128.943 104.973C129.272 105.149 129.587 105.236 129.849 105.293C129.975 105.321 130.103 105.344 130.204 105.364C130.312 105.384 130.401 105.402 130.487 105.423L130.962 103.48ZM129.862 103.197C129.885 103.209 129.878 103.207 129.837 103.18C129.803 103.159 129.766 103.133 129.734 103.109C129.696 103.081 129.69 103.074 129.704 103.087C129.708 103.092 129.748 103.131 129.792 103.198C129.815 103.233 129.854 103.297 129.887 103.388C129.919 103.475 129.962 103.635 129.937 103.835L127.952 103.587C127.904 103.973 128.089 104.248 128.123 104.3C128.187 104.396 128.255 104.468 128.296 104.508C128.381 104.592 128.475 104.666 128.543 104.716C128.673 104.813 128.845 104.925 128.967 104.986L129.862 103.197ZM129.944 103.711C129.944 103.711 129.944 103.708 129.945 103.701C129.946 103.694 129.947 103.684 129.948 103.671C129.952 103.644 129.959 103.609 129.969 103.564C129.99 103.468 130.019 103.369 130.057 103.231L128.131 102.692C128.077 102.885 127.944 103.311 127.944 103.711H129.944ZM128.208 102.499C128.116 102.675 127.882 103.067 127.813 103.579L129.796 103.844C129.807 103.756 129.833 103.708 129.981 103.424L128.208 102.499ZM127.834 103.954C127.975 104.516 128.386 104.969 128.891 105.212L129.758 103.41C129.747 103.405 129.744 103.4 129.746 103.403C129.747 103.404 129.751 103.409 129.756 103.419C129.761 103.429 129.769 103.445 129.775 103.469L127.834 103.954ZM128.902 105.218C129.594 105.541 130.358 105.539 130.887 105.446L130.542 103.476C130.421 103.498 130.272 103.507 130.121 103.495C129.969 103.482 129.842 103.449 129.747 103.405L128.902 105.218ZM131.422 105.168L131.432 105.158L130.017 103.745L130.007 103.755L131.422 105.168Z" fill="#222222" mask="url(#path-78-inside-11_0_1)"/>
<path d="M108.774 103.332C108.774 103.332 105.714 97.2715 103.014 98.2815C100.314 99.2915 102.064 107.692 104.844 109.212C107.624 110.722 109.074 108.182 109.074 108.182L108.774 103.332Z" fill="#AD6359"/>
<path d="M106.994 106.465C106.936 106.343 106.874 106.224 106.807 106.108L106.947 106.053C106.967 106.191 106.982 106.329 106.994 106.465Z" fill="#263238" stroke="#222222"/>
<path d="M111.835 92.8995L112.802 93.1194L112.357 97.7163C112.549 97.5919 112.766 97.4451 112.997 97.2776C113.836 96.6703 114.844 95.8057 115.585 94.7541C116.09 94.0323 116.416 93.0817 116.609 92.134C116.801 91.1907 116.853 90.2895 116.835 89.6971L116.789 88.2637L117.716 89.3581L117.716 89.3581L117.716 89.3582L117.716 89.3583L117.717 89.3596L117.723 89.366L117.746 89.3931C117.767 89.4174 117.799 89.4539 117.841 89.5014C117.925 89.5963 118.051 89.735 118.213 89.9074C118.537 90.2525 119.007 90.7318 119.587 91.2659C120.751 92.338 122.341 93.6128 124.076 94.473C124.352 94.6089 125.108 94.8444 126.151 95.1174C127.172 95.3849 128.415 95.6751 129.622 95.9254C130.831 96.1762 131.993 96.3846 132.855 96.4908C133.283 96.5435 133.618 96.5685 133.842 96.5652C133.878 96.1475 133.855 95.5276 133.765 94.7612C133.654 93.8199 133.446 92.7087 133.158 91.583C132.869 90.4569 132.501 89.3264 132.073 88.3435C131.641 87.3527 131.162 86.5474 130.667 86.0409L130.666 86.04C129.432 84.7724 127.233 83.1263 124.53 81.9351C121.828 80.7445 118.662 80.0252 115.476 80.5545L111.835 92.8995ZM111.835 92.8995L111.835 92.8995L111.835 92.8995L111.835 92.8997L111.834 92.9007L111.833 92.9055L111.825 92.9251L111.796 93.0036C111.77 93.0728 111.731 93.1749 111.68 93.3054C111.579 93.5663 111.431 93.9402 111.242 94.3899C110.866 95.2903 110.332 96.4902 109.704 97.6949C109.073 98.9036 108.356 100.097 107.615 100.997C107.245 101.446 106.88 101.809 106.53 102.062C106.218 102.287 105.938 102.412 105.69 102.451C105.666 102.424 105.633 102.382 105.592 102.32C105.461 102.12 105.31 101.8 105.151 101.369C104.837 100.514 104.524 99.3159 104.277 98.0059C104.03 96.6981 103.85 95.2966 103.795 94.0378C103.739 92.7648 103.814 91.6921 104.039 91.0093C104.114 90.7874 104.371 90.4602 104.821 90.0636C105.252 89.6835 105.793 89.2956 106.333 88.9437C106.87 88.5932 107.394 88.2855 107.784 88.0649C107.979 87.9549 108.14 87.8669 108.252 87.8067C108.308 87.7766 108.352 87.7535 108.381 87.738L108.414 87.7206L108.422 87.7164L108.424 87.7154L108.424 87.7152L108.424 87.7152L108.424 87.7152L108.54 87.6553L108.612 87.5466C109.014 86.9365 109.337 86.2453 109.651 85.5727C109.67 85.532 109.689 85.4913 109.708 85.4508C110.046 84.7273 110.385 84.0183 110.829 83.3612C111.695 82.0794 112.976 80.9705 115.476 80.5545L111.835 92.8995ZM134.036 96.5495C134.038 96.5489 134.038 96.5489 134.037 96.5493L134.036 96.5495ZM105.73 102.49C105.73 102.49 105.73 102.489 105.729 102.489L105.73 102.49Z" fill="#263238" stroke="#222222"/>
<path d="M106.224 98.7814C106.224 98.7814 106.274 90.0614 109.164 85.4514C112.384 80.3214 122.324 79.4214 126.394 82.2914C126.394 82.2914 119.184 79.1214 112.564 86.0814C109.774 89.0114 109.104 99.2214 109.104 99.2214L106.224 98.7814Z" fill="#C7C7C7"/>
<path d="M114.044 103.761C113.774 108.191 110.394 111.581 106.514 111.341C102.634 111.101 99.7043 107.311 99.9843 102.891C100.254 98.4613 103.634 95.0713 107.514 95.3113C111.394 95.5513 114.324 99.3413 114.044 103.761Z" fill="#C7C7C7"/>
<path d="M112.014 103.381C111.764 107.361 108.734 110.411 105.244 110.191C101.754 109.971 99.1244 106.571 99.3744 102.591C99.6244 98.6112 102.654 95.5612 106.144 95.7812C109.634 96.0012 112.264 99.4012 112.014 103.381Z" fill="#455A64"/>
<path d="M108.564 103.241C108.414 105.691 106.554 107.561 104.404 107.431C102.254 107.301 100.644 105.211 100.794 102.761C100.944 100.311 102.804 98.4413 104.954 98.5713C107.104 98.7013 108.714 100.791 108.564 103.241Z" fill="#37474F"/>
<path d="M111.694 133.931C111.694 133.931 106.444 115.611 95.1442 110.991L93.8342 120.051C93.8342 120.051 100.814 121.891 110.204 136.251L111.694 133.931Z" fill="#FFC727"/>
<path d="M106.459 130.725C105.463 129.441 104.438 128.164 103.334 126.955C103.511 127.143 103.688 127.335 103.866 127.528C104.043 127.719 104.221 127.912 104.403 128.107C104.909 128.687 105.387 129.282 105.871 129.885C106.084 130.151 106.299 130.418 106.518 130.686C107.172 131.588 107.814 132.487 108.435 133.404L109.632 135.32L109.602 135.325L108.395 133.451L108.389 133.441L108.382 133.432L106.472 130.742L106.466 130.733L106.459 130.725Z" fill="#263238" stroke="#222222"/>
<mask id="path-89-inside-12_0_1" fill="white">
<path d="M82.7443 121.531C84.7843 121.461 86.6743 121.251 88.5343 121.011C90.3743 120.751 92.1743 120.471 93.8343 120.041C91.7943 120.111 89.9043 120.321 88.0443 120.561C86.2043 120.821 84.4043 121.111 82.7443 121.531Z"/>
</mask>
<path d="M82.7443 121.531C84.7843 121.461 86.6743 121.251 88.5343 121.011C90.3743 120.751 92.1743 120.471 93.8343 120.041C91.7943 120.111 89.9043 120.321 88.0443 120.561C86.2043 120.821 84.4043 121.111 82.7443 121.531Z" fill="#263238"/>
<path d="M82.7443 121.531L82.499 120.562L82.7786 122.53L82.7443 121.531ZM88.5343 121.011L88.6622 122.003L88.6742 122.001L88.5343 121.011ZM93.8343 120.041L94.085 121.009L93.8 119.042L93.8343 120.041ZM88.0443 120.561L87.9163 119.569L87.9044 119.571L88.0443 120.561ZM82.7786 122.53C84.8653 122.459 86.7915 122.244 88.6622 122.003L88.4063 120.019C86.557 120.258 84.7033 120.463 82.71 120.532L82.7786 122.53ZM88.6742 122.001C90.5156 121.741 92.3651 121.455 94.085 121.009L93.5835 119.073C91.9834 119.487 90.233 119.761 88.3943 120.021L88.6742 122.001ZM93.8 119.042C91.7133 119.113 89.787 119.328 87.9163 119.569L88.1722 121.553C90.0215 121.314 91.8753 121.109 93.8686 121.04L93.8 119.042ZM87.9044 119.571C86.0575 119.832 84.2135 120.128 82.499 120.562L82.9895 122.5C84.595 122.094 86.3511 121.81 88.1842 121.551L87.9044 119.571Z" fill="#222222" mask="url(#path-89-inside-12_0_1)"/>
<path d="M107.564 130.581C107.564 130.581 105.844 135.051 104.664 141.721C104.194 144.361 103.734 154.021 106.734 154.141C109.734 154.261 105.894 147.371 105.824 142.231C105.764 137.011 107.674 133.621 108.314 130.651L107.554 130.581H107.564Z" fill="#FFC727"/>
<g opacity="0.1">
<path d="M107.564 130.581C107.564 130.581 105.844 135.051 104.664 141.721C104.194 144.361 103.734 154.021 106.734 154.141C109.734 154.261 105.894 147.371 105.824 142.231C105.764 137.011 107.674 133.621 108.314 130.651L107.554 130.581H107.564Z" fill="black"/>
</g>
<path d="M118.424 131.641C118.424 131.641 119.164 135.921 119.044 142.061C118.994 144.491 117.714 153.171 115.024 152.751C112.334 152.331 116.964 146.881 117.924 142.311C118.894 137.681 117.794 134.331 117.734 131.571L118.424 131.641Z" fill="#FFC727"/>
<g opacity="0.1">
<path d="M118.424 131.641C118.424 131.641 119.164 135.921 119.044 142.061C118.994 144.491 117.714 153.171 115.024 152.751C112.334 152.331 116.964 146.881 117.924 142.311C118.894 137.681 117.794 134.331 117.734 131.571L118.424 131.641Z" fill="black"/>
</g>
<path d="M106.344 106.281C106.344 106.281 102.994 119.471 105.374 124.011C107.754 128.551 113.194 137.061 116.304 141.391C122.744 150.331 112.234 170.201 112.394 178.501C112.554 187.161 119.574 196.231 116.204 204.451C110.964 217.201 95.0943 209.591 84.8143 205.841C68.3043 199.821 61.4943 212.641 54.9843 214.161C50.6643 215.171 33.9843 206.521 33.9843 206.521" stroke="#222222" stroke-width="0.5" stroke-miterlimit="10"/>
<path d="M133.524 112.091C133.524 112.091 131.744 122.771 129.194 126.041C125.684 130.551 116.164 136.701 116.644 141.811" stroke="#222222" stroke-width="0.5" stroke-miterlimit="10"/>
<path d="M10.2542 185.781L44.5942 198.951C45.6442 199.251 46.2143 200.121 45.8843 200.901L39.8643 214.791C39.5243 215.571 38.4043 215.951 37.3643 215.661L3.00425 202.491C1.95425 202.191 1.38425 201.321 1.71425 200.541L7.73425 186.651C8.07425 185.871 9.19425 185.491 10.2442 185.781H10.2542Z" fill="#37474F"/>
<path d="M9.51427 187.421L43.8543 200.591C44.9043 200.891 45.4743 201.761 45.1443 202.541L39.1243 216.431C38.7843 217.211 37.6643 217.591 36.6143 217.301L2.27427 204.121C1.22427 203.821 0.654267 202.951 0.984267 202.171L7.00427 188.281C7.34427 187.501 8.46427 187.121 9.51427 187.411V187.421Z" fill="#455A64"/>
<path d="M10.7115 191.602C10.6459 191.762 10.5189 191.864 10.334 191.899C10.1387 191.936 9.86333 191.897 9.56476 191.715C9.26705 191.533 9.04023 191.264 8.91617 190.985C8.79028 190.701 8.78703 190.452 8.85703 190.281C8.92267 190.12 9.04965 190.019 9.23456 189.984C9.42986 189.947 9.70519 189.986 10.0038 190.168C10.3015 190.35 10.5283 190.619 10.6524 190.898C10.7782 191.181 10.7815 191.431 10.7115 191.602Z" fill="#263238" stroke="#222222"/>
<path d="M41.4483 211.015L48.7117 214.271L49.6445 212.191L42.3812 208.934L41.4483 211.015Z" fill="#FFC727"/>
<path d="M31.8543 221.831C28.7043 221.731 27.8243 218.591 27.8243 218.591C27.8243 218.591 25.6843 219.921 23.3243 219.401C20.6243 218.801 20.3643 214.301 20.3643 214.301C20.3643 214.301 17.9243 215.191 15.4843 214.391C12.9543 213.561 12.0543 209.051 12.0543 209.051C12.0543 209.051 9.32427 208.631 7.70427 206.431C4.94427 202.661 7.59427 196.041 9.23427 191.821C10.8743 187.591 19.4843 177.151 20.9243 174.991L48.1343 185.291C48.1343 185.291 46.1643 206.331 43.5343 211.021C41.3143 214.971 35.3843 221.941 31.8543 221.831Z" fill="#AD6359"/>
<mask id="path-102-inside-13_0_1" fill="white">
<path d="M27.9443 218.591C31.3143 214.951 33.4243 210.521 35.7743 206.211C35.8243 206.111 35.6743 206.031 35.6243 206.131C33.3343 210.441 30.2043 214.241 27.7443 218.451C27.6743 218.571 27.8443 218.691 27.9343 218.591H27.9443Z"/>
</mask>
<path d="M27.9443 218.591C31.3143 214.951 33.4243 210.521 35.7743 206.211C35.8243 206.111 35.6743 206.031 35.6243 206.131C33.3343 210.441 30.2043 214.241 27.7443 218.451C27.6743 218.571 27.8443 218.691 27.9343 218.591H27.9443Z" fill="#263238"/>
<path d="M27.9443 218.591V219.591H28.3812L28.6781 219.271L27.9443 218.591ZM35.7743 206.211L36.6522 206.69L36.6608 206.675L36.6687 206.659L35.7743 206.211ZM35.6243 206.131L36.5074 206.601L36.5132 206.59L36.5187 206.579L35.6243 206.131ZM27.7443 218.451L26.8809 217.947L26.8805 217.948L27.7443 218.451ZM27.9343 218.591V217.591H27.4889L27.191 217.922L27.9343 218.591ZM28.6781 219.271C32.1564 215.514 34.3403 210.93 36.6522 206.69L34.8963 205.733C32.5082 210.113 30.4722 214.389 27.2105 217.912L28.6781 219.271ZM36.6687 206.659C36.8044 206.387 36.8238 206.069 36.7104 205.779C36.6058 205.511 36.4111 205.323 36.2074 205.214C36.0043 205.106 35.7307 205.044 35.4368 205.117C35.116 205.196 34.866 205.412 34.7298 205.684L36.5187 206.579C36.4075 206.801 36.1951 206.99 35.9148 207.059C35.6616 207.121 35.4317 207.067 35.2662 206.979C35.0999 206.89 34.9365 206.734 34.8475 206.507C34.7498 206.256 34.7691 205.986 34.8798 205.764L36.6687 206.659ZM34.7412 205.662C33.6248 207.763 32.2982 209.75 30.9222 211.765C29.5553 213.766 28.1331 215.804 26.8809 217.947L28.6077 218.956C29.8155 216.889 31.1882 214.922 32.5738 212.893C33.9503 210.878 35.3337 208.81 36.5074 206.601L34.7412 205.662ZM26.8805 217.948C26.5281 218.552 26.8322 219.153 27.1938 219.415C27.5439 219.667 28.2079 219.782 28.6776 219.26L27.191 217.922C27.5707 217.501 28.1046 217.605 28.3648 217.793C28.5013 217.892 28.6328 218.049 28.6941 218.266C28.761 218.503 28.7262 218.753 28.608 218.955L26.8805 217.948ZM27.9343 219.591H27.9443V217.591H27.9343V219.591Z" fill="#222222" mask="url(#path-102-inside-13_0_1)"/>
<mask id="path-104-inside-14_0_1" fill="white">
<path d="M20.4542 214.371C21.1942 213.521 21.6442 212.441 22.1342 211.441C22.6542 210.361 23.1542 209.271 23.6442 208.181C24.6142 205.991 25.5442 203.771 26.3942 201.531C26.4342 201.431 26.2942 201.351 26.2442 201.451C25.2742 203.631 24.2642 205.801 23.2042 207.941C22.6742 209.011 22.1342 210.081 21.5842 211.141C21.0742 212.131 20.4542 213.131 20.1742 214.211C20.1342 214.371 20.3542 214.491 20.4642 214.371H20.4542Z"/>
</mask>
<path d="M20.4542 214.371C21.1942 213.521 21.6442 212.441 22.1342 211.441C22.6542 210.361 23.1542 209.271 23.6442 208.181C24.6142 205.991 25.5442 203.771 26.3942 201.531C26.4342 201.431 26.2942 201.351 26.2442 201.451C25.2742 203.631 24.2642 205.801 23.2042 207.941C22.6742 209.011 22.1342 210.081 21.5842 211.141C21.0742 212.131 20.4542 213.131 20.1742 214.211C20.1342 214.371 20.3542 214.491 20.4642 214.371H20.4542Z" fill="#263238"/>
<path d="M20.4542 214.371L19.7 213.715L18.2578 215.371H20.4542V214.371ZM22.1342 211.441L23.0322 211.881L23.0352 211.875L22.1342 211.441ZM23.6442 208.181L24.5563 208.591L24.5586 208.586L23.6442 208.181ZM26.3942 201.531L25.4658 201.16L25.4624 201.168L25.4593 201.176L26.3942 201.531ZM26.2442 201.451L25.3498 201.004L25.3397 201.024L25.3306 201.045L26.2442 201.451ZM21.5842 211.141L20.6966 210.681L20.6953 210.683L21.5842 211.141ZM20.1742 214.211L19.2062 213.96L19.2041 213.969L20.1742 214.211ZM20.4642 214.371L21.2014 215.047L22.7375 213.371H20.4642V214.371ZM21.2085 215.028C22.0596 214.05 22.5832 212.798 23.0322 211.881L21.2362 211.001C20.7053 212.085 20.3289 212.992 19.7 213.715L21.2085 215.028ZM23.0352 211.875C23.5605 210.784 24.0644 209.686 24.5563 208.591L22.7322 207.771C22.2441 208.857 21.748 209.938 21.2332 211.007L23.0352 211.875ZM24.5586 208.586C25.5339 206.384 26.4712 204.147 27.3292 201.886L25.4593 201.176C24.6172 203.396 23.6946 205.598 22.7299 207.776L24.5586 208.586ZM27.3227 201.903C27.5619 201.305 27.2349 200.761 26.8361 200.541C26.6329 200.429 26.3516 200.361 26.0464 200.439C25.7168 200.523 25.4779 200.748 25.3498 201.004L27.1387 201.898C27.0356 202.105 26.8329 202.302 26.5424 202.376C26.2763 202.444 26.0368 202.384 25.8699 202.292C25.5436 202.112 25.2666 201.658 25.4658 201.16L27.3227 201.903ZM25.3306 201.045C24.3651 203.214 23.361 205.372 22.3081 207.497L24.1003 208.385C25.1675 206.231 26.1833 204.048 27.1579 201.858L25.3306 201.045ZM22.3081 207.497C21.7803 208.563 21.2432 209.627 20.6966 210.681L22.4719 211.602C23.0253 210.535 23.5681 209.459 24.1003 208.385L22.3081 207.497ZM20.6953 210.683C20.2379 211.571 19.5233 212.737 19.2062 213.96L21.1422 214.462C21.3852 213.525 21.9106 212.691 22.4732 211.599L20.6953 210.683ZM19.2041 213.969C19.0462 214.6 19.4295 215.079 19.7817 215.273C20.1319 215.465 20.7528 215.536 21.2014 215.047L19.7271 213.696C20.0657 213.326 20.5216 213.397 20.7443 213.52C20.9689 213.643 21.2623 213.982 21.1444 214.454L19.2041 213.969ZM20.4642 213.371H20.4542V215.371H20.4642V213.371Z" fill="#222222" mask="url(#path-104-inside-14_0_1)"/>
<mask id="path-106-inside-15_0_1" fill="white">
<path d="M12.0943 208.971C12.7643 208.261 13.0943 207.141 13.4643 206.251C13.8843 205.241 14.3143 204.241 14.7443 203.231C15.6143 201.221 16.4843 199.221 17.4143 197.241C17.4643 197.141 17.3143 197.061 17.2643 197.161C16.3043 199.161 15.3143 201.151 14.3643 203.161C13.9043 204.151 13.4443 205.141 12.9943 206.131C12.6143 206.971 12.0343 207.981 11.9843 208.931C11.9843 208.981 12.0543 209.001 12.0843 208.971H12.0943Z"/>
</mask>
<path d="M12.0943 208.971C12.7643 208.261 13.0943 207.141 13.4643 206.251C13.8843 205.241 14.3143 204.241 14.7443 203.231C15.6143 201.221 16.4843 199.221 17.4143 197.241C17.4643 197.141 17.3143 197.061 17.2643 197.161C16.3043 199.161 15.3143 201.151 14.3643 203.161C13.9043 204.151 13.4443 205.141 12.9943 206.131C12.6143 206.971 12.0343 207.981 11.9843 208.931C11.9843 208.981 12.0543 209.001 12.0843 208.971H12.0943Z" fill="#263238"/>
<path d="M12.0943 208.971V209.971H12.5255L12.8215 209.658L12.0943 208.971ZM13.4643 206.251L12.5409 205.867L12.5409 205.867L13.4643 206.251ZM14.7443 203.231L13.8265 202.834L13.8242 202.839L14.7443 203.231ZM17.4143 197.241L16.5198 196.794L16.5143 196.805L16.5091 196.816L17.4143 197.241ZM17.2643 197.161L16.3698 196.714L16.3662 196.721L16.3627 196.728L17.2643 197.161ZM14.3643 203.161L13.4601 202.734L13.4574 202.74L14.3643 203.161ZM12.9943 206.131L12.0839 205.717L12.0831 205.719L12.9943 206.131ZM11.9843 208.931L10.9856 208.879L10.9843 208.905V208.931H11.9843ZM12.0843 208.971V207.971H11.67L11.3771 208.264L12.0843 208.971ZM12.8215 209.658C13.2722 209.18 13.5771 208.601 13.8062 208.084C14.0106 207.622 14.247 206.973 14.3876 206.635L12.5409 205.867C12.3115 206.419 12.1979 206.776 11.9774 207.274C11.7814 207.717 11.5863 208.052 11.367 208.285L12.8215 209.658ZM14.3876 206.635C14.8055 205.63 15.2325 204.637 15.6643 203.623L13.8242 202.839C13.396 203.845 12.9631 204.852 12.5409 205.867L14.3876 206.635ZM15.662 203.628C16.5323 201.618 17.3967 199.631 18.3194 197.666L16.5091 196.816C15.5718 198.812 14.6962 200.825 13.8265 202.834L15.662 203.628ZM18.3087 197.688C18.4444 197.417 18.4638 197.099 18.3504 196.809C18.2458 196.541 18.0511 196.353 17.8474 196.244C17.6443 196.136 17.3707 196.074 17.0768 196.146C16.756 196.225 16.506 196.442 16.3698 196.714L18.1587 197.608C18.0475 197.831 17.835 198.019 17.5548 198.088C17.3016 198.151 17.0717 198.097 16.9062 198.009C16.7399 197.92 16.5765 197.764 16.4875 197.536C16.3898 197.286 16.4091 197.015 16.5198 196.794L18.3087 197.688ZM16.3627 196.728C15.4138 198.705 14.4089 200.726 13.4601 202.734L15.2684 203.589C16.2196 201.576 17.1947 199.617 18.1658 197.594L16.3627 196.728ZM13.4574 202.74C12.9977 203.729 12.5359 204.723 12.0839 205.717L13.9046 206.545C14.3526 205.559 14.8108 204.573 15.2711 203.583L13.4574 202.74ZM12.0831 205.719C11.9311 206.055 11.6418 206.628 11.4426 207.105C11.2283 207.618 11.0196 208.233 10.9856 208.879L12.9829 208.984C12.9989 208.679 13.1052 208.314 13.2884 207.875C13.4867 207.4 13.6774 207.047 13.9054 206.543L12.0831 205.719ZM10.9843 208.931C10.9843 209.502 11.3975 209.821 11.6902 209.924C11.9498 210.016 12.4215 210.048 12.7914 209.678L11.3771 208.264C11.717 207.924 12.1387 207.962 12.3558 208.038C12.606 208.126 12.9843 208.411 12.9843 208.931H10.9843ZM12.0843 209.971H12.0943V207.971H12.0843V209.971Z" fill="#222222" mask="url(#path-106-inside-15_0_1)"/>
</g>
<g clip-path="url(#clip1_0_1)">
<path d="M148.288 24.5798C147.898 26.6598 145.888 28.0198 143.818 27.6198C141.748 27.2198 140.378 25.2198 140.778 23.1498C141.168 21.0698 143.178 19.7098 145.248 20.1098C147.318 20.5098 148.688 22.5098 148.288 24.5798Z" fill="#455A64"/>
<path d="M151.887 5.64624L149.019 5.10059L145.423 24.0017L148.292 24.5473L151.887 5.64624Z" fill="#455A64"/>
<path d="M161.498 21.4299C161.108 23.5099 159.098 24.8699 157.028 24.4699C154.958 24.0699 153.588 22.0699 153.988 19.9999C154.378 17.9199 156.388 16.5599 158.458 16.9599C160.538 17.3499 161.898 19.3599 161.498 21.4299Z" fill="#455A64"/>
<path d="M165.103 2.49048L162.234 1.94482L158.639 20.8459L161.508 21.3916L165.103 2.49048Z" fill="#455A64"/>
<path d="M165.098 2.53L148.538 7.62L149.018 5.1L165.578 0L165.098 2.53Z" fill="#455A64"/>
<path d="M164.188 7.28977L147.638 12.3798L148.118 9.85977L164.668 4.75977L164.188 7.28977Z" fill="#455A64"/>
<path d="M132.598 63.6401C131.958 64.6301 130.628 64.9001 129.648 64.2601C128.668 63.6201 128.388 62.2901 129.028 61.3101C129.668 60.3201 130.998 60.0501 131.978 60.6901C132.958 61.3301 133.238 62.6601 132.598 63.6401Z" fill="#455A64"/>
<path d="M138.478 54.6413L137.113 53.7495L131.248 62.7227L132.612 63.6145L138.478 54.6413Z" fill="#455A64"/>
<path d="M140.078 64.8198C139.438 65.8098 138.108 66.0798 137.128 65.4398C136.138 64.7998 135.868 63.4698 136.508 62.4898C137.148 61.4998 138.478 61.2298 139.458 61.8698C140.448 62.5098 140.718 63.8398 140.078 64.8198Z" fill="#455A64"/>
<path d="M145.963 55.8215L144.599 54.9297L138.734 63.9029L140.098 64.7947L145.963 55.8215Z" fill="#455A64"/>
<path d="M145.948 55.84L136.328 54.95L137.118 53.75L146.728 54.64L145.948 55.84Z" fill="#455A64"/>
<path d="M144.468 58.0998L134.848 57.2098L135.638 56.0098L145.248 56.8998L144.468 58.0998Z" fill="#455A64"/>
<path d="M122.788 49.1704C122.498 50.6904 121.028 51.6904 119.508 51.4004C117.988 51.1104 116.978 49.6404 117.268 48.1204C117.558 46.6004 119.028 45.6004 120.548 45.8904C122.068 46.1804 123.068 47.6504 122.778 49.1704H122.788Z" fill="#455A64"/>
<path d="M125.428 35.2661L123.325 34.8662L120.687 48.7375L122.789 49.1374L125.428 35.2661Z" fill="#455A64"/>
<path d="M133.259 33.0522L131.157 32.6523L130.395 36.6605L132.497 37.0604L133.259 33.0522Z" fill="#455A64"/>
<path d="M133.158 33.5902L122.968 36.7202L123.318 34.8702L133.518 31.7402L133.158 33.5902Z" fill="#455A64"/>
<path d="M132.498 37.0905L122.308 40.2205L122.658 38.3605L132.848 35.2305L132.498 37.0905Z" fill="#455A64"/>
</g>
<defs>
<clipPath id="clip0_0_1">
<rect width="231.75" height="380.47" fill="white" transform="translate(0.894287 79.8813)"/>
</clipPath>
<clipPath id="clip1_0_1">
<rect width="48.36" height="65.79" fill="white" transform="translate(117.218)"/>
</clipPath>
</defs>
</svg>
