<svg width="289" height="208" viewBox="0 0 289 208" fill="none" xmlns="http://www.w3.org/2000/svg">
<g clip-path="url(#clip0_0_1)">
<path d="M144.145 207.924C223.735 207.924 288.255 199.574 288.255 189.274C288.255 178.974 223.735 170.624 144.145 170.624C64.5554 170.624 0.0351562 178.974 0.0351562 189.274C0.0351562 199.574 64.5554 207.924 144.145 207.924Z" fill="#EBEBEB"/>
</g>
<g clip-path="url(#clip1_0_1)">
<path d="M236.92 194.54C236.33 192.2 199.6 135.72 196.91 134.49C196.6 134.33 177.55 145.94 177.55 145.94C176.73 146.88 142.8 137.14 142.8 137.14L139.49 178.68L202.35 181.83C202.35 181.83 210.47 187.42 217.94 192.03C217.95 192.03 217.96 192.04 217.97 192.03C222.56 194.89 226.64 197.31 227.82 197.71C230.9 198.74 237.54 196.87 236.93 194.53L236.92 194.54Z" fill="#F7A9A0"/>
<path d="M218.225 191.606L218.104 191.53H218.072C217.548 191.206 217.022 190.878 216.496 190.548C216.704 190.608 216.905 190.657 217.095 190.693C217.64 190.798 218.239 190.828 218.676 190.551C218.918 190.397 219.084 190.167 219.157 189.881C219.226 189.61 219.208 189.313 219.138 189.007C218.999 188.4 218.623 187.62 218.002 186.642L218.002 186.642C216.925 184.948 214.605 182.056 211.611 178.541C208.608 175.017 204.907 170.84 201.049 166.564C193.562 158.265 185.481 149.585 180.768 144.559C180.976 144.433 181.192 144.303 181.415 144.168C183.973 142.625 187.482 140.507 190.54 138.687C192.32 137.627 193.945 136.67 195.139 135.985C195.737 135.642 196.223 135.37 196.566 135.188C196.678 135.129 196.772 135.081 196.847 135.043C196.87 135.063 196.895 135.087 196.923 135.114C197.056 135.242 197.225 135.423 197.428 135.659C197.835 136.128 198.36 136.789 198.989 137.619C200.245 139.278 201.898 141.588 203.812 144.338C207.638 149.838 212.496 157.082 217.29 164.364C222.084 171.645 226.811 178.96 230.377 184.6C232.16 187.421 233.651 189.82 234.714 191.586C235.246 192.47 235.668 193.191 235.966 193.727C236.116 193.995 236.231 194.212 236.313 194.377C236.354 194.46 236.385 194.526 236.406 194.577C236.43 194.632 236.436 194.653 236.435 194.652L236.436 194.656C236.517 194.964 236.391 195.337 235.867 195.775C235.351 196.206 234.549 196.602 233.596 196.908C231.678 197.523 229.368 197.703 227.97 197.236C227.438 197.056 226.169 196.381 224.411 195.36C222.675 194.351 220.513 193.035 218.225 191.606Z" fill="#263238" stroke="#222222"/>
<path d="M153.34 128.37C153.34 128.37 100.63 103.81 77.0501 103.94C48.9901 104.09 26.9701 137.26 61.2201 161.49C91.4901 182.91 188.22 181.12 188.22 181.12L166.28 143.59C166.28 143.59 138.79 131.18 104.13 129.87L152.44 140.01L153.34 128.37Z" fill="#F7A9A0"/>
<path d="M52.7002 193.23C53.4002 190.92 92.7802 136.26 95.5302 135.16C95.8402 135.02 114.32 147.52 114.32 147.52C115.09 148.5 149.45 140.39 149.45 140.39L150.78 182.04L87.8402 182.19C87.8402 182.19 79.4602 187.39 71.7802 191.64C71.7702 191.64 71.7602 191.65 71.7502 191.64C67.0302 194.27 62.8402 196.5 61.6402 196.84C58.5102 197.72 51.9702 195.53 52.6902 193.23H52.7002Z" fill="#F7A9A0"/>
<path d="M61.3887 196.385L61.5139 196.349C61.7701 196.277 62.2229 196.09 62.8583 195.792C63.4841 195.498 64.26 195.109 65.1496 194.647C66.2659 194.067 67.5559 193.374 68.9448 192.615C68.5104 192.729 68.0999 192.812 67.7305 192.853C67.1773 192.913 66.5773 192.896 66.1623 192.586C65.9325 192.414 65.7849 192.172 65.7343 191.88C65.6865 191.605 65.7292 191.309 65.824 191.011C66.0121 190.418 66.451 189.672 67.1517 188.748C67.1517 188.748 67.1518 188.748 67.1518 188.748L67.5502 189.05C73.1156 181.705 108.043 150.266 112.097 146.625L61.3887 196.385ZM61.3887 196.385L61.3816 196.392C59.9546 196.746 57.7311 196.454 55.8965 195.768C54.9598 195.418 54.1778 194.984 53.6829 194.53C53.1798 194.068 53.0732 193.69 53.1674 193.39L53.1674 193.39L53.1689 193.385L53.169 193.384C53.17 193.382 53.178 193.359 53.2016 193.31C53.2255 193.261 53.2593 193.196 53.3041 193.115C53.3936 192.954 53.5194 192.742 53.6812 192.481C54.0044 191.96 54.461 191.259 55.0344 190.402C56.1805 188.687 57.7846 186.361 59.7004 183.628C63.5315 178.164 68.6037 171.082 73.7404 164.039C78.8774 156.995 84.0767 149.991 88.1625 144.682C90.2059 142.027 91.9677 139.8 93.3025 138.204C93.9705 137.406 94.5268 136.771 94.9554 136.322C95.1701 136.097 95.3471 135.924 95.4862 135.803C95.5163 135.777 95.543 135.754 95.5665 135.735C95.6481 135.78 95.7515 135.84 95.8767 135.914C96.2325 136.125 96.7366 136.44 97.3541 136.834C98.5879 137.622 100.259 138.717 102.07 139.916C105.432 142.141 109.268 144.718 111.669 146.336L61.3887 196.385Z" fill="#263238" stroke="#222222"/>
<path d="M151.05 127.56C151.05 127.56 198.27 110.97 226.7 114.36C254.56 117.68 265.99 152.62 238.83 171.55C209.16 192.22 105.46 182.13 105.46 182.13L125.99 145.38C125.99 145.38 165.45 133.88 200.13 134.23L151.39 142.05L151.05 127.55V127.56Z" fill="#F7A9A0"/>
<path d="M151.4 127.43C151.4 127.43 207.35 105.94 235.37 115.97C263.39 126 258.27 160.24 242.46 169.83C226.65 179.42 228.29 178.4 186.2 189.04C169.84 193.18 139.7 193.88 131.25 192.84C100.49 189.04 98.1001 172 68.4401 166.24C67.3501 166.03 38.9001 151.19 44.0601 128.4C49.2201 105.61 70.3001 100 94.9201 106.34C120.3 112.88 151.39 127.43 151.39 127.43H151.4Z" fill="#FFC727"/>
<path d="M47.49 119.22V119.26C47.49 120.24 47.01 121.1 46.28 121.63C46.65 120.78 47.05 120 47.49 119.22ZM70.59 116.32C68.96 116.32 67.65 117.64 67.65 119.26C67.65 120.88 68.97 122.2 70.59 122.2C72.21 122.2 73.53 120.88 73.53 119.26C73.53 117.64 72.21 116.32 70.59 116.32ZM96.63 116.32C95 116.32 93.69 117.64 93.69 119.26C93.69 120.88 95.01 122.2 96.63 122.2C98.25 122.2 99.57 120.88 99.57 119.26C99.57 117.64 98.25 116.32 96.63 116.32ZM122.68 116.32C121.05 116.32 119.74 117.64 119.74 119.26C119.74 120.88 121.06 122.2 122.68 122.2C124.3 122.2 125.62 120.88 125.62 119.26C125.62 117.64 124.3 116.32 122.68 116.32ZM172.21 120.7C172.72 121.59 173.68 122.2 174.78 122.2C176.41 122.2 177.73 120.89 177.73 119.26V119.21C175.83 119.7 173.98 120.2 172.21 120.7ZM200.83 116.32C199.2 116.32 197.89 117.64 197.89 119.26C197.89 120.88 199.21 122.2 200.83 122.2C202.45 122.2 203.77 120.88 203.77 119.26C203.77 117.64 202.45 116.32 200.83 116.32ZM226.87 116.32C225.24 116.32 223.93 117.64 223.93 119.26C223.93 120.88 225.25 122.2 226.87 122.2C228.49 122.2 229.81 120.88 229.81 119.26C229.81 117.64 228.49 116.32 226.87 116.32ZM70.59 156.12C68.96 156.12 67.65 157.44 67.65 159.06C67.65 160.68 68.97 162 70.59 162C72.21 162 73.53 160.68 73.53 159.06C73.53 157.44 72.21 156.12 70.59 156.12ZM96.63 156.12C95 156.12 93.69 157.44 93.69 159.06C93.69 160.68 95.01 162 96.63 162C98.25 162 99.57 160.68 99.57 159.06C99.57 157.44 98.25 156.12 96.63 156.12ZM122.68 156.12C121.05 156.12 119.74 157.44 119.74 159.06C119.74 160.68 121.06 162 122.68 162C124.3 162 125.62 160.68 125.62 159.06C125.62 157.44 124.3 156.12 122.68 156.12ZM148.73 156.12C147.1 156.12 145.79 157.44 145.79 159.06C145.79 160.68 147.11 162 148.73 162C150.35 162 151.67 160.68 151.67 159.06C151.67 157.44 150.35 156.12 148.73 156.12ZM174.78 156.12C173.15 156.12 171.84 157.44 171.84 159.06C171.84 160.68 173.16 162 174.78 162C176.4 162 177.72 160.68 177.72 159.06C177.72 157.44 176.4 156.12 174.78 156.12ZM200.83 156.12C199.2 156.12 197.89 157.44 197.89 159.06C197.89 160.68 199.21 162 200.83 162C202.45 162 203.77 160.68 203.77 159.06C203.77 157.44 202.45 156.12 200.83 156.12ZM226.87 156.12C225.24 156.12 223.93 157.44 223.93 159.06C223.93 160.68 225.25 162 226.87 162C228.49 162 229.81 160.68 229.81 159.06C229.81 157.44 228.49 156.12 226.87 156.12ZM252.93 156.12C251.3 156.12 249.98 157.44 249.98 159.07C249.98 159.84 250.28 160.54 250.76 161.06C251.67 159.52 252.45 157.86 253.11 156.13C253.05 156.13 252.99 156.13 252.93 156.13V156.12ZM57.56 136.36C55.93 136.36 54.62 137.68 54.62 139.3C54.62 140.92 55.94 142.24 57.56 142.24C59.18 142.24 60.5 140.92 60.5 139.3C60.5 137.68 59.18 136.36 57.56 136.36ZM57.56 136.36C55.93 136.36 54.62 137.68 54.62 139.3C54.62 140.92 55.94 142.24 57.56 142.24C59.18 142.24 60.5 140.92 60.5 139.3C60.5 137.68 59.18 136.36 57.56 136.36ZM83.61 136.36C81.98 136.36 80.67 137.68 80.67 139.3C80.67 140.92 81.99 142.24 83.61 142.24C85.23 142.24 86.55 140.92 86.55 139.3C86.55 137.68 85.23 136.36 83.61 136.36ZM109.66 136.36C108.03 136.36 106.72 137.68 106.72 139.3C106.72 140.92 108.04 142.24 109.66 142.24C111.28 142.24 112.6 140.92 112.6 139.3C112.6 137.68 111.28 136.36 109.66 136.36ZM135.71 136.36C134.08 136.36 132.77 137.68 132.77 139.3C132.77 140.92 134.09 142.24 135.71 142.24C137.33 142.24 138.65 140.92 138.65 139.3C138.65 137.68 137.33 136.36 135.71 136.36ZM161.75 136.36C160.12 136.36 158.81 137.68 158.81 139.3C158.81 140.92 160.13 142.24 161.75 142.24C163.37 142.24 164.69 140.92 164.69 139.3C164.69 137.68 163.37 136.36 161.75 136.36ZM187.8 136.36C186.17 136.36 184.86 137.68 184.86 139.3C184.86 140.92 186.18 142.24 187.8 142.24C189.42 142.24 190.74 140.92 190.74 139.3C190.74 137.68 189.42 136.36 187.8 136.36ZM213.85 136.36C212.22 136.36 210.91 137.68 210.91 139.3C210.91 140.92 212.23 142.24 213.85 142.24C215.47 142.24 216.79 140.92 216.79 139.3C216.79 137.68 215.47 136.36 213.85 136.36ZM239.9 136.36C238.27 136.36 236.96 137.68 236.96 139.3C236.96 140.92 238.28 142.24 239.9 142.24C241.52 142.24 242.84 140.92 242.84 139.3C242.84 137.68 241.52 136.36 239.9 136.36ZM109.66 176.16C108.03 176.16 106.72 177.48 106.72 179.1C106.72 180.72 108.04 182.04 109.66 182.04C111.28 182.04 112.6 180.72 112.6 179.1C112.6 177.48 111.28 176.16 109.66 176.16ZM135.71 176.16C134.08 176.16 132.77 177.48 132.77 179.1C132.77 180.72 134.09 182.04 135.71 182.04C137.33 182.04 138.65 180.72 138.65 179.1C138.65 177.48 137.33 176.16 135.71 176.16ZM161.75 176.16C160.12 176.16 158.81 177.48 158.81 179.1C158.81 180.72 160.13 182.04 161.75 182.04C163.37 182.04 164.69 180.72 164.69 179.1C164.69 177.48 163.37 176.16 161.75 176.16ZM187.8 176.16C186.17 176.16 184.86 177.48 184.86 179.1C184.86 180.72 186.18 182.04 187.8 182.04C189.42 182.04 190.74 180.72 190.74 179.1C190.74 177.48 189.42 176.16 187.8 176.16ZM213.85 176.17C212.23 176.17 210.91 177.48 210.91 179.11C210.91 180.74 212.21 182.03 213.82 182.05H213.85C214.36 181.9 214.87 181.77 215.35 181.64H215.36C216.22 181.13 216.8 180.19 216.8 179.11C216.8 177.48 215.48 176.17 213.85 176.17Z" fill="white"/>
<path d="M130.556 144.631C126.889 144.807 123.192 144.773 119.505 144.543C122.371 144.591 125.24 144.517 128.105 144.319L128.105 144.319C135.564 143.797 142.963 142.632 150.212 140.815L150.212 140.815C156.622 139.206 162.91 137.196 169.18 135.192C169.708 135.023 170.235 134.855 170.762 134.686L170.763 134.686C177.497 132.528 184.248 130.524 191.143 129.069L191.144 129.069C192.425 128.799 193.711 128.548 195 128.32C194.451 128.441 193.903 128.565 193.356 128.693L193.356 128.693C187.226 130.133 181.229 132.062 175.264 133.982C174.451 134.243 173.639 134.504 172.828 134.764L172.828 134.764C171.885 135.066 170.942 135.37 170 135.673C164.141 137.56 158.293 139.444 152.362 141.017C145.205 142.911 137.941 144.273 130.556 144.631Z" fill="#263238" stroke="#222222"/>
<path d="M118.248 138.978C120.194 139.405 122.149 139.834 124.111 140.233L124.066 140.226C124.066 140.226 124.066 140.226 124.066 140.226C121.85 139.884 119.649 139.411 117.485 138.811C117.739 138.867 117.994 138.922 118.248 138.978Z" fill="#263238" stroke="#222222"/>
<path d="M107.519 173.583C110.96 176.474 114.47 179.331 118.268 181.799L118.268 181.799C120.686 183.366 123.248 184.645 125.918 185.647C123.848 184.992 121.834 184.162 119.897 183.12C115.936 180.988 112.481 178.156 109.118 175.14C108.152 174.274 107.192 173.391 106.229 172.506C106.197 172.477 106.165 172.447 106.133 172.418C106.319 172.574 106.504 172.73 106.689 172.886C106.966 173.118 107.242 173.35 107.519 173.583ZM107.519 173.583L107.84 173.2M107.519 173.583C107.519 173.583 107.519 173.583 107.519 173.583L107.84 173.2M107.84 173.2C111.28 176.09 114.77 178.93 118.54 181.38M107.84 173.2C107.563 172.967 107.286 172.734 107.008 172.5C103.893 169.88 100.765 167.25 97.4016 164.962L118.54 181.38M118.54 181.38C122.86 184.18 127.65 186.05 132.7 187.05C133.725 187.253 134.755 187.42 135.789 187.557L118.54 181.38Z" fill="#263238" stroke="#222222"/>
<path d="M149.01 184.307C147.387 184.317 145.764 184.294 144.141 184.235C145.037 184.251 145.933 184.266 146.827 184.28L146.842 184.28L146.842 184.28C147.565 184.292 148.288 184.3 149.01 184.307Z" fill="#263238" stroke="#222222"/>
<path d="M133.903 131.4C134.994 131.394 136.087 131.37 137.182 131.324C135.027 131.488 132.854 131.501 130.702 131.372C131.773 131.399 132.842 131.406 133.903 131.4ZM133.903 131.4L133.9 130.9L133.903 131.4Z" fill="#263238" stroke="#222222"/>
<path d="M119.94 65.3696L119.948 65.1513L119.944 65.1474C120.827 52.3848 124.332 47.0571 127.296 42.5535C128.433 40.8251 129.491 39.218 130.289 37.3585C130.733 36.3356 131.169 34.8533 131.625 33.1296C131.635 33.1039 131.643 33.0756 131.649 33.0447C131.654 33.0217 131.656 33.0003 131.658 32.9824C131.954 31.8408 132.256 30.6034 132.566 29.3324C133.245 26.5462 133.964 23.5981 134.747 21.1421L134.77 21.0681V21.0362C135.06 20.1064 135.367 19.2465 135.672 18.502C137.29 14.6474 140.772 11.6675 145.181 10.9068C149.581 10.1479 154.981 11.5876 160.437 16.7341L160.526 16.8182L160.644 16.8515C166.273 18.4407 169.683 23.6317 170.142 29.7278L170.142 29.7287C170.284 31.5776 170.569 33.2563 170.986 34.8845L170.999 34.9362L171.015 34.9671C171.617 37.2187 172.495 39.3485 173.68 41.5551V41.5584L173.733 41.6639C173.742 41.6811 173.75 41.6955 173.756 41.7066C173.76 41.7123 173.763 41.7176 173.766 41.7222L173.781 41.7491C173.996 42.1453 174.212 42.539 174.427 42.9312C175.973 45.7489 177.478 48.4919 178.401 51.5533C179.404 54.9349 179.787 58.5326 179.502 62.0298L179.502 62.0309C179.449 62.7012 179.238 64.0916 179.035 65.3364C178.935 65.954 178.838 66.5285 178.766 66.9487C178.747 67.0583 178.73 67.1574 178.715 67.244C177.232 67.3216 175.019 67.3549 172.294 67.343C172.239 64.2015 171.83 60.2337 170.483 57.4176C170.456 57.3596 170.339 57.1389 170.056 57.1137C169.785 57.0894 169.629 57.2764 169.605 57.305L169.605 57.306C169.526 57.3996 169.481 57.5173 169.46 57.5741C169.403 57.7257 169.339 57.952 169.27 58.2222C169.129 58.772 168.947 59.5883 168.736 60.5647C168.63 61.0596 168.515 61.597 168.394 62.1645C168.06 63.7285 167.677 65.5214 167.274 67.2842C157.359 67.1292 143.878 66.6463 133.454 66.1592C132.917 63.4374 132.487 60.6362 133.019 52.6038C133.028 52.4653 133.031 52.3266 133.014 52.2101C133.007 52.1578 132.989 52.0597 132.933 51.9619C132.868 51.8489 132.704 51.6725 132.433 51.6913C132.233 51.7052 132.109 51.8245 132.071 51.8618C132.018 51.915 131.977 51.9734 131.947 52.0193C131.887 52.1139 131.828 52.2336 131.77 52.3631C131.54 52.8819 131.213 53.8488 130.835 55.1399C130.099 57.6563 129.143 61.4908 128.291 65.9015C127.269 65.855 125.768 65.7822 124.805 65.7287C124.866 63.6346 125.426 60.6362 126.172 58.5163L126.172 58.5146C126.209 58.4087 126.239 58.3152 126.259 58.2382C126.268 58.2005 126.278 58.1564 126.284 58.1114L126.284 58.1094C126.288 58.0823 126.302 57.9798 126.268 57.8657C126.249 57.801 126.195 57.6628 126.042 57.5707C125.877 57.4709 125.713 57.4932 125.622 57.5222C125.487 57.5657 125.403 57.6566 125.386 57.6749L125.384 57.6768C125.327 57.7375 125.275 57.8149 125.235 57.8776C125.063 58.1471 124.773 58.6993 124.415 59.4386C123.724 60.8665 122.74 63.0723 121.777 65.5463C121.534 65.5301 121.302 65.5154 121.081 65.5013C120.674 65.4754 120.301 65.4518 119.958 65.4249C119.953 65.4176 119.948 65.4078 119.944 65.3964C119.94 65.3838 119.94 65.3742 119.94 65.3696ZM173.68 41.4429C173.68 41.4381 173.68 41.4366 173.68 41.4404V41.4429Z" fill="#263238" stroke="#222222"/>
<path d="M174.218 40.6772C173.528 39.7732 172.917 38.8404 172.388 37.8733C173.368 39.5534 174.562 41.0598 175.751 42.5342L175.751 42.5344C177.014 44.0985 178.089 45.6495 178.916 47.3054C177.868 45.3838 176.542 43.6764 175.175 41.9163C174.857 41.5072 174.537 41.0953 174.218 40.6772Z" fill="#263238" stroke="#222222"/>
<path d="M123.618 44.6606C122.094 46.6826 120.853 48.9243 119.929 51.3065C119.946 51.2663 119.963 51.226 119.98 51.1858M123.618 44.6606L120.44 51.3806M123.618 44.6606H123.627L123.777 44.4652C124.267 43.8272 124.764 43.2021 125.26 42.5792C126.22 41.3737 127.173 40.1763 128.054 38.909M123.618 44.6606L134.139 21.3861M119.98 51.1858L120.44 51.3806M119.98 51.1858C119.98 51.186 119.979 51.1862 119.979 51.1863L120.44 51.3806M119.98 51.1858C121.468 47.6551 123.654 44.8345 125.862 41.9855C126.133 41.6365 126.404 41.2871 126.674 40.9359L126.674 40.9354C127.183 40.275 127.64 39.5991 128.054 38.909M120.44 51.3806C121.902 47.9138 124.046 45.1459 126.258 42.2913C126.528 41.9428 126.799 41.5931 127.07 41.2406C129.228 38.4405 130.47 35.3765 131.416 32.1796C131.283 32.5819 131.145 32.9826 131 33.381L131 33.3818C130.242 35.462 129.21 37.2456 128.054 38.909M128.054 38.909C129.137 37.103 129.925 35.1999 130.568 33.2246C130.568 33.2245 130.569 33.2245 130.569 33.2245C130.697 32.8293 130.82 32.4312 130.939 32.0304C131.464 30.4478 131.913 28.8356 132.362 27.2227C132.908 25.261 133.455 23.2983 134.139 21.3861M117.861 63.8646C117.827 63.8539 117.792 63.8478 117.756 63.847C117.706 63.8458 117.652 63.8543 117.599 63.8755C117.534 63.0675 117.503 62.2603 117.507 61.4563L117.861 63.8646ZM117.861 63.8646C117.889 63.062 117.937 62.267 118.006 61.4793L117.861 63.8646ZM134.139 21.3861C134.171 21.4027 134.204 21.4143 134.234 21.4219C134.241 21.4237 134.248 21.4252 134.256 21.4266L134.139 21.3861ZM134.29 20.9706C134.29 20.9699 134.291 20.9693 134.291 20.9687L134.39 21.0006L134.32 20.9806L134.307 20.9769L134.29 20.9719C134.29 20.9714 134.29 20.971 134.29 20.9706Z" fill="#263238" stroke="#222222"/>
<path d="M172.981 9.89229L172.981 9.89203C174.43 6.53538 173.395 3.85211 171.434 2.45497C169.448 1.0407 166.428 0.879731 163.784 2.79503L172.981 9.89229ZM172.981 9.89229C172.084 11.9717 169.887 13.6311 167.443 14.6219C166.231 15.1134 164.982 15.4296 163.846 15.5499C162.703 15.6709 161.709 15.5901 160.985 15.3218C160.953 15.3097 160.835 15.2324 160.677 14.9636M172.981 9.89229L160.677 14.9636M160.677 14.9636C160.528 14.7113 160.38 14.3523 160.254 13.8998M160.677 14.9636L160.254 13.8998M160.254 13.8998C160.002 12.9969 159.855 11.783 159.927 10.4524M160.254 13.8998L159.927 10.4524M159.927 10.4524C160.072 7.78632 161.09 4.74813 163.783 2.7952L159.927 10.4524Z" fill="#263238" stroke="#222222"/>
<path d="M173.372 13.3449C174.907 11.9555 175.591 9.90383 175.344 7.85467C175.523 8.76466 175.513 9.71801 175.276 10.6351C174.994 11.7282 174.341 12.7305 173.533 13.5204C171.95 15.0305 169.868 15.8284 167.758 16.1686C169.801 15.6622 171.849 14.8237 173.372 13.3449Z" fill="#263238" stroke="#222222"/>
<path d="M154.65 71.3402C139.71 88.1302 119.65 103.54 113.7 105.14C106.18 107.16 70.5801 96.6202 68.8501 95.9002C64.6001 94.1002 76.0801 65.5702 80.7101 67.3002C87.7601 69.9402 111.6 80.1402 113.83 79.4502C116.14 78.7302 129.12 73.2902 147.26 64.6602C159.78 58.6902 163.93 60.9202 154.66 71.3302L154.65 71.3402Z" fill="#F7A9A0"/>
<path d="M70.0102 96.0503C66.4802 95.7003 50.4302 92.7003 46.1502 90.8603C41.8702 89.0203 29.9402 82.8503 31.0102 79.4303C32.0802 76.0103 35.7202 77.5403 35.7202 77.5403C35.7202 77.5403 31.0902 74.1303 32.4902 70.7903C33.8802 67.4503 39.4702 70.0103 39.4702 70.0103C39.4702 70.0103 34.9702 66.1703 36.6002 62.9303C38.2302 59.6903 43.4102 63.2103 43.4102 63.2103C43.4102 63.2103 39.1402 59.8903 41.6002 57.7903C44.5602 55.2603 51.7502 62.2803 56.6302 63.9503C57.7402 64.3303 79.6202 70.0503 79.6202 70.0503L70.0102 96.0503Z" fill="#F7A9A0"/>
<mask id="path-22-inside-1_0_1" fill="white">
<path d="M42.9602 62.9103C48.2602 68.0603 51.4702 69.3903 58.5802 70.9003C58.7202 70.9303 58.7102 71.1403 58.5602 71.1303C51.4602 70.2903 47.1902 69.2003 42.7002 63.1603C42.4802 62.8603 42.7102 62.6703 42.9602 62.9203V62.9103Z"/>
</mask>
<path d="M42.9602 62.9103C48.2602 68.0603 51.4702 69.3903 58.5802 70.9003C58.7202 70.9303 58.7102 71.1403 58.5602 71.1303C51.4602 70.2903 47.1902 69.2003 42.7002 63.1603C42.4802 62.8603 42.7102 62.6703 42.9602 62.9203V62.9103Z" fill="#263238"/>
<path d="M42.9602 62.9103L43.6571 62.1932L41.9602 60.5443V62.9103H42.9602ZM58.5802 70.9003L58.7898 69.9225L58.788 69.9222L58.5802 70.9003ZM58.5602 71.1303L58.4427 72.1234L58.4682 72.1264L58.4937 72.1281L58.5602 71.1303ZM42.7002 63.1603L41.8938 63.7517L41.8977 63.7569L42.7002 63.1603ZM42.9602 62.9203L42.2531 63.6275L43.9602 65.3346V62.9203H42.9602ZM42.2633 63.6275C44.9554 66.2434 47.1674 67.9389 49.6479 69.1666C52.1181 70.3892 54.7991 71.1196 58.3725 71.8785L58.788 69.9222C55.2514 69.1711 52.7723 68.4814 50.5351 67.3741C48.308 66.2718 46.2651 64.7273 43.6571 62.1932L42.2633 63.6275ZM58.3707 71.8781C57.885 71.7741 57.6563 71.329 57.6813 70.9623C57.694 70.7761 57.7712 70.5539 57.9595 70.376C58.1626 70.1841 58.4158 70.1185 58.6267 70.1326L58.4937 72.1281C58.7796 72.1472 59.0904 72.0591 59.3331 71.8297C59.5611 71.6143 59.6602 71.3396 59.6767 71.0984C59.7092 70.6217 59.4155 70.0566 58.7898 69.9225L58.3707 71.8781ZM58.6777 70.1373C55.1342 69.718 52.4264 69.2476 50.0619 68.1834C47.7297 67.1338 45.6666 65.4746 43.5028 62.5638L41.8977 63.7569C44.2238 66.8861 46.5407 68.7919 49.2411 70.0072C51.9091 71.2081 54.8862 71.7027 58.4427 72.1234L58.6777 70.1373ZM43.5066 62.569C43.5239 62.5925 43.5914 62.6918 43.6082 62.8641C43.6255 63.0422 43.5834 63.3489 43.3136 63.5857C43.0436 63.8226 42.7321 63.8259 42.5521 63.7831C42.3775 63.7417 42.2821 63.6564 42.2531 63.6275L43.6673 62.2132C43.5134 62.0593 43.2954 61.904 43.0143 61.8373C42.7277 61.7692 42.3256 61.7918 41.9944 62.0825C41.6633 62.373 41.5893 62.7679 41.6176 63.0582C41.6453 63.3426 41.7666 63.5782 41.8938 63.7517L43.5066 62.569ZM43.9602 62.9203V62.9103H41.9602V62.9203H43.9602Z" fill="#222222" mask="url(#path-22-inside-1_0_1)"/>
<mask id="path-24-inside-2_0_1" fill="white">
<path d="M39.0502 69.5902C45.0202 74.4602 48.4902 75.9402 55.8202 78.0602C55.9202 78.0902 55.8802 78.2702 55.7802 78.2502C48.4102 76.7702 44.1802 75.5802 38.8502 69.9402C38.6102 69.6802 38.7802 69.3802 39.0502 69.6002V69.5902Z"/>
</mask>
<path d="M39.0502 69.5902C45.0202 74.4602 48.4902 75.9402 55.8202 78.0602C55.9202 78.0902 55.8802 78.2702 55.7802 78.2502C48.4102 76.7702 44.1802 75.5802 38.8502 69.9402C38.6102 69.6802 38.7802 69.3802 39.0502 69.6002V69.5902Z" fill="#263238"/>
<path d="M39.0502 69.5902L39.6823 68.8153L38.0502 67.484V69.5902H39.0502ZM55.8202 78.0602L56.1075 77.1024L56.098 77.0996L55.8202 78.0602ZM55.7802 78.2502L55.5833 79.2306L55.5841 79.2308L55.7802 78.2502ZM38.8502 69.9402L38.1153 70.6185L38.1234 70.6271L38.8502 69.9402ZM39.0502 69.6002L38.4185 70.3755L40.0502 71.705V69.6002H39.0502ZM38.4181 70.3651C41.4399 72.8301 43.8645 74.4661 46.484 75.7539C49.0956 77.0378 51.8647 77.9572 55.5423 79.0209L56.098 77.0996C52.4457 76.0433 49.8147 75.1627 47.3663 73.9591C44.9259 72.7593 42.6305 71.2203 39.6823 68.8153L38.4181 70.3651ZM55.5328 79.0181C55.2435 78.9312 55.0435 78.7191 54.9485 78.4934C54.8641 78.2929 54.8673 78.1035 54.8978 77.9626C54.9279 77.8234 55.0044 77.6413 55.1761 77.4878C55.3731 77.3116 55.6657 77.2075 55.9763 77.2696L55.5841 79.2308C55.9446 79.3029 56.2797 79.1838 56.5092 78.9786C56.7135 78.796 56.8125 78.5708 56.8526 78.3853C56.9176 78.0846 56.8738 77.3323 56.1075 77.1024L55.5328 79.0181ZM55.9771 77.2698C52.2899 76.5294 49.4909 75.8793 46.9597 74.7429C44.4537 73.6179 42.168 71.9951 39.577 69.2534L38.1234 70.6271C40.8624 73.5254 43.3566 75.3176 46.1406 76.5675C48.8994 77.8061 51.9004 78.4911 55.5833 79.2306L55.9771 77.2698ZM39.585 69.2619C39.6324 69.3133 39.8803 69.6486 39.6247 70.0907C39.4786 70.3433 39.2041 70.516 38.8962 70.5237C38.6285 70.5303 38.4637 70.4123 38.4185 70.3755L39.6818 68.825C39.5017 68.6782 39.2143 68.5151 38.8464 68.5243C38.4381 68.5345 38.0855 68.7571 37.8932 69.0897C37.5451 69.6918 37.8279 70.3071 38.1154 70.6185L39.585 69.2619ZM40.0502 69.6002V69.5902H38.0502V69.6002H40.0502Z" fill="#222222" mask="url(#path-24-inside-2_0_1)"/>
<mask id="path-26-inside-3_0_1" fill="white">
<path d="M36.1002 77.6304C42.2202 81.9204 45.9502 83.7104 53.3402 84.8504C53.5102 84.8804 53.4902 85.1304 53.3102 85.1204C45.6702 84.6904 40.9902 82.4904 35.9902 77.8204C35.6502 77.5004 35.7202 77.3504 36.1002 77.6204V77.6304Z"/>
</mask>
<path d="M36.1002 77.6304C42.2202 81.9204 45.9502 83.7104 53.3402 84.8504C53.5102 84.8804 53.4902 85.1304 53.3102 85.1204C45.6702 84.6904 40.9902 82.4904 35.9902 77.8204C35.6502 77.5004 35.7202 77.3504 36.1002 77.6204V77.6304Z" fill="#263238"/>
<path d="M36.1002 77.6304H35.1002V78.1507L35.5262 78.4493L36.1002 77.6304ZM53.3402 84.8504L53.514 83.8657L53.5033 83.8638L53.4927 83.8621L53.3402 84.8504ZM53.3102 85.1204L53.254 86.1189L53.2547 86.1189L53.3102 85.1204ZM35.9902 77.8204L35.3048 78.5486L35.3076 78.5512L35.9902 77.8204ZM36.1002 77.6204H37.1002V77.1042L36.6794 76.8053L36.1002 77.6204ZM35.5262 78.4493C38.6072 80.609 41.135 82.1743 43.8492 83.3405C46.5699 84.5095 49.4369 85.2601 53.1877 85.8388L53.4927 83.8621C49.8535 83.3007 47.1604 82.5864 44.6387 81.5029C42.1104 80.4166 39.7132 78.9419 36.6742 76.8116L35.5262 78.4493ZM53.1664 85.8352C52.6674 85.7472 52.4245 85.2849 52.461 84.9047C52.4789 84.719 52.5618 84.5121 52.7388 84.3497C52.9288 84.1754 53.164 84.1108 53.3657 84.122L53.2547 86.1189C53.5464 86.1351 53.8516 86.043 54.0907 85.8237C54.3167 85.6163 54.4277 85.3469 54.4519 85.0961C54.5009 84.5859 54.183 83.9837 53.514 83.8657L53.1664 85.8352ZM53.3664 84.122C49.6326 83.9119 46.6736 83.2724 44.0566 82.1424C41.44 81.0125 39.1145 79.3702 36.6728 77.0896L35.3076 78.5512C37.8659 80.9407 40.3803 82.7334 43.2638 83.9785C46.1468 85.2235 49.3477 85.899 53.254 86.1189L53.3664 84.122ZM36.6756 77.0922C36.6237 77.0434 36.6267 77.0366 36.6513 77.0749C36.6619 77.0913 36.7032 77.1567 36.7343 77.2616C36.7573 77.3395 36.8324 77.63 36.6645 77.9565C36.4596 78.3548 36.0846 78.4631 35.8823 78.478C35.7045 78.4911 35.5783 78.4483 35.5481 78.4379C35.4727 78.4118 35.4588 78.3915 35.521 78.4356L36.6794 76.8053C36.5515 76.7144 36.3864 76.6116 36.2016 76.5477C36.1168 76.5183 35.9464 76.4678 35.7352 76.4834C35.4995 76.5008 35.102 76.6217 34.8859 77.0418C34.7067 77.3902 34.7818 77.7119 34.8165 77.8291C34.8592 77.9733 34.9238 78.0863 34.9697 78.1576C35.0649 78.3055 35.1867 78.4375 35.3048 78.5486L36.6756 77.0922ZM35.1002 77.6204V77.6304H37.1002V77.6204H35.1002Z" fill="#222222" mask="url(#path-26-inside-3_0_1)"/>
<path d="M84.4902 68.6802C84.4902 68.6802 78.4502 61.6702 75.1202 59.1702C71.7902 56.6702 55.9402 51.9502 54.7302 55.3102C53.1602 59.6502 61.7702 64.1902 66.2802 65.8502C66.2802 65.8502 62.6402 75.8902 68.1102 80.4802C73.5802 85.0702 84.5002 68.6702 84.5002 68.6702L84.4902 68.6802Z" fill="#F7A9A0"/>
<path d="M65.1765 74.518C65.4222 76.105 65.9398 77.5956 66.7816 78.8586L66.2231 65.8203L66.4201 65.3999L66.2262 65.8226L66.2129 65.8517C66.2228 65.8634 66.226 65.8613 66.2092 65.8533C66.1886 65.8438 66.168 65.8344 66.1473 65.825M65.1765 74.518C65.1486 74.1976 65.1293 73.8758 65.1179 73.5539C65.0347 71.2052 65.3679 68.8025 65.8785 66.7645M65.1765 74.518C65.1389 74.2752 65.1076 74.0301 65.0826 73.7832C64.8425 71.4179 65.1744 68.9235 65.8785 66.7645M65.1765 74.518C65.3169 76.1335 65.6756 77.7149 66.3459 79.1065L60.9754 63.5276M65.8785 66.7645C65.9275 66.6141 65.9783 66.4653 66.0309 66.3184L66.1595 65.9589L66.1878 65.8797L66.127 65.853M65.8785 66.7645C65.9172 66.6096 65.957 66.4569 65.9978 66.3065C66.0311 66.1833 66.0651 66.0617 66.0996 65.9417L66.124 65.8571L66.127 65.853M66.127 65.853L66.1473 65.825M66.127 65.853L65.7614 65.6922C65.3769 65.5232 64.9835 65.3543 64.5849 65.1832C63.392 64.6709 62.1534 64.1391 60.9754 63.5276M66.1473 65.825C65.553 65.5537 64.9128 65.2804 64.2491 64.9971C63.1871 64.5438 62.0652 64.0648 60.9754 63.5276M66.1473 65.825L60.9754 63.5276M67.8201 80.52C67.9101 80.63 67.7701 80.77 67.6601 80.67L67.7373 80.5877L67.74 80.5848L67.8112 80.5089C67.8142 80.5126 67.8172 80.5163 67.8201 80.52Z" fill="#263238" stroke="#222222"/>
<path d="M197.57 128.12L128.24 129.28L131.69 107.11C131.69 107.11 126.05 102.23 129.34 92.9601C131.49 86.8901 141.21 72.6802 146.13 66.7601C158.12 52.3502 166.42 60.4002 169.74 64.1002C182.43 78.2502 197.57 128.12 197.57 128.12Z" fill="#F7A9A0"/>
<path d="M128.23 129.28L197.57 128.13C197.57 128.13 193.35 114.22 187.49 99.0002C184.16 98.0002 178.61 96.0202 175.03 93.1602C169.63 88.8202 164.45 76.3402 164.45 76.3402L140.37 74.4302C135.79 80.9202 130.81 88.8402 129.34 92.9602C126.06 102.24 131.69 107.11 131.69 107.11L128.24 129.28H128.23Z" fill="#FFC727"/>
<path d="M151.67 79.46C151.67 81.09 150.35 82.4 148.73 82.4C147.11 82.4 145.79 81.08 145.79 79.46C145.79 77.84 147.11 76.52 148.73 76.52C150.35 76.52 151.67 77.84 151.67 79.46ZM148.73 116.32C147.1 116.32 145.79 117.64 145.79 119.26C145.79 120.88 147.11 122.2 148.73 122.2C150.35 122.2 151.67 120.88 151.67 119.26C151.67 117.64 150.35 116.32 148.73 116.32ZM174.78 116.32C173.15 116.32 171.84 117.64 171.84 119.26C171.84 120.88 173.16 122.2 174.78 122.2C176.4 122.2 177.72 120.88 177.72 119.26C177.72 117.64 176.4 116.32 174.78 116.32ZM135.71 96.56C134.08 96.56 132.77 97.88 132.77 99.5C132.77 101.12 134.09 102.44 135.71 102.44C137.33 102.44 138.65 101.12 138.65 99.5C138.65 97.88 137.33 96.56 135.71 96.56ZM161.75 96.56C160.12 96.56 158.81 97.88 158.81 99.5C158.81 101.12 160.13 102.44 161.75 102.44C163.37 102.44 164.69 101.12 164.69 99.5C164.69 97.88 163.37 96.56 161.75 96.56ZM187.49 99C186.79 98.79 186 98.54 185.14 98.25C184.96 98.63 184.86 99.05 184.86 99.5C184.86 101.13 186.18 102.45 187.81 102.45C188.14 102.45 188.45 102.4 188.74 102.3C188.33 101.21 187.92 100.11 187.49 99Z" fill="white"/>
<mask id="path-33-inside-4_0_1" fill="white">
<path d="M152.64 106.92C149.63 106.69 146.58 106.55 143.57 106.77C142.07 106.88 140.58 107.05 139.09 107.26C138.35 107.36 137.61 107.44 136.86 107.52C136.09 107.6 135.28 107.65 134.51 107.54C134.44 107.53 134.42 107.63 134.49 107.65C135.23 107.8 135.93 107.95 136.68 108.01C137.39 108.06 138.12 108.04 138.84 108C140.36 107.91 141.88 107.74 143.41 107.63C146.48 107.41 149.55 107.19 152.64 107.19C152.78 107.19 152.79 106.95 152.64 106.94V106.92Z"/>
</mask>
<path d="M152.64 106.92C149.63 106.69 146.58 106.55 143.57 106.77C142.07 106.88 140.58 107.05 139.09 107.26C138.35 107.36 137.61 107.44 136.86 107.52C136.09 107.6 135.28 107.65 134.51 107.54C134.44 107.53 134.42 107.63 134.49 107.65C135.23 107.8 135.93 107.95 136.68 108.01C137.39 108.06 138.12 108.04 138.84 108C140.36 107.91 141.88 107.74 143.41 107.63C146.48 107.41 149.55 107.19 152.64 107.19C152.78 107.19 152.79 106.95 152.64 106.94V106.92Z" fill="#263238"/>
<path d="M152.64 106.92H153.64V105.993L152.717 105.923L152.64 106.92ZM143.57 106.77L143.497 105.773L143.497 105.773L143.57 106.77ZM139.09 107.26L139.224 108.251L139.23 108.25L139.09 107.26ZM136.86 107.52L136.964 108.515L136.966 108.514L136.86 107.52ZM134.51 107.54L134.652 106.55L134.51 107.54ZM134.49 107.65L134.216 108.611L134.253 108.622L134.292 108.63L134.49 107.65ZM136.68 108.01L136.601 109.007L136.61 109.007L136.68 108.01ZM138.84 108L138.896 108.998L138.899 108.998L138.84 108ZM143.41 107.63L143.339 106.633L143.339 106.633L143.41 107.63ZM152.64 106.94H151.64V107.875L152.574 107.938L152.64 106.94ZM152.717 105.923C149.691 105.692 146.582 105.547 143.497 105.773L143.643 107.767C146.578 107.553 149.57 107.688 152.564 107.917L152.717 105.923ZM143.497 105.773C141.971 105.885 140.458 106.057 138.951 106.27L139.23 108.25C140.703 108.043 142.17 107.875 143.643 107.767L143.497 105.773ZM138.956 106.269C138.232 106.367 137.505 106.445 136.754 106.526L136.966 108.514C137.715 108.434 138.469 108.353 139.224 108.251L138.956 106.269ZM136.757 106.525C136.004 106.604 135.295 106.642 134.652 106.55L134.369 108.53C135.266 108.658 136.177 108.596 136.964 108.515L136.757 106.525ZM134.652 106.55C134.013 106.459 133.556 106.923 133.465 107.397C133.375 107.872 133.627 108.443 134.216 108.611L134.765 106.688C135.284 106.837 135.511 107.348 135.43 107.771C135.392 107.971 135.283 108.183 135.083 108.339C134.868 108.506 134.606 108.564 134.369 108.53L134.652 106.55ZM134.292 108.63C135.012 108.776 135.778 108.941 136.601 109.007L136.76 107.013C136.083 106.959 135.448 106.824 134.689 106.67L134.292 108.63ZM136.61 109.007C137.382 109.062 138.161 109.039 138.896 108.998L138.785 107.001C138.08 107.041 137.398 107.058 136.751 107.012L136.61 109.007ZM138.899 108.998C140.399 108.909 142.034 108.731 143.482 108.627L143.339 106.633C141.727 106.748 140.322 106.91 138.781 107.002L138.899 108.998ZM143.482 108.627C146.558 108.407 149.592 108.19 152.64 108.19V106.19C149.509 106.19 146.403 106.413 143.339 106.633L143.482 108.627ZM152.64 108.19C152.994 108.19 153.301 108.025 153.499 107.78C153.678 107.558 153.744 107.304 153.749 107.089C153.753 106.873 153.696 106.614 153.523 106.382C153.332 106.128 153.038 105.964 152.707 105.942L152.574 107.938C152.318 107.921 152.079 107.79 151.924 107.584C151.786 107.401 151.746 107.203 151.749 107.048C151.752 106.895 151.8 106.701 151.942 106.524C152.103 106.325 152.357 106.19 152.64 106.19V108.19ZM153.64 106.94V106.92H151.64V106.94H153.64Z" fill="#222222" mask="url(#path-33-inside-4_0_1)"/>
<mask id="path-35-inside-5_0_1" fill="white">
<path d="M159.5 110.88C157.11 110.19 154.66 109.6 152.2 109.19C150.97 108.98 149.73 108.85 148.49 108.74C147.9 108.69 147.3 108.65 146.7 108.62C146.04 108.58 145.38 108.64 144.73 108.59C144.66 108.59 144.64 108.69 144.71 108.7C145.33 108.76 145.94 108.92 146.55 109.02C147.16 109.12 147.78 109.21 148.4 109.3C149.63 109.49 150.86 109.7 152.09 109.88C154.56 110.24 157.01 110.63 159.47 111.08C159.6 111.1 159.63 110.91 159.5 110.88Z"/>
</mask>
<path d="M159.5 110.88C157.11 110.19 154.66 109.6 152.2 109.19C150.97 108.98 149.73 108.85 148.49 108.74C147.9 108.69 147.3 108.65 146.7 108.62C146.04 108.58 145.38 108.64 144.73 108.59C144.66 108.59 144.64 108.69 144.71 108.7C145.33 108.76 145.94 108.92 146.55 109.02C147.16 109.12 147.78 109.21 148.4 109.3C149.63 109.49 150.86 109.7 152.09 109.88C154.56 110.24 157.01 110.63 159.47 111.08C159.6 111.1 159.63 110.91 159.5 110.88Z" fill="#263238"/>
<path d="M159.5 110.88L159.223 111.841L159.249 111.848L159.275 111.854L159.5 110.88ZM152.2 109.19L152.032 110.176L152.036 110.176L152.2 109.19ZM148.49 108.74L148.579 107.744L148.575 107.743L148.49 108.74ZM146.7 108.62L146.64 109.618L146.65 109.619L146.7 108.62ZM144.73 108.59L144.807 107.593L144.769 107.59H144.73V108.59ZM144.71 108.7L144.569 109.69L144.591 109.693L144.614 109.695L144.71 108.7ZM148.4 109.3L148.553 108.312L148.544 108.31L148.4 109.3ZM152.09 109.88L151.946 110.869L151.946 110.869L152.09 109.88ZM159.47 111.08L159.29 112.064L159.304 112.066L159.318 112.068L159.47 111.08ZM159.778 109.919C157.36 109.221 154.871 108.621 152.365 108.203L152.036 110.176C154.45 110.579 156.861 111.159 159.223 111.841L159.778 109.919ZM152.369 108.204C151.099 107.987 149.827 107.854 148.579 107.744L148.402 109.736C149.634 109.845 150.842 109.972 152.032 110.176L152.369 108.204ZM148.575 107.743C147.973 107.692 147.361 107.652 146.75 107.621L146.65 109.619C147.239 109.648 147.828 109.687 148.406 109.736L148.575 107.743ZM146.761 107.622C146.388 107.599 146.019 107.605 145.7 107.609C145.368 107.612 145.082 107.614 144.807 107.593L144.654 109.587C145.029 109.616 145.398 109.612 145.723 109.609C146.061 109.605 146.353 109.601 146.64 109.618L146.761 107.622ZM144.73 107.59C144.148 107.59 143.767 108.026 143.685 108.454C143.644 108.672 143.664 108.954 143.831 109.216C144.012 109.499 144.296 109.651 144.569 109.69L144.852 107.71C145.09 107.744 145.35 107.879 145.517 108.141C145.67 108.381 145.687 108.636 145.65 108.828C145.579 109.204 145.243 109.59 144.73 109.59V107.59ZM144.614 109.695C144.874 109.72 145.143 109.768 145.442 109.826C145.726 109.882 146.063 109.953 146.389 110.007L146.712 108.033C146.427 107.986 146.154 107.928 145.826 107.864C145.513 107.802 145.167 107.739 144.807 107.704L144.614 109.695ZM146.389 110.007C147.009 110.108 147.638 110.2 148.257 110.289L148.544 108.31C147.922 108.22 147.311 108.131 146.712 108.033L146.389 110.007ZM148.248 110.288C149.451 110.474 150.716 110.689 151.946 110.869L152.235 108.89C151.004 108.71 149.81 108.506 148.553 108.312L148.248 110.288ZM151.946 110.869C154.408 111.228 156.845 111.616 159.29 112.064L159.65 110.096C157.175 109.643 154.713 109.252 152.235 108.89L151.946 110.869ZM159.318 112.068C159.61 112.113 159.925 112.043 160.178 111.838C160.414 111.647 160.535 111.388 160.571 111.151C160.647 110.661 160.372 110.055 159.725 109.905L159.275 111.854C158.758 111.735 158.534 111.239 158.594 110.847C158.624 110.658 158.721 110.445 158.918 110.285C159.133 110.11 159.395 110.057 159.622 110.091L159.318 112.068Z" fill="#222222" mask="url(#path-35-inside-5_0_1)"/>
<path d="M176.02 67.2704C196.62 88.0204 218.51 123.94 213.73 132.83C208.4 142.73 183.78 121.43 183.89 119.73C183.97 118.44 173.83 91.8804 166.14 72.5504C158.46 53.2504 170.93 62.1404 176.03 67.2704H176.02Z" fill="#F7A9A0"/>
<mask id="path-38-inside-6_0_1" fill="white">
<path d="M185.72 122.76C184.56 119.44 183.35 116.13 182.12 112.83C180.9 109.53 179.64 106.25 178.4 102.95L174.56 93.1203L172.6 88.2203C171.93 86.5903 171.28 84.9603 170.59 83.3403C171.17 85.0003 171.77 86.6603 172.36 88.3103L174.18 93.2603L177.9 103.14C179.18 106.42 180.44 109.7 181.74 112.97C183.04 116.24 184.35 119.51 185.7 122.75L185.72 122.76Z"/>
</mask>
<path d="M185.72 122.76C184.56 119.44 183.35 116.13 182.12 112.83C180.9 109.53 179.64 106.25 178.4 102.95L174.56 93.1203L172.6 88.2203C171.93 86.5903 171.28 84.9603 170.59 83.3403C171.17 85.0003 171.77 86.6603 172.36 88.3103L174.18 93.2603L177.9 103.14C179.18 106.42 180.44 109.7 181.74 112.97C183.04 116.24 184.35 119.51 185.7 122.75L185.72 122.76Z" fill="#263238"/>
<path d="M185.72 122.76L185.273 123.655L187.477 124.757L186.664 122.43L185.72 122.76ZM182.12 112.83L181.182 113.177L181.183 113.18L182.12 112.83ZM178.4 102.95L179.336 102.599L179.332 102.586L178.4 102.95ZM174.56 93.1203L175.492 92.7565L175.489 92.7489L174.56 93.1203ZM172.6 88.2203L173.529 87.8489L173.525 87.8402L172.6 88.2203ZM170.59 83.3403L171.51 82.9485L169.646 83.6702L170.59 83.3403ZM172.36 88.3103L171.418 88.647L171.422 88.6554L172.36 88.3103ZM174.18 93.2603L173.242 93.6054L173.244 93.6127L174.18 93.2603ZM177.9 103.14L176.964 103.493L176.969 103.504L177.9 103.14ZM185.7 122.75L184.777 123.135L184.92 123.478L185.253 123.645L185.7 122.75ZM186.664 122.43C185.501 119.102 184.288 115.785 183.057 112.481L181.183 113.18C182.412 116.476 183.619 119.779 184.776 123.09L186.664 122.43ZM183.058 112.484C181.837 109.182 180.572 105.888 179.336 102.599L177.464 103.302C178.708 106.612 179.963 109.879 181.182 113.177L183.058 112.484ZM179.332 102.586L175.492 92.7565L173.629 93.4842L177.469 103.314L179.332 102.586ZM175.489 92.7489L173.529 87.8489L171.672 88.5917L173.632 93.4917L175.489 92.7489ZM173.525 87.8402C172.861 86.2235 172.203 84.5758 171.51 82.9485L169.67 83.7322C170.357 85.3448 171 86.9571 171.675 88.6005L173.525 87.8402ZM169.646 83.6702C170.228 85.3347 170.83 87.0014 171.418 88.647L173.302 87.9736C172.71 86.3193 172.113 84.6659 171.534 83.0105L169.646 83.6702ZM171.422 88.6554L173.242 93.6054L175.119 92.9152L173.299 87.9652L171.422 88.6554ZM173.244 93.6127L176.964 103.493L178.836 102.788L175.116 92.908L173.244 93.6127ZM176.969 103.504C178.246 106.777 179.509 110.066 180.811 113.34L182.669 112.601C181.371 109.335 180.114 106.064 178.832 102.777L176.969 103.504ZM180.811 113.34C182.111 116.611 183.424 119.887 184.777 123.135L186.623 122.366C185.276 119.134 183.969 115.87 182.669 112.601L180.811 113.34ZM185.253 123.645L185.273 123.655L186.167 121.866L186.147 121.856L185.253 123.645Z" fill="#222222" mask="url(#path-38-inside-6_0_1)"/>
<mask id="path-40-inside-7_0_1" fill="white">
<path d="M173.39 91.0104C173 90.1604 172.51 89.3704 172 88.6004C171.74 88.2204 171.48 87.8304 171.21 87.4604C170.94 87.0804 170.65 86.7204 170.36 86.3604C170.68 87.2504 171.17 88.0404 171.67 88.8204C172.19 89.5904 172.73 90.3404 173.38 91.0204L173.39 91.0104Z"/>
</mask>
<path d="M173.39 91.0104C173 90.1604 172.51 89.3704 172 88.6004C171.74 88.2204 171.48 87.8304 171.21 87.4604C170.94 87.0804 170.65 86.7204 170.36 86.3604C170.68 87.2504 171.17 88.0404 171.67 88.8204C172.19 89.5904 172.73 90.3404 173.38 91.0204L173.39 91.0104Z" fill="#263238"/>
<path d="M173.39 91.0104L174.097 91.7172L174.589 91.2253L174.299 90.5933L173.39 91.0104ZM172 88.6004L172.834 88.0482L172.83 88.0419L172.825 88.0357L172 88.6004ZM171.21 87.4604L170.395 88.0396L170.402 88.0498L171.21 87.4604ZM170.36 86.3604L171.139 85.733L169.419 86.6987L170.36 86.3604ZM171.67 88.8204L170.828 89.36L170.835 89.3701L170.841 89.38L171.67 88.8204ZM173.38 91.0204L172.657 91.7113L173.364 92.451L174.087 91.7272L173.38 91.0204ZM174.299 90.5933C173.876 89.6721 173.352 88.8309 172.834 88.0482L171.166 89.1526C171.668 89.9098 172.124 90.6486 172.481 91.4274L174.299 90.5933ZM172.825 88.0357C172.575 87.6694 172.3 87.2572 172.018 86.8709L170.402 88.0498C170.66 88.4035 170.905 88.7713 171.175 89.165L172.825 88.0357ZM172.025 86.8811C171.735 86.4725 171.426 86.0892 171.139 85.733L169.581 86.9877C169.874 87.3515 170.145 87.6882 170.395 88.0396L172.025 86.8811ZM169.419 86.6987C169.782 87.7072 170.33 88.5829 170.828 89.36L172.512 88.2807C172.01 87.4978 171.579 86.7935 171.301 86.022L169.419 86.6987ZM170.841 89.38C171.37 90.1622 171.947 90.9688 172.657 91.7113L174.103 90.3294C173.513 89.7119 173.011 89.0185 172.499 88.2607L170.841 89.38ZM174.087 91.7272L174.097 91.7172L172.683 90.3035L172.673 90.3135L174.087 91.7272Z" fill="#222222" mask="url(#path-40-inside-7_0_1)"/>
<path d="M213.29 133.64C207.53 139.71 195.76 139.55 162.62 141.02C158.03 141.22 146.98 108.57 151.87 108.1C158.03 107.51 182.04 106.55 183.81 106.7C198.7 107.98 217.21 129.52 213.3 133.64H213.29Z" fill="#F7A9A0"/>
<path d="M162.95 109.15C162.95 109.15 150.67 106.59 142.56 105.3C138.04 104.58 130.17 104.03 126.6 105.02C121.27 106.5 99.9001 116.1 102.12 121.33C104.13 126.06 121.43 115.49 121.43 115.49C121.43 115.49 103.02 124.62 106.48 129.87C109.94 135.13 127.91 120.58 127.91 120.58C127.91 120.58 109.21 130.38 113.63 135.24C116.98 138.91 133.99 126.65 133.99 126.65C133.99 126.65 117.97 135.19 121.25 139.11C124.87 143.44 141.29 133.11 141.29 133.11C151.3 141.68 159.57 141.66 165.46 140.95C166.88 140.78 162.94 109.16 162.94 109.16L162.95 109.15Z" fill="#F7A9A0"/>
<mask id="path-44-inside-8_0_1" fill="white">
<path d="M127.6 111.92C125.4 112.91 123.16 113.9 121.06 115.09C118.95 116.28 116.89 117.54 114.9 118.91C110.03 122.29 107.51 125.16 107.68 125C111.82 121.2 119.29 116.84 121.4 115.65C123.5 114.47 125.54 113.18 127.64 111.99C127.69 111.96 127.64 111.89 127.59 111.91L127.6 111.92Z"/>
</mask>
<path d="M127.6 111.92C125.4 112.91 123.16 113.9 121.06 115.09C118.95 116.28 116.89 117.54 114.9 118.91C110.03 122.29 107.51 125.16 107.68 125C111.82 121.2 119.29 116.84 121.4 115.65C123.5 114.47 125.54 113.18 127.64 111.99C127.69 111.96 127.64 111.89 127.59 111.91L127.6 111.92Z" fill="#263238"/>
<path d="M127.6 111.92L128.01 112.832L129.332 112.238L128.307 111.213L127.6 111.92ZM121.06 115.09L121.551 115.961L121.553 115.96L121.06 115.09ZM114.9 118.91L114.333 118.087L114.33 118.089L114.9 118.91ZM107.68 125L107.004 124.264L106.995 124.272L107.68 125ZM121.4 115.65L120.91 114.778L120.909 114.779L121.4 115.65ZM127.64 111.99L128.133 112.86L128.144 112.854L128.154 112.848L127.64 111.99ZM127.59 111.91L127.219 110.982L125.81 111.545L126.883 112.617L127.59 111.91ZM127.19 111.008C125.003 111.992 122.716 113.002 120.567 114.22L121.553 115.96C123.604 114.798 125.797 113.828 128.01 112.832L127.19 111.008ZM120.569 114.219C118.438 115.421 116.352 116.696 114.333 118.087L115.467 119.734C117.428 118.384 119.461 117.14 121.551 115.961L120.569 114.219ZM114.33 118.089C111.853 119.808 109.97 121.4 108.723 122.547C108.1 123.12 107.634 123.584 107.331 123.898C107.181 124.054 107.068 124.176 106.995 124.258C106.963 124.294 106.925 124.337 106.895 124.376C106.887 124.385 106.869 124.408 106.85 124.437C106.841 124.449 106.818 124.482 106.794 124.527C106.782 124.549 106.758 124.594 106.736 124.655C106.725 124.684 106.656 124.858 106.675 125.088C106.694 125.215 106.801 125.498 106.9 125.643C107.038 125.78 107.35 125.953 107.509 125.993C107.816 126.044 108.048 125.934 108.074 125.922C108.194 125.87 108.276 125.804 108.282 125.799C108.326 125.766 108.359 125.735 108.365 125.728L106.995 124.272C106.996 124.271 107.025 124.243 107.066 124.212C107.07 124.208 107.152 124.143 107.271 124.091C107.296 124.08 107.528 123.969 107.835 124.02C107.994 124.06 108.306 124.233 108.444 124.371C108.543 124.515 108.65 124.798 108.669 124.925C108.687 125.155 108.619 125.328 108.608 125.357C108.586 125.417 108.562 125.462 108.551 125.483C108.527 125.527 108.505 125.559 108.498 125.569C108.481 125.595 108.467 125.612 108.464 125.615C108.455 125.627 108.458 125.622 108.488 125.588C108.54 125.531 108.634 125.428 108.772 125.285C109.046 125.001 109.483 124.565 110.077 124.019C111.265 122.926 113.077 121.393 115.47 119.732L114.33 118.089ZM108.356 125.737C112.399 122.026 119.77 117.717 121.891 116.521L120.909 114.779C118.81 115.963 111.241 120.374 107.004 124.264L108.356 125.737ZM121.89 116.522C122.953 115.925 123.999 115.3 125.033 114.682C126.07 114.062 127.095 113.448 128.133 112.86L127.147 111.12C126.085 111.722 125.039 112.348 124.007 112.966C122.971 113.585 121.947 114.196 120.91 114.778L121.89 116.522ZM128.154 112.848C128.396 112.703 128.599 112.446 128.649 112.11C128.695 111.805 128.598 111.547 128.485 111.377C128.276 111.064 127.785 110.755 127.219 110.982L127.961 112.839C127.445 113.045 127.004 112.761 126.82 112.486C126.719 112.334 126.629 112.099 126.671 111.815C126.718 111.499 126.909 111.263 127.125 111.133L128.154 112.848ZM126.883 112.617L126.893 112.627L128.307 111.213L128.297 111.203L126.883 112.617Z" fill="#222222" mask="url(#path-44-inside-8_0_1)"/>
<mask id="path-46-inside-9_0_1" fill="white">
<path d="M132.02 119.44C129.26 120.83 126.48 122.11 123.78 123.62C121.1 125.13 118.69 126.79 116.11 128.47C115.91 128.6 116.05 128.66 116.25 128.54C118.89 126.96 121.45 125.7 124.1 124.15C126.75 122.6 129.35 120.94 132.05 119.5C132.09 119.48 132.05 119.42 132.01 119.44H132.02Z"/>
</mask>
<path d="M132.02 119.44C129.26 120.83 126.48 122.11 123.78 123.62C121.1 125.13 118.69 126.79 116.11 128.47C115.91 128.6 116.05 128.66 116.25 128.54C118.89 126.96 121.45 125.7 124.1 124.15C126.75 122.6 129.35 120.94 132.05 119.5C132.09 119.48 132.05 119.42 132.01 119.44H132.02Z" fill="#263238"/>
<path d="M132.02 119.44L132.47 120.333L132.02 118.44V119.44ZM123.78 123.62L123.292 122.747L123.289 122.749L123.78 123.62ZM116.11 128.47L116.655 129.309L116.656 129.308L116.11 128.47ZM116.25 128.54L115.736 127.682L115.736 127.683L116.25 128.54ZM132.05 119.5L131.603 118.606L131.591 118.612L131.579 118.618L132.05 119.5ZM132.01 119.44L131.563 118.546L132.01 120.44V119.44ZM131.57 118.547C128.853 119.915 126.016 121.224 123.292 122.747L124.268 124.493C126.944 122.996 129.667 121.745 132.47 120.333L131.57 118.547ZM123.289 122.749C120.572 124.28 118.117 125.97 115.564 127.632L116.656 129.308C119.263 127.61 121.628 125.98 124.271 124.491L123.289 122.749ZM115.565 127.632C115.479 127.688 115.274 127.828 115.139 128.078C115.067 128.213 114.959 128.487 115.044 128.825C115.138 129.196 115.401 129.409 115.609 129.506C115.944 129.661 116.254 129.593 116.351 129.57C116.503 129.533 116.643 129.47 116.765 129.398L115.736 127.683C115.757 127.67 115.804 127.645 115.881 127.626C115.901 127.621 116.152 127.553 116.451 127.692C116.641 127.78 116.894 127.981 116.983 128.337C117.065 128.66 116.96 128.915 116.9 129.027C116.836 129.146 116.763 129.219 116.731 129.248C116.693 129.283 116.665 129.302 116.655 129.309L115.565 127.632ZM116.764 129.398C118.064 128.62 119.347 127.919 120.648 127.213C121.945 126.509 123.263 125.798 124.605 125.013L123.595 123.287C122.287 124.052 121 124.746 119.694 125.455C118.393 126.161 117.077 126.88 115.736 127.682L116.764 129.398ZM124.605 125.013C127.303 123.435 129.841 121.812 132.521 120.382L131.579 118.618C128.859 120.069 126.197 121.765 123.595 123.287L124.605 125.013ZM132.497 120.394C132.774 120.256 133 119.985 133.055 119.631C133.102 119.322 133.002 119.065 132.892 118.9C132.688 118.595 132.16 118.247 131.563 118.546L132.457 120.334C131.9 120.613 131.412 120.285 131.228 120.01C131.128 119.86 131.033 119.62 131.078 119.327C131.13 118.99 131.346 118.734 131.603 118.606L132.497 120.394ZM132.01 120.44H132.02V118.44H132.01V120.44Z" fill="#222222" mask="url(#path-46-inside-9_0_1)"/>
<mask id="path-48-inside-10_0_1" fill="white">
<path d="M136.98 125.22C132.66 127.13 128.7 129.83 124.87 132.58C124.68 132.72 124.87 132.78 125.07 132.65C129.05 130.13 132.15 128.12 137.05 125.37C137.13 125.33 137.07 125.18 136.98 125.22Z"/>
</mask>
<path d="M136.98 125.22C132.66 127.13 128.7 129.83 124.87 132.58C124.68 132.72 124.87 132.78 125.07 132.65C129.05 130.13 132.15 128.12 137.05 125.37C137.13 125.33 137.07 125.18 136.98 125.22Z" fill="#263238"/>
<path d="M136.98 125.22L137.384 126.135L137.386 126.134L136.98 125.22ZM124.87 132.58L124.287 131.768L124.277 131.775L124.87 132.58ZM125.07 132.65L124.535 131.805L124.525 131.812L125.07 132.65ZM137.05 125.37L136.603 124.476L136.581 124.486L136.561 124.498L137.05 125.37ZM136.576 124.306C132.153 126.261 128.121 129.015 124.287 131.768L125.453 133.392C129.279 130.645 133.167 127.999 137.384 126.135L136.576 124.306ZM124.277 131.775C124.195 131.835 123.918 132.044 123.822 132.427C123.763 132.668 123.78 132.976 123.965 133.252C124.132 133.503 124.361 133.616 124.508 133.665C124.784 133.757 125.032 133.718 125.164 133.685C125.325 133.646 125.478 133.578 125.615 133.489L124.525 131.812C124.562 131.787 124.616 131.76 124.691 131.742C124.737 131.731 124.912 131.692 125.14 131.768C125.262 131.808 125.473 131.909 125.629 132.144C125.803 132.404 125.818 132.692 125.763 132.909C125.716 133.101 125.622 133.224 125.577 133.277C125.526 133.337 125.481 133.372 125.463 133.385L124.277 131.775ZM125.605 133.495C129.59 130.972 132.667 128.977 137.539 126.242L136.561 124.498C131.633 127.263 128.51 129.289 124.535 131.805L125.605 133.495ZM137.497 126.265C138.212 125.907 138.121 125.156 137.996 124.867C137.918 124.687 137.767 124.475 137.51 124.338C137.22 124.184 136.877 124.172 136.574 124.306L137.386 126.134C137.128 126.249 136.826 126.24 136.57 126.104C136.348 125.985 136.223 125.806 136.161 125.663C136.099 125.518 136.061 125.324 136.109 125.108C136.162 124.867 136.324 124.615 136.603 124.476L137.497 126.265Z" fill="#222222" mask="url(#path-48-inside-10_0_1)"/>
<mask id="path-50-inside-11_0_1" fill="white">
<path d="M198.59 113.53C196.12 111.39 189.1 106.28 179.54 106.63C179.46 106.63 179.44 106.77 179.53 106.77C186.68 107.2 195.97 111.78 198.52 113.64C198.59 113.69 198.65 113.58 198.59 113.53Z"/>
</mask>
<path d="M198.59 113.53C196.12 111.39 189.1 106.28 179.54 106.63C179.46 106.63 179.44 106.77 179.53 106.77C186.68 107.2 195.97 111.78 198.52 113.64C198.59 113.69 198.65 113.58 198.59 113.53Z" fill="#263238"/>
<path d="M198.59 113.53L197.935 114.286L197.943 114.292L197.95 114.299L198.59 113.53ZM179.54 106.63V107.63H179.558L179.577 107.63L179.54 106.63ZM179.53 106.77L179.59 105.772L179.56 105.77H179.53V106.77ZM198.52 113.64L197.931 114.448L197.939 114.454L198.52 113.64ZM199.245 112.775C196.696 110.566 189.434 105.268 179.504 105.631L179.577 107.63C188.766 107.293 195.544 112.214 197.935 114.286L199.245 112.775ZM179.54 105.63C178.805 105.63 178.513 106.258 178.477 106.594C178.456 106.794 178.484 107.076 178.673 107.336C178.889 107.633 179.219 107.77 179.53 107.77V105.77C179.796 105.77 180.095 105.89 180.292 106.161C180.462 106.395 180.483 106.642 180.466 106.807C180.437 107.073 180.196 107.63 179.54 107.63V105.63ZM179.47 107.769C182.887 107.974 186.881 109.181 190.375 110.596C193.872 112.012 196.749 113.586 197.931 114.448L199.109 112.832C197.742 111.835 194.698 110.189 191.125 108.742C187.549 107.294 183.323 105.997 179.59 105.772L179.47 107.769ZM197.939 114.454C198.168 114.618 198.494 114.711 198.838 114.614C199.152 114.527 199.355 114.318 199.465 114.132C199.668 113.788 199.724 113.174 199.23 112.762L197.95 114.299C197.516 113.937 197.572 113.403 197.743 113.114C197.837 112.955 198.016 112.768 198.3 112.688C198.615 112.6 198.907 112.688 199.101 112.827L197.939 114.454Z" fill="#222222" mask="url(#path-50-inside-11_0_1)"/>
<path d="M163.71 61.7402C163.49 63.0302 157.94 71.7002 152.09 71.8002C150.19 71.8302 149.56 61.4402 149.56 61.4402L149.34 60.6802L146.25 50.0902L158.34 41.1802L160.09 39.9902C160.09 39.9902 160.75 42.9402 161.52 46.6302C161.56 46.8002 161.59 46.9702 161.63 47.1502C161.68 47.3602 161.73 47.5502 161.77 47.7502C161.89 48.3002 162.02 48.8602 162.13 49.4202C162.22 49.8502 162.3 50.2602 162.38 50.7102C162.47 51.1602 162.54 51.6002 162.63 52.0502C163.39 56.5202 163.79 61.1602 163.71 61.7102V61.7402Z" fill="#F7A9A0"/>
<path d="M159.771 40.8383C159.841 41.1544 159.931 41.5655 160.038 42.053C160.294 43.2284 160.643 44.8478 161.019 46.6499C158.655 54.6374 152.816 58.4686 149.666 59.9998L146.838 50.3055L158.639 41.6084L159.771 40.8383Z" fill="#263238" stroke="#222222"/>
<path d="M130.25 33.6402C128.59 52.9202 139.95 56.0902 144.11 56.4502C147.88 56.7702 160.78 57.3802 164.42 38.3702C168.06 19.3602 159.62 12.4902 151.02 11.3002C142.42 10.1102 131.9 14.3502 130.24 33.6402H130.25Z" fill="#F7A9A0"/>
<path d="M134.503 29.8562C134.344 29.881 134.201 29.9067 134.067 29.9309C133.781 29.9825 133.534 30.027 133.249 30.0402H133.233L133.216 30.0414C133.16 30.0452 133.066 30.0071 133.008 29.8952C132.982 29.8455 132.975 29.8011 132.978 29.7705C132.98 29.7455 132.988 29.7198 133.018 29.6899C133.403 29.2961 133.786 29.1142 134.348 29.0468C134.917 28.9817 135.312 29.0654 135.542 29.363C135.543 29.3651 135.547 29.3722 135.55 29.3858C135.556 29.408 135.56 29.4369 135.558 29.4679C135.557 29.499 135.551 29.5226 135.545 29.5362C135.545 29.5373 135.544 29.5382 135.544 29.5391C135.331 29.7329 135.141 29.761 134.725 29.8225C134.658 29.8326 134.584 29.8435 134.503 29.8562ZM134.503 29.8562C134.503 29.8562 134.503 29.8562 134.503 29.8563L134.58 30.3502L134.503 29.8562C134.503 29.8562 134.503 29.8562 134.503 29.8562Z" fill="#263238" stroke="#222222"/>
<path d="M146.708 30.2896L146.708 30.2879C146.416 30.236 146.161 30.1555 145.866 30.0624C145.744 30.0236 145.614 29.9827 145.472 29.9407L145.472 29.9407L145.468 29.9394C145.407 29.922 145.35 29.9061 145.296 29.8912C144.873 29.7726 144.675 29.7171 144.483 29.4899C144.482 29.488 144.481 29.4853 144.48 29.4815C144.476 29.4653 144.473 29.4398 144.475 29.4083C144.477 29.377 144.484 29.3483 144.493 29.3265C144.498 29.3142 144.502 29.3071 144.504 29.3041C144.767 29.0494 145.165 29.0169 145.719 29.1553L145.721 29.1557C146.265 29.2898 146.622 29.5176 146.948 29.9578L146.948 29.9578L146.95 29.9602C146.978 29.9972 146.983 30.0264 146.982 30.0519C146.981 30.0827 146.969 30.125 146.938 30.1699C146.87 30.2665 146.774 30.2993 146.708 30.2896Z" fill="#263238" stroke="#222222"/>
<mask id="path-57-inside-12_0_1" fill="white">
<path d="M143.14 35.8904C143.14 35.8904 143.24 35.9604 143.23 36.0104C143.07 37.3204 143.12 38.8404 144.26 39.3804C144.3 39.4004 144.29 39.4604 144.24 39.4504C142.81 39.1204 142.77 37.0904 143.13 35.8804L143.14 35.8904Z"/>
</mask>
<path d="M143.14 35.8904C143.14 35.8904 143.24 35.9604 143.23 36.0104C143.07 37.3204 143.12 38.8404 144.26 39.3804C144.3 39.4004 144.29 39.4604 144.24 39.4504C142.81 39.1204 142.77 37.0904 143.13 35.8804L143.14 35.8904Z" fill="#263238"/>
<path d="M143.14 35.8904L142.433 36.5972L142.495 36.6593L142.567 36.7096L143.14 35.8904ZM143.23 36.0104L142.249 35.8143L142.242 35.8515L142.237 35.8891L143.23 36.0104ZM144.26 39.3804L144.707 38.4859L144.698 38.4812L144.688 38.4766L144.26 39.3804ZM144.24 39.4504L144.015 40.4248L144.029 40.4281L144.044 40.431L144.24 39.4504ZM143.13 35.8804L143.837 35.1735L142.65 33.9856L142.172 35.5952L143.13 35.8804ZM143.14 35.8904C142.567 36.7096 142.566 36.7095 142.566 36.7094C142.566 36.7094 142.566 36.7093 142.566 36.7092C142.566 36.7091 142.566 36.7089 142.565 36.7088C142.565 36.7085 142.565 36.7082 142.564 36.7079C142.563 36.7074 142.563 36.7068 142.562 36.7063C142.56 36.7052 142.559 36.7041 142.557 36.7031C142.554 36.701 142.552 36.699 142.549 36.6969C142.544 36.693 142.538 36.6888 142.532 36.6843C142.523 36.6767 142.505 36.6616 142.482 36.6387C142.465 36.6217 142.41 36.5665 142.357 36.4763C142.317 36.4064 142.181 36.1562 142.249 35.8143L144.211 36.2065C144.284 35.8395 144.14 35.5618 144.083 35.4648C144.014 35.3474 143.937 35.2653 143.896 35.2245C143.849 35.1779 143.806 35.1421 143.779 35.1199C143.764 35.108 143.75 35.098 143.74 35.09C143.734 35.086 143.729 35.0824 143.725 35.0793C143.723 35.0777 143.721 35.0762 143.719 35.0749C143.718 35.0742 143.717 35.0735 143.716 35.0729C143.716 35.0726 143.715 35.0723 143.715 35.072C143.714 35.0719 143.714 35.0717 143.714 35.0716C143.714 35.0715 143.714 35.0714 143.714 35.0713C143.714 35.0712 143.713 35.0711 143.14 35.8904ZM142.237 35.8891C142.153 36.5832 142.11 37.4236 142.281 38.1998C142.457 38.9949 142.889 39.8375 143.832 40.2841L144.688 38.4766C144.491 38.3832 144.328 38.1959 144.234 37.7685C144.135 37.3222 144.147 36.7475 144.223 36.1316L142.237 35.8891ZM143.813 40.2748C143.421 40.0787 143.209 39.6366 143.309 39.2018C143.361 38.9782 143.501 38.746 143.745 38.5955C143.992 38.4429 144.25 38.4325 144.436 38.4698L144.044 40.431C144.255 40.4732 144.533 40.4591 144.795 40.2975C145.054 40.1379 145.203 39.8913 145.258 39.6514C145.366 39.1842 145.139 38.7021 144.707 38.4859L143.813 40.2748ZM144.465 38.476C144.288 38.4351 144.097 38.2983 143.993 37.7942C143.889 37.286 143.946 36.6453 144.088 36.1655L142.172 35.5952C141.954 36.3254 141.851 37.3048 142.034 38.1965C142.218 39.0924 142.762 40.1357 144.015 40.4248L144.465 38.476ZM142.423 36.5872L142.433 36.5972L143.847 35.1835L143.837 35.1735L142.423 36.5872Z" fill="#222222" mask="url(#path-57-inside-12_0_1)"/>
<path d="M144.425 35.1202L144.424 35.1202C144.212 35.1178 144.007 35.2325 143.826 35.5319C143.642 35.837 143.524 36.2776 143.51 36.7455C143.495 37.2144 143.586 37.65 143.755 37.9499C143.914 38.2337 144.119 38.3674 144.385 38.3702L144.425 35.1202ZM144.425 35.1202C144.762 35.1233 145 35.2812 145.173 35.5593M144.425 35.1202L145.173 35.5593M145.173 35.5593C145.357 35.8556 145.457 36.284 145.443 36.7449M145.173 35.5593L145.443 36.7449M145.443 36.7449C145.429 37.2049 145.303 37.6387 145.102 37.9404M145.443 36.7449L145.102 37.9404M145.102 37.9404C144.908 38.2317 144.669 38.3731 144.385 38.3702L145.102 37.9404Z" fill="#263238" stroke="#222222"/>
<mask id="path-60-inside-13_0_1" fill="white">
<path d="M145.26 34.8904C145.62 35.1504 145.96 35.5904 146.41 35.6604C146.93 35.7404 147.34 35.3104 147.7 34.9004C147.74 34.8604 147.77 34.9004 147.77 34.9504C147.74 35.7604 147.39 36.5904 146.51 36.6604C145.71 36.7304 145.17 35.9804 145.01 35.1604C144.98 35.0104 145.12 34.7904 145.27 34.8904H145.26Z"/>
</mask>
<path d="M145.26 34.8904C145.62 35.1504 145.96 35.5904 146.41 35.6604C146.93 35.7404 147.34 35.3104 147.7 34.9004C147.74 34.8604 147.77 34.9004 147.77 34.9504C147.74 35.7604 147.39 36.5904 146.51 36.6604C145.71 36.7304 145.17 35.9804 145.01 35.1604C144.98 35.0104 145.12 34.7904 145.27 34.8904H145.26Z" fill="#263238"/>
<path d="M145.26 34.8904V33.8904H142.167L144.674 35.7011L145.26 34.8904ZM146.41 35.6604L146.256 36.6485L146.258 36.6488L146.41 35.6604ZM147.7 34.9004L146.993 34.1933L146.97 34.2162L146.949 34.2406L147.7 34.9004ZM147.77 34.9504L148.769 34.9874L148.77 34.9689V34.9504H147.77ZM146.51 36.6604L146.431 35.6635L146.423 35.6642L146.51 36.6604ZM145.01 35.1604L145.991 34.9689L145.991 34.9643L145.01 35.1604ZM145.27 34.8904V35.8904H148.573L145.825 34.0584L145.27 34.8904ZM144.674 35.7011C144.722 35.7353 144.779 35.7833 144.867 35.8608C144.944 35.9285 145.057 36.0307 145.171 36.1229C145.392 36.303 145.761 36.5715 146.256 36.6485L146.564 34.6723C146.609 34.6793 146.582 34.6929 146.432 34.5704C146.359 34.5114 146.292 34.4505 146.189 34.3604C146.098 34.2801 145.978 34.1756 145.845 34.0797L144.674 35.7011ZM146.258 36.6488C146.857 36.741 147.347 36.5222 147.688 36.2834C148.012 36.0572 148.275 35.7608 148.451 35.5602L146.949 34.2406C146.765 34.4501 146.643 34.5736 146.541 34.6449C146.458 34.7037 146.483 34.6599 146.562 34.6721L146.258 36.6488ZM148.407 35.6075C148.325 35.6901 148.142 35.839 147.856 35.876C147.536 35.9175 147.26 35.7965 147.081 35.6349C146.793 35.3756 146.77 35.0599 146.77 34.9504H148.77C148.77 34.791 148.732 34.4302 148.419 34.1484C148.227 33.9756 147.936 33.849 147.599 33.8926C147.297 33.9318 147.095 34.0908 146.993 34.1933L148.407 35.6075ZM146.771 34.9134C146.76 35.2063 146.691 35.4262 146.614 35.5476C146.58 35.6015 146.552 35.6246 146.536 35.6349C146.522 35.6433 146.494 35.6585 146.431 35.6636L146.589 37.6573C147.38 37.5944 147.955 37.168 148.303 36.6183C148.629 36.1047 148.75 35.5045 148.769 34.9874L146.771 34.9134ZM146.423 35.6642C146.395 35.6666 146.351 35.6716 146.261 35.5725C146.155 35.4556 146.045 35.2431 145.991 34.9689L144.028 35.3519C144.135 35.8978 144.375 36.4703 144.779 36.9159C145.199 37.3793 145.825 37.7242 146.597 37.6566L146.423 35.6642ZM145.991 34.9643C146.042 35.2237 145.958 35.4286 145.847 35.5641C145.781 35.6447 145.644 35.7763 145.417 35.8362C145.156 35.9052 144.9 35.8455 144.715 35.7225L145.825 34.0584C145.565 33.8853 145.235 33.8157 144.907 33.9024C144.612 33.9802 144.414 34.1574 144.298 34.2993C144.087 34.5573 143.947 34.9471 144.029 35.3565L145.991 34.9643ZM145.27 33.8904H145.26V35.8904H145.27V33.8904Z" fill="#222222" mask="url(#path-60-inside-13_0_1)"/>
<mask id="path-62-inside-14_0_1" fill="white">
<path d="M135.84 35.2603C135.84 35.2103 135.73 35.3203 135.73 35.3703C135.72 36.6903 135.48 38.2003 134.28 38.5903C134.24 38.6003 134.24 38.6703 134.28 38.6603C135.74 38.5103 136.03 36.5103 135.83 35.2603H135.84Z"/>
</mask>
<path d="M135.84 35.2603C135.84 35.2103 135.73 35.3203 135.73 35.3703C135.72 36.6903 135.48 38.2003 134.28 38.5903C134.24 38.6003 134.24 38.6703 134.28 38.6603C135.74 38.5103 136.03 36.5103 135.83 35.2603H135.84Z" fill="#263238"/>
<path d="M135.84 35.2603V36.2603H136.84V35.2603H135.84ZM135.73 35.3703L136.73 35.3779V35.3703H135.73ZM134.28 38.5903L134.523 39.5604L134.556 39.552L134.589 39.5413L134.28 38.5903ZM134.28 38.6603L134.178 37.6655L134.107 37.6728L134.038 37.6901L134.28 38.6603ZM135.83 35.2603V34.2603H134.658L134.843 35.4183L135.83 35.2603ZM136.84 35.2603C136.84 35.1238 136.803 34.6437 136.323 34.3755C135.91 34.145 135.53 34.2899 135.457 34.3189C135.247 34.4017 135.113 34.5361 135.078 34.5707C135.017 34.6319 134.954 34.7079 134.899 34.7964C134.87 34.8427 134.73 35.0621 134.73 35.3703H136.73C136.73 35.6535 136.605 35.8404 136.596 35.8535C136.562 35.909 136.526 35.9511 136.492 35.9849C136.485 35.992 136.379 36.1052 136.19 36.1798C136.126 36.2048 135.755 36.3489 135.348 36.1217C134.874 35.8569 134.84 35.3843 134.84 35.2603H136.84ZM134.73 35.3627C134.726 35.9848 134.665 36.5594 134.51 36.9926C134.361 37.4083 134.176 37.5726 133.971 37.6393L134.589 39.5413C135.584 39.218 136.119 38.4323 136.393 37.6655C136.661 36.9162 136.725 36.0758 136.73 35.3779L134.73 35.3627ZM134.038 37.6202C133.428 37.7725 133.25 38.324 133.25 38.6328C133.25 38.8056 133.296 39.0926 133.53 39.3403C133.814 39.6429 134.209 39.709 134.523 39.6304L134.038 37.6901C134.332 37.6166 134.711 37.6777 134.986 37.9696C135.209 38.2067 135.25 38.4775 135.25 38.6328C135.25 38.9066 135.092 39.4181 134.523 39.5604L134.038 37.6202ZM134.382 39.6551C135.659 39.5239 136.329 38.5609 136.624 37.6953C136.917 36.8349 136.938 35.8526 136.818 35.1023L134.843 35.4183C134.923 35.918 134.898 36.5607 134.731 37.0503C134.566 37.5347 134.361 37.6467 134.178 37.6655L134.382 39.6551ZM135.83 36.2603H135.84V34.2603H135.83V36.2603Z" fill="#222222" mask="url(#path-62-inside-14_0_1)"/>
<path d="M134.661 34.3368L134.664 34.3371C134.875 34.3609 135.062 34.4993 135.203 34.8174C135.347 35.142 135.407 35.5931 135.361 36.0589C135.316 36.5256 135.17 36.9468 134.964 37.2239C134.769 37.4865 134.549 37.5933 134.288 37.5635C134.005 37.5301 133.786 37.3595 133.631 37.0469C133.471 36.7227 133.402 36.2769 133.447 35.819C133.492 35.3604 133.645 34.9481 133.866 34.6775C134.073 34.4232 134.329 34.2974 134.661 34.3368Z" fill="#263238" stroke="#222222"/>
<path d="M132.684 35.12C132.727 35.1208 132.768 35.1192 132.809 35.1154C132.755 35.1282 132.703 35.1288 132.651 35.1194C132.662 35.1197 132.673 35.1199 132.684 35.12Z" fill="#263238" stroke="#222222"/>
<mask id="path-66-inside-15_0_1" fill="white">
<path d="M142.77 46.7002C142.45 47.0102 142.14 47.4302 141.66 47.4702C141.2 47.5102 140.66 47.3002 140.24 47.1302C140.2 47.1102 140.16 47.1602 140.18 47.2002C140.52 47.7102 141.24 48.0202 141.85 47.9202C142.45 47.8202 142.74 47.3002 142.89 46.7602C142.91 46.6802 142.81 46.6602 142.76 46.7002H142.77Z"/>
</mask>
<path d="M142.77 46.7002C142.45 47.0102 142.14 47.4302 141.66 47.4702C141.2 47.5102 140.66 47.3002 140.24 47.1302C140.2 47.1102 140.16 47.1602 140.18 47.2002C140.52 47.7102 141.24 48.0202 141.85 47.9202C142.45 47.8202 142.74 47.3002 142.89 46.7602C142.91 46.6802 142.81 46.6602 142.76 46.7002H142.77Z" fill="#263238"/>
<path d="M142.77 46.7002L143.466 47.4184L145.24 45.7002H142.77V46.7002ZM141.66 47.4702L141.577 46.4736L141.573 46.4739L141.66 47.4702ZM140.24 47.1302L139.793 48.0246L139.828 48.0423L139.865 48.0571L140.24 47.1302ZM140.18 47.2002L139.286 47.6474L139.314 47.7031L139.348 47.7549L140.18 47.2002ZM141.85 47.9202L142.012 48.907L142.015 48.9066L141.85 47.9202ZM142.89 46.7602L143.854 47.0278L143.857 47.0153L143.86 47.0027L142.89 46.7602ZM142.76 46.7002L142.135 45.9193L139.909 47.7002H142.76V46.7002ZM142.074 45.9819C141.981 46.0723 141.877 46.1818 141.813 46.2473C141.738 46.3251 141.682 46.3788 141.633 46.42C141.536 46.5015 141.529 46.4776 141.577 46.4736L141.743 48.4667C142.271 48.4227 142.66 48.1689 142.917 47.9529C143.12 47.7827 143.405 47.4775 143.466 47.4184L142.074 45.9819ZM141.573 46.4739C141.515 46.4791 141.397 46.4699 141.205 46.4161C141.02 46.364 140.826 46.2884 140.615 46.2032L139.865 48.0571C140.075 48.1419 140.361 48.2564 140.665 48.3417C140.963 48.4255 141.346 48.5013 141.747 48.4664L141.573 46.4739ZM140.687 46.2357C140.16 45.9722 139.658 46.2165 139.419 46.5025C139.194 46.7729 139.071 47.2175 139.286 47.6474L141.075 46.753C141.27 47.1429 141.156 47.5424 140.956 47.7829C140.743 48.0388 140.28 48.2681 139.793 48.0246L140.687 46.2357ZM139.348 47.7549C139.909 48.5958 141.02 49.0697 142.012 48.907L141.688 46.9333C141.461 46.9707 141.132 46.8246 141.012 46.6455L139.348 47.7549ZM142.015 48.9066C143.225 48.7048 143.68 47.6527 143.854 47.0278L141.927 46.4925C141.87 46.6946 141.807 46.8191 141.755 46.8845C141.732 46.9128 141.718 46.9225 141.714 46.9249C141.712 46.9261 141.706 46.9304 141.686 46.9338L142.015 48.9066ZM143.86 47.0027C143.918 46.7729 143.909 46.4799 143.747 46.2049C143.594 45.9438 143.365 45.8052 143.18 45.7407C142.85 45.6258 142.448 45.6696 142.135 45.9193L143.385 47.481C143.123 47.6907 142.796 47.7246 142.523 47.6297C142.366 47.5752 142.162 47.454 142.023 47.218C141.876 46.968 141.873 46.7075 141.92 46.5176L143.86 47.0027ZM142.76 47.7002H142.77V45.7002H142.76V47.7002Z" fill="#222222" mask="url(#path-66-inside-15_0_1)"/>
<path d="M137.914 41.2667L137.902 41.2552C137.909 41.2542 137.916 41.2532 137.923 41.2523C137.921 41.2586 137.92 41.265 137.919 41.2715L137.914 41.2667ZM137.805 44.2036L137.804 44.2036L137.805 44.2036ZM135.619 41.5265C135.619 41.5264 135.621 41.5267 135.625 41.5278C135.621 41.5271 135.619 41.5265 135.619 41.5265Z" fill="#263238" stroke="#222222"/>
<path d="M138.777 44.7427C139.674 44.6846 140.441 44.4704 141.026 44.2439C141.295 44.1396 141.527 44.0322 141.717 43.9353C141.76 44.1232 141.8 44.3385 141.822 44.5585C141.859 44.952 141.834 45.3004 141.723 45.5462C141.631 45.7511 141.469 45.9163 141.096 45.9642L141.096 45.9642L141.095 45.9645C140.691 46.0177 140.315 45.9225 139.949 45.7359C139.484 45.4928 139.082 45.1051 138.777 44.7427Z" fill="#263238" stroke="#222222"/>
<path d="M139.72 46.1701C140.15 46.3901 140.63 46.5201 141.16 46.4501C142.25 46.3101 142.4 45.3501 142.32 44.5001C141.18 44.4701 139.96 45.0801 139.72 46.1701Z" fill="#FF9BBC"/>
<path d="M150.08 22.6004C149.612 22.777 149.612 22.7771 149.612 22.7772L149.613 22.7775L149.613 22.7784L149.614 22.7814L149.618 22.7918L149.633 22.83C149.646 22.863 149.665 22.9107 149.69 22.9717C149.739 23.0935 149.813 23.2682 149.908 23.4831C150.1 23.9125 150.382 24.5044 150.746 25.1565C151.215 25.9976 151.833 26.9621 152.582 27.8073C152.531 27.793 152.48 27.7783 152.427 27.763C151.221 27.4139 149.569 26.8103 147.892 25.8716C144.53 23.9898 141.154 20.8165 140.93 15.7085L139.949 15.5967C139.948 15.5965 139.948 15.5965 139.948 15.5965L139.948 15.5966L139.948 15.5966L139.948 15.5975L139.947 15.602L139.941 15.622C139.936 15.6402 139.928 15.6677 139.917 15.7041C139.895 15.777 139.863 15.8852 139.818 16.0243C139.729 16.3025 139.595 16.7037 139.414 17.1911C139.05 18.1668 138.5 19.4826 137.753 20.8464C136.356 23.3964 134.332 26.0002 131.647 26.9874C131.678 26.8132 131.719 26.6093 131.769 26.3795C131.955 25.5183 132.262 24.3287 132.669 23.0521C133.076 21.7747 133.578 20.4206 134.152 19.226C134.731 18.0215 135.362 17.0218 136.011 16.4159L136.012 16.4153C137.108 15.3888 137.981 14.6466 138.579 14.1626C138.877 13.9207 139.107 13.7432 139.261 13.6271C139.338 13.569 139.396 13.5262 139.434 13.4984L139.476 13.4677L139.486 13.4607L139.488 13.4592L139.488 13.4592L139.488 13.4591L139.488 13.4591L139.488 13.459L139.488 13.459L139.488 13.459L139.488 13.4589L139.489 13.4588L139.491 13.4574L139.502 13.4496C139.512 13.4424 139.529 13.4311 139.552 13.4161C139.597 13.386 139.665 13.341 139.757 13.2837C139.94 13.1691 140.213 13.0056 140.568 12.8142C141.279 12.4313 142.316 11.9382 143.61 11.5031C146.198 10.6326 149.802 9.99859 153.889 10.9279L150.08 22.6004ZM150.08 22.6004L149.612 22.777L150.526 22.375C151.683 24.6655 153.867 26.269 155.814 27.3081C156.781 27.8242 157.675 28.193 158.326 28.4326C158.651 28.5522 158.915 28.6392 159.096 28.696C159.187 28.7244 159.257 28.7452 159.304 28.7587C159.314 28.7618 159.324 28.7646 159.332 28.7669C159.342 28.7696 159.349 28.7719 159.356 28.7736L159.368 28.7769L159.37 28.7776L159.37 28.7777L159.371 28.7777L159.371 28.7777L159.763 28.8836L159.739 29.2895L159.739 29.2896L159.739 29.2904L159.739 29.2946L159.738 29.3126C159.737 29.3289 159.736 29.3536 159.735 29.3862C159.732 29.4514 159.728 29.5481 159.725 29.6718C159.718 29.9194 159.713 30.2748 159.719 30.703C159.731 31.5612 159.788 32.7026 159.967 33.8496C160.147 35.0041 160.444 36.1259 160.917 36.9683C161.381 37.7961 161.973 38.2913 162.744 38.3704H162.754L162.777 38.3726C162.873 38.3816 163.031 38.3533 163.259 38.2163C163.484 38.0811 163.743 37.8595 164.022 37.5444C164.58 36.9149 165.17 35.9649 165.69 34.7654C166.729 32.3689 167.453 29.0511 167.112 25.4886M150.08 22.6004L167.112 25.4886M167.112 25.4886C166.944 23.7501 165.692 20.5638 163.418 17.5637C161.152 14.5742 157.931 11.8482 153.889 10.928L167.112 25.4886ZM153.811 28.3205C153.935 28.4258 154.061 28.5261 154.19 28.6204C154.208 28.6332 154.202 28.6412 154.173 28.6441C154.173 28.6441 154.173 28.6441 154.173 28.6441C154.111 28.6502 153.948 28.6327 153.702 28.5877C153.712 28.474 153.759 28.3847 153.811 28.3205ZM153.254 28.495C150.356 27.8352 141.722 24.8697 140.55 16.988C140.641 16.7276 140.715 16.5049 140.771 16.3281C140.817 16.1823 140.852 16.0677 140.876 15.9889C140.887 15.9494 140.896 15.9189 140.902 15.898L140.909 15.8737L140.911 15.8671L140.912 15.8652L140.912 15.8646C140.912 15.8643 140.912 15.8642 140.43 15.7304L139.931 15.7523L153.254 28.495ZM151.389 25.274C151.941 26.2133 152.652 27.2336 153.496 28.0365L151.389 25.274Z" fill="#263238" stroke="#222222"/>
<path d="M140.57 14.8557C140.57 14.8473 140.57 14.839 140.57 14.8307C140.57 14.6407 140.27 14.6207 140.24 14.8007C140.238 14.8107 140.236 14.8207 140.234 14.8307C140.234 14.8311 140.234 14.8315 140.234 14.832C140.216 14.9174 140.199 15.0027 140.184 15.0878C140.185 15.0892 140.186 15.0905 140.188 15.0918C140.253 15.1506 140.324 15.1711 140.377 15.1753C140.43 15.1795 140.5 15.1704 140.572 15.1252C140.572 15.1247 140.573 15.1242 140.574 15.1238C140.572 15.0397 140.571 14.9553 140.57 14.8706C140.57 14.8656 140.57 14.8607 140.57 14.8557ZM144.049 24.4126C141.634 22.11 140.175 19.0439 140.597 15.6896C140.911 21.0763 143.984 25.1776 148.484 27.3131C146.851 26.6172 145.322 25.627 144.049 24.4126Z" fill="#263238" stroke="#222222"/>
<mask id="path-73-inside-16_0_1" fill="white">
<path d="M162.74 38.4402C158.82 36.0202 158.49 31.8602 158.51 27.6602C158.51 27.5402 158.3 27.5202 158.29 27.6402C157.9 31.7302 158.26 36.8002 162.56 38.7702C162.78 38.8702 162.94 38.5602 162.73 38.4402H162.74Z"/>
</mask>
<path d="M162.74 38.4402C158.82 36.0202 158.49 31.8602 158.51 27.6602C158.51 27.5402 158.3 27.5202 158.29 27.6402C157.9 31.7302 158.26 36.8002 162.56 38.7702C162.78 38.8702 162.94 38.5602 162.73 38.4402H162.74Z" fill="#263238"/>
<path d="M162.74 38.4402V39.4402H166.264L163.265 37.5893L162.74 38.4402ZM158.51 27.6602L159.51 27.665V27.6602H158.51ZM158.29 27.6402L159.286 27.7351L159.287 27.7232L158.29 27.6402ZM162.56 38.7702L162.144 39.6793L162.146 39.6806L162.56 38.7702ZM162.73 38.4402V37.4402H158.965L162.234 39.3084L162.73 38.4402ZM163.265 37.5893C159.862 35.4884 159.49 31.8956 159.51 27.665L157.51 27.6554C157.49 31.8248 157.778 36.552 162.215 39.2911L163.265 37.5893ZM159.51 27.6602C159.51 26.8712 158.821 26.5947 158.497 26.5645C158.301 26.5463 158.044 26.5749 157.8 26.7268C157.525 26.8984 157.324 27.1966 157.294 27.5571L159.287 27.7232C159.262 28.0238 159.091 28.2794 158.857 28.4249C158.655 28.5505 158.453 28.5691 158.311 28.5559C158.167 28.5425 157.99 28.4878 157.829 28.3514C157.65 28.199 157.51 27.954 157.51 27.6602H159.51ZM157.295 27.5453C157.095 29.6397 157.076 32.0743 157.705 34.275C158.342 36.5055 159.664 38.5434 162.144 39.6793L162.977 37.8611C161.156 37.027 160.148 35.5449 159.628 33.7254C159.099 31.8761 159.095 29.7307 159.286 27.7351L157.295 27.5453ZM162.146 39.6806C162.812 39.9829 163.446 39.6284 163.695 39.146C163.815 38.9132 163.869 38.6181 163.793 38.3139C163.713 37.9909 163.502 37.7298 163.226 37.5719L162.234 39.3084C162.063 39.2106 161.912 39.0332 161.853 38.799C161.799 38.5835 161.839 38.3822 161.918 38.2294C161.996 38.0766 162.137 37.9287 162.341 37.8478C162.563 37.7599 162.794 37.7782 162.974 37.8598L162.146 39.6806ZM162.73 39.4402H162.74V37.4402H162.73V39.4402Z" fill="#222222" mask="url(#path-73-inside-16_0_1)"/>
<mask id="path-75-inside-17_0_1" fill="white">
<path d="M140.49 14.1306C140.49 14.1306 140.42 14.0806 140.41 14.1306C139.15 18.3806 138.39 25.6606 132.78 26.3106C132.63 26.3306 132.64 26.5506 132.79 26.5406C138.24 26.3906 140.72 18.6506 140.49 14.1306Z"/>
</mask>
<path d="M140.49 14.1306C140.49 14.1306 140.42 14.0806 140.41 14.1306C139.15 18.3806 138.39 25.6606 132.78 26.3106C132.63 26.3306 132.64 26.5506 132.79 26.5406C138.24 26.3906 140.72 18.6506 140.49 14.1306Z" fill="#263238"/>
<path d="M140.49 14.1306L141.489 14.0798L141.464 13.5975L141.071 13.3169L140.49 14.1306ZM140.41 14.1306L141.369 14.4149L141.382 14.3713L141.391 14.3267L140.41 14.1306ZM132.78 26.3106L132.665 25.3173L132.657 25.3183L132.648 25.3194L132.78 26.3106ZM132.79 26.5406L132.763 25.541L132.743 25.5415L132.724 25.5428L132.79 26.5406ZM140.49 14.1306C141.071 13.3169 141.071 13.3167 141.071 13.3166C141.071 13.3165 141.071 13.3164 141.071 13.3163C141.07 13.3161 141.07 13.3158 141.07 13.3156C141.069 13.3152 141.069 13.3148 141.068 13.3144C141.067 13.3135 141.065 13.3126 141.064 13.3117C141.062 13.3099 141.059 13.3079 141.056 13.3059C141.05 13.3019 141.043 13.2974 141.036 13.2926C141.022 13.2832 141.003 13.2717 140.982 13.2591C140.945 13.2379 140.87 13.1965 140.77 13.1632C140.7 13.1399 140.45 13.0604 140.145 13.1502C139.969 13.2019 139.791 13.3061 139.651 13.4731C139.516 13.6333 139.456 13.804 139.43 13.9345L141.391 14.3267C141.367 14.4448 141.311 14.606 141.182 14.7595C141.048 14.9196 140.877 15.0195 140.709 15.0689C140.553 15.1148 140.419 15.112 140.334 15.103C140.248 15.0938 140.18 15.0746 140.138 15.0606C140.056 15.0334 139.999 15.0014 139.977 14.9881C139.962 14.9794 139.949 14.9714 139.938 14.9645C139.933 14.961 139.928 14.9575 139.923 14.9542C139.921 14.9526 139.918 14.9509 139.916 14.9493C139.915 14.9485 139.914 14.9476 139.912 14.9468C139.912 14.9464 139.911 14.946 139.911 14.9456C139.91 14.9454 139.91 14.9452 139.91 14.945C139.91 14.9449 139.91 14.9447 139.909 14.9447C139.909 14.9445 139.909 14.9444 140.49 14.1306ZM139.451 13.8464C139.131 14.9271 138.831 16.2407 138.508 17.4832C138.175 18.7602 137.802 20.0298 137.308 21.1747C136.318 23.4705 134.947 25.0528 132.665 25.3173L132.895 27.304C136.223 26.9184 138.037 24.5357 139.145 21.9665C139.7 20.6789 140.104 19.2911 140.443 17.9874C140.792 16.6493 141.059 15.4591 141.369 14.4149L139.451 13.8464ZM132.648 25.3194C131.983 25.4081 131.652 25.9884 131.674 26.4813C131.684 26.7238 131.778 27.0009 132 27.2216C132.24 27.4592 132.556 27.5584 132.857 27.5384L132.724 25.5428C132.949 25.5278 133.208 25.6032 133.409 25.8018C133.592 25.9834 133.663 26.2062 133.672 26.3925C133.689 26.7729 133.428 27.2331 132.912 27.3018L132.648 25.3194ZM132.818 27.5402C136.08 27.4505 138.319 25.0856 139.663 22.4253C141.015 19.7486 141.613 16.5104 141.489 14.0798L139.492 14.1814C139.598 16.2709 139.07 19.1626 137.878 21.5234C136.677 23.9006 134.951 25.4808 132.763 25.541L132.818 27.5402Z" fill="#222222" mask="url(#path-75-inside-17_0_1)"/>
<path d="M163.13 45.4804C162.81 45.6004 162.51 45.6704 162.23 45.7104C161.9 45.7704 161.6 45.7704 161.32 45.7304C160.88 45.6904 160.51 45.5504 160.2 45.3704C159.91 45.2104 159.67 45.0104 159.47 44.8104C158.96 44.2804 158.74 43.7204 158.74 43.7204L159.81 38.5504C159.81 38.5504 164.03 32.5104 166.77 34.0104C169.52 35.5204 166.35 44.2804 163.13 45.4704V45.4804Z" fill="#F7A9A0"/>
<path d="M161.169 42.3525C161.21 42.1462 161.262 41.9377 161.323 41.7285L161.525 41.8442C161.396 42.0043 161.278 42.1762 161.169 42.3525Z" fill="#263238" stroke="#222222"/>
<path d="M164.44 76.3405C164.44 76.3405 162.81 66.1005 166.01 60.7005L164.44 59.7505C164.44 59.7505 160.86 62.3405 162.02 76.1505L164.44 76.3405Z" fill="#FFC727"/>
<path d="M143.01 74.6302L149.45 63.2202L147.69 64.0302L140.36 74.4202L143.01 74.6302Z" fill="#FFC727"/>
</g>
<defs>
<clipPath id="clip0_0_1">
<rect width="288.23" height="37.29" fill="white" transform="translate(0.0351562 170.624)"/>
</clipPath>
<clipPath id="clip1_0_1">
<rect width="224.42" height="197.13" fill="white" transform="translate(30.9402 0.870117)"/>
</clipPath>
</defs>
</svg>
