<svg width="32" height="32" viewBox="0 0 32 32" fill="none" xmlns="http://www.w3.org/2000/svg">
<circle cx="16" cy="16" r="15.5" fill="white" stroke="#98D69F"/>
<path fill-rule="evenodd" clip-rule="evenodd" d="M12.4541 24C13.9008 24 15.1863 23.3104 15.9999 22.2419C16.8136 23.3104 18.0991 24 19.5458 24C22.0057 24 23.9999 22.0058 23.9999 19.5459C23.9999 18.0992 23.3102 16.8136 22.2417 16C23.3102 15.1864 23.9999 13.9008 23.9999 12.4541C23.9999 9.99417 22.0057 8 19.5458 8C18.0991 8 16.8136 8.68966 15.9999 9.75813C15.1863 8.68966 13.9008 8 12.4541 8C9.99417 8 8 9.99417 8 12.4541C8 13.9008 8.6897 15.1864 9.75822 16C8.6897 16.8136 8 18.0992 8 19.5459C8 22.0058 9.99417 24 12.4541 24Z" fill="#6BC778"/>
</svg>
