
<svg width="150" height="28" viewBox="0 0 150 28" fill="none" xmlns="http://www.w3.org/2000/svg">
<path fill-rule="evenodd" clip-rule="evenodd" d="M7.2412 27.0001C9.59004 27.0001 11.6776 25.8817 13.0003 24.1485C14.3229 25.8817 16.4105 27.0001 18.7593 27.0001C22.7576 27.0001 25.9988 23.7595 25.9988 19.7621C25.9988 17.4113 24.8779 15.3222 23.1412 14C24.8779 12.6779 25.9988 10.5888 25.9988 8.23796C25.9988 4.24054 22.7576 1 18.7593 1C16.4105 1 14.3229 2.11836 13.0003 3.85154C11.6776 2.11836 9.59004 1 7.2412 1C3.24294 1 0.00170898 4.24054 0.00170898 8.23796C0.00170898 10.5888 1.12269 12.6779 2.85939 14C1.12269 15.3222 0.00170898 17.4113 0.00170898 19.7621C0.00170898 23.7595 3.24294 27.0001 7.2412 27.0001Z" fill="#0AAF3B"/>
<path d="M132.863 27.819C131.876 27.819 131.171 27.6178 130.748 27.2155C130.325 26.8132 130.113 26.1193 130.113 25.1336V19.7328C130.113 18.7471 130.325 18.0632 130.748 17.681C131.171 17.2787 131.876 17.0776 132.863 17.0776H147.279C148.266 17.0776 148.961 17.2787 149.364 17.681C149.787 18.0632 149.999 18.7471 149.999 19.7328V25.1336C149.999 26.1193 149.787 26.8132 149.364 27.2155C148.961 27.6178 148.266 27.819 147.279 27.819H132.863ZM137.064 14.8448C136.036 15.0058 135.059 15.1365 134.132 15.2371C133.206 15.3175 132.168 15.3578 131.02 15.3578H129.297C128.269 15.3578 127.524 15.1365 127.061 14.694C126.597 14.2313 126.365 13.5072 126.365 12.5216V9.02155C126.365 8.03592 126.597 7.31178 127.061 6.84914C127.524 6.3865 128.269 6.15517 129.297 6.15517H132.984C133.246 6.15517 133.377 6.02443 133.377 5.76293V4.49569C133.377 4.33477 133.347 4.2342 133.286 4.19397C133.246 4.15374 133.145 4.13362 132.984 4.13362H128.602C127.997 4.13362 127.494 3.98276 127.091 3.68104C126.708 3.37931 126.517 2.93678 126.517 2.35345C126.517 1.75 126.708 1.29742 127.091 0.99569C127.494 0.693966 127.997 0.543104 128.602 0.543104H134.797C135.845 0.543104 136.591 0.764368 137.034 1.2069C137.497 1.64943 137.729 2.38362 137.729 3.40948V6.72845C137.729 7.75431 137.497 8.49857 137.034 8.96121C136.591 9.40374 135.845 9.625 134.797 9.625H131.08C130.919 9.625 130.818 9.64512 130.778 9.68535C130.738 9.72558 130.717 9.82615 130.717 9.98707V11.4957C130.717 11.6566 130.738 11.7572 130.778 11.7974C130.818 11.8376 130.919 11.8578 131.08 11.8578H131.624C132.45 11.8578 133.246 11.8175 134.012 11.7371C134.797 11.6566 135.613 11.5661 136.46 11.4655C137.044 11.4052 137.558 11.4555 138.001 11.6164C138.444 11.7572 138.716 12.1293 138.817 12.7328C138.918 13.3362 138.797 13.819 138.454 14.181C138.112 14.523 137.648 14.7443 137.064 14.8448ZM139.754 2.32328C139.754 1.6796 139.935 1.18678 140.298 0.844828C140.681 0.482759 141.194 0.301724 141.839 0.301724C142.484 0.301724 142.987 0.482759 143.35 0.844828C143.733 1.18678 143.924 1.6796 143.924 2.32328V5.85345H145.798V2.05173C145.798 1.40805 145.989 0.905173 146.372 0.543104C146.755 0.181035 147.269 0 147.914 0C148.558 0 149.062 0.181035 149.425 0.543104C149.808 0.905173 149.999 1.40805 149.999 2.05173V13.5474C149.999 14.1911 149.808 14.694 149.425 15.056C149.062 15.398 148.558 15.569 147.914 15.569C147.269 15.569 146.755 15.398 146.372 15.056C145.989 14.694 145.798 14.1911 145.798 13.5474V9.4138H143.924V13.4871C143.924 14.1308 143.743 14.6336 143.38 14.9957C143.018 15.3376 142.504 15.5086 141.839 15.5086C141.194 15.5086 140.681 15.3376 140.298 14.9957C139.935 14.6336 139.754 14.1308 139.754 13.4871V2.32328ZM135.251 20.6983C135.049 20.6983 134.948 20.7989 134.948 21V23.8966C134.948 24.0977 135.049 24.1983 135.251 24.1983H144.861C145.063 24.1983 145.163 24.0977 145.163 23.8966V21C145.163 20.7989 145.063 20.6983 144.861 20.6983H135.251Z" fill="#626262"/>
<path d="M101.591 18.4052C100.987 18.4052 100.523 18.2744 100.201 18.0129C99.8785 17.7514 99.7173 17.319 99.7173 16.7155C99.7173 16.1121 99.8785 15.6796 100.201 15.4181C100.523 15.1566 100.987 15.0259 101.591 15.0259H116.672C117.155 15.0259 117.558 15.0661 117.881 15.1466C118.203 15.2069 118.455 15.3276 118.636 15.5086C118.838 15.6897 118.969 15.9411 119.029 16.2629C119.11 16.5647 119.15 16.9569 119.15 17.4397V20.4871C119.15 21.4727 118.958 22.1466 118.576 22.5086C118.213 22.8506 117.538 23.0216 116.551 23.0216H104.462C104.321 23.0216 104.251 23.092 104.251 23.2328V24.4095C104.251 24.5302 104.321 24.5905 104.462 24.5905H117.85C118.455 24.5905 118.918 24.7213 119.241 24.9828C119.583 25.2644 119.754 25.7069 119.754 26.3103C119.754 26.9138 119.583 27.3463 119.241 27.6078C118.918 27.8693 118.455 28 117.85 28H102.286C101.299 28 100.624 27.819 100.261 27.4569C99.8986 27.1149 99.7173 26.4512 99.7173 25.4655V22.2069C99.7173 21.2213 99.8885 20.5575 100.231 20.2155C100.594 19.8736 101.269 19.7026 102.256 19.7026H114.375C114.536 19.7026 114.617 19.6322 114.617 19.4914V18.6164C114.617 18.4756 114.536 18.4052 114.375 18.4052H101.591ZM110.778 12.3103C109.489 12.5517 108.149 12.7227 106.759 12.8233C105.389 12.9037 104.059 12.944 102.77 12.944H99.7777C97.7831 12.944 96.7858 11.9583 96.7858 9.98707V3.43966C96.7858 1.46839 97.7831 0.48276 99.7777 0.48276H108.965C109.57 0.48276 110.053 0.643679 110.416 0.965518C110.799 1.28736 110.99 1.75 110.99 2.35345C110.99 2.9569 110.799 3.41954 110.416 3.74138C110.053 4.06322 109.57 4.22414 108.965 4.22414H101.803C101.641 4.22414 101.541 4.25431 101.5 4.31466C101.46 4.35489 101.44 4.45546 101.44 4.61638V8.78017C101.44 9.06178 101.571 9.20259 101.833 9.20259H103.102C104.331 9.20259 105.58 9.1523 106.85 9.05173C108.139 8.93104 109.267 8.79023 110.234 8.62931C110.778 8.52874 111.262 8.57902 111.685 8.78017C112.128 8.96121 112.4 9.35345 112.501 9.9569C112.622 10.5805 112.511 11.1034 112.169 11.5259C111.826 11.9483 111.363 12.2098 110.778 12.3103ZM114.314 2.17241C114.314 1.46839 114.536 0.935345 114.979 0.573276C115.443 0.191092 116.027 0 116.732 0C117.437 0 118.012 0.191092 118.455 0.573276C118.918 0.935345 119.15 1.46839 119.15 2.17241V4.67672H121.235C121.88 4.67672 122.404 4.83764 122.807 5.15948C123.21 5.48132 123.411 5.9842 123.411 6.6681C123.411 7.35201 123.21 7.85489 122.807 8.17672C122.404 8.49856 121.88 8.65948 121.235 8.65948H119.15V11.7069C119.15 12.4109 118.918 12.954 118.455 13.3362C118.012 13.7184 117.437 13.9095 116.732 13.9095C116.027 13.9095 115.443 13.7184 114.979 13.3362C114.536 12.954 114.314 12.4109 114.314 11.7069V2.17241Z" fill="#626262"/>
<path d="M86.3009 2.23276C86.3009 1.50862 86.5226 0.95546 86.9658 0.573276C87.4292 0.191092 88.0135 0 88.7187 0C89.444 0 90.0283 0.191092 90.4715 0.573276C90.9148 0.95546 91.1364 1.50862 91.1364 2.23276V25.7672C91.1364 26.4914 90.9148 27.0445 90.4715 27.4267C90.0283 27.8089 89.444 28 88.7187 28C88.0135 28 87.4292 27.8089 86.9658 27.4267C86.5226 27.0445 86.3009 26.4914 86.3009 25.7672V2.23276ZM82.7348 11.0431C82.7348 12.5517 82.5736 13.9195 82.2512 15.1466C81.9288 16.3534 81.4453 17.3894 80.8006 18.2543C80.1558 19.1193 79.3298 19.7931 78.3224 20.2759C77.3351 20.7385 76.1766 20.9698 74.8469 20.9698C73.5171 20.9698 72.3485 20.7385 71.3411 20.2759C70.3539 19.7931 69.5379 19.1193 68.8932 18.2543C68.2484 17.3894 67.7649 16.3534 67.4425 15.1466C67.1202 13.9195 66.959 12.5517 66.959 11.0431C66.959 9.53448 67.1202 8.17673 67.4425 6.96983C67.7649 5.74282 68.2484 4.69684 68.8932 3.8319C69.5379 2.96695 70.3539 2.30316 71.3411 1.84052C72.3485 1.35776 73.5171 1.11638 74.8469 1.11638C76.1766 1.11638 77.3351 1.35776 78.3224 1.84052C79.3298 2.30316 80.1558 2.96695 80.8006 3.8319C81.4453 4.69684 81.9288 5.74282 82.2512 6.96983C82.5736 8.17673 82.7348 9.53448 82.7348 11.0431ZM74.8469 16.9267C75.4513 16.9267 75.955 16.7759 76.358 16.4741C76.7609 16.1523 77.0833 15.7299 77.3251 15.2069C77.587 14.6839 77.7683 14.0704 77.8691 13.3664C77.9698 12.6422 78.0202 11.8678 78.0202 11.0431C78.0202 10.2385 77.9698 9.47414 77.8691 8.75C77.7683 8.02586 77.587 7.4023 77.3251 6.87931C77.0833 6.35632 76.7609 5.94397 76.358 5.64224C75.955 5.3204 75.4513 5.15948 74.8469 5.15948C74.2424 5.15948 73.7387 5.3204 73.3358 5.64224C72.9328 5.94397 72.6004 6.35632 72.3385 6.87931C72.0967 7.4023 71.9254 8.02586 71.8247 8.75C71.724 9.47414 71.6736 10.2385 71.6736 11.0431C71.6736 11.8678 71.724 12.6422 71.8247 13.3664C71.9254 14.0704 72.0967 14.6839 72.3385 15.2069C72.6004 15.7299 72.9328 16.1523 73.3358 16.4741C73.7387 16.7759 74.2424 16.9267 74.8469 16.9267Z" fill="#626262"/>
<path d="M41.3995 17.681C41.3995 16.7155 41.5808 16.0316 41.9435 15.6293C42.3062 15.227 42.971 15.0259 43.9381 15.0259H58.9281C59.4923 15.0259 59.9456 15.1667 60.2881 15.4483C60.6508 15.7299 60.8321 16.1523 60.8321 16.7155C60.8321 17.2787 60.6609 17.7011 60.3183 17.9828C59.9758 18.2644 59.5124 18.4052 58.9281 18.4052H46.4163C46.2148 18.4052 46.1141 18.5158 46.1141 18.7371V19.7629H58.777C59.3613 19.7629 59.8247 19.8937 60.1672 20.1552C60.5097 20.4167 60.681 20.8391 60.681 21.4224C60.681 22.0057 60.5097 22.4282 60.1672 22.6897C59.8247 22.9512 59.3613 23.0819 58.777 23.0819H46.0839V24.2888C46.0839 24.4899 46.1846 24.5905 46.3861 24.5905H59.321C59.9053 24.5905 60.3687 24.7313 60.7112 25.0129C61.0537 25.2945 61.225 25.727 61.225 26.3103C61.225 26.8937 61.0537 27.3161 60.7112 27.5776C60.3687 27.8592 59.9053 28 59.321 28H43.9381C42.971 28 42.3062 27.7989 41.9435 27.3966C41.5808 26.9943 41.3995 26.3103 41.3995 25.3448V17.681ZM52.5211 4.52586C52.5211 5.83333 52.2088 7.03017 51.5842 8.11638C50.9798 9.20259 50.1437 10.1681 49.0758 11.0129C48.008 11.8578 46.7588 12.592 45.3283 13.2155C43.8978 13.819 42.3767 14.3017 40.7649 14.6638C40.1604 14.8046 39.6063 14.7744 39.1027 14.5733C38.599 14.3721 38.2665 13.9598 38.1053 13.3362C37.924 12.7126 37.9744 12.1897 38.2564 11.7672C38.5385 11.3247 38.9918 11.023 39.6164 10.8621C40.5835 10.6207 41.5607 10.329 42.5479 9.98707C43.5352 9.64512 44.4217 9.25288 45.2075 8.81035C46.0134 8.3477 46.6682 7.81466 47.1719 7.21121C47.6756 6.60776 47.9274 5.91379 47.9274 5.12931V4.79742C47.9274 4.57615 47.8871 4.42529 47.8065 4.34483C47.7461 4.24425 47.605 4.19397 47.3834 4.19397H40.5533C39.9086 4.19397 39.3948 4.05316 39.012 3.77155C38.6493 3.46983 38.468 2.99713 38.468 2.35345C38.468 1.70977 38.6493 1.23707 39.012 0.935346C39.3948 0.633622 39.9086 0.48276 40.5533 0.48276H49.8314C50.7582 0.48276 51.4331 0.693966 51.8562 1.11638C52.2995 1.51868 52.5211 2.09196 52.5211 2.83621V4.52586ZM55.9966 2.17241C55.9966 1.46839 56.2183 0.935345 56.6615 0.573276C57.1249 0.191092 57.7092 0 58.4144 0C59.1195 0 59.6938 0.191092 60.137 0.573276C60.6004 0.935345 60.8321 1.46839 60.8321 2.17241V4.67672H62.9174C63.5621 4.67672 64.086 4.83764 64.4889 5.15948C64.8919 5.48132 65.0934 5.9842 65.0934 6.6681C65.0934 7.35201 64.8919 7.85489 64.4889 8.17672C64.086 8.49856 63.5621 8.65948 62.9174 8.65948H60.8321V11.7069C60.8321 12.4109 60.6004 12.954 60.137 13.3362C59.6938 13.7184 59.1195 13.9095 58.4144 13.9095C57.7092 13.9095 57.1249 13.7184 56.6615 13.3362C56.2183 12.954 55.9966 12.4109 55.9966 11.7069V2.17241Z" fill="#626262"/>
</svg>
