<svg width="82" height="82" viewBox="0 0 82 82" fill="none" xmlns="http://www.w3.org/2000/svg">
<circle cx="41" cy="41" r="40.5" fill="white" stroke="#98D69F"/>
<path fill-rule="evenodd" clip-rule="evenodd" d="M31.9137 61.5001C35.6207 61.5001 38.9149 59.7328 40.9999 56.9949C43.0848 59.7328 46.379 61.5001 50.0861 61.5001C56.3897 61.5001 61.4997 56.39 61.4997 50.0864C61.4997 46.3793 59.7324 43.085 56.9943 41C59.7324 38.9151 61.4997 35.6208 61.4997 31.9137C61.4997 25.6101 56.3897 20.5 50.0861 20.5C46.379 20.5 43.0848 22.2673 40.9999 25.0052C38.9149 22.2673 35.6207 20.5 31.9137 20.5C25.6101 20.5 20.5 25.6101 20.5 31.9137C20.5 35.6208 22.2673 38.9151 25.0054 41C22.2673 43.085 20.5 46.3793 20.5 50.0864C20.5 56.39 25.6101 61.5001 31.9137 61.5001Z" fill="#6BC778"/>
</svg>
