<svg width="170" height="122" viewBox="0 0 170 122" fill="none" xmlns="http://www.w3.org/2000/svg">
<g clip-path="url(#clip0_2036_21419)">
<path d="M85.0029 122.006C38.0604 122.006 0.00588989 117.086 0.00588989 111.017C0.00588989 104.947 38.0604 100.027 85.0029 100.027C131.946 100.027 170 104.947 170 111.017C170 117.086 131.946 122.006 85.0029 122.006Z" fill="#EBEBEB"/>
</g>
<g clip-path="url(#clip1_2036_21419)">
<path d="M30.2849 114.12C30.6329 112.741 52.2965 79.4601 53.8831 78.7353C54.0659 78.6411 65.3017 85.4822 65.3017 85.4822C65.7854 86.0361 85.7975 80.2969 85.7975 80.2969L87.7498 104.774L50.6745 106.63C50.6745 106.63 45.8853 109.924 41.4794 112.641C41.4735 112.641 41.4676 112.647 41.4617 112.641C38.7545 114.326 36.3481 115.752 35.6521 115.988C33.8355 116.594 29.9192 115.493 30.279 114.114L30.2849 114.12Z" fill="#F7A9A0"/>
<path d="M41.2029 112.216L41.3244 112.141H41.3434C41.3674 112.126 41.3914 112.111 41.4154 112.096C41.2481 112.08 41.0825 112.036 40.9355 111.943C40.7472 111.823 40.6188 111.643 40.563 111.425C40.5112 111.223 40.5276 111.012 40.5731 110.813C40.6631 110.421 40.8999 109.937 41.2696 109.356L41.2698 109.355C41.9138 108.343 43.292 106.628 45.0567 104.559C46.8292 102.48 49.0139 100.017 51.2898 97.497C55.6159 92.7063 60.2784 87.7002 63.0805 84.7131C63.0264 84.6805 62.9716 84.6475 62.916 84.614C61.4072 83.7044 59.3384 82.4572 57.5356 81.385C56.4859 80.7607 55.5287 80.1971 54.8256 79.7945C54.4734 79.5928 54.189 79.4339 53.9901 79.3283C53.9788 79.3224 53.9679 79.3166 53.9573 79.311C53.895 79.3751 53.8202 79.4571 53.7325 79.5584C53.497 79.8303 53.1904 80.2157 52.8205 80.7035C52.0819 81.6775 51.1089 83.0359 49.9807 84.6558C47.7252 87.8944 44.861 92.1615 42.034 96.4514C39.2072 100.741 36.4195 105.05 34.3173 108.372C33.266 110.034 32.3875 111.446 31.7617 112.485C31.4485 113.005 31.2005 113.428 31.0265 113.74C30.9392 113.897 30.8728 114.022 30.8267 114.115C30.7928 114.183 30.7774 114.22 30.7716 114.234C30.7683 114.242 30.7682 114.242 30.7696 114.236L30.7686 114.24C30.7511 114.307 30.753 114.452 31.0374 114.69C31.3137 114.92 31.759 115.143 32.3078 115.319C33.419 115.675 34.7322 115.769 35.4983 115.514C35.7888 115.415 36.5173 115.03 37.5597 114.425C38.5811 113.832 39.8545 113.058 41.2029 112.216Z" fill="#263238" stroke="#222222"/>
<path d="M79.581 75.13C79.581 75.13 110.67 60.6581 124.577 60.7347C141.127 60.8231 154.115 80.3684 133.914 94.6458C116.061 107.268 59.0085 106.213 59.0085 106.213L71.9489 84.0983C71.9489 84.0983 88.1627 76.7858 108.605 76.0139L80.1118 81.9888L79.581 75.13Z" fill="#F7A9A0"/>
<path d="M138.939 113.349C138.526 111.988 115.3 79.7797 113.678 79.1315C113.495 79.0491 102.595 86.4146 102.595 86.4146C102.141 86.9921 81.8755 82.2133 81.8755 82.2133L81.091 106.755L118.213 106.844C118.213 106.844 123.156 109.908 127.686 112.412C127.692 112.412 127.698 112.418 127.703 112.412C130.487 113.962 132.959 115.276 133.666 115.476C135.512 115.995 139.37 114.704 138.945 113.349H138.939Z" fill="#F7A9A0"/>
<path d="M133.797 114.989L133.922 115.025L133.922 115.025C134.71 115.2 135.943 115.04 136.982 114.652C137.522 114.451 137.956 114.207 138.221 113.964C138.494 113.713 138.488 113.569 138.468 113.505L138.468 113.505L138.467 113.5C138.468 113.505 138.468 113.505 138.464 113.497C138.458 113.484 138.441 113.448 138.404 113.381C138.353 113.29 138.281 113.169 138.186 113.016C137.998 112.712 137.73 112.301 137.392 111.797C136.717 110.788 135.772 109.419 134.643 107.809C132.384 104.591 129.393 100.419 126.364 96.2693C123.335 92.1193 120.269 87.9942 117.861 84.8678C116.656 83.304 115.619 81.9941 114.835 81.0571C114.442 80.5879 114.117 80.2179 113.869 79.9579C113.776 79.8606 113.697 79.782 113.631 79.7211C113.614 79.7309 113.597 79.7413 113.578 79.7523C113.371 79.8752 113.076 80.0591 112.712 80.2911C111.986 80.7542 111.001 81.3989 109.933 82.1053C108.051 83.3504 105.915 84.7829 104.492 85.7404C104.635 85.8692 104.809 86.0254 105.011 86.2068C105.647 86.7795 106.56 87.6027 107.667 88.6049C109.88 90.6093 112.867 93.3299 115.963 96.1945C119.059 99.0587 122.266 102.069 124.918 104.651C127.559 107.222 129.68 109.399 130.579 110.584C130.996 111.133 131.272 111.595 131.394 111.979C131.456 112.173 131.489 112.382 131.454 112.589C131.415 112.811 131.3 113.001 131.122 113.134C130.926 113.28 130.686 113.335 130.452 113.346C130.894 113.583 131.31 113.804 131.691 114.001C132.214 114.273 132.669 114.501 133.035 114.673C133.41 114.848 133.663 114.952 133.797 114.989ZM113.474 79.5916C113.477 79.5927 113.479 79.5938 113.482 79.5948L113.482 79.5949L113.474 79.5916Z" fill="#263238" stroke="#222222"/>
<path d="M80.9318 74.6527C80.9318 74.6527 53.0811 64.8771 36.3129 66.8746C19.8809 68.8309 13.1394 89.4192 29.1585 100.574C46.6581 112.753 107.821 106.808 107.821 106.808L95.7123 85.1531C95.7123 85.1531 72.4385 78.3767 51.984 78.583L80.7312 83.1909L80.9318 74.6468V74.6527Z" fill="#F7A9A0"/>
<path d="M80.7253 74.5755C80.7253 74.5755 47.7256 61.9126 31.1992 67.8228C14.6729 73.7329 17.6927 93.9087 27.0175 99.5596C36.3423 105.211 35.3751 104.609 60.2 110.879C69.8493 113.319 87.626 113.731 92.6099 113.118C110.752 110.879 112.162 100.838 129.656 97.4442C130.299 97.3205 147.079 88.5761 144.035 75.1471C140.992 61.7182 128.559 58.4125 114.038 62.1483C99.0683 66.002 80.7312 74.5755 80.7312 74.5755H80.7253Z" fill="#FFC727"/>
<path d="M142.012 69.7381V69.7617C142.012 70.3391 142.295 70.8459 142.726 71.1582C142.508 70.6573 142.272 70.1977 142.012 69.7381ZM128.388 68.0293C129.349 68.0293 130.122 68.8071 130.122 69.7617C130.122 70.7163 129.343 71.4941 128.388 71.4941C127.432 71.4941 126.654 70.7163 126.654 69.7617C126.654 68.8071 127.432 68.0293 128.388 68.0293ZM113.029 68.0293C113.99 68.0293 114.763 68.8071 114.763 69.7617C114.763 70.7163 113.985 71.4941 113.029 71.4941C112.074 71.4941 111.295 70.7163 111.295 69.7617C111.295 68.8071 112.074 68.0293 113.029 68.0293ZM97.6646 68.0293C98.626 68.0293 99.3986 68.8071 99.3986 69.7617C99.3986 70.7163 98.6201 71.4941 97.6646 71.4941C96.7091 71.4941 95.9306 70.7163 95.9306 69.7617C95.9306 68.8071 96.7091 68.0293 97.6646 68.0293ZM68.4515 70.6102C68.1507 71.1346 67.5845 71.4941 66.9357 71.4941C65.9743 71.4941 65.1957 70.7222 65.1957 69.7617V69.7322C66.3164 70.021 67.4075 70.3156 68.4515 70.6102ZM51.5712 68.0293C52.5326 68.0293 53.3052 68.8071 53.3052 69.7617C53.3052 70.7163 52.5267 71.4941 51.5712 71.4941C50.6157 71.4941 49.8372 70.7163 49.8372 69.7617C49.8372 68.8071 50.6157 68.0293 51.5712 68.0293ZM36.2126 68.0293C37.174 68.0293 37.9467 68.8071 37.9467 69.7617C37.9467 70.7163 37.1681 71.4941 36.2126 71.4941C35.2572 71.4941 34.4786 70.7163 34.4786 69.7617C34.4786 68.8071 35.2572 68.0293 36.2126 68.0293ZM128.388 91.4813C129.349 91.4813 130.122 92.2591 130.122 93.2137C130.122 94.1683 129.343 94.9461 128.388 94.9461C127.432 94.9461 126.654 94.1683 126.654 93.2137C126.654 92.2591 127.432 91.4813 128.388 91.4813ZM113.029 91.4813C113.99 91.4813 114.763 92.2591 114.763 93.2137C114.763 94.1683 113.985 94.9461 113.029 94.9461C112.074 94.9461 111.295 94.1683 111.295 93.2137C111.295 92.2591 112.074 91.4813 113.029 91.4813ZM97.6646 91.4813C98.626 91.4813 99.3986 92.2591 99.3986 93.2137C99.3986 94.1683 98.6201 94.9461 97.6646 94.9461C96.7091 94.9461 95.9306 94.1683 95.9306 93.2137C95.9306 92.2591 96.7091 91.4813 97.6646 91.4813ZM82.3001 91.4813C83.2615 91.4813 84.0342 92.2591 84.0342 93.2137C84.0342 94.1683 83.2556 94.9461 82.3001 94.9461C81.3447 94.9461 80.5661 94.1683 80.5661 93.2137C80.5661 92.2591 81.3447 91.4813 82.3001 91.4813ZM66.9357 91.4813C67.8971 91.4813 68.6697 92.2591 68.6697 93.2137C68.6697 94.1683 67.8912 94.9461 66.9357 94.9461C65.9802 94.9461 65.2016 94.1683 65.2016 93.2137C65.2016 92.2591 65.9802 91.4813 66.9357 91.4813ZM51.5712 91.4813C52.5326 91.4813 53.3052 92.2591 53.3052 93.2137C53.3052 94.1683 52.5267 94.9461 51.5712 94.9461C50.6157 94.9461 49.8372 94.1683 49.8372 93.2137C49.8372 92.2591 50.6157 91.4813 51.5712 91.4813ZM36.2126 91.4813C37.174 91.4813 37.9467 92.2591 37.9467 93.2137C37.9467 94.1683 37.1681 94.9461 36.2126 94.9461C35.2572 94.9461 34.4786 94.1683 34.4786 93.2137C34.4786 92.2591 35.2572 91.4813 36.2126 91.4813ZM20.8423 91.4813C21.8037 91.4813 22.5822 92.2591 22.5822 93.2196C22.5822 93.6733 22.4053 94.0858 22.1222 94.3922C21.5854 93.4848 21.1254 92.5066 20.7361 91.4872C20.7715 91.4872 20.8069 91.4872 20.8423 91.4872V91.4813ZM136.073 79.8378C137.034 79.8378 137.807 80.6156 137.807 81.5702C137.807 82.5248 137.028 83.3026 136.073 83.3026C135.117 83.3026 134.339 82.5248 134.339 81.5702C134.339 80.6156 135.117 79.8378 136.073 79.8378ZM136.073 79.8378C137.034 79.8378 137.807 80.6156 137.807 81.5702C137.807 82.5248 137.028 83.3026 136.073 83.3026C135.117 83.3026 134.339 82.5248 134.339 81.5702C134.339 80.6156 135.117 79.8378 136.073 79.8378ZM120.708 79.8378C121.67 79.8378 122.442 80.6156 122.442 81.5702C122.442 82.5248 121.664 83.3026 120.708 83.3026C119.753 83.3026 118.974 82.5248 118.974 81.5702C118.974 80.6156 119.753 79.8378 120.708 79.8378ZM105.344 79.8378C106.305 79.8378 107.078 80.6156 107.078 81.5702C107.078 82.5248 106.299 83.3026 105.344 83.3026C104.388 83.3026 103.61 82.5248 103.61 81.5702C103.61 80.6156 104.388 79.8378 105.344 79.8378ZM89.9794 79.8378C90.9408 79.8378 91.7134 80.6156 91.7134 81.5702C91.7134 82.5248 90.9349 83.3026 89.9794 83.3026C89.0239 83.3026 88.2454 82.5248 88.2454 81.5702C88.2454 80.6156 89.0239 79.8378 89.9794 79.8378ZM74.6209 79.8378C75.5822 79.8378 76.3549 80.6156 76.3549 81.5702C76.3549 82.5248 75.5763 83.3026 74.6209 83.3026C73.6654 83.3026 72.8868 82.5248 72.8868 81.5702C72.8868 80.6156 73.6654 79.8378 74.6209 79.8378ZM59.2564 79.8378C60.2178 79.8378 60.9904 80.6156 60.9904 81.5702C60.9904 82.5248 60.2119 83.3026 59.2564 83.3026C58.3009 83.3026 57.5224 82.5248 57.5224 81.5702C57.5224 80.6156 58.3009 79.8378 59.2564 79.8378ZM43.8919 79.8378C44.8533 79.8378 45.626 80.6156 45.626 81.5702C45.626 82.5248 44.8474 83.3026 43.8919 83.3026C42.9364 83.3026 42.1579 82.5248 42.1579 81.5702C42.1579 80.6156 42.9364 79.8378 43.8919 79.8378ZM28.5275 79.8378C29.4888 79.8378 30.2615 80.6156 30.2615 81.5702C30.2615 82.5248 29.4829 83.3026 28.5275 83.3026C27.572 83.3026 26.7934 82.5248 26.7934 81.5702C26.7934 80.6156 27.572 79.8378 28.5275 79.8378ZM105.344 103.29C106.305 103.29 107.078 104.068 107.078 105.022C107.078 105.977 106.299 106.755 105.344 106.755C104.388 106.755 103.61 105.977 103.61 105.022C103.61 104.068 104.388 103.29 105.344 103.29ZM89.9794 103.29C90.9408 103.29 91.7134 104.068 91.7134 105.022C91.7134 105.977 90.9349 106.755 89.9794 106.755C89.0239 106.755 88.2454 105.977 88.2454 105.022C88.2454 104.068 89.0239 103.29 89.9794 103.29ZM74.6209 103.29C75.5822 103.29 76.3549 104.068 76.3549 105.022C76.3549 105.977 75.5763 106.755 74.6209 106.755C73.6654 106.755 72.8868 105.977 72.8868 105.022C72.8868 104.068 73.6654 103.29 74.6209 103.29ZM59.2564 103.29C60.2178 103.29 60.9904 104.068 60.9904 105.022C60.9904 105.977 60.2119 106.755 59.2564 106.755C58.3009 106.755 57.5224 105.977 57.5224 105.022C57.5224 104.068 58.3009 103.29 59.2564 103.29ZM43.8919 103.296C44.8474 103.296 45.626 104.068 45.626 105.028C45.626 105.989 44.8592 106.749 43.9096 106.761H43.8919C43.5911 106.672 43.2903 106.596 43.0072 106.519H43.0013C42.4941 106.218 42.152 105.665 42.152 105.028C42.152 104.068 42.9305 103.296 43.8919 103.296Z" fill="white"/>
<path d="M80.2103 82.3822C82.9301 83.1013 85.6739 83.6894 88.4445 84.0723C86.0681 83.7155 83.7092 83.2454 81.3765 82.6612L81.3763 82.6612C77.5894 81.7112 73.8741 80.5249 70.1772 79.3444C69.8658 79.245 69.5545 79.1456 69.2433 79.0464L69.2427 79.0462C68.7672 78.894 68.2917 78.7431 67.816 78.5939C67.9272 78.6295 68.0384 78.6651 68.1496 78.7007L68.1498 78.7008C68.7066 78.8791 69.2628 79.058 69.8187 79.2369C73.2742 80.3488 76.7181 81.4569 80.2103 82.3822Z" fill="#263238" stroke="#222222"/>
<mask id="path-11-inside-1_2036_21419" fill="white">
<path d="M107.32 79.1836C105.161 79.9791 102.914 80.4976 100.673 80.9926C98.4373 81.4817 96.1901 81.9825 93.9311 82.3596C92.6041 82.5835 91.2829 82.8251 89.9322 82.8958C89.8792 82.8958 89.8851 82.9783 89.9322 82.9783C91.0883 82.9017 92.2443 82.8723 93.3944 82.8075C94.5622 82.7367 95.7359 82.5835 96.892 82.4068C99.1863 82.0532 101.451 81.464 103.628 80.6508C104.866 80.1853 106.093 79.7021 107.32 79.2189C107.332 79.2189 107.326 79.1895 107.314 79.1954L107.32 79.1836Z"/>
</mask>
<path d="M107.32 79.1836C105.161 79.9791 102.914 80.4976 100.673 80.9926C98.4373 81.4817 96.1901 81.9825 93.9311 82.3596C92.6041 82.5835 91.2829 82.8251 89.9322 82.8958C89.8792 82.8958 89.8851 82.9783 89.9322 82.9783C91.0883 82.9017 92.2443 82.8723 93.3944 82.8075C94.5622 82.7367 95.7359 82.5835 96.892 82.4068C99.1863 82.0532 101.451 81.464 103.628 80.6508C104.866 80.1853 106.093 79.7021 107.32 79.2189C107.332 79.2189 107.326 79.1895 107.314 79.1954L107.32 79.1836Z" fill="#263238"/>
<path d="M107.32 79.1836L106.974 78.2453L109.345 77.3716L108.214 79.6311L107.32 79.1836ZM100.673 80.9926L100.888 81.9691L100.886 81.9695L100.673 80.9926ZM93.9311 82.3596L93.7648 81.3736L93.7665 81.3733L93.9311 82.3596ZM89.9322 82.8958L89.9845 83.8945L89.9584 83.8958H89.9322V82.8958ZM89.9322 82.9783L89.9984 83.9762L89.9653 83.9783H89.9322V82.9783ZM93.3944 82.8075L93.4548 83.8056L93.4507 83.8059L93.3944 82.8075ZM96.892 82.4068L97.0443 83.3951L97.0431 83.3953L96.892 82.4068ZM103.628 80.6508L103.979 81.5869L103.978 81.5876L103.628 80.6508ZM107.32 79.2189L106.953 78.2885L107.13 78.2189H107.32V79.2189ZM107.314 79.1954L107.761 80.09L105.077 81.4306L106.42 78.7478L107.314 79.1954ZM107.666 80.1219C105.436 80.9437 103.127 81.4746 100.888 81.969L100.457 80.0161C102.7 79.5207 104.887 79.0145 106.974 78.2453L107.666 80.1219ZM100.886 81.9695C98.6591 82.4568 96.3847 82.9639 94.0958 83.346L93.7665 81.3733C95.9955 81.0012 98.2155 80.5065 100.459 80.0157L100.886 81.9695ZM94.0975 83.3457C92.7937 83.5657 91.4061 83.8201 89.9845 83.8945L89.88 81.8972C91.1597 81.8302 92.4144 81.6014 93.7648 81.3736L94.0975 83.3457ZM89.9322 83.8958C90.2062 83.8958 90.4908 83.7755 90.6847 83.5326C90.8563 83.3177 90.9004 83.0796 90.894 82.9014C90.8836 82.6095 90.6472 81.9783 89.9322 81.9783V83.9783C89.1701 83.9783 88.9072 83.306 88.8953 82.9728C88.8882 82.774 88.9378 82.5153 89.1217 82.2849C89.328 82.0265 89.6318 81.8958 89.9322 81.8958V83.8958ZM89.8661 81.9805C91.0061 81.905 92.2516 81.8703 93.3381 81.809L93.4507 83.8059C92.2369 83.8743 91.1704 83.8985 89.9984 83.9762L89.8661 81.9805ZM93.334 81.8093C94.4576 81.7413 95.5971 81.5932 96.7408 81.4183L97.0431 83.3953C95.8748 83.5739 94.6668 83.7322 93.4548 83.8056L93.334 81.8093ZM96.7397 81.4184C98.967 81.0752 101.166 80.5032 103.278 79.7141L103.978 81.5876C101.737 82.4248 99.4057 83.0312 97.0443 83.3951L96.7397 81.4184ZM103.276 79.7147C104.506 79.2525 105.725 78.7722 106.953 78.2885L107.686 80.1494C106.461 80.6321 105.227 81.1182 103.979 81.5869L103.276 79.7147ZM107.32 78.2189C107.096 78.2189 106.867 78.2949 106.68 78.4523C106.507 78.5976 106.422 78.7682 106.38 78.8881C106.303 79.1117 106.324 79.3066 106.349 79.4219C106.374 79.5334 106.441 79.7386 106.631 79.9201C106.736 80.0202 106.902 80.1334 107.131 80.177C107.369 80.2225 107.589 80.1755 107.761 80.09L106.867 78.3008C107.041 78.2138 107.264 78.1664 107.505 78.2124C107.736 78.2565 107.905 78.371 108.012 78.473C108.206 78.6584 108.276 78.8699 108.302 78.988C108.329 79.1099 108.35 79.3118 108.271 79.5407C108.228 79.6633 108.142 79.8362 107.967 79.9831C107.778 80.1421 107.546 80.2189 107.32 80.2189V78.2189ZM106.42 78.7478L106.425 78.736L108.214 79.6311L108.208 79.6429L106.42 78.7478Z" fill="#222222" mask="url(#path-11-inside-1_2036_21419)"/>
<path d="M106.505 101.649C106.179 101.947 105.853 102.243 105.527 102.535C103.852 104.035 102.148 105.45 100.262 106.604C100.262 106.604 100.261 106.604 100.261 106.604C99.917 106.815 99.5665 107.017 99.2091 107.209C97.587 108.081 95.8714 108.699 94.0991 109.125C96.2181 108.491 98.2369 107.575 100.106 106.365C102.33 104.921 104.388 103.248 106.417 101.545M106.505 101.649L108.748 99.5979C108.131 100.105 107.519 100.619 106.908 101.132C106.744 101.27 106.581 101.407 106.417 101.545M106.505 101.649L106.417 101.545M106.505 101.649L106.417 101.545M80.7784 110.254L80.7886 110.213C80.9458 110.22 81.1032 110.228 81.2607 110.235C81.2605 110.252 81.2595 110.269 81.2573 110.287C81.0974 110.276 80.9377 110.265 80.7784 110.254ZM80.7784 110.254L80.7813 110.213C80.7804 110.212 80.7794 110.212 80.7784 110.212M80.7784 110.254V110.212M80.7784 110.212C80.7555 110.212 80.7548 110.246 80.7764 110.253L80.7784 110.212Z" fill="#263238" stroke="#222222"/>
<path d="M67.72 107.073C67.7171 107.072 67.7143 107.072 67.7117 107.072C67.7114 107.072 67.7111 107.072 67.7108 107.072C67.665 107.076 67.6524 107.144 67.7023 107.149C67.7042 107.149 67.7062 107.15 67.7081 107.15L67.72 107.073ZM67.72 107.073C67.8697 107.095 68.0195 107.118 68.1696 107.139C68.1684 107.162 68.1655 107.185 68.1613 107.206C68.0114 107.187 67.8614 107.169 67.7113 107.15L67.72 107.073Z" fill="#263238" stroke="#222222"/>
<mask id="path-15-inside-2_2036_21419" fill="white">
<path d="M97.2634 76.2771C95.2168 76.5541 93.1112 76.6307 91.0468 76.6189C88.9707 76.6071 86.8769 76.4834 84.8244 76.1888C83.6566 76.0238 82.4829 75.8175 81.3504 75.4876C81.3032 75.4758 81.2796 75.5524 81.3327 75.5642C83.3794 76.1416 85.4024 76.7073 87.5139 76.996C89.5959 77.2789 91.731 77.3142 93.8189 77.1257C94.9926 77.0196 96.1546 76.7898 97.3047 76.5541C97.458 76.5246 97.4168 76.2595 97.2634 76.283V76.2771Z"/>
</mask>
<path d="M97.2634 76.2771C95.2168 76.5541 93.1112 76.6307 91.0468 76.6189C88.9707 76.6071 86.8769 76.4834 84.8244 76.1888C83.6566 76.0238 82.4829 75.8175 81.3504 75.4876C81.3032 75.4758 81.2796 75.5524 81.3327 75.5642C83.3794 76.1416 85.4024 76.7073 87.5139 76.996C89.5959 77.2789 91.731 77.3142 93.8189 77.1257C94.9926 77.0196 96.1546 76.7898 97.3047 76.5541C97.458 76.5246 97.4168 76.2595 97.2634 76.283V76.2771Z" fill="#263238"/>
<path d="M97.2634 76.2771L97.1293 75.2862L98.2634 75.1327V76.2771H97.2634ZM91.0468 76.6189L91.0525 75.6189L91.0526 75.6189L91.0468 76.6189ZM84.8244 76.1888L84.9643 75.1986L84.9665 75.1989L84.8244 76.1888ZM81.3504 75.4876L81.5927 74.5174L81.6116 74.5221L81.6302 74.5275L81.3504 75.4876ZM81.3327 75.5642L81.5495 74.5879L81.5771 74.5941L81.6043 74.6017L81.3327 75.5642ZM87.5139 76.996L87.3793 77.9869L87.3784 77.9868L87.5139 76.996ZM93.8189 77.1257L93.9089 78.1216L93.9089 78.1216L93.8189 77.1257ZM97.3047 76.5541L97.1039 75.5744L97.116 75.5721L97.3047 76.5541ZM97.2634 76.283L97.4153 77.2714L96.2634 77.4485V76.283H97.2634ZM97.3975 77.2681C95.2877 77.5536 93.1314 77.6308 91.0411 77.6189L91.0526 75.6189C93.091 75.6306 95.1459 75.5546 97.1293 75.2862L97.3975 77.2681ZM91.0412 77.6189C88.9301 77.6069 86.7895 77.4811 84.6823 77.1786L84.9665 75.1989C86.9643 75.4857 89.0113 75.6073 91.0525 75.6189L91.0412 77.6189ZM84.6845 77.1789C83.4981 77.0113 82.2702 76.7972 81.0707 76.4476L81.6302 74.5275C82.6955 74.8379 83.8151 75.0362 84.9643 75.1986L84.6845 77.1789ZM81.1081 76.4578C81.7644 76.6217 82.1772 76.12 82.2695 75.7772C82.3204 75.5886 82.3241 75.3343 82.193 75.083C82.0482 74.8054 81.7961 74.6427 81.5495 74.5879L81.116 76.5404C80.8428 76.4797 80.5738 76.303 80.4199 76.0081C80.2798 75.7396 80.2824 75.4646 80.3384 75.2568C80.4411 74.8757 80.8892 74.3417 81.5927 74.5174L81.1081 76.4578ZM81.6043 74.6017C83.6595 75.1816 85.6174 75.7274 87.6494 76.0052L87.3784 77.9868C85.1874 77.6872 83.0992 77.1016 81.0612 76.5266L81.6043 74.6017ZM87.6485 76.0051C89.6523 76.2773 91.7119 76.3119 93.729 76.1297L93.9089 78.1216C91.7501 78.3166 89.5396 78.2804 87.3793 77.9869L87.6485 76.0051ZM93.7289 76.1297C94.8399 76.0293 95.9511 75.8107 97.1039 75.5745L97.5055 77.5337C96.358 77.7689 95.1454 78.0099 93.9089 78.1216L93.7289 76.1297ZM97.116 75.5721C96.8397 75.6251 96.6204 75.8041 96.5025 76.0248C96.3989 76.2186 96.3889 76.409 96.4107 76.5509C96.4324 76.6918 96.4999 76.8764 96.6654 77.0345C96.856 77.2165 97.1323 77.3149 97.4153 77.2714L97.1115 75.2947C97.4712 75.2394 97.8102 75.3621 98.0468 75.5881C98.2584 75.7903 98.3554 76.0385 98.3874 76.2465C98.4196 76.4554 98.4007 76.7161 98.2665 76.9672C98.118 77.2451 97.8464 77.4683 97.4934 77.5361L97.116 75.5721ZM96.2634 76.283V76.2771H98.2634V76.283H96.2634Z" fill="#222222" mask="url(#path-15-inside-2_2036_21419)"/>
<path d="M99.5754 37.9948C99.5813 38.148 99.4751 38.313 99.3159 38.3307C98.9443 38.3601 98.502 38.3837 98.0006 38.4191C96.821 35.355 95.5529 32.9214 95.8832 33.8701C96.3668 35.243 96.7207 37.2229 96.7089 38.4957C96.1309 38.531 94.7862 38.5958 94.1138 38.6253C93.0875 33.2337 91.7782 29.2327 91.8607 30.4642C92.191 35.4434 91.8961 37.0461 91.554 38.7549C85.2903 39.0496 77.0743 39.3442 71.129 39.4326C70.439 36.451 69.8373 33.2219 69.7371 33.4458C68.929 35.1311 68.7049 37.5764 68.6931 39.462C66.7998 39.4738 65.2899 39.4503 64.3639 39.3913C64.3639 39.3913 63.9216 36.8811 63.8567 36.0621C63.6857 33.9644 63.9157 31.8077 64.5173 29.7807C65.1484 27.6889 66.2336 25.8445 67.2658 23.9472C67.2717 23.9295 67.2835 23.9177 67.2894 23.9059C67.2894 23.9 67.2894 23.9 67.2953 23.8882C68.0031 22.5801 68.5221 21.325 68.876 19.9992C68.876 19.9933 68.8819 19.9815 68.8878 19.9697C69.1296 19.0269 69.2947 18.0547 69.3773 16.9823C69.6545 13.2995 71.7247 10.1116 75.1928 9.13349C81.7337 2.96997 88.2924 5.55676 90.2742 10.2766C90.4629 10.7362 90.6516 11.2666 90.8286 11.8381V11.8558C91.5068 13.983 92.1084 16.7466 92.6629 18.8796C92.6629 18.8855 92.6629 18.8914 92.6629 18.8914C92.6629 18.8973 92.6629 18.9032 92.6688 18.915C92.9401 19.9403 93.1937 20.8006 93.4473 21.3839C95.0988 25.2258 98.8794 27.406 99.5813 37.9889L99.5754 37.9948Z" fill="#263238"/>
<path d="M73.6711 10.1535C71.4004 11.3379 70.0025 13.0703 69.6545 15.7572C69.4481 17.3246 69.3478 18.8508 68.7462 20.3357C68.1269 21.8618 67.142 23.1169 66.1334 24.3661C64.5291 26.3519 63.4085 28.3318 63.1608 30.9716C62.9071 33.6527 63.0369 36.811 63.9452 39.3094C63.9452 39.3212 63.9688 39.3153 63.9688 39.3036C63.2315 36.7698 63.2138 33.2638 63.6621 30.6063C64.1575 27.6895 65.809 25.851 67.5017 23.6355C68.8465 21.8736 69.7017 19.9232 69.9848 17.6782C70.1559 16.3465 70.1323 14.9677 70.669 13.7126C71.306 12.2159 72.58 11.2672 73.8422 10.4187C74.0132 10.3067 73.854 10.0592 73.6829 10.1476L73.6711 10.1535Z" fill="#263238"/>
<path d="M97.2517 25.5078C95.6474 23.4219 93.9782 21.6424 93.0345 19.0556C92.1793 16.6986 91.6898 14.2002 90.8169 11.8432C90.8051 11.8078 90.7461 11.8196 90.7579 11.8609C92.1026 16.0445 92.3622 20.2694 95.0753 23.7872C96.5439 25.6964 98.0184 27.47 98.9857 29.7622C100.006 32.1722 100.443 34.6824 100.513 37.334C100.513 37.4283 100.637 37.4224 100.643 37.334C101.044 33.0443 99.776 28.7841 97.2576 25.5078H97.2517Z" fill="#263238"/>
<path d="M75.1753 8.79238C76.0895 8.45062 76.9624 3.33595 73.5946 0.896467C70.2799 -1.50177 65.9153 1.24412 67.726 5.43367C68.8702 8.08528 73.2348 9.51126 75.1753 8.79238Z" fill="#263238"/>
<path d="M68.888 0.589844C67.8617 1.43247 67.2011 2.62275 66.9475 3.8366C66.6939 5.06223 67.0596 6.31732 67.9679 7.13638C68.8526 7.99668 70.0735 8.47986 71.3121 8.76859C71.9373 8.90412 72.586 8.98661 73.2348 9.00429C73.8836 9.03375 74.5442 9.00429 75.1753 8.79216C74.6091 9.1575 73.9131 9.27535 73.2525 9.36373C72.5801 9.42855 71.896 9.42266 71.2177 9.33427C69.8729 9.14571 68.5046 8.65664 67.4665 7.6667C66.9593 7.17173 66.5405 6.53535 66.3577 5.82825C66.1748 5.12115 66.2043 4.38459 66.399 3.70696C66.7823 2.36348 67.7024 1.20266 68.8938 0.595736L68.888 0.589844Z" fill="#263238"/>
<path d="M78.8085 41.5256C87.6202 51.419 99.4517 60.4993 102.961 61.4421C107.396 62.6324 128.394 56.4217 129.414 55.9975C131.921 54.9368 125.15 38.1256 122.419 39.145C118.261 40.7006 104.2 46.7109 102.884 46.3043C101.522 45.8801 93.8663 42.6746 83.1672 37.5894C75.7828 34.0716 73.3351 35.3856 78.8026 41.5197L78.8085 41.5256Z" fill="#F7A9A0"/>
<path d="M128.73 56.0859C130.812 55.8797 140.278 54.112 142.802 53.0277C145.327 51.9435 152.363 48.3079 151.732 46.2927C151.101 44.2774 148.954 45.179 148.954 45.179C148.954 45.179 151.685 43.1696 150.859 41.2016C150.039 39.2335 146.742 40.7419 146.742 40.7419C146.742 40.7419 149.396 38.4792 148.435 36.5701C147.474 34.6609 144.419 36.7351 144.419 36.7351C144.419 36.7351 146.937 34.7788 145.486 33.5413C143.74 32.0506 139.5 36.1871 136.621 37.1711C135.967 37.395 123.062 40.7655 123.062 40.7655L128.73 56.0859Z" fill="#F7A9A0"/>
<mask id="path-24-inside-3_2036_21419" fill="white">
<path d="M144.684 36.5584C141.558 39.593 139.665 40.3767 135.471 41.2664C135.389 41.2841 135.394 41.4079 135.483 41.402C139.671 40.907 142.189 40.2647 144.837 36.7057C144.967 36.5289 144.831 36.4169 144.684 36.5642V36.5584Z"/>
</mask>
<path d="M144.684 36.5584C141.558 39.593 139.665 40.3767 135.471 41.2664C135.389 41.2841 135.394 41.4079 135.483 41.402C139.671 40.907 142.189 40.2647 144.837 36.7057C144.967 36.5289 144.831 36.4169 144.684 36.5642V36.5584Z" fill="#263238"/>
<path d="M144.684 36.5584L143.987 35.8408L145.684 34.1939V36.5584H144.684ZM135.471 41.2664L135.262 40.2886L135.264 40.2882L135.471 41.2664ZM135.483 41.402L135.6 42.395L135.575 42.3981L135.549 42.3998L135.483 41.402ZM144.837 36.7057L145.643 37.2974L145.64 37.3026L144.837 36.7057ZM144.684 36.5642L145.391 37.2717L143.684 38.9768V36.5642H144.684ZM145.38 37.2759C143.775 38.834 142.436 39.864 140.921 40.6131C139.416 41.3572 137.794 41.7959 135.679 42.2447L135.264 40.2882C137.342 39.8472 138.763 39.4492 140.035 38.8203C141.296 38.1965 142.466 37.3173 143.987 35.8408L145.38 37.2759ZM135.68 42.2443C136.194 42.1343 136.437 41.665 136.411 41.275C136.397 41.0771 136.315 40.8441 136.119 40.6586C135.907 40.4592 135.642 40.3891 135.416 40.4042L135.549 42.3998C135.279 42.4178 134.98 42.3345 134.746 42.1129C134.526 41.9053 134.431 41.6414 134.415 41.4111C134.384 40.9563 134.665 40.4163 135.262 40.2886L135.68 42.2443ZM135.366 40.4089C137.453 40.1622 138.995 39.8899 140.327 39.2908C141.627 38.7062 142.792 37.7791 144.035 36.1087L145.64 37.3026C144.234 39.1913 142.816 40.3648 141.147 41.1149C139.512 41.8504 137.701 42.1468 135.6 42.395L135.366 40.4089ZM144.031 36.1139C143.991 36.1682 143.913 36.2956 143.894 36.4912C143.874 36.6926 143.923 37.0176 144.205 37.2654C144.488 37.513 144.818 37.5202 145.019 37.4723C145.215 37.4257 145.336 37.3263 145.391 37.2717L143.977 35.8568C144.106 35.7286 144.298 35.5878 144.557 35.5264C144.822 35.4636 145.205 35.4821 145.524 35.7615C145.843 36.0409 145.91 36.4178 145.884 36.6854C145.859 36.947 145.748 37.1547 145.643 37.2974L144.031 36.1139ZM143.684 36.5642V36.5584H145.684V36.5642H143.684Z" fill="#222222" mask="url(#path-24-inside-3_2036_21419)"/>
<mask id="path-26-inside-4_2036_21419" fill="white">
<path d="M146.99 40.4941C143.469 43.3638 141.422 44.2359 137.099 45.4851C137.04 45.5027 137.064 45.6088 137.123 45.597C141.47 44.7249 143.964 44.0237 147.108 40.7004C147.25 40.5472 147.149 40.3704 146.99 40.5V40.4941Z"/>
</mask>
<path d="M146.99 40.4941C143.469 43.3638 141.422 44.2359 137.099 45.4851C137.04 45.5027 137.064 45.6088 137.123 45.597C141.47 44.7249 143.964 44.0237 147.108 40.7004C147.25 40.5472 147.149 40.3704 146.99 40.5V40.4941Z" fill="#263238"/>
<path d="M146.99 40.4941L146.358 39.719L147.99 38.3891V40.4941H146.99ZM137.099 45.4851L136.812 44.5271L136.821 44.5244L137.099 45.4851ZM137.123 45.597L137.319 46.5775L137.319 46.5776L137.123 45.597ZM147.108 40.7004L147.843 41.3791L147.835 41.3876L147.108 40.7004ZM146.99 40.5L147.621 41.2756L145.99 42.6035V40.5H146.99ZM147.622 41.2693C145.824 42.7342 144.368 43.718 142.786 44.4949C141.212 45.2678 139.551 45.8175 137.377 46.4458L136.821 44.5244C138.97 43.9034 140.494 43.3925 141.905 42.6997C143.307 42.0108 144.635 41.1238 146.358 39.719L147.622 41.2693ZM137.386 46.443C137.686 46.3532 137.892 46.1344 137.991 45.9001C138.079 45.6908 138.077 45.4911 138.044 45.3406C138.012 45.1917 137.93 45.0007 137.752 44.8412C137.548 44.6592 137.247 44.5524 136.927 44.6164L137.319 46.5776C136.969 46.6476 136.642 46.5318 136.42 46.3327C136.222 46.1562 136.127 45.9398 136.089 45.7636C136.028 45.4812 136.066 44.7506 136.812 44.5272L137.386 46.443ZM136.926 44.6166C139.102 44.1801 140.711 43.8042 142.157 43.1555C143.578 42.5181 144.884 41.5966 146.382 40.0132L147.835 41.3876C146.189 43.1275 144.675 44.2183 142.976 44.9803C141.302 45.7311 139.491 46.1419 137.319 46.5775L136.926 44.6166ZM146.374 40.0218C146.277 40.1264 146.021 40.5196 146.296 40.995C146.452 41.2641 146.743 41.4466 147.071 41.4548C147.359 41.462 147.548 41.3349 147.621 41.2756L146.359 39.7245C146.511 39.6003 146.773 39.4468 147.121 39.4554C147.508 39.4651 147.844 39.677 148.027 39.9933C148.357 40.563 148.081 41.1211 147.843 41.379L146.374 40.0218ZM145.99 40.5V40.4941H147.99V40.5H145.99Z" fill="#222222" mask="url(#path-26-inside-4_2036_21419)"/>
<mask id="path-28-inside-5_2036_21419" fill="white">
<path d="M148.73 45.2329C145.12 47.7608 142.92 48.8155 138.562 49.4873C138.461 49.5049 138.473 49.6523 138.579 49.6464C143.085 49.393 145.846 48.0966 148.795 45.3449C148.995 45.1563 148.954 45.0679 148.73 45.227V45.2329Z"/>
</mask>
<path d="M148.73 45.2329C145.12 47.7608 142.92 48.8155 138.562 49.4873C138.461 49.5049 138.473 49.6523 138.579 49.6464C143.085 49.393 145.846 48.0966 148.795 45.3449C148.995 45.1563 148.954 45.0679 148.73 45.227V45.2329Z" fill="#263238"/>
<path d="M148.73 45.2329H149.73V45.7534L149.304 46.052L148.73 45.2329ZM138.562 49.4873L138.388 48.5025L138.399 48.5006L138.409 48.4989L138.562 49.4873ZM138.579 49.6464L138.635 50.6448L138.635 50.6448L138.579 49.6464ZM148.795 45.3449L149.48 46.0734L149.477 46.076L148.795 45.3449ZM148.73 45.227H147.73V44.7105L148.151 44.4116L148.73 45.227ZM149.304 46.052C147.478 47.3307 145.96 48.2715 144.321 48.975C142.676 49.6814 140.949 50.1311 138.714 50.4756L138.409 48.4989C140.533 48.1717 142.086 47.7582 143.532 47.1372C144.985 46.5135 146.372 45.663 148.156 44.4138L149.304 46.052ZM138.735 50.4721C139.269 50.3781 139.528 49.8876 139.488 49.4799C139.469 49.2805 139.38 49.0607 139.193 48.8892C138.993 48.7058 138.744 48.6357 138.524 48.6479L138.635 50.6448C138.362 50.66 138.071 50.5737 137.842 50.3638C137.626 50.1658 137.521 49.9091 137.498 49.6715C137.451 49.1871 137.754 48.6142 138.388 48.5025L138.735 50.4721ZM138.523 48.6479C140.69 48.5261 142.386 48.1567 143.875 47.5143C145.363 46.8721 146.696 45.9352 148.113 44.6137L149.477 46.076C147.944 47.5063 146.422 48.5934 144.667 49.3507C142.912 50.1078 140.975 50.5132 138.635 50.6448L138.523 48.6479ZM148.11 44.6163C148.127 44.6003 148.099 44.6221 148.06 44.6828C148.042 44.7105 147.996 44.7857 147.963 44.8987C147.937 44.9848 147.862 45.282 148.032 45.6133C148.24 46.016 148.62 46.1266 148.828 46.142C149.013 46.1556 149.148 46.1113 149.189 46.097C149.287 46.0632 149.332 46.026 149.309 46.0424L148.151 44.4116C148.24 44.3485 148.374 44.2626 148.536 44.2066C148.61 44.1811 148.771 44.1323 148.975 44.1474C149.204 44.1642 149.597 44.2822 149.811 44.6979C149.988 45.042 149.913 45.3575 149.88 45.4668C149.84 45.603 149.78 45.7063 149.741 45.7662C149.661 45.8916 149.563 45.9951 149.48 46.0734L148.11 44.6163ZM149.73 45.227V45.2329H147.73V45.227H149.73Z" fill="#222222" mask="url(#path-28-inside-5_2036_21419)"/>
<path d="M120.189 39.9579C120.189 39.9579 123.752 35.8273 125.716 34.3542C127.68 32.8811 137.028 30.0998 137.742 32.0797C138.668 34.637 133.59 37.3122 130.93 38.2904C130.93 38.2904 133.077 44.2064 129.85 46.9111C126.624 49.6157 120.183 39.952 120.183 39.952L120.189 39.9579Z" fill="#F7A9A0"/>
<path d="M130.021 46.9354C129.968 47.0002 130.051 47.0827 130.116 47.0238L130.071 46.9759L130.069 46.9742L130.027 46.9288C130.025 46.931 130.023 46.9332 130.021 46.9354ZM131.141 44.3989C131.285 43.9372 131.381 43.4488 131.432 42.945C131.58 41.4876 131.351 39.9405 130.884 38.6365L130.803 38.4121L130.797 38.3945L130.727 38.1976L130.892 38.1247L130.847 38.026L131.141 44.3989Z" fill="#263238" stroke="#222222"/>
<path d="M53.494 74.9816L94.3853 75.6652L92.3504 62.6016C92.3504 62.6016 95.6769 59.726 93.7365 54.2637C92.4684 50.687 86.7355 42.3138 83.8336 38.8255C76.7618 30.3344 71.8664 35.0778 69.9083 37.2581C62.4236 45.5959 53.494 74.9816 53.494 74.9816Z" fill="#F7A9A0"/>
<path d="M94.3911 75.6659L53.4939 74.9883C53.4939 74.9883 55.9829 66.7918 59.4392 57.8235C61.4032 57.2343 64.6767 56.0675 66.7882 54.3823C69.9731 51.825 73.0283 44.4712 73.0283 44.4712L87.2309 43.3457C89.9322 47.1699 92.8694 51.8368 93.7364 54.2644C95.671 59.7327 92.3504 62.6023 92.3504 62.6023L94.3852 75.6659H94.3911Z" fill="#FFC727"/>
<path d="M80.566 46.3086C80.566 47.269 81.3446 48.0409 82.3001 48.0409C83.2556 48.0409 84.0341 47.2631 84.0341 46.3086C84.0341 45.354 83.2556 44.5762 82.3001 44.5762C81.3446 44.5762 80.566 45.354 80.566 46.3086ZM82.3001 68.0282C83.2614 68.0282 84.0341 68.806 84.0341 69.7606C84.0341 70.7152 83.2556 71.493 82.3001 71.493C81.3446 71.493 80.566 70.7152 80.566 69.7606C80.566 68.806 81.3446 68.0282 82.3001 68.0282ZM66.9356 68.0282C67.897 68.0282 68.6696 68.806 68.6696 69.7606C68.6696 70.7152 67.8911 71.493 66.9356 71.493C65.9801 71.493 65.2016 70.7152 65.2016 69.7606C65.2016 68.806 65.9801 68.0282 66.9356 68.0282ZM89.9794 56.3847C90.9407 56.3847 91.7134 57.1625 91.7134 58.1171C91.7134 59.0716 90.9348 59.8495 89.9794 59.8495C89.0239 59.8495 88.2453 59.0716 88.2453 58.1171C88.2453 57.1625 89.0239 56.3847 89.9794 56.3847ZM74.6208 56.3847C75.5822 56.3847 76.3548 57.1625 76.3548 58.1171C76.3548 59.0716 75.5763 59.8495 74.6208 59.8495C73.6653 59.8495 72.8867 59.0716 72.8867 58.1171C72.8867 57.1625 73.6653 56.3847 74.6208 56.3847ZM59.4392 57.8224C59.852 57.6987 60.318 57.5514 60.8252 57.3805C60.9314 57.6044 60.9903 57.8519 60.9903 58.1171C60.9903 59.0775 60.2118 59.8553 59.2504 59.8553C59.0558 59.8553 58.8729 59.8259 58.7019 59.767C58.9437 59.1247 59.1855 58.4765 59.4392 57.8224Z" fill="white"/>
<mask id="path-35-inside-6_2036_21419" fill="white">
<path d="M79.9939 62.4893C81.7692 62.3538 83.5682 62.2713 85.3435 62.4009C86.2282 62.4657 87.107 62.5659 87.9858 62.6896C88.4223 62.7486 88.8587 62.7957 89.3011 62.8429C89.7552 62.89 90.233 62.9195 90.6871 62.8546C90.7284 62.8487 90.7402 62.9077 90.6989 62.9195C90.2625 63.0078 89.8496 63.0962 89.4072 63.1316C88.9885 63.161 88.5579 63.1493 88.1333 63.1257C87.2368 63.0727 86.3402 62.9725 85.4378 62.9077C83.6271 62.778 81.8164 62.6484 79.9939 62.6484C79.9114 62.6484 79.9055 62.507 79.9939 62.5011V62.4893Z"/>
</mask>
<path d="M79.9939 62.4893C81.7692 62.3538 83.5682 62.2713 85.3435 62.4009C86.2282 62.4657 87.107 62.5659 87.9858 62.6896C88.4223 62.7486 88.8587 62.7957 89.3011 62.8429C89.7552 62.89 90.233 62.9195 90.6871 62.8546C90.7284 62.8487 90.7402 62.9077 90.6989 62.9195C90.2625 63.0078 89.8496 63.0962 89.4072 63.1316C88.9885 63.161 88.5579 63.1493 88.1333 63.1257C87.2368 63.0727 86.3402 62.9725 85.4378 62.9077C83.6271 62.778 81.8164 62.6484 79.9939 62.6484C79.9114 62.6484 79.9055 62.507 79.9939 62.5011V62.4893Z" fill="#263238"/>
<path d="M79.9939 62.4893H78.9939V61.5627L79.9178 61.4922L79.9939 62.4893ZM85.3435 62.4009L85.4163 61.4036L85.4165 61.4036L85.3435 62.4009ZM87.9858 62.6896L87.852 63.6807L87.8464 63.6799L87.9858 62.6896ZM89.3011 62.8429L89.1978 63.8375L89.1951 63.8372L89.3011 62.8429ZM90.6871 62.8546L90.5458 61.8647L90.6871 62.8546ZM90.6989 62.9195L90.9734 63.881L90.9358 63.8918L90.8974 63.8996L90.6989 62.9195ZM89.4072 63.1316L89.4869 64.1285L89.4774 64.1291L89.4072 63.1316ZM88.1333 63.1257L88.0778 64.1242L88.0742 64.1239L88.1333 63.1257ZM85.4378 62.9077L85.5093 61.9102L85.5095 61.9102L85.4378 62.9077ZM79.9939 62.5011H80.9939V63.4367L80.0604 63.4989L79.9939 62.5011ZM79.9178 61.4922C81.7086 61.3555 83.5662 61.2685 85.4163 61.4036L85.2706 63.3983C83.5702 63.2741 81.8299 63.3521 80.07 63.4864L79.9178 61.4922ZM85.4165 61.4036C86.3279 61.4704 87.2292 61.5733 88.1252 61.6994L87.8464 63.6799C86.9847 63.5586 86.1285 63.4611 85.2704 63.3982L85.4165 61.4036ZM88.1196 61.6986C88.5403 61.7554 88.9637 61.8012 89.407 61.8485L89.1951 63.8372C88.7537 63.7902 88.3042 63.7417 87.852 63.6807L88.1196 61.6986ZM89.4043 61.8482C89.8415 61.8936 90.2184 61.9114 90.5458 61.8647L90.8284 63.8446C90.2475 63.9275 89.669 63.8864 89.1978 63.8375L89.4043 61.8482ZM90.5458 61.8647C91.169 61.7757 91.6179 62.2293 91.7063 62.6932C91.7949 63.1582 91.5474 63.7172 90.9734 63.881L90.4244 61.9579C89.8917 62.1099 89.6589 62.6336 89.7417 63.0677C89.7809 63.2734 89.8931 63.4902 90.0978 63.6496C90.317 63.8203 90.5845 63.8794 90.8284 63.8446L90.5458 61.8647ZM90.8974 63.8996C90.4803 63.984 90.002 64.0872 89.4869 64.1284L89.3276 62.1348C89.6972 62.1052 90.0446 62.0317 90.5004 61.9394L90.8974 63.8996ZM89.4774 64.1291C88.9965 64.163 88.5173 64.1485 88.0778 64.1242L88.1887 62.1272C88.5985 62.15 88.9804 62.1591 89.3371 62.1341L89.4774 64.1291ZM88.0742 64.1239C87.1985 64.0721 86.1867 63.964 85.3662 63.9051L85.5095 61.9102C86.4938 61.9809 87.275 62.0732 88.1923 62.1274L88.0742 64.1239ZM85.3664 63.9051C83.5499 63.7751 81.7748 63.6484 79.9939 63.6484V61.6484C81.8581 61.6484 83.7044 61.781 85.5093 61.9102L85.3664 63.9051ZM79.9939 63.6484C79.6549 63.6484 79.3589 63.49 79.1687 63.2545C78.997 63.0419 78.9341 62.7999 78.93 62.5974C78.9258 62.3937 78.9794 62.1467 79.1459 61.9254C79.3295 61.6813 79.612 61.5243 79.9275 61.5033L80.0604 63.4989C80.3316 63.4808 80.5817 63.3437 80.7441 63.1278C80.8894 62.9346 80.933 62.7241 80.9296 62.5565C80.9262 62.3901 80.8748 62.1838 80.7246 61.9979C80.556 61.7891 80.2917 61.6484 79.9939 61.6484V63.6484ZM78.9939 62.5011V62.4893H80.9939V62.5011H78.9939Z" fill="#222222" mask="url(#path-35-inside-6_2036_21419)"/>
<mask id="path-37-inside-7_2036_21419" fill="white">
<path d="M75.9478 64.822C77.3575 64.4155 78.8025 64.0678 80.2534 63.8262C80.9789 63.7025 81.7103 63.6259 82.4416 63.561C82.7896 63.5316 83.1435 63.508 83.4974 63.4903C83.8866 63.4668 84.2759 63.5021 84.6593 63.4727C84.7006 63.4727 84.7124 63.5316 84.6711 63.5375C84.3054 63.5728 83.9456 63.6671 83.5858 63.726C83.2261 63.785 82.8604 63.838 82.4947 63.891C81.7692 64.003 81.0438 64.1267 80.3183 64.2328C78.8615 64.4449 77.4165 64.6747 75.9655 64.9399C75.8889 64.9517 75.8712 64.8397 75.9478 64.822Z"/>
</mask>
<path d="M75.9478 64.822C77.3575 64.4155 78.8025 64.0678 80.2534 63.8262C80.9789 63.7025 81.7103 63.6259 82.4416 63.561C82.7896 63.5316 83.1435 63.508 83.4974 63.4903C83.8866 63.4668 84.2759 63.5021 84.6593 63.4727C84.7006 63.4727 84.7124 63.5316 84.6711 63.5375C84.3054 63.5728 83.9456 63.6671 83.5858 63.726C83.2261 63.785 82.8604 63.838 82.4947 63.891C81.7692 64.003 81.0438 64.1267 80.3183 64.2328C78.8615 64.4449 77.4165 64.6747 75.9655 64.9399C75.8889 64.9517 75.8712 64.8397 75.9478 64.822Z" fill="#263238"/>
<path d="M75.9478 64.822L76.225 65.7829L76.1989 65.7904L76.1725 65.7965L75.9478 64.822ZM80.2534 63.8262L80.4216 64.812L80.4177 64.8126L80.2534 63.8262ZM82.4416 63.561L82.3533 62.5649L82.3573 62.5646L82.4416 63.561ZM83.4974 63.4903L83.5578 64.4886L83.5473 64.4891L83.4974 63.4903ZM84.6593 63.4727L84.5827 62.4756L84.6209 62.4727H84.6593V63.4727ZM84.6711 63.5375L84.8124 64.5274L84.7899 64.5306L84.7673 64.5328L84.6711 63.5375ZM82.4947 63.891L82.3422 62.9027L82.3512 62.9014L82.4947 63.891ZM80.3183 64.2328L80.463 65.2223L80.4624 65.2223L80.3183 64.2328ZM75.9655 64.9399L76.1453 65.9236L76.1314 65.9261L76.1175 65.9283L75.9655 64.9399ZM75.6707 63.8612C77.1085 63.4465 78.592 63.0891 80.0892 62.8398L80.4177 64.8126C79.0131 65.0465 77.6065 65.3844 76.225 65.7829L75.6707 63.8612ZM80.0853 62.8404C80.8508 62.7099 81.6138 62.6305 82.3533 62.5649L82.5299 64.5571C81.8067 64.6212 81.107 64.6951 80.4216 64.812L80.0853 62.8404ZM82.3573 62.5646C82.7172 62.5341 83.0826 62.5098 83.4475 62.4916L83.5473 64.4891C83.2043 64.5062 82.862 64.529 82.526 64.5575L82.3573 62.5646ZM83.4369 62.4922C83.6746 62.4778 83.9078 62.4817 84.0919 62.4838C84.2897 62.486 84.441 62.4865 84.5827 62.4756L84.7359 64.4697C84.4942 64.4883 84.2592 64.4858 84.0691 64.4836C83.8655 64.4813 83.7094 64.4793 83.5578 64.4885L83.4369 62.4922ZM84.6593 62.4727C85.2267 62.4727 85.5987 62.8973 85.6785 63.3155C85.7191 63.5285 85.6998 63.8053 85.5354 64.0629C85.3574 64.3418 85.0781 64.4895 84.8124 64.5274L84.5298 62.5475C84.2847 62.5825 84.0195 62.7206 83.8495 62.9869C83.6932 63.2317 83.6762 63.4927 83.7139 63.6902C83.7877 64.0775 84.1331 64.4727 84.6593 64.4727V62.4727ZM84.7673 64.5328C84.6344 64.5457 84.4918 64.5703 84.3183 64.6043C84.1595 64.6354 83.9477 64.6801 83.7475 64.7129L83.4242 62.7392C83.5838 62.7131 83.7318 62.6812 83.9342 62.6415C84.122 62.6048 84.3421 62.5646 84.5749 62.5421L84.7673 64.5328ZM83.7475 64.7129C83.3771 64.7735 83.0023 64.8279 82.6382 64.8807L82.3512 62.9014C82.7185 62.8481 83.075 62.7964 83.4242 62.7392L83.7475 64.7129ZM82.6472 64.8793C81.9485 64.9871 81.1878 65.1163 80.463 65.2223L80.1736 63.2433C80.8997 63.1371 81.59 63.0188 82.3422 62.9027L82.6472 64.8793ZM80.4624 65.2223C79.014 65.4332 77.5814 65.6611 76.1453 65.9236L75.7858 63.9562C77.2516 63.6883 78.7089 63.4566 80.1742 63.2432L80.4624 65.2223ZM76.1175 65.9283C75.839 65.9711 75.535 65.9044 75.2899 65.7057C75.062 65.521 74.9459 65.2722 74.9108 65.0442C74.8384 64.5736 75.1031 63.9906 75.7232 63.8476L76.1725 65.7965C76.7159 65.6712 76.9512 65.1529 76.8875 64.7398C76.8569 64.5405 76.7548 64.3186 76.5494 64.1521C76.3268 63.9716 76.0538 63.9146 75.8136 63.9515L76.1175 65.9283Z" fill="#222222" mask="url(#path-37-inside-7_2036_21419)"/>
<path d="M66.2042 39.1271C54.0542 51.3539 41.1433 72.5197 43.9626 77.7581C47.1063 83.5916 61.6273 71.0407 61.5625 70.039C61.5153 69.2788 67.4959 53.6284 72.0315 42.2383C76.5612 30.8658 69.2063 36.1042 66.1983 39.1271H66.2042Z" fill="#F7A9A0"/>
<path d="M65.0941 60.2657L64.8578 60.1733L65.0941 60.2657Z" fill="#263238" stroke="#222222"/>
<mask id="path-41-inside-8_2036_21419" fill="white">
<path d="M67.7554 53.115C67.9854 52.6141 68.2744 52.1486 68.5752 51.6949C68.7285 51.471 68.8819 51.2412 69.0411 51.0232C69.2004 50.7993 69.3714 50.5871 69.5425 50.375C69.3537 50.8994 69.0647 51.3649 68.7698 51.8245C68.4631 52.2783 68.1446 52.7202 67.7613 53.1209L67.7554 53.115Z"/>
</mask>
<path d="M67.7554 53.115C67.9854 52.6141 68.2744 52.1486 68.5752 51.6949C68.7285 51.471 68.8819 51.2412 69.0411 51.0232C69.2004 50.7993 69.3714 50.5871 69.5425 50.375C69.3537 50.8994 69.0647 51.3649 68.7698 51.8245C68.4631 52.2783 68.1446 52.7202 67.7613 53.1209L67.7554 53.115Z" fill="#263238"/>
<path d="M67.7554 53.115L67.0483 53.8222L66.5562 53.3301L66.8466 52.6976L67.7554 53.115ZM68.5752 51.6949L67.7417 51.1424L67.7459 51.1361L67.7501 51.1299L68.5752 51.6949ZM69.0411 51.0232L69.8561 51.6028L69.8487 51.613L69.0411 51.0232ZM69.5425 50.375L68.764 49.7473L70.4834 50.7136L69.5425 50.375ZM68.7698 51.8245L69.6115 52.3646L69.605 52.3747L69.5983 52.3846L68.7698 51.8245ZM67.7613 53.1209L68.4838 53.8122L67.7771 54.5508L67.0542 53.8281L67.7613 53.1209ZM66.8466 52.6976C67.1094 52.1255 67.4325 51.6088 67.7417 51.1424L69.4087 52.2475C69.1163 52.6885 68.8614 53.1028 68.6641 53.5323L66.8466 52.6976ZM67.7501 51.1299C67.8941 50.9197 68.0625 50.6676 68.2336 50.4333L69.8487 51.613C69.7013 51.8147 69.563 52.0223 69.4003 52.26L67.7501 51.1299ZM68.2262 50.4436C68.4059 50.191 68.596 49.9556 68.764 49.7473L70.3209 51.0027C70.1468 51.2186 69.9949 51.4075 69.8561 51.6027L68.2262 50.4436ZM70.4834 50.7136C70.252 51.3566 69.9045 51.9078 69.6115 52.3646L67.9282 51.2845C68.2249 50.822 68.4555 50.4423 68.6016 50.0364L70.4834 50.7136ZM69.5983 52.3846C69.2833 52.8505 68.927 53.349 68.4838 53.8122L67.0387 52.4296C67.3623 52.0914 67.6429 51.706 67.9414 51.2645L69.5983 52.3846ZM67.0542 53.8281L67.0483 53.8222L68.4624 52.4078L68.4683 52.4137L67.0542 53.8281Z" fill="#222222" mask="url(#path-41-inside-8_2036_21419)"/>
<path d="M44.2223 78.2351C47.6196 81.8119 54.5616 81.7176 74.1078 82.5838C76.815 82.7016 83.3324 63.4627 80.4482 63.1858C76.815 62.8381 62.6537 62.2724 61.6098 62.3608C52.8276 63.115 41.9103 75.8074 44.2164 78.2351H44.2223Z" fill="#F7A9A0"/>
<path d="M73.913 63.8046C73.913 63.8046 81.1559 62.2962 85.9392 61.536C88.6051 61.1118 93.2469 60.7877 95.3525 61.371C98.4962 62.2431 111.1 67.8999 109.791 70.9817C108.605 73.7688 98.4018 67.5405 98.4018 67.5405C98.4018 67.5405 109.26 72.9203 107.219 76.0138C105.179 79.1133 94.5799 70.5397 94.5799 70.5397C94.5799 70.5397 105.609 76.3143 103.002 79.1781C101.026 81.3406 90.9938 74.1164 90.9938 74.1164C90.9938 74.1164 100.443 79.1486 98.508 81.4585C96.3729 84.0099 86.6883 77.923 86.6883 77.923C80.7843 82.9728 75.9066 82.961 72.4326 82.5427C71.5951 82.4425 73.9189 63.8105 73.9189 63.8105L73.913 63.8046Z" fill="#F7A9A0"/>
<mask id="path-45-inside-9_2036_21419" fill="white">
<path d="M94.7626 65.4377C96.0602 66.021 97.3814 66.6044 98.62 67.3056C99.8645 68.0068 101.079 68.7492 102.253 69.5565C105.126 71.5482 106.612 73.2393 106.512 73.145C104.07 70.9059 99.6639 68.3368 98.4195 67.6356C97.1809 66.9402 95.9777 66.1801 94.7391 65.4789C94.7096 65.4612 94.7391 65.42 94.7685 65.4318L94.7626 65.4377Z"/>
</mask>
<path d="M94.7626 65.4377C96.0602 66.021 97.3814 66.6044 98.62 67.3056C99.8645 68.0068 101.079 68.7492 102.253 69.5565C105.126 71.5482 106.612 73.2393 106.512 73.145C104.07 70.9059 99.6639 68.3368 98.4195 67.6356C97.1809 66.9402 95.9777 66.1801 94.7391 65.4789C94.7096 65.4612 94.7391 65.42 94.7685 65.4318L94.7626 65.4377Z" fill="#263238"/>
<path d="M94.7626 65.4377L94.3526 66.3497L93.03 65.7551L94.0559 64.7302L94.7626 65.4377ZM98.62 67.3056L98.1291 68.1768L98.1273 68.1758L98.62 67.3056ZM102.253 69.5565L102.82 68.7326L102.823 68.7347L102.253 69.5565ZM106.512 73.145L107.188 72.4079L107.197 72.4165L106.512 73.145ZM98.4195 67.6356L98.909 66.7636L98.9103 66.7643L98.4195 67.6356ZM94.7391 65.4789L94.2464 66.3491L94.2356 66.343L94.2249 66.3366L94.7391 65.4789ZM94.7685 65.4318L95.1396 64.5032L96.5491 65.0664L95.4753 66.1392L94.7685 65.4318ZM95.1727 64.5256C96.4565 65.1028 97.8251 65.7064 99.1126 66.4354L98.1273 68.1758C96.9377 67.5023 95.6639 66.9393 94.3526 66.3497L95.1727 64.5256ZM99.1109 66.4344C100.376 67.147 101.617 67.9051 102.82 68.7326L101.687 70.3804C100.542 69.5934 99.3533 68.8666 98.1291 68.1768L99.1109 66.4344ZM102.823 68.7347C104.301 69.7597 105.426 70.7098 106.174 71.3967C106.548 71.7402 106.828 72.019 107.012 72.21C107.104 72.3048 107.174 72.3808 107.222 72.4341C107.241 72.4558 107.27 72.4892 107.296 72.5221C107.303 72.53 107.32 72.5517 107.339 72.58C107.347 72.5919 107.37 72.625 107.394 72.6698C107.406 72.6911 107.43 72.7365 107.453 72.7971C107.464 72.8263 107.532 72.9999 107.513 73.2305C107.494 73.3574 107.387 73.6406 107.288 73.7852C107.15 73.9223 106.838 74.0956 106.679 74.1355C106.373 74.186 106.14 74.0759 106.114 74.0645C105.995 74.0122 105.913 73.9464 105.907 73.9421C105.864 73.909 105.832 73.8788 105.827 73.8735L107.197 72.4165C107.194 72.4141 107.165 72.386 107.123 72.3542C107.118 72.3504 107.037 72.2851 106.918 72.2329C106.892 72.2216 106.66 72.1116 106.354 72.1621C106.195 72.2019 105.883 72.3752 105.745 72.5123C105.646 72.6569 105.538 72.94 105.52 73.0669C105.501 73.2973 105.569 73.4707 105.58 73.4998C105.603 73.5601 105.626 73.6052 105.638 73.6261C105.662 73.6703 105.684 73.7025 105.691 73.7133C105.709 73.7394 105.724 73.7581 105.727 73.7621C105.741 73.7797 105.746 73.7845 105.729 73.7651C105.703 73.7362 105.651 73.6799 105.573 73.5983C105.417 73.4365 105.165 73.1858 104.82 72.8693C104.132 72.2363 103.078 71.345 101.683 70.3783L102.823 68.7347ZM105.836 73.882C103.491 71.7319 99.184 69.2142 97.9286 68.5068L98.9103 66.7643C100.144 67.4593 104.649 70.0798 107.187 72.408L105.836 73.882ZM97.9299 68.5076C97.2972 68.1524 96.6758 67.7819 96.0665 67.418C95.4536 67.0519 94.8536 66.6929 94.2464 66.3491L95.2317 64.6087C95.8631 64.9661 96.484 65.3378 97.092 65.7009C97.7036 66.0662 98.3031 66.4234 98.909 66.7636L97.9299 68.5076ZM94.2249 66.3366C93.9887 66.195 93.7877 65.9425 93.7381 65.6102C93.6931 65.3092 93.7887 65.0559 93.8998 64.8893C94.1034 64.5842 94.5841 64.2812 95.1396 64.5032L94.3975 66.3604C94.9235 66.5706 95.3747 66.2823 95.5635 65.9993C95.6673 65.8437 95.7592 65.6033 95.7161 65.3146C95.6683 64.9947 95.4747 64.754 95.2532 64.6212L94.2249 66.3366ZM95.4753 66.1392L95.4694 66.1451L94.0559 64.7302L94.0618 64.7243L95.4753 66.1392Z" fill="#222222" mask="url(#path-45-inside-9_2036_21419)"/>
<mask id="path-47-inside-10_2036_21419" fill="white">
<path d="M92.1556 69.8696C93.7835 70.6886 95.4231 71.4428 97.0156 72.3326C98.5963 73.2224 100.018 74.2005 101.539 75.1905C101.657 75.2671 101.575 75.3024 101.457 75.2317C99.8997 74.3007 98.3898 73.5582 96.8269 72.6449C95.2639 71.7316 93.7304 70.7534 92.1379 69.9049C92.1143 69.8931 92.1379 69.8578 92.1615 69.8696H92.1556Z"/>
</mask>
<path d="M92.1556 69.8696C93.7835 70.6886 95.4231 71.4428 97.0156 72.3326C98.5963 73.2224 100.018 74.2005 101.539 75.1905C101.657 75.2671 101.575 75.3024 101.457 75.2317C99.8997 74.3007 98.3898 73.5582 96.8269 72.6449C95.2639 71.7316 93.7304 70.7534 92.1379 69.9049C92.1143 69.8931 92.1379 69.8578 92.1615 69.8696H92.1556Z" fill="#263238"/>
<path d="M92.1556 69.8696L91.7061 70.7629L92.1556 68.8696V69.8696ZM97.0156 72.3326L97.5034 71.4596L97.5061 71.4612L97.0156 72.3326ZM101.539 75.1905L100.995 76.0291L100.994 76.0287L101.539 75.1905ZM101.457 75.2317L101.97 74.3734L101.971 74.374L101.457 75.2317ZM92.1379 69.9049L92.5848 69.0103L92.5965 69.0162L92.6081 69.0224L92.1379 69.9049ZM92.1615 69.8696L92.6084 68.975L92.1615 70.8696V69.8696ZM92.605 68.9763C94.1904 69.7739 95.8868 70.5564 97.5034 71.4596L96.5278 73.2056C94.9595 72.3293 93.3765 71.6033 91.7061 70.7629L92.605 68.9763ZM97.5061 71.4612C99.1238 72.3718 100.591 73.3803 102.085 74.3522L100.994 76.0287C99.4447 75.0208 98.0688 74.073 96.5251 73.204L97.5061 71.4612ZM102.084 74.3518C102.15 74.3945 102.343 74.5236 102.473 74.7643C102.543 74.8944 102.651 75.1645 102.566 75.5003C102.473 75.8686 102.211 76.0788 102.007 76.1735C101.68 76.3253 101.382 76.2574 101.301 76.2379C101.164 76.2048 101.044 76.1499 100.943 76.0894L101.971 74.374C101.929 74.3489 101.863 74.316 101.771 74.2938C101.735 74.2852 101.472 74.217 101.166 74.3592C100.972 74.449 100.717 74.6522 100.627 75.0113C100.544 75.338 100.65 75.5969 100.713 75.714C100.829 75.9288 100.988 76.0247 100.995 76.0291L102.084 74.3518ZM100.944 76.09C100.185 75.6365 99.4352 75.2271 98.6674 74.8108C97.9042 74.3969 97.1205 73.9747 96.3223 73.5083L97.3314 71.7815C98.0962 72.2284 98.8489 72.6341 99.6207 73.0526C100.388 73.4686 101.171 73.8959 101.97 74.3734L100.944 76.09ZM96.3223 73.5083C94.7114 72.567 93.2399 71.6252 91.6677 70.7875L92.6081 69.0224C94.2209 69.8817 95.8163 70.8962 97.3314 71.7815L96.3223 73.5083ZM91.691 70.7995C91.4186 70.6634 91.194 70.3957 91.14 70.045C91.0928 69.7387 91.1925 69.4847 91.3002 69.3233C91.5 69.0239 92.0198 68.681 92.6084 68.975L91.7146 70.7642C92.2796 71.0464 92.7758 70.7152 92.9638 70.4335C93.0656 70.2809 93.1623 70.0373 93.1167 69.7406C93.0641 69.3994 92.8454 69.1405 92.5848 69.0103L91.691 70.7995ZM92.1615 70.8696H92.1556V68.8696H92.1615V70.8696Z" fill="#222222" mask="url(#path-47-inside-10_2036_21419)"/>
<mask id="path-49-inside-11_2036_21419" fill="white">
<path d="M89.2304 73.2754C91.7783 74.4009 94.114 75.9919 96.3729 77.6123C96.485 77.6948 96.3729 77.7301 96.255 77.6535C93.9075 76.1686 92.0791 74.9843 89.1891 73.3638C89.1419 73.3403 89.1773 73.2519 89.2304 73.2754Z"/>
</mask>
<path d="M89.2304 73.2754C91.7783 74.4009 94.114 75.9919 96.3729 77.6123C96.485 77.6948 96.3729 77.7301 96.255 77.6535C93.9075 76.1686 92.0791 74.9843 89.1891 73.3638C89.1419 73.3403 89.1773 73.2519 89.2304 73.2754Z" fill="#263238"/>
<path d="M89.2304 73.2754L88.8263 74.1902L88.8245 74.1894L89.2304 73.2754ZM96.3729 77.6123L96.9558 76.7997L96.9658 76.807L96.3729 77.6123ZM96.255 77.6535L96.7896 76.8084L96.7996 76.8149L96.255 77.6535ZM89.1891 73.3638L89.6359 72.4692L89.6573 72.4799L89.6781 72.4916L89.1891 73.3638ZM89.6344 72.3607C92.2847 73.5314 94.6926 75.1763 96.9558 76.7997L95.79 78.4249C93.5353 76.8075 91.2719 75.2704 88.8263 74.1902L89.6344 72.3607ZM96.9658 76.807C97.0278 76.8527 97.2959 77.0493 97.3888 77.4231C97.4476 77.6597 97.4303 77.963 97.2481 78.2364C97.0829 78.4842 96.8573 78.5944 96.7161 78.6414C96.4502 78.7299 96.2171 78.6906 96.1024 78.6626C95.9596 78.6279 95.8271 78.5681 95.7103 78.4922L96.7996 76.8149C96.7418 76.7773 96.6676 76.7418 96.5754 76.7194C96.5114 76.7038 96.3215 76.6648 96.0843 76.7438C95.9575 76.786 95.7426 76.8889 95.5838 77.1272C95.4079 77.3911 95.3925 77.6827 95.4479 77.9056C95.534 78.252 95.774 78.4132 95.7801 78.4176L96.9658 76.807ZM95.7204 78.4987C93.3676 77.0104 91.5626 75.8411 88.7 74.2361L89.6781 72.4916C92.5957 74.1274 94.4475 75.3269 96.7895 76.8084L95.7204 78.4987ZM88.7422 74.2584C88.0433 73.9093 88.1359 73.178 88.2547 72.904C88.3299 72.7306 88.4758 72.5258 88.7255 72.393C89.0078 72.2429 89.3427 72.2312 89.6362 72.3615L88.8245 74.1894C89.0914 74.3079 89.4021 74.2984 89.6643 74.159C89.8939 74.0369 90.0239 73.8512 90.0895 73.6999C90.1556 73.5476 90.1942 73.3449 90.1445 73.1205C90.0892 72.871 89.9233 72.6128 89.6359 72.4692L88.7422 74.2584Z" fill="#222222" mask="url(#path-49-inside-11_2036_21419)"/>
<mask id="path-51-inside-12_2036_21419" fill="white">
<path d="M52.8923 66.3864C54.3491 65.1254 58.4895 62.1144 64.1281 62.3206C64.1753 62.3206 64.1871 62.4031 64.134 62.4031C59.9169 62.6565 54.4376 65.3553 52.9336 66.4513C52.8923 66.4807 52.8569 66.4159 52.8923 66.3864Z"/>
</mask>
<path d="M52.8923 66.3864C54.3491 65.1254 58.4895 62.1144 64.1281 62.3206C64.1753 62.3206 64.1871 62.4031 64.134 62.4031C59.9169 62.6565 54.4376 65.3553 52.9336 66.4513C52.8923 66.4807 52.8569 66.4159 52.8923 66.3864Z" fill="#263238"/>
<path d="M52.8923 66.3864L53.5468 67.1425L53.5395 67.1488L53.5321 67.155L52.8923 66.3864ZM64.1281 62.3206V63.3206H64.1098L64.0916 63.32L64.1281 62.3206ZM64.134 62.4031L64.074 61.4049L64.104 61.4031H64.134V62.4031ZM52.9336 66.4513L53.5225 67.2595L53.5144 67.2652L52.9336 66.4513ZM52.2378 65.6303C53.7736 64.301 58.1562 61.1015 64.1647 61.3213L64.0916 63.32C58.8229 63.1273 54.9247 65.9499 53.5468 67.1425L52.2378 65.6303ZM64.1281 61.3206C64.8466 61.3206 65.1284 61.9331 65.1629 62.2552C65.1836 62.4479 65.1563 62.7232 64.971 62.9782C64.7593 63.2694 64.4356 63.4031 64.134 63.4031V61.4031C63.859 61.4031 63.5537 61.5265 63.3532 61.8023C63.1791 62.0418 63.1559 62.2965 63.1744 62.4686C63.2045 62.7494 63.4568 63.3206 64.1281 63.3206V61.3206ZM64.194 63.4013C62.243 63.5185 59.9352 64.2115 57.8914 65.0382C55.8438 65.8665 54.1815 66.7792 53.5225 67.2594L52.3446 65.6431C53.1896 65.0273 55.019 64.0427 57.1414 63.1842C59.2674 62.3242 61.8079 61.5411 64.074 61.4049L64.194 63.4013ZM53.5144 67.2652C53.2921 67.4239 52.9737 67.5152 52.6357 67.4208C52.3285 67.335 52.1303 67.1308 52.0235 66.95C51.8267 66.6174 51.7703 66.0194 52.2525 65.6179L53.5321 67.155C53.9789 66.783 53.9225 66.2321 53.7449 65.9319C53.6476 65.7673 53.4638 65.5756 53.1737 65.4946C52.8528 65.4049 52.5544 65.4933 52.3527 65.6373L53.5144 67.2652Z" fill="#222222" mask="url(#path-51-inside-12_2036_21419)"/>
<path d="M73.4647 35.8689C73.5944 36.629 76.8679 41.7378 80.3182 41.7967C81.4389 41.8144 81.8104 35.6921 81.8104 35.6921L81.9402 35.2443L83.7627 29.0041L76.6319 23.7539L75.5998 23.0527C75.5998 23.0527 75.2105 24.791 74.7563 26.9653C74.7328 27.0655 74.7151 27.1657 74.6915 27.2717C74.662 27.3955 74.6325 27.5074 74.6089 27.6253C74.5381 27.9494 74.4614 28.2794 74.3966 28.6093C74.3435 28.8627 74.2963 29.1043 74.2491 29.3695C74.196 29.6346 74.1547 29.8939 74.1017 30.1591C73.6534 32.793 73.4175 35.5271 73.4647 35.8512V35.8689Z" fill="#F7A9A0"/>
<path d="M74.7446 26.9771C76.2368 32.133 80.1295 34.4428 81.9343 35.256L83.7568 29.0158L76.6261 23.7657L75.5939 23.0645C75.5939 23.0645 75.2046 24.8027 74.7505 26.9771H74.7446Z" fill="#263238"/>
<path d="M93.1997 19.3115C94.1787 30.6722 87.4785 32.5401 85.0249 32.7523C82.8014 32.9408 75.1929 33.3003 73.046 22.0987C70.8991 10.8971 75.877 6.84897 80.9494 6.14777C86.0217 5.44657 92.2265 7.94497 93.2056 19.3115H93.1997Z" fill="#F7A9A0"/>
<path d="M91.4244 17.4835C91.1531 17.4717 90.9113 17.4128 90.6458 17.3716C90.345 17.3244 90.1032 17.3185 89.8732 17.1064C89.7493 16.9945 89.7434 16.7411 89.8437 16.6114C90.0796 16.305 90.4571 16.2697 90.8169 16.3109C91.2121 16.3581 91.5011 16.4936 91.7783 16.7764C92.0437 17.0475 91.7783 17.5071 91.4303 17.4835H91.4244Z" fill="#263238"/>
<path d="M83.5445 17.6257C83.8099 17.5786 84.0458 17.4902 84.3053 17.4136C84.5943 17.3311 84.8362 17.2899 85.0367 17.0483C85.1429 16.9186 85.1193 16.6712 85.0072 16.5533C84.7359 16.2823 84.3584 16.294 84.0045 16.3824C83.6212 16.4767 83.3498 16.6476 83.1139 16.9658C82.8839 17.2722 83.2024 17.6906 83.5504 17.6257H83.5445Z" fill="#263238"/>
<mask id="path-58-inside-13_2036_21419" fill="white">
<path d="M85.597 20.6348C85.597 20.6348 85.538 20.676 85.5439 20.7055C85.6382 21.4774 85.6088 22.3731 84.9364 22.6913C84.9128 22.7031 84.9187 22.7384 84.9482 22.7325C85.7916 22.5381 85.8152 21.3419 85.6029 20.6289L85.597 20.6348Z"/>
</mask>
<path d="M85.597 20.6348C85.597 20.6348 85.538 20.676 85.5439 20.7055C85.6382 21.4774 85.6088 22.3731 84.9364 22.6913C84.9128 22.7031 84.9187 22.7384 84.9482 22.7325C85.7916 22.5381 85.8152 21.3419 85.6029 20.6289L85.597 20.6348Z" fill="#263238"/>
<path d="M85.597 20.6348L86.304 21.342L86.2419 21.404L86.17 21.4543L85.597 20.6348ZM85.5439 20.7055L86.5244 20.5092L86.5319 20.5465L86.5365 20.5842L85.5439 20.7055ZM84.9364 22.6913L84.4895 21.7967L84.499 21.7919L84.5086 21.7874L84.9364 22.6913ZM84.9482 22.7325L85.1728 23.707L85.1585 23.7103L85.1441 23.7131L84.9482 22.7325ZM85.6029 20.6289L84.8958 19.9217L86.0824 18.7354L86.5613 20.3435L85.6029 20.6289ZM85.597 20.6348C86.17 21.4543 86.1702 21.4542 86.1703 21.4541C86.1704 21.4541 86.1705 21.4539 86.1706 21.4539C86.1709 21.4537 86.1711 21.4536 86.1713 21.4534C86.1717 21.4532 86.1721 21.4529 86.1725 21.4526C86.1733 21.452 86.1741 21.4515 86.1749 21.4509C86.1765 21.4497 86.1781 21.4486 86.1797 21.4474C86.1829 21.4451 86.1861 21.4428 86.1894 21.4404C86.1959 21.4356 86.2029 21.4302 86.2105 21.4242C86.2238 21.4136 86.2472 21.3943 86.275 21.3666C86.2969 21.3447 86.3559 21.2839 86.4122 21.1881C86.4564 21.1127 86.594 20.8566 86.5244 20.5092L84.5633 20.9018C84.4908 20.5396 84.6336 20.2673 84.6872 20.1759C84.7528 20.0641 84.8255 19.9875 84.8615 19.9516C84.9032 19.9099 84.941 19.8784 84.9651 19.8592C84.9782 19.8489 84.9898 19.84 84.9995 19.8329C85.0043 19.8293 85.0088 19.826 85.0129 19.8231C85.0149 19.8216 85.0169 19.8203 85.0187 19.819C85.0196 19.8183 85.0205 19.8177 85.0214 19.8171C85.0218 19.8168 85.0222 19.8165 85.0226 19.8162C85.0229 19.816 85.0231 19.8159 85.0233 19.8157C85.0234 19.8157 85.0235 19.8155 85.0236 19.8155C85.0237 19.8154 85.0239 19.8153 85.597 20.6348ZM86.5365 20.5842C86.5885 21.0092 86.6202 21.5591 86.5041 22.0844C86.3837 22.6287 86.0731 23.2597 85.3641 23.5952L84.5086 21.7874C84.5108 21.7863 84.508 21.7875 84.5035 21.7914C84.4994 21.795 84.4989 21.7966 84.5016 21.7925C84.5085 21.7824 84.5313 21.743 84.5512 21.6527C84.5944 21.4576 84.5937 21.1737 84.5513 20.8269L86.5365 20.5842ZM85.3832 23.5859C85.7836 23.3859 85.9988 22.9356 85.8967 22.4935C85.8443 22.2663 85.7022 22.0312 85.4554 21.879C85.2052 21.7247 84.9435 21.7137 84.7522 21.7519L85.1441 23.7131C84.9381 23.7543 84.6646 23.741 84.4058 23.5814C84.1502 23.4239 84.0027 23.1803 83.948 22.9435C83.8415 22.4823 84.0656 22.0084 84.4895 21.7967L85.3832 23.5859ZM84.7235 21.7581C84.6975 21.7641 84.6627 21.7877 84.6477 21.807C84.6442 21.8114 84.6706 21.7776 84.6919 21.6738C84.7372 21.4533 84.7133 21.1455 84.6445 20.9143L86.5613 20.3435C86.7047 20.8253 86.7752 21.4721 86.6509 22.0765C86.5258 22.6854 86.1319 23.4858 85.1728 23.707L84.7235 21.7581ZM86.3099 21.3361L86.304 21.342L84.8899 19.9276L84.8958 19.9217L86.3099 21.3361Z" fill="#222222" mask="url(#path-58-inside-13_2036_21419)"/>
<path d="M84.836 19.8868C83.5797 19.8985 83.7036 22.4028 84.8655 22.3911C86.0097 22.3793 85.8859 19.875 84.836 19.8868Z" fill="#263238"/>
<path d="M84.3465 20.0461C84.1341 20.1993 83.9336 20.4586 83.6682 20.4998C83.3615 20.547 83.1197 20.2936 82.9073 20.052C82.8838 20.0284 82.8661 20.052 82.8661 20.0814C82.8838 20.5587 83.0902 21.0478 83.6092 21.0891C84.0811 21.1303 84.3996 20.6884 84.4939 20.2052C84.5116 20.1168 84.429 19.9872 84.3406 20.0461H84.3465Z" fill="#263238"/>
<mask id="path-62-inside-14_2036_21419" fill="white">
<path d="M89.9025 20.2653C89.9025 20.2359 89.9674 20.3007 89.9674 20.3301C89.9733 21.1079 90.1149 21.9977 90.8226 22.2275C90.8462 22.2334 90.8462 22.2746 90.8226 22.2688C89.9615 22.1804 89.7905 21.0019 89.9084 20.2653H89.9025Z"/>
</mask>
<path d="M89.9025 20.2653C89.9025 20.2359 89.9674 20.3007 89.9674 20.3301C89.9733 21.1079 90.1149 21.9977 90.8226 22.2275C90.8462 22.2334 90.8462 22.2746 90.8226 22.2688C89.9615 22.1804 89.7905 21.0019 89.9084 20.2653H89.9025Z" fill="#263238"/>
<path d="M89.9025 20.2653V21.2653H88.9025V20.2653H89.9025ZM89.9674 20.3301L88.9674 20.3377V20.3301H89.9674ZM90.8226 22.2275L90.5803 23.1977L90.5467 23.1893L90.5138 23.1786L90.8226 22.2275ZM90.8226 22.2688L90.9247 21.274L90.9957 21.2813L91.065 21.2986L90.8226 22.2688ZM89.9084 20.2653V19.2653H91.0813L90.8959 20.4235L89.9084 20.2653ZM88.9025 20.2653C88.9025 20.131 88.939 19.6524 89.4181 19.3851C89.8295 19.1556 90.2073 19.3001 90.2789 19.3283C90.4846 19.4093 90.6127 19.5392 90.6417 19.5682C90.6974 19.6238 90.755 19.6928 90.8059 19.7745C90.8305 19.8139 90.9674 20.0268 90.9674 20.3301H88.9674C88.9674 20.6188 89.0962 20.8125 89.1086 20.8324C89.1474 20.8946 89.1888 20.9437 89.2282 20.9831C89.241 20.9959 89.353 21.1132 89.5464 21.1894C89.612 21.2152 89.9847 21.3593 90.3925 21.1317C90.8681 20.8664 90.9025 20.3922 90.9025 20.2653H88.9025ZM90.9674 20.3225C90.97 20.6735 91.0054 20.9574 91.0734 21.1476C91.1049 21.2357 91.1328 21.2724 91.1409 21.2817C91.1442 21.2853 91.1433 21.2837 91.1384 21.2804C91.1332 21.2769 91.1297 21.2758 91.1315 21.2764L90.5138 23.1786C89.7651 22.9355 89.3777 22.3453 89.1902 21.8211C89.0091 21.3145 88.9707 20.7646 88.9674 20.3377L90.9674 20.3225ZM91.065 21.2573C91.6658 21.4074 91.8403 21.9503 91.8403 22.2526C91.8403 22.422 91.7951 22.7058 91.5638 22.9513C91.281 23.2515 90.89 23.3163 90.5803 23.239L91.065 21.2986C90.767 21.2242 90.3849 21.286 90.108 21.5799C89.8826 21.8192 89.8403 22.0934 89.8403 22.2526C89.8403 22.5342 90.0031 23.0535 90.5803 23.1977L91.065 21.2573ZM90.7205 23.2635C89.7434 23.1632 89.2527 22.4216 89.0519 21.8329C88.853 21.2496 88.8419 20.6009 88.921 20.1072L90.8959 20.4235C90.857 20.6663 90.8725 20.9751 90.9448 21.1873C90.9789 21.2872 91.009 21.3169 91.0048 21.3126C90.9872 21.2952 90.95 21.2766 90.9247 21.274L90.7205 23.2635ZM89.9084 21.2653H89.9025V19.2653H89.9084V21.2653Z" fill="#222222" mask="url(#path-62-inside-14_2036_21419)"/>
<path d="M90.5632 19.4281C91.8077 19.2808 92.0082 21.7792 90.8522 21.9148C89.7198 22.0444 89.5192 19.546 90.5632 19.4281Z" fill="#263238"/>
<path d="M91.1 19.5513C91.3064 19.6692 91.5246 19.8931 91.7606 19.8872C92.0378 19.8872 92.2147 19.5985 92.3681 19.3215C92.3858 19.2921 92.4034 19.3097 92.4093 19.3451C92.4624 19.8224 92.3445 20.3291 91.8903 20.4588C91.4775 20.5766 91.1354 20.1877 90.9879 19.7222C90.9584 19.6338 91.0174 19.4983 91.1 19.5454V19.5513Z" fill="#263238"/>
<path d="M87.291 27.2659C87.2965 27.2637 87.302 27.2615 87.3074 27.2593C87.331 27.2475 87.3546 27.277 87.3428 27.3005L87.291 27.2659ZM86.9544 27.5869C86.9622 27.5963 86.9706 27.6055 86.9797 27.6146L86.9005 27.5059C86.9161 27.5357 86.9344 27.5629 86.9544 27.5869ZM85.8152 27.2455C85.793 27.1937 85.7739 27.14 85.7574 27.0857L85.805 27.0261L85.8152 27.0236V27.2455ZM85.8067 27.024L85.8152 27.0216V27.0133L85.8067 27.024Z" fill="#263238" stroke="#222222"/>
<mask id="path-67-inside-15_2036_21419" fill="white">
<path d="M88.8882 24.0119C88.8882 24.0119 89.1182 25.1609 89.1477 25.7089C89.1477 25.7619 89.018 25.7914 88.8351 25.815C88.8292 25.815 88.8233 25.8209 88.8116 25.815C87.8561 26.0212 86.8652 25.7502 86.2282 24.9959C86.1869 24.9429 86.2518 24.884 86.3049 24.9134C87.0598 25.3966 87.862 25.485 88.7172 25.4496C88.7467 25.2964 88.2571 23.4992 88.3456 23.4874C88.6405 23.4462 89.2421 23.6112 89.6019 23.6937C89.1949 21.2896 88.4046 18.9679 88.033 16.5638C88.0212 16.4754 88.1451 16.4459 88.1746 16.5225C89.1772 18.8972 89.7081 21.6549 90.1917 24.1297C90.2566 24.4361 89.1065 24.0944 88.8823 24.0178L88.8882 24.0119Z"/>
</mask>
<path d="M88.8882 24.0119C88.8882 24.0119 89.1182 25.1609 89.1477 25.7089C89.1477 25.7619 89.018 25.7914 88.8351 25.815C88.8292 25.815 88.8233 25.8209 88.8116 25.815C87.8561 26.0212 86.8652 25.7502 86.2282 24.9959C86.1869 24.9429 86.2518 24.884 86.3049 24.9134C87.0598 25.3966 87.862 25.485 88.7172 25.4496C88.7467 25.2964 88.2571 23.4992 88.3456 23.4874C88.6405 23.4462 89.2421 23.6112 89.6019 23.6937C89.1949 21.2896 88.4046 18.9679 88.033 16.5638C88.0212 16.4754 88.1451 16.4459 88.1746 16.5225C89.1772 18.8972 89.7081 21.6549 90.1917 24.1297C90.2566 24.4361 89.1065 24.0944 88.8823 24.0178L88.8882 24.0119Z" fill="#263238"/>
<path d="M88.8882 24.0119L88.1813 23.3046L89.5022 21.9844L89.8688 23.8156L88.8882 24.0119ZM89.1477 25.7089L90.1463 25.6552L90.1477 25.682V25.7089H89.1477ZM88.8351 25.815L88.963 26.8068L88.8993 26.815H88.8351V25.815ZM88.8116 25.815L88.6006 24.8375L88.9441 24.7633L89.2584 24.9204L88.8116 25.815ZM86.2282 24.9959L85.4642 25.6411L85.4514 25.6259L85.4391 25.6102L86.2282 24.9959ZM86.3049 24.9134L86.7902 24.0391L86.8176 24.0543L86.8439 24.0712L86.3049 24.9134ZM88.7172 25.4496L89.6992 25.6387L89.5495 26.4161L88.7585 26.4488L88.7172 25.4496ZM88.3456 23.4874L88.4841 24.4778L88.4776 24.4787L88.3456 23.4874ZM89.6019 23.6937L90.5879 23.5268L90.8378 25.003L89.3784 24.6684L89.6019 23.6937ZM88.033 16.5638L87.0447 16.7165L87.0432 16.7063L87.0418 16.6961L88.033 16.5638ZM88.1746 16.5225L87.2533 16.9115L87.2471 16.8968L87.2413 16.8818L88.1746 16.5225ZM90.1917 24.1297L89.2134 24.3369L89.2118 24.3292L89.2103 24.3215L90.1917 24.1297ZM88.8823 24.0178L88.5589 24.964L87.0403 24.445L88.1754 23.3105L88.8823 24.0178ZM88.8882 24.0119C89.8688 23.8156 89.8688 23.8156 89.8688 23.8157C89.8688 23.8157 89.8688 23.8157 89.8688 23.8158C89.8688 23.8158 89.8688 23.8159 89.8689 23.816C89.8689 23.8163 89.869 23.8166 89.869 23.8169C89.8692 23.8177 89.8694 23.8187 89.8696 23.8199C89.8701 23.8225 89.8709 23.8261 89.8718 23.8308C89.8736 23.8401 89.8763 23.8535 89.8796 23.8706C89.8863 23.9047 89.8957 23.9536 89.9072 24.0139C89.9299 24.1341 89.9607 24.3006 89.9924 24.4854C90.053 24.8372 90.128 25.3153 90.1463 25.6552L88.1492 25.7626C88.138 25.5546 88.0833 25.1841 88.0214 24.8244C87.992 24.6535 87.9634 24.4984 87.9421 24.3861C87.9315 24.33 87.9227 24.2849 87.9167 24.2541C87.9137 24.2387 87.9114 24.2268 87.9098 24.219C87.9091 24.2152 87.9085 24.2123 87.9081 24.2104C87.9079 24.2095 87.9078 24.2089 87.9077 24.2085C87.9077 24.2083 87.9077 24.2082 87.9077 24.2081C87.9077 24.2081 87.9077 24.2081 87.9077 24.2081C87.9077 24.2081 87.9077 24.2081 87.9077 24.2081C87.9077 24.2081 87.9077 24.2082 88.8882 24.0119ZM90.1477 25.7089C90.1477 26.1878 89.841 26.463 89.7007 26.5619C89.5579 26.6626 89.4181 26.7092 89.3529 26.7291C89.2102 26.7729 89.0591 26.7944 88.963 26.8068L88.7073 24.8232C88.794 24.812 88.7992 24.807 88.7671 24.8169C88.7572 24.8199 88.6613 24.8477 88.5485 24.9272C88.4382 25.0049 88.1477 25.2565 88.1477 25.7089H90.1477ZM88.8351 26.815C88.9884 26.815 89.106 26.7772 89.1125 26.7752C89.153 26.7634 89.0808 26.786 89.0215 26.7978C88.9398 26.8141 88.8294 26.8258 88.7004 26.8103C88.5724 26.795 88.4595 26.7569 88.3647 26.7096L89.2584 24.9204C89.1695 24.8759 89.0618 24.8394 88.9384 24.8246C88.814 24.8097 88.7076 24.821 88.6296 24.8366C88.5935 24.8438 88.5656 24.8515 88.552 24.8554C88.5454 24.8573 88.5403 24.8589 88.5402 24.8589C88.5381 24.8595 88.5436 24.8579 88.5487 24.8564C88.5584 24.8535 88.6789 24.815 88.8351 24.815V26.815ZM89.0225 26.7925C87.7562 27.0658 86.3714 26.7153 85.4642 25.6411L86.9922 24.3507C87.359 24.785 87.9559 24.9766 88.6006 24.8375L89.0225 26.7925ZM85.4391 25.6102C85.2883 25.4164 85.1938 25.1559 85.2192 24.8685C85.2434 24.594 85.3703 24.3702 85.5244 24.2163C85.8209 23.92 86.3299 23.7836 86.7902 24.0391L85.8196 25.7878C86.2268 26.0138 86.6767 25.8921 86.9379 25.6312C87.0743 25.4949 87.1894 25.294 87.2114 25.0445C87.2346 24.7822 87.1475 24.5489 87.0173 24.3816L85.4391 25.6102ZM86.8439 24.0712C87.351 24.3957 87.9135 24.482 88.6759 24.4505L88.7585 26.4488C87.8104 26.488 86.7686 26.3975 85.7658 25.7557L86.8439 24.0712ZM87.7352 25.2606C87.7181 25.3493 87.7183 25.4177 87.7185 25.438C87.7187 25.4663 87.7204 25.486 87.7209 25.4922C87.722 25.5043 87.7224 25.5034 87.719 25.4825C87.7125 25.4425 87.7001 25.3782 87.6809 25.2877C87.6427 25.1077 87.5898 24.8802 87.5345 24.6388C87.4814 24.4069 87.4253 24.1586 87.3883 23.9653C87.3707 23.8736 87.3515 23.7638 87.342 23.6645C87.3381 23.6243 87.3295 23.5282 87.3398 23.4176C87.3441 23.3707 87.3581 23.2383 87.4254 23.0871C87.49 22.9417 87.7111 22.5631 88.2136 22.4962L88.4776 24.4787C88.9746 24.4125 89.1912 24.0381 89.2526 23.9003C89.3165 23.7565 89.3282 23.635 89.3313 23.6019C89.3358 23.553 89.335 23.5168 89.3345 23.5026C89.334 23.4858 89.333 23.4751 89.3328 23.4732C89.3325 23.4699 89.3332 23.478 89.337 23.5018C89.3406 23.524 89.3457 23.5531 89.3527 23.5897C89.3817 23.7414 89.4295 23.9542 89.484 24.1922C89.5364 24.4208 89.5948 24.672 89.6373 24.8725C89.6585 24.9721 89.6788 25.0734 89.6931 25.1611C89.7 25.2041 89.7079 25.2575 89.7129 25.3128C89.7148 25.3345 89.7303 25.4767 89.6992 25.6387L87.7352 25.2606ZM88.2071 22.4971C88.5449 22.4498 88.9269 22.5199 89.1454 22.5635C89.3937 22.6132 89.6846 22.6867 89.8254 22.719L89.3784 24.6684C89.1594 24.6182 88.9696 24.568 88.7535 24.5248C88.653 24.5047 88.5718 24.4916 88.5104 24.4851C88.4385 24.4775 88.4393 24.4841 88.4841 24.4778L88.2071 22.4971ZM88.6159 23.8606C88.4201 22.7039 88.1313 21.5621 87.8339 20.3709C87.5401 19.1935 87.2385 17.9701 87.0447 16.7165L89.0213 16.4111C89.1991 17.5617 89.4785 18.7011 89.7744 19.8866C90.0669 21.0583 90.3767 22.2793 90.5879 23.5268L88.6159 23.8606ZM87.0418 16.6961C86.9578 16.0664 87.4013 15.6294 87.8309 15.515C88.2336 15.4077 88.8668 15.5372 89.1078 16.1633L87.2413 16.8818C87.4529 17.4313 88.0093 17.5372 88.3457 17.4476C88.7089 17.3508 89.0965 16.9728 89.0242 16.4315L87.0418 16.6961ZM89.0958 16.1336C90.1464 18.6217 90.6942 21.4874 91.1731 23.9379L89.2103 24.3215C88.7219 21.8224 88.2081 19.1727 87.2533 16.9115L89.0958 16.1336ZM91.17 23.9226C91.2033 24.0797 91.2113 24.285 91.1359 24.5046C91.0589 24.7288 90.9197 24.8953 90.7745 25.0075C90.5217 25.2027 90.2495 25.2373 90.1419 25.2477C89.8916 25.2718 89.6301 25.2314 89.464 25.2008C89.0934 25.1324 88.7004 25.0124 88.5589 24.964L89.2057 23.0715C89.2884 23.0998 89.5825 23.1889 89.8268 23.234C89.9681 23.26 89.996 23.2525 89.95 23.2569C89.9447 23.2574 89.7534 23.269 89.552 23.4246C89.4325 23.5169 89.3115 23.6594 89.2444 23.855C89.1788 24.046 89.1882 24.2181 89.2134 24.3369L91.17 23.9226ZM88.1754 23.3105L88.1813 23.3046L89.5951 24.7192L89.5892 24.7251L88.1754 23.3105Z" fill="#222222" mask="url(#path-67-inside-15_2036_21419)"/>
<path d="M87.7329 26.0099C87.3597 25.9507 87.0346 25.8523 86.7703 25.75C86.7064 25.7253 86.6459 25.7003 86.589 25.6755C86.5849 25.7047 86.5813 25.7342 86.5784 25.7637C86.5579 25.9825 86.5764 26.1449 86.6199 26.2413C86.6382 26.2821 86.6578 26.3039 86.6774 26.3185C86.6972 26.3331 86.7397 26.357 86.8285 26.3684L86.8285 26.3684L86.8303 26.3687C87.0162 26.3932 87.1961 26.3513 87.3849 26.2551C87.5083 26.1905 87.6253 26.1051 87.7329 26.0099Z" fill="#263238" stroke="#222222"/>
<path d="M87.6143 26.6936C87.3606 26.8233 87.0775 26.8999 86.7649 26.8586C86.122 26.7761 86.0336 26.2105 86.0808 25.7096C86.7531 25.6919 87.4727 26.0514 87.6143 26.6936Z" fill="#FF9BBC"/>
<path d="M74.0485 22.3929C76.4195 22.1749 76.101 16.7303 76.101 16.7303C76.101 16.7303 80.0587 15.6637 81.5037 12.8059C81.5037 12.8059 80.5777 15.2571 79.0796 16.3531C78.826 16.5358 86.9181 15.0686 87.1953 8.75775C87.1953 8.75775 88.8822 14.827 92.6982 15.7992C92.881 15.8464 91.6955 10.5255 90.0028 8.94631C88.6993 7.72656 87.9208 7.17856 87.9208 7.17856C87.9208 7.17856 84.146 4.51517 79.1916 5.64063C74.2432 6.76609 71.3767 12.2873 71.1644 14.4793C70.7515 18.7867 72.9161 22.499 74.0426 22.3929H74.0485Z" fill="#263238"/>
<path d="M79.3508 16.4654C83.7803 15.9174 87.095 12.8002 87.1127 8.22769C87.1127 8.11573 87.2896 8.10395 87.3073 8.21001C88.2746 12.7708 83.5561 16.542 79.3154 16.5479C79.2152 16.5479 79.2447 16.4771 79.3508 16.4654Z" fill="#263238"/>
<path d="M74.0367 22.1399C76.3488 20.7139 76.5434 18.2626 76.5316 15.7878C76.5316 15.7171 76.6555 15.7053 76.6614 15.776C76.8914 18.186 76.6791 21.1735 74.1429 22.3343C74.0131 22.3933 73.9188 22.2106 74.0426 22.1399H74.0367Z" fill="#263238"/>
<path d="M87.1599 7.81583C87.1599 7.81583 87.2011 7.78637 87.207 7.81583C87.9502 10.3201 88.3985 14.6098 91.7073 14.9929C91.7957 15.0046 91.7898 15.1343 91.7014 15.1284C88.4869 15.04 87.0242 10.4792 87.1599 7.81583Z" fill="#263238"/>
<path d="M73.8067 26.2884C73.9955 26.3591 74.1724 26.4003 74.3376 26.4239C74.5322 26.4593 74.7091 26.4593 74.8743 26.4357C75.1338 26.4121 75.352 26.3296 75.5349 26.2236C75.7059 26.1293 75.8475 26.0114 75.9654 25.8936C76.2662 25.5813 76.396 25.2513 76.396 25.2513L75.7649 22.2049C75.7649 22.2049 73.2759 18.6459 71.6598 19.5297C70.0379 20.4195 71.9076 25.5813 73.8067 26.2825V26.2884Z" fill="#F7A9A0"/>
<mask id="path-76-inside-16_2036_21419" fill="white">
<path d="M72.2321 20.9961C72.2026 20.9961 72.1967 21.0374 72.2203 21.0492C73.5532 21.5913 74.2492 22.8228 74.7387 24.1015C74.3436 23.6065 73.8069 23.3413 73.1463 23.8068C73.1109 23.8304 73.1463 23.8834 73.1817 23.8775C73.7243 23.7597 74.1195 23.854 74.491 24.29C74.7505 24.5964 74.9275 24.9912 75.1162 25.3448C75.1811 25.4626 75.3934 25.3978 75.3462 25.2623C75.3462 25.2505 75.3403 25.2446 75.3345 25.2328C75.3698 23.5358 74.0546 21.167 72.2321 20.9902V20.9961Z"/>
</mask>
<path d="M72.2321 20.9961C72.2026 20.9961 72.1967 21.0374 72.2203 21.0492C73.5532 21.5913 74.2492 22.8228 74.7387 24.1015C74.3436 23.6065 73.8069 23.3413 73.1463 23.8068C73.1109 23.8304 73.1463 23.8834 73.1817 23.8775C73.7243 23.7597 74.1195 23.854 74.491 24.29C74.7505 24.5964 74.9275 24.9912 75.1162 25.3448C75.1811 25.4626 75.3934 25.3978 75.3462 25.2623C75.3462 25.2505 75.3403 25.2446 75.3345 25.2328C75.3698 23.5358 74.0546 21.167 72.2321 20.9902V20.9961Z" fill="#263238"/>
<path d="M72.2321 20.9961H73.2321V21.9961H72.2321V20.9961ZM72.2203 21.0492L71.8435 21.9755L71.8079 21.961L71.7734 21.9438L72.2203 21.0492ZM74.7387 24.1015L75.6726 23.7439L73.9573 24.7254L74.7387 24.1015ZM73.1463 23.8068L73.7223 24.6243L73.7116 24.6318L73.7006 24.6391L73.1463 23.8068ZM73.1817 23.8775L73.3939 24.8548L73.37 24.86L73.3459 24.864L73.1817 23.8775ZM74.491 24.29L75.2522 23.6414L75.2541 23.6437L74.491 24.29ZM75.1162 25.3448L74.2401 25.8271L74.2341 25.8157L75.1162 25.3448ZM75.3462 25.2623L74.4018 25.5911L74.3462 25.4314V25.2623H75.3462ZM75.3345 25.2328L74.4402 25.6804L74.3295 25.4592L74.3347 25.212L75.3345 25.2328ZM72.2321 20.9902H71.2321V19.8885L72.3286 19.9949L72.2321 20.9902ZM72.2321 21.9961C72.7975 21.9961 73.1222 21.5592 73.1891 21.2027C73.2481 20.8883 73.1491 20.3953 72.6671 20.1546L71.7734 21.9438C71.2679 21.6912 71.16 21.1717 71.2234 20.8337C71.2948 20.4536 71.6371 19.9961 72.2321 19.9961V21.9961ZM72.597 20.1228C74.336 20.8301 75.1625 22.4114 75.6726 23.7439L73.8049 24.459C73.3359 23.2342 72.7704 22.3524 71.8435 21.9755L72.597 20.1228ZM73.9573 24.7254C73.8985 24.6518 73.85 24.6066 73.816 24.581C73.7831 24.5564 73.7737 24.5574 73.7878 24.5611C73.8067 24.5661 73.8261 24.5651 73.8331 24.5635C73.8356 24.563 73.7991 24.5702 73.7223 24.6243L72.5702 22.9894C73.0939 22.6204 73.6928 22.4682 74.2963 22.6268C74.8519 22.7729 75.2526 23.1423 75.5202 23.4775L73.9573 24.7254ZM73.7006 24.6391C73.9213 24.4922 74.0841 24.2503 74.1229 23.9624C74.1577 23.705 74.0836 23.4934 74.0055 23.3568C73.8788 23.1353 73.5395 22.8042 73.0174 22.8911L73.3459 24.864C72.7884 24.9568 72.4137 24.6021 72.2694 24.3497C72.1824 24.1976 72.1039 23.9687 72.1409 23.6949C72.182 23.3906 72.3536 23.1333 72.5919 22.9745L73.7006 24.6391ZM72.9694 22.9003C73.3391 22.82 73.7564 22.79 74.1855 22.9175C74.6252 23.0483 74.9722 23.3129 75.2522 23.6414L73.7299 24.9386C73.6819 24.8823 73.6492 24.8559 73.6333 24.8448C73.6254 24.8393 73.6207 24.8368 73.6189 24.836C73.6172 24.8351 73.6163 24.8348 73.6155 24.8346C73.6153 24.8345 73.6033 24.8307 73.5706 24.8309C73.5357 24.8312 73.4794 24.8362 73.3939 24.8548L72.9694 22.9003ZM75.2541 23.6437C75.6046 24.0575 75.8583 24.6114 75.9984 24.8738L74.2341 25.8157C73.9967 25.371 73.8965 25.1354 73.7279 24.9363L75.2541 23.6437ZM75.9922 24.8625C75.7244 24.376 75.2127 24.3647 74.9573 24.4498C74.8096 24.499 74.6198 24.6094 74.4869 24.8261C74.3366 25.0713 74.32 25.3561 74.4018 25.5911L76.2906 24.9335C76.3961 25.2363 76.3707 25.58 76.1918 25.8717C76.0303 26.135 75.7922 26.2797 75.5892 26.3473C75.2232 26.4692 74.5729 26.4313 74.2402 25.827L75.9922 24.8625ZM74.3462 25.2623C74.3462 25.3463 74.3572 25.4313 74.3797 25.5147C74.4015 25.5954 74.4295 25.6574 74.4484 25.6952C74.4636 25.7257 74.4799 25.7531 74.4728 25.7409C74.4706 25.7369 74.4561 25.7121 74.4402 25.6804L76.2287 24.7853C76.222 24.7718 76.216 24.7607 76.2117 24.7529C76.2095 24.749 76.2078 24.7459 76.2066 24.7439C76.206 24.7428 76.2055 24.742 76.2052 24.7415C76.2051 24.7412 76.2049 24.741 76.2049 24.7408C76.2048 24.7407 76.2047 24.7406 76.2047 24.7406C76.2004 24.7332 76.2193 24.7649 76.2368 24.7999C76.2579 24.8421 76.2877 24.9085 76.3108 24.9941C76.3345 25.0822 76.3462 25.1723 76.3462 25.2623H74.3462ZM74.3347 25.212C74.3475 24.5988 74.1051 23.7803 73.6485 23.097C73.1864 22.4054 72.6339 22.0339 72.1355 21.9856L72.3286 19.9949C73.6528 20.1233 74.6691 21.0246 75.3114 21.9859C75.9593 22.9554 76.3568 24.1698 76.3342 25.2537L74.3347 25.212ZM73.2321 20.9902V20.9961H71.2321V20.9902H73.2321Z" fill="#222222" mask="url(#path-76-inside-16_2036_21419)"/>
<path d="M73.0341 44.4729C73.0341 44.4729 73.9955 38.439 72.1081 35.2571L73.0341 34.6973C73.0341 34.6973 75.1456 36.2234 74.4615 44.3609L73.0341 44.4729Z" fill="#FFC727"/>
<path d="M85.6738 43.4635L81.8755 36.7402L82.9135 37.2175L87.2368 43.3398L85.6738 43.4635Z" fill="#FFC727"/>
</g>
<defs>
<clipPath id="clip0_2036_21419">
<rect width="170" height="21.973" fill="white" transform="matrix(-1 0 0 1 170 100.027)"/>
</clipPath>
<clipPath id="clip1_2036_21419">
<rect width="132.364" height="116.158" fill="white" transform="matrix(-1 0 0 1 151.773 0)"/>
</clipPath>
</defs>
</svg>
