<svg width="27" height="26" viewBox="0 0 27 26" fill="none" xmlns="http://www.w3.org/2000/svg">
<path fillRule="evenodd" clipRule="evenodd" d="M7.73931 26.0022C10.0891 26.0022 12.1775 24.8826 13.5 23.1478C14.8226 24.8826 16.9109 26.0022 19.2607 26.0022C23.2589 26.0022 26.5001 22.761 26.5001 18.7629C26.5001 16.4117 25.3792 14.3223 23.6426 12.9999C25.3792 11.6775 26.5001 9.58806 26.5001 7.23687C26.5001 3.23871 23.2589 -0.00244141 19.2607 -0.00244141C16.9109 -0.00244141 14.8226 1.11714 13.5 2.85197C12.1775 1.11714 10.0891 -0.00244141 7.73931 -0.00244141C3.74115 -0.00244141 0.5 3.23871 0.5 7.23687C0.5 9.58806 1.62087 11.6775 3.35741 12.9999C1.62087 14.3223 0.5 16.4117 0.5 18.7629C0.5 22.761 3.74115 26.0022 7.73931 26.0022Z" fill="#0AAF3C"/>
</svg>
