<svg width="89" height="26" viewBox="0 0 89 22" fill="none" xmlns="http://www.w3.org/2000/svg">
<path d="M75.037 21.8579C74.2613 21.8579 73.7072 21.6998 73.3748 21.3837C73.0423 21.0676 72.8761 20.5224 72.8761 19.7479V15.5044C72.8761 14.73 73.0423 14.1926 73.3748 13.8923C73.7072 13.5762 74.2613 13.4182 75.037 13.4182H86.3637C87.1394 13.4182 87.6856 13.5762 88.0022 13.8923C88.3346 14.1926 88.5009 14.73 88.5009 15.5044V19.7479C88.5009 20.5224 88.3346 21.0676 88.0022 21.3837C87.6856 21.6998 87.1394 21.8579 86.3637 21.8579H75.037ZM78.3377 11.6638C77.5303 11.7903 76.7625 11.893 76.0343 11.972C75.3061 12.0353 74.4908 12.0669 73.5885 12.0669H72.235C71.4276 12.0669 70.8419 11.893 70.4778 11.5453C70.1137 11.1818 69.9316 10.6128 69.9316 9.83841V7.0884C69.9316 6.31397 70.1137 5.745 70.4778 5.38149C70.8419 5.01798 71.4276 4.83623 72.235 4.83623H75.132C75.3378 4.83623 75.4407 4.7335 75.4407 4.52804V3.53235C75.4407 3.40591 75.4169 3.32688 75.3694 3.29527C75.3378 3.26367 75.2586 3.24786 75.132 3.24786H71.6888C71.2139 3.24786 70.8182 3.12933 70.5015 2.89226C70.2008 2.65519 70.0504 2.30748 70.0504 1.84915C70.0504 1.37501 70.2008 1.0194 70.5015 0.782331C70.8182 0.545262 71.2139 0.426726 71.6888 0.426726H76.5567C77.3799 0.426726 77.9656 0.600578 78.3139 0.948281C78.678 1.29598 78.8601 1.87286 78.8601 2.67889V5.28666C78.8601 6.0927 78.678 6.67748 78.3139 7.04098C77.9656 7.38869 77.3799 7.56254 76.5567 7.56254H73.636C73.5093 7.56254 73.4302 7.57834 73.3985 7.60995C73.3669 7.64156 73.351 7.72058 73.351 7.84702V9.03237C73.351 9.15881 73.3669 9.23783 73.3985 9.26944C73.4302 9.30105 73.5093 9.31686 73.636 9.31686H74.0634C74.7125 9.31686 75.3378 9.28525 75.9393 9.22203C76.5567 9.15881 77.1979 9.08769 77.8627 9.00867C78.3218 8.96125 78.7255 9.00076 79.0738 9.1272C79.422 9.23783 79.6358 9.53022 79.7149 10.0044C79.7941 10.4785 79.6991 10.8578 79.43 11.1423C79.1608 11.411 78.7967 11.5848 78.3377 11.6638ZM80.451 1.82544C80.451 1.31969 80.5935 0.932476 80.8785 0.663796C81.1792 0.379312 81.5829 0.23707 82.0895 0.23707C82.5961 0.23707 82.9918 0.379312 83.2768 0.663796C83.5776 0.932476 83.728 1.31969 83.728 1.82544V4.59916H85.2002V1.61208C85.2002 1.10633 85.3506 0.711211 85.6514 0.426726C85.9521 0.142242 86.3558 0 86.8624 0C87.369 0 87.7647 0.142242 88.0497 0.426726C88.3505 0.711211 88.5009 1.10633 88.5009 1.61208V10.6444C88.5009 11.1502 88.3505 11.5453 88.0497 11.8298C87.7647 12.0985 87.369 12.2328 86.8624 12.2328C86.3558 12.2328 85.9521 12.0985 85.6514 11.8298C85.3506 11.5453 85.2002 11.1502 85.2002 10.6444V7.39659H83.728V10.597C83.728 11.1028 83.5855 11.4979 83.3005 11.7824C83.0156 12.0511 82.6119 12.1854 82.0895 12.1854C81.5829 12.1854 81.1792 12.0511 80.8785 11.7824C80.5935 11.4979 80.451 11.1028 80.451 10.597V1.82544ZM76.9129 16.263C76.7546 16.263 76.6754 16.342 76.6754 16.5001V18.776C76.6754 18.934 76.7546 19.013 76.9129 19.013H84.4641C84.6224 19.013 84.7015 18.934 84.7015 18.776V16.5001C84.7015 16.342 84.6224 16.263 84.4641 16.263H76.9129Z" fill="#222222"/>
<path d="M50.466 14.4613C49.9911 14.4613 49.627 14.3585 49.3737 14.1531C49.1204 13.9476 48.9938 13.6078 48.9938 13.1337C48.9938 12.6595 49.1204 12.3197 49.3737 12.1143C49.627 11.9088 49.9911 11.8061 50.466 11.8061H62.3152C62.6951 11.8061 63.0117 11.8377 63.265 11.9009C63.5183 11.9483 63.7162 12.0432 63.8586 12.1854C64.0169 12.3276 64.1198 12.5252 64.1673 12.7781C64.2307 13.0151 64.2623 13.3233 64.2623 13.7027V16.0971C64.2623 16.8715 64.1119 17.4009 63.8112 17.6854C63.5262 17.9541 62.9959 18.0884 62.2202 18.0884H52.7219C52.611 18.0884 52.5556 18.1438 52.5556 18.2544V19.179C52.5556 19.2738 52.611 19.3212 52.7219 19.3212H63.2413C63.7162 19.3212 64.0803 19.4239 64.3336 19.6294C64.6027 19.8507 64.7372 20.1984 64.7372 20.6725C64.7372 21.1467 64.6027 21.4865 64.3336 21.6919C64.0803 21.8974 63.7162 22.0001 63.2413 22.0001H51.0122C50.2365 22.0001 49.7061 21.8579 49.4212 21.5734C49.1362 21.3047 48.9938 20.7831 48.9938 20.0087V17.4484C48.9938 16.6739 49.1283 16.1524 49.3975 15.8837C49.6824 15.615 50.2127 15.4807 50.9884 15.4807H60.5105C60.6371 15.4807 60.7005 15.4254 60.7005 15.3147V14.6272C60.7005 14.5166 60.6371 14.4613 60.5105 14.4613H50.466ZM57.6847 9.67246C56.6716 9.86211 55.6189 9.99646 54.5265 10.0755C53.4501 10.1387 52.4053 10.1703 51.3921 10.1703H49.0413C47.474 10.1703 46.6904 9.39588 46.6904 7.84702V2.7026C46.6904 1.15374 47.474 0.379313 49.0413 0.379313H56.26C56.7349 0.379313 57.1148 0.50575 57.3998 0.758625C57.7006 1.0115 57.851 1.37501 57.851 1.84915C57.851 2.32329 57.7006 2.6868 57.3998 2.93967C57.1148 3.19254 56.7349 3.31898 56.26 3.31898H50.6322C50.5056 3.31898 50.4264 3.34269 50.3948 3.3901C50.3631 3.42171 50.3473 3.50074 50.3473 3.62717V6.89874C50.3473 7.12001 50.4502 7.23064 50.656 7.23064H51.6533C52.619 7.23064 53.6005 7.19113 54.5978 7.1121C55.6109 7.01728 56.4974 6.90664 57.2573 6.7802C57.6847 6.70118 58.0647 6.74069 58.3971 6.89874C58.7454 7.04098 58.9591 7.34917 59.0382 7.82331C59.1332 8.31326 59.0462 8.72418 58.777 9.05608C58.5079 9.38798 58.1438 9.59344 57.6847 9.67246ZM60.463 1.70691C60.463 1.15374 60.6371 0.734917 60.9854 0.450433C61.3495 0.150145 61.8086 0 62.3627 0C62.9167 0 63.3679 0.150145 63.7162 0.450433C64.0803 0.734917 64.2623 1.15374 64.2623 1.70691V3.67459H65.9008C66.4074 3.67459 66.819 3.80102 67.1356 4.0539C67.4522 4.30677 67.6105 4.70189 67.6105 5.23925C67.6105 5.77661 67.4522 6.17172 67.1356 6.4246C66.819 6.67747 66.4074 6.80391 65.9008 6.80391H64.2623V9.19832C64.2623 9.75148 64.0803 10.1782 63.7162 10.4785C63.3679 10.7788 62.9167 10.9289 62.3627 10.9289C61.8086 10.9289 61.3495 10.7788 60.9854 10.4785C60.6371 10.1782 60.463 9.75148 60.463 9.19832V1.70691Z" fill="#222222"/>
<path d="M38.4522 1.75432C38.4522 1.18535 38.6263 0.750722 38.9746 0.450433C39.3387 0.150145 39.7978 0 40.3519 0C40.9218 0 41.3808 0.150145 41.7291 0.450433C42.0774 0.750722 42.2515 1.18535 42.2515 1.75432V20.2458C42.2515 20.8148 42.0774 21.2494 41.7291 21.5497C41.3808 21.85 40.9218 22.0001 40.3519 22.0001C39.7978 22.0001 39.3387 21.85 38.9746 21.5497C38.6263 21.2494 38.4522 20.8148 38.4522 20.2458V1.75432ZM35.6502 8.67677C35.6502 9.86212 35.5236 10.9368 35.2703 11.9009C35.017 12.8492 34.637 13.6631 34.1305 14.3427C33.6239 15.0223 32.9748 15.5518 32.1833 15.9311C31.4076 16.2946 30.4974 16.4764 29.4525 16.4764C28.4077 16.4764 27.4896 16.2946 26.698 15.9311C25.9223 15.5518 25.2812 15.0223 24.7746 14.3427C24.268 13.6631 23.8881 12.8492 23.6348 11.9009C23.3815 10.9368 23.2549 9.86212 23.2549 8.67677C23.2549 7.49142 23.3815 6.4246 23.6348 5.47632C23.8881 4.51223 24.268 3.69039 24.7746 3.01079C25.2812 2.33119 25.9223 1.80963 26.698 1.44613C27.4896 1.06682 28.4077 0.877159 29.4525 0.877159C30.4974 0.877159 31.4076 1.06682 32.1833 1.44613C32.9748 1.80963 33.6239 2.33119 34.1305 3.01079C34.637 3.69039 35.017 4.51223 35.2703 5.47632C35.5236 6.4246 35.6502 7.49142 35.6502 8.67677ZM29.4525 13.2996C29.9275 13.2996 30.3232 13.1811 30.6398 12.944C30.9564 12.6912 31.2097 12.3593 31.3997 11.9483C31.6055 11.5374 31.748 11.0554 31.8271 10.5022C31.9063 9.93324 31.9458 9.32476 31.9458 8.67677C31.9458 8.04458 31.9063 7.444 31.8271 6.87503C31.748 6.30606 31.6055 5.81612 31.3997 5.4052C31.2097 4.99428 30.9564 4.67028 30.6398 4.43321C30.3232 4.18034 29.9275 4.0539 29.4525 4.0539C28.9776 4.0539 28.5819 4.18034 28.2652 4.43321C27.9486 4.67028 27.6874 4.99428 27.4816 5.4052C27.2917 5.81612 27.1571 6.30606 27.078 6.87503C26.9988 7.444 26.9592 8.04458 26.9592 8.67677C26.9592 9.32476 26.9988 9.93324 27.078 10.5022C27.1571 11.0554 27.2917 11.5374 27.4816 11.9483C27.6874 12.3593 27.9486 12.6912 28.2652 12.944C28.5819 13.1811 28.9776 13.2996 29.4525 13.2996Z" fill="#222222"/>
<path d="M3.17192 13.8923C3.17192 13.1337 3.31439 12.5963 3.59934 12.2802C3.88429 11.9641 4.4067 11.8061 5.16657 11.8061H16.9445C17.3877 11.8061 17.7439 11.9167 18.013 12.138C18.298 12.3593 18.4405 12.6912 18.4405 13.1337C18.4405 13.5762 18.3059 13.9081 18.0368 14.1294C17.7677 14.3506 17.4036 14.4613 16.9445 14.4613H7.11372C6.95542 14.4613 6.87626 14.5482 6.87626 14.7221V15.5281H16.8258C17.2848 15.5281 17.6489 15.6308 17.9181 15.8363C18.1872 16.0417 18.3217 16.3736 18.3217 16.832C18.3217 17.2903 18.1872 17.6222 17.9181 17.8277C17.6489 18.0331 17.2848 18.1359 16.8258 18.1359H6.85252V19.0841C6.85252 19.2422 6.93167 19.3212 7.08998 19.3212H17.2532C17.7123 19.3212 18.0764 19.4318 18.3455 19.6531C18.6146 19.8744 18.7492 20.2142 18.7492 20.6725C18.7492 21.1308 18.6146 21.4627 18.3455 21.6682C18.0764 21.8895 17.7123 22.0001 17.2532 22.0001H5.16657C4.4067 22.0001 3.88429 21.8421 3.59934 21.526C3.31439 21.2099 3.17192 20.6725 3.17192 19.9139V13.8923ZM11.9104 3.55605C11.9104 4.58336 11.665 5.52373 11.1743 6.37719C10.6993 7.23064 10.0424 7.98926 9.20335 8.65306C8.36433 9.31685 7.38284 9.89373 6.25887 10.3837C5.13491 10.8578 3.9397 11.2371 2.67326 11.5216C2.19834 11.6322 1.763 11.6085 1.36724 11.4505C0.971475 11.2924 0.710271 10.9684 0.583627 10.4785C0.441152 9.98855 0.480728 9.57763 0.702356 9.24573C0.923983 8.89803 1.28017 8.66096 1.77092 8.53452C2.53078 8.34487 3.29856 8.1157 4.07426 7.84702C4.84996 7.57834 5.5465 7.27015 6.16389 6.92245C6.79711 6.55894 7.3116 6.14012 7.70737 5.66598C8.10313 5.19184 8.30101 4.64657 8.30101 4.03019V3.76942C8.30101 3.59556 8.26935 3.47703 8.20603 3.41381C8.15854 3.33479 8.04772 3.29527 7.87359 3.29527H2.50704C2.00046 3.29527 1.59678 3.18464 1.296 2.96338C1.01105 2.72631 0.868576 2.3549 0.868576 1.84915C0.868576 1.3434 1.01105 0.971988 1.296 0.734918C1.59678 0.497848 2.00046 0.379313 2.50704 0.379313H9.797C10.5252 0.379313 11.0555 0.545262 11.388 0.877159C11.7362 1.19325 11.9104 1.64369 11.9104 2.22846V3.55605ZM14.6411 1.70691C14.6411 1.15374 14.8153 0.734917 15.1635 0.450433C15.5277 0.150145 15.9867 0 16.5408 0C17.0949 0 17.546 0.150145 17.8943 0.450433C18.2584 0.734917 18.4405 1.15374 18.4405 1.70691V3.67459H20.0789C20.5855 3.67459 20.9971 3.80102 21.3137 4.0539C21.6303 4.30677 21.7886 4.70189 21.7886 5.23925C21.7886 5.77661 21.6303 6.17172 21.3137 6.4246C20.9971 6.67747 20.5855 6.80391 20.0789 6.80391H18.4405V9.19832C18.4405 9.75148 18.2584 10.1782 17.8943 10.4785C17.546 10.7788 17.0949 10.9289 16.5408 10.9289C15.9867 10.9289 15.5277 10.7788 15.1635 10.4785C14.8153 10.1782 14.6411 9.75148 14.6411 9.19832V1.70691Z" fill="#222222"/>
</svg>
