<svg width="24" height="25" viewBox="0 0 24 25" fill="none" xmlns="http://www.w3.org/2000/svg">
<circle cx="12" cy="12.5" r="11.5" fill="#F5F5F5" stroke="#E1E1E1"/>
<path fillRule="evenodd" clipRule="evenodd" d="M9.34083 18.5C10.4258 18.5 11.3899 17.9828 12.0001 17.1815C12.6103 17.9828 13.5745 18.5 14.6594 18.5C16.5043 18.5 18 17.0044 18 15.1594C18 14.0744 17.4827 13.1102 16.6813 12.5C17.4827 11.8898 18 10.9256 18 9.84059C18 7.99563 16.5043 6.5 14.6594 6.5C13.5745 6.5 12.6103 7.01719 12.0001 7.81847C11.3899 7.01719 10.4258 6.5 9.34083 6.5C7.49588 6.5 6.00024 7.99563 6.00024 9.84059C6.00024 10.9256 6.51752 11.8898 7.31891 12.5C6.51752 13.1102 6.00024 14.0744 6.00024 15.1594C6.00024 17.0044 7.49588 18.5 9.34083 18.5Z" fill="#BEBEBE"/>
</svg>
