<svg width="36" height="36" viewBox="0 0 36 36" fill="none" xmlns="http://www.w3.org/2000/svg">
<path fill-rule="evenodd" clip-rule="evenodd" d="M10.0218 36C13.2764 36 16.1687 34.4485 17.9994 32.0448C19.8301 34.4485 22.7225 36 25.9771 36C31.512 36 35.9989 31.5131 35.9989 25.9782C35.9989 22.7232 34.4471 19.8307 32.0429 18C34.4471 16.1693 35.9989 13.2768 35.9989 10.0218C35.9989 4.48689 31.512 0 25.9771 0C22.7225 0 19.8301 1.55149 17.9994 3.95523C16.1687 1.55149 13.2764 0 10.0218 0C4.48689 0 0 4.48689 0 10.0218C0 13.2768 1.5518 16.1693 3.95595 18C1.5518 19.8307 0 22.7232 0 25.9782C0 31.5131 4.48689 36 10.0218 36Z" fill="white"/>
<path d="M17.1727 18.8273H11.8273C11.3704 18.8273 11 18.4569 11 18Lnan nanL11 18C11 17.5431 11.3704 17.1727 11.8273 17.1727H17.1727V11.8273C17.1727 11.3704 17.5431 11 18 11Lnan nanL18 11C18.4569 11 18.8273 11.3704 18.8273 11.8273V17.1727H24.1727C24.6296 17.1727 25 17.5431 25 18Lnan nanL25 18C25 18.4569 24.6296 18.8273 24.1727 18.8273H18.8273V24.1727C18.8273 24.6296 18.4569 25 18 25Lnan nanL18 25C17.5431 25 17.1727 24.6296 17.1727 24.1727V18.8273Z" fill="#FF3D61"/>
<path fill-rule="evenodd" clip-rule="evenodd" d="M18 11.5C17.8193 11.5 17.6727 11.6465 17.6727 11.8273V17.6727H11.8273C11.6465 17.6727 11.5 17.8193 11.5 18C11.5 18.1807 11.6465 18.3273 11.8273 18.3273H17.6727V24.1727C17.6727 24.3535 17.8193 24.5 18 24.5C18.1807 24.5 18.3273 24.3535 18.3273 24.1727V18.3273H24.1727C24.3535 18.3273 24.5 18.1807 24.5 18C24.5 17.8193 24.3535 17.6727 24.1727 17.6727H18.3273V11.8273C18.3273 11.6465 18.1807 11.5 18 11.5ZM16.6727 11.8273C16.6727 11.0942 17.267 10.5 18 10.5C18.733 10.5 19.3273 11.0942 19.3273 11.8273V16.6727H24.1727C24.9058 16.6727 25.5 17.267 25.5 18C25.5 18.733 24.9058 19.3273 24.1727 19.3273H19.3273V24.1727C19.3273 24.9058 18.733 25.5 18 25.5C17.267 25.5 16.6727 24.9058 16.6727 24.1727V19.3273H11.8273C11.0942 19.3273 10.5 18.733 10.5 18C10.5 17.267 11.0942 16.6727 11.8273 16.6727H16.6727V11.8273Z" fill="#FF3D61"/>
</svg>
