<svg width="413" height="81" viewBox="0 0 413 81" fill="none" xmlns="http://www.w3.org/2000/svg">
<path d="M33.279 1.74599C34.749 1.74599 36.109 2.056 37.369 2.666C38.629 3.286 39.719 4.10599 40.629 5.12599C41.539 6.15599 42.259 7.33599 42.789 8.68599C43.319 10.036 43.579 11.446 43.579 12.906C43.579 16.836 42.659 20.346 40.809 23.426C38.959 26.506 36.439 29.116 33.239 31.256C30.039 33.396 26.299 35.096 22.019 36.356C17.739 37.616 13.189 38.396 8.37901 38.686C7.55901 38.746 6.71901 38.696 5.86901 38.556C5.01901 38.416 4.22901 38.136 3.48901 37.716C2.75901 37.306 2.13901 36.746 1.63901 36.046C1.13901 35.346 0.829005 34.436 0.719005 33.316C0.659005 32.086 0.789005 31.076 1.11901 30.276C1.44901 29.476 1.90901 28.856 2.52901 28.386C3.14901 27.916 3.85901 27.566 4.68901 27.326C5.50901 27.096 6.38901 26.916 7.32901 26.796C13.839 26.096 18.869 24.876 22.419 23.146C25.969 21.416 28.009 19.436 28.539 17.206C28.769 16.266 28.669 15.476 28.229 14.826C27.789 14.186 26.809 13.856 25.279 13.856H6.96901C6.37901 13.856 5.76901 13.766 5.11901 13.596C4.46901 13.416 3.86901 13.096 3.31901 12.626C2.75901 12.156 2.28901 11.546 1.90901 10.776C1.52901 10.016 1.33901 9.016 1.33901 7.786C1.33901 6.676 1.52901 5.73599 1.90901 4.96599C2.28901 4.20599 2.78901 3.576 3.40901 3.076C4.02901 2.576 4.68901 2.22601 5.38901 2.01601C6.089 1.80601 6.73901 1.70601 7.32901 1.70601H33.289L33.279 1.74599ZM21.229 66.506C21.289 67.266 21.759 67.736 22.639 67.916C24.749 68.266 27.139 68.546 29.809 68.756C32.479 68.966 35.099 69.066 37.689 69.066C39.629 69.066 41.709 69.036 43.939 68.976C46.169 68.916 48.369 68.796 50.539 68.626C52.709 68.446 54.819 68.226 56.879 67.966C58.939 67.706 60.749 67.396 62.339 67.046C63.039 66.866 63.789 66.786 64.579 66.786C65.369 66.786 66.129 66.906 66.869 67.136C67.599 67.376 68.249 67.766 68.809 68.326C69.369 68.886 69.759 69.656 69.999 70.656C70.409 72.186 70.149 73.486 69.209 74.576C68.269 75.656 67.209 76.436 66.039 76.906C64.459 77.496 62.459 77.966 60.059 78.316C57.649 78.666 55.129 78.946 52.489 79.156C49.849 79.366 47.219 79.506 44.609 79.596C41.999 79.686 39.699 79.726 37.699 79.726C35.699 79.726 33.589 79.686 31.359 79.596C29.129 79.506 26.959 79.356 24.849 79.156C22.739 78.946 20.739 78.676 18.869 78.316C16.989 77.966 15.409 77.556 14.119 77.086C12.829 76.556 11.479 75.696 10.069 74.486C8.65901 73.286 7.74901 71.746 7.33901 69.866C7.10901 68.516 6.92901 66.866 6.80901 64.896C6.68901 62.936 6.649 60.906 6.67901 58.826C6.70901 56.746 6.77901 54.716 6.89901 52.756C7.01901 50.796 7.12901 49.166 7.24901 47.876C7.47901 45.766 8.27901 44.106 9.62901 42.906C10.979 41.706 12.419 41.106 13.939 41.106H64.099C65.099 41.106 66.139 41.536 67.219 42.386C68.299 43.236 68.849 44.516 68.849 46.216C68.849 47.626 68.389 48.876 67.489 49.956C66.579 51.046 65.449 51.586 64.099 51.586H22.549C21.959 51.586 21.609 51.706 21.489 51.936C21.369 52.166 21.309 52.376 21.309 52.556C21.249 52.846 21.219 53.176 21.219 53.526V54.666H63.719C64.889 54.666 66.039 55.096 67.149 55.946C68.259 56.796 68.819 58.076 68.819 59.776C68.819 61.126 68.349 62.346 67.409 63.426C66.469 64.516 65.239 65.056 63.709 65.056H21.139V65.846C21.139 66.086 21.169 66.316 21.229 66.546V66.506ZM68.399 6.756C68.689 9.166 68.869 11.306 68.929 13.176H73.589C75.169 13.176 76.519 13.826 77.639 15.116C78.749 16.406 79.309 17.906 79.309 19.606C79.309 20.366 79.209 21.136 78.999 21.896C78.789 22.656 78.469 23.366 78.029 24.006C77.589 24.656 77.029 25.176 76.359 25.586C75.689 25.996 74.909 26.206 74.029 26.206H68.929C68.749 28.206 68.579 30.406 68.399 32.806C68.339 33.746 68.079 34.626 67.609 35.446C67.139 36.266 66.549 36.956 65.849 37.516C65.149 38.076 64.319 38.496 63.389 38.796C62.449 39.086 61.449 39.176 60.399 39.056C58.169 38.766 56.449 37.896 55.249 36.456C54.049 35.016 53.529 33.416 53.709 31.656C53.939 29.716 54.109 27.686 54.189 25.536C54.279 23.396 54.309 21.286 54.279 19.196C54.249 17.116 54.189 15.106 54.099 13.166C54.009 11.226 53.879 9.496 53.699 7.976C53.519 6.276 54.009 4.70601 55.149 3.26601C56.289 1.82601 57.949 0.966001 60.119 0.666001C62.289 0.376001 64.139 0.846004 65.659 2.076C67.179 3.306 68.089 4.86601 68.389 6.73601L68.399 6.756Z" fill="#222222"/>
<path d="M129.639 37.0361C129.639 41.7261 129.179 46.0861 128.279 50.1061C127.369 54.1261 125.979 57.6061 124.099 60.5361C122.219 63.4661 119.799 65.7561 116.839 67.3961C113.879 69.0361 110.339 69.8561 106.239 69.8561C102.139 69.8561 98.3191 69.0161 95.3291 67.3461C92.3391 65.6761 89.9191 63.3561 88.0691 60.3961C86.2191 57.4361 84.8891 53.9461 84.0691 49.9261C83.2491 45.9061 82.8391 41.5861 82.8391 36.9461C82.8391 32.3061 83.2491 28.0761 84.0691 24.0561C84.8891 20.0361 86.2291 16.5661 88.0691 13.6261C89.9191 10.6961 92.3391 8.36608 95.3291 6.62608C98.3191 4.89608 101.959 4.02607 106.239 4.02607C110.519 4.02607 114.319 4.94609 117.279 6.79609C120.239 8.64609 122.649 11.0761 124.489 14.0961C126.339 17.1161 127.659 20.6061 128.449 24.5661C129.239 28.5261 129.639 32.6761 129.639 37.0161V37.0361ZM114.859 37.1161C114.859 30.3161 114.179 25.4461 112.839 22.5061C111.489 19.5761 109.259 18.1061 106.149 18.1061C104.739 18.1061 103.509 18.4461 102.449 19.1161C101.389 19.7861 100.499 20.8761 99.7691 22.3761C99.0391 23.8761 98.4891 25.8261 98.1391 28.2261C97.7891 30.6361 97.6091 33.5961 97.6091 37.1161C97.6091 43.6861 98.2491 48.4361 99.5491 51.3761C100.839 54.3061 103.039 55.7761 106.149 55.7761C109.259 55.7761 111.559 54.3061 112.879 51.3761C114.199 48.4461 114.859 43.6961 114.859 37.1161ZM149.709 6.67609C149.999 8.67609 150.219 11.3961 150.369 14.8561C150.519 18.3161 150.619 22.1361 150.679 26.2961C150.739 30.4661 150.749 34.7761 150.719 39.2361C150.689 43.6961 150.629 47.9461 150.539 51.9961C150.449 56.0461 150.329 59.6661 150.189 62.8661C150.039 66.0661 149.879 68.4861 149.709 70.1261C149.589 71.0061 149.279 71.8261 148.789 72.5861C148.289 73.3461 147.669 74.0261 146.939 74.6061C146.209 75.1961 145.389 75.6361 144.479 75.9261C143.569 76.2161 142.649 76.3061 141.709 76.1861C139.539 75.9461 137.849 75.0961 136.649 73.6361C135.449 72.1661 134.899 70.5561 135.019 68.7961C135.199 66.5661 135.359 63.8361 135.499 60.6161C135.649 57.3861 135.749 53.9161 135.809 50.1861C135.869 46.4661 135.909 42.6061 135.939 38.6161C135.969 34.6261 135.939 30.7561 135.849 26.9961C135.759 23.2461 135.659 19.7361 135.539 16.4761C135.419 13.2161 135.249 10.4761 135.009 8.24607C134.889 7.30607 134.989 6.41608 135.319 5.56608C135.649 4.71608 136.109 3.93609 136.729 3.23609C137.349 2.53609 138.059 1.94608 138.889 1.47608C139.709 1.00608 140.559 0.746073 141.439 0.686073C143.489 0.456073 145.309 0.926077 146.899 2.09608C148.479 3.26608 149.419 4.79609 149.719 6.67609H149.709Z" fill="#222222"/>
<path d="M299.449 23.126C300.389 22.896 301.329 22.756 302.269 22.726C303.209 22.696 304.099 22.816 304.949 23.076C305.799 23.336 306.549 23.806 307.189 24.486C307.829 25.156 308.299 26.086 308.599 27.256C309.069 29.136 308.819 30.716 307.849 32.006C306.879 33.296 305.719 34.266 304.369 34.906C303.249 35.436 301.909 35.906 300.319 36.316C298.739 36.726 297.079 37.066 295.349 37.326C293.619 37.586 291.869 37.796 290.109 37.946C288.349 38.096 286.709 38.166 285.179 38.166C282.009 38.166 278.899 37.856 275.849 37.246C272.799 36.626 270.419 35.966 268.719 35.266C267.549 34.686 266.259 33.796 264.849 32.626C263.439 31.456 262.499 29.866 262.029 27.876C261.329 24.706 261.019 21.316 261.109 17.716C261.199 14.116 261.509 10.806 262.029 7.81599C262.379 5.82599 263.259 4.316 264.669 3.286C266.079 2.256 267.399 1.74599 268.629 1.74599H301.369C302.899 1.74599 304.219 2.34601 305.329 3.54601C306.439 4.74601 306.999 6.256 306.999 8.076C306.999 8.836 306.879 9.60601 306.649 10.366C306.409 11.126 306.059 11.836 305.589 12.476C305.119 13.126 304.529 13.646 303.829 14.056C303.129 14.466 302.299 14.676 301.369 14.676H277.519C276.459 14.676 275.909 15.146 275.849 16.086C275.789 16.736 275.759 17.636 275.759 18.816C275.759 19.996 275.789 20.896 275.849 21.546C275.909 23.016 276.609 23.926 277.959 24.276C280.129 24.746 282.709 24.976 285.699 24.976C287.049 24.976 288.379 24.906 289.699 24.756C291.019 24.606 292.299 24.446 293.529 24.276C294.759 24.096 295.879 23.906 296.869 23.706C297.869 23.496 298.719 23.306 299.419 23.136L299.449 23.126ZM280.969 66.596C281.199 67.246 281.729 67.686 282.549 67.916C283.489 68.096 284.619 68.266 285.939 68.446C287.259 68.626 288.699 68.756 290.249 68.846C291.799 68.936 293.419 69.006 295.089 69.066C296.759 69.126 298.389 69.156 299.969 69.156C301.789 69.156 303.669 69.096 305.599 68.976C307.539 68.856 309.469 68.686 311.409 68.446C313.349 68.206 315.209 67.946 316.999 67.656C318.789 67.366 320.449 67.036 321.969 66.686C323.959 66.216 325.609 66.286 326.899 66.906C328.189 67.526 329.039 68.596 329.449 70.116C329.859 71.526 329.679 72.826 328.919 74.036C328.159 75.236 327.009 76.106 325.489 76.636C323.729 77.276 321.679 77.796 319.329 78.176C316.979 78.556 314.529 78.866 311.979 79.096C309.429 79.326 306.899 79.496 304.409 79.576C301.919 79.666 299.639 79.706 297.589 79.706C295.539 79.706 293.479 79.676 291.249 79.616C289.019 79.556 286.829 79.426 284.689 79.216C282.549 79.006 280.539 78.746 278.659 78.426C276.779 78.106 275.169 77.676 273.819 77.146C272.529 76.616 271.179 75.666 269.769 74.286C268.359 72.906 267.449 71.246 267.039 69.316C266.569 67.266 266.419 65.366 266.599 63.636C266.779 61.906 266.949 60.566 267.129 59.636C267.419 57.876 268.099 56.576 269.149 55.716C270.209 54.866 271.199 54.436 272.139 54.436H313.759V52.586C313.699 51.946 313.089 51.616 311.909 51.616H272.309C271.429 51.616 270.479 51.196 269.449 50.336C268.419 49.486 267.909 48.126 267.909 46.246C267.909 44.726 268.359 43.476 269.269 42.506C270.179 41.536 271.129 41.056 272.129 41.056H321.149C321.789 41.056 322.469 41.216 323.169 41.536C323.869 41.856 324.549 42.346 325.189 42.986C325.829 43.636 326.409 44.436 326.909 45.406C327.409 46.376 327.749 47.536 327.919 48.886C328.209 50.936 328.299 52.876 328.179 54.696C328.059 56.516 327.859 58.186 327.559 59.716C327.089 61.766 326.239 63.166 325.009 63.896C323.779 64.626 322.489 64.996 321.139 64.996H280.919V66.576L280.969 66.596ZM327.259 6.756C327.549 9.166 327.729 11.306 327.789 13.176H332.449C334.029 13.176 335.379 13.826 336.499 15.116C337.609 16.406 338.169 17.906 338.169 19.606C338.169 20.366 338.069 21.136 337.859 21.896C337.649 22.656 337.329 23.366 336.889 24.006C336.449 24.656 335.889 25.176 335.219 25.586C334.549 25.996 333.769 26.206 332.889 26.206H327.789C327.609 28.206 327.439 30.406 327.259 32.806C327.199 33.746 326.939 34.626 326.469 35.446C325.999 36.266 325.409 36.956 324.709 37.516C324.009 38.076 323.179 38.496 322.249 38.796C321.309 39.086 320.309 39.176 319.259 39.056C317.029 38.766 315.309 37.896 314.109 36.456C312.909 35.016 312.389 33.416 312.569 31.656C312.799 29.716 312.969 27.686 313.049 25.536C313.139 23.396 313.169 21.286 313.139 19.196C313.109 17.116 313.049 15.106 312.959 13.166C312.869 11.226 312.739 9.496 312.559 7.976C312.379 6.276 312.869 4.70601 314.009 3.26601C315.149 1.82601 316.809 0.966001 318.979 0.666001C321.149 0.376001 322.999 0.846004 324.519 2.076C326.039 3.306 326.949 4.86601 327.249 6.73601L327.259 6.756Z" fill="#222222"/>
<path d="M344.769 34.6561C344.589 33.7161 344.459 32.6761 344.369 31.5361C344.279 30.3961 344.239 29.2161 344.239 28.0161C344.239 26.8161 344.299 25.6261 344.419 24.4561C344.539 23.2861 344.679 22.1961 344.859 21.1961C345.039 20.0861 345.619 19.0261 346.619 18.0261C347.619 17.0261 348.759 16.5261 350.049 16.5261H364.479V14.5861C364.479 13.8261 364.069 13.4461 363.249 13.4461H350.929C349.399 13.4461 348.159 12.8461 347.189 11.6461C346.219 10.4461 345.739 9.07612 345.739 7.55612C345.739 6.03612 346.239 4.68613 347.239 3.50613C348.239 2.33613 349.469 1.74612 350.939 1.74612H371.529C372.179 1.74612 372.849 1.86613 373.549 2.09613C374.249 2.33613 374.929 2.66614 375.569 3.10614C376.219 3.54614 376.769 4.08614 377.239 4.73614C377.709 5.38614 378.029 6.11613 378.209 6.93613C378.389 7.81613 378.499 8.97614 378.559 10.4161C378.619 11.8561 378.649 13.3661 378.649 14.9461C378.649 16.5261 378.589 18.0861 378.469 19.6061C378.349 21.1361 378.179 22.4261 377.939 23.4761C377.649 24.8261 376.969 25.9562 375.919 26.8661C374.859 27.7761 373.689 28.2261 372.399 28.2261H358.139V29.9861C358.139 30.5761 358.229 30.9561 358.399 31.1261C358.579 31.3061 358.869 31.4461 359.279 31.5661C359.919 31.7961 360.689 31.9761 361.569 32.0961C362.449 32.2161 363.329 32.2761 364.209 32.2761C365.619 32.2761 366.999 32.1261 368.349 31.8361C369.699 31.5461 370.779 31.2162 371.609 30.8661C372.309 30.5761 373.079 30.4161 373.899 30.3861C374.719 30.3561 375.509 30.4861 376.279 30.7861C377.039 31.0761 377.749 31.5361 378.389 32.1461C379.029 32.7661 379.469 33.5661 379.709 34.5661C379.939 35.5061 379.959 36.3562 379.749 37.1161C379.539 37.8761 379.219 38.5361 378.779 39.0961C378.339 39.6561 377.859 40.1361 377.329 40.5461C376.799 40.9561 376.299 41.2761 375.829 41.5161C374.479 42.2761 372.749 42.9361 370.639 43.4961C368.529 44.0561 366.059 44.3361 363.249 44.3361C360.959 44.3361 358.759 44.1761 356.649 43.8561C354.539 43.5361 352.689 42.9961 351.109 42.2261C349.469 41.4061 348.089 40.3161 346.969 38.9661C345.849 37.6161 345.119 36.1761 344.769 34.6561ZM405.139 76.9861C401.739 78.0961 397.909 78.8161 393.659 79.1461C389.409 79.4661 385.259 79.6561 381.209 79.7161C379.159 79.7161 377.009 79.6561 374.789 79.5361C372.559 79.4161 370.369 79.2561 368.229 79.0561C366.089 78.8461 364.079 78.5761 362.199 78.2161C360.319 77.8661 358.739 77.4261 357.449 76.8961C356.159 76.3661 354.809 75.4761 353.399 74.2161C351.989 72.9561 351.079 71.3561 350.669 69.4161C350.199 67.1861 349.969 64.6661 349.969 61.8461C349.969 59.0261 350.179 56.4161 350.589 54.0161C350.769 52.9061 351.099 51.9461 351.599 51.1561C352.099 50.3661 352.669 49.7061 353.319 49.1761C353.969 48.6461 354.649 48.2661 355.389 48.0361C356.119 47.8061 356.779 47.6861 357.369 47.6861H405.679C406.319 47.6861 407.009 47.8161 407.749 48.0861C408.479 48.3461 409.169 48.7461 409.819 49.2761C410.459 49.8061 411.039 50.4661 411.539 51.2561C412.039 52.0461 412.349 52.9761 412.459 54.0261C412.749 56.3761 412.929 58.9661 412.989 61.8161C413.049 64.6661 412.839 67.1961 412.369 69.4261C412.189 70.3061 411.859 71.1561 411.359 71.9761C410.859 72.7961 410.289 73.5461 409.639 74.2161C408.989 74.8861 408.279 75.4661 407.479 75.9361C406.689 76.4061 405.909 76.7561 405.149 76.9961L405.139 76.9861ZM398.449 62.8161C398.449 62.3461 398.329 61.8661 398.099 61.3661C397.859 60.8661 397.129 60.6161 395.899 60.6161H366.769C365.649 60.6161 364.999 60.8061 364.789 61.1861C364.579 61.5661 364.479 61.9061 364.479 62.1961V63.4261C364.479 64.5461 365.149 65.2161 366.499 65.4461C368.489 65.7361 370.899 65.9861 373.719 66.1961C376.539 66.4061 379.259 66.5061 381.899 66.5061C384.719 66.5061 387.379 66.4361 389.909 66.2861C392.429 66.1361 394.659 65.8861 396.599 65.5361C397.769 65.3561 398.389 64.6861 398.449 63.5161V62.8161ZM412.089 6.75613C412.379 9.27613 412.569 11.9461 412.659 14.7661C412.749 17.5861 412.789 20.3961 412.789 23.2161C412.789 26.0361 412.729 28.8161 412.609 31.5761C412.489 34.3361 412.319 36.9461 412.079 39.4061C412.019 40.3461 411.789 41.1961 411.379 41.9561C410.969 42.7161 410.429 43.3961 409.749 43.9761C409.079 44.5661 408.299 45.0061 407.419 45.2961C406.539 45.5861 405.569 45.7062 404.519 45.6461C403.579 45.5861 402.719 45.3361 401.919 44.8961C401.129 44.4562 400.449 43.8861 399.899 43.1761C399.339 42.4761 398.919 41.6961 398.619 40.8461C398.329 39.9961 398.179 39.1261 398.179 38.2461C398.299 36.8361 398.389 35.4761 398.439 34.1561C398.499 32.8361 398.589 31.5061 398.699 30.1561H395.359C395.299 33.2061 395.119 36.1361 394.829 38.9561C394.769 39.8961 394.519 40.7461 394.079 41.5061C393.639 42.2661 393.069 42.9461 392.359 43.5261C391.659 44.1161 390.859 44.5561 389.979 44.8461C389.099 45.1361 388.189 45.2561 387.249 45.1961C386.249 45.1361 385.359 44.8861 384.569 44.4461C383.779 44.0061 383.099 43.4361 382.549 42.7261C381.999 42.0161 381.579 41.2461 381.319 40.3961C381.059 39.5462 380.919 38.6761 380.919 37.7961C381.149 35.1561 381.329 32.6461 381.449 30.2761C381.569 27.8961 381.609 25.5561 381.579 23.2361C381.549 20.9161 381.479 18.5561 381.359 16.1561C381.239 13.7561 381.099 11.1661 380.919 8.41614C380.919 7.53614 381.049 6.68615 381.319 5.86615C381.579 5.04615 381.979 4.29613 382.509 3.62613C383.039 2.95613 383.679 2.37613 384.449 1.90613C385.209 1.43613 386.059 1.17615 386.999 1.11615C388.939 0.936149 390.649 1.43615 392.149 2.61615C393.649 3.78615 394.539 5.31614 394.829 7.19614C395.009 8.77614 395.139 10.4061 395.229 12.0761C395.319 13.7461 395.389 15.4361 395.449 17.1361H398.709C398.589 15.6661 398.499 14.1861 398.449 12.6961C398.389 11.1961 398.299 9.62614 398.189 7.98614C398.189 7.10614 398.339 6.25613 398.629 5.43613C398.919 4.61613 399.329 3.86614 399.859 3.19614C400.389 2.52614 401.029 1.94613 401.799 1.47613C402.559 1.00613 403.379 0.746126 404.259 0.686126C406.139 0.506126 407.839 1.00613 409.359 2.18613C410.889 3.35613 411.789 4.88614 412.089 6.76614V6.75613Z" fill="#222222"/>
<path d="M246.379 22.426C246.379 29.656 242.929 36.086 237.589 40.156C233.849 43.006 229.179 44.696 224.109 44.696C221.499 44.696 218.989 44.246 216.659 43.416C216.619 43.406 216.589 43.386 216.549 43.376C214.219 42.566 206.379 40.146 206.379 40.146C206.379 40.146 208.799 32.306 209.609 29.976C209.619 29.936 209.639 29.906 209.649 29.866C210.479 27.536 210.929 25.026 210.929 22.416C210.929 17.346 209.239 12.666 206.379 8.92599C210.449 3.58599 216.869 0.145996 224.099 0.145996C236.399 0.145996 246.369 10.116 246.369 22.416L246.379 22.426Z" fill="#078935"/>
<path d="M246.379 57.8858C246.379 70.1858 236.409 80.1558 224.109 80.1558C216.879 80.1558 210.449 76.7158 206.389 71.3758C203.539 67.6358 201.839 62.9558 201.839 57.8858C201.839 55.2758 202.289 52.7658 203.119 50.4358C203.129 50.3958 203.149 50.3658 203.159 50.3258C203.979 47.9958 206.389 40.1558 206.389 40.1558C206.389 40.1558 214.229 42.5658 216.559 43.3858C216.599 43.3958 216.629 43.4158 216.669 43.4258C218.999 44.2558 221.509 44.7058 224.119 44.7058C229.189 44.7058 233.859 43.0158 237.599 40.1658C242.939 44.2358 246.389 50.6558 246.389 57.8958L246.379 57.8858Z" fill="#0AAF3C"/>
<path d="M201.829 57.8862C201.829 62.9562 203.519 67.6362 206.379 71.3762C202.309 76.7162 195.889 80.1562 188.659 80.1562C176.359 80.1562 166.389 70.1862 166.389 57.8862C166.389 50.6562 169.839 44.2262 175.179 40.1562C178.919 37.3062 183.589 35.6162 188.659 35.6162C191.269 35.6162 193.779 36.0662 196.109 36.8962C196.149 36.9062 196.179 36.9262 196.219 36.9362C198.549 37.7462 206.389 40.1662 206.389 40.1662C206.389 40.1662 203.969 48.0062 203.159 50.3362C203.149 50.3762 203.129 50.4062 203.119 50.4462C202.289 52.7762 201.839 55.2862 201.839 57.8962L201.829 57.8862Z" fill="#078935"/>
<path d="M210.929 22.426C210.929 25.036 210.479 27.546 209.649 29.876C209.639 29.916 209.619 29.946 209.609 29.986C208.789 32.316 206.379 40.156 206.379 40.156C206.379 40.156 198.539 37.746 196.209 36.926C196.169 36.916 196.139 36.896 196.099 36.886C193.769 36.056 191.269 35.606 188.649 35.606C183.579 35.606 178.909 37.296 175.169 40.146C169.829 36.076 166.379 29.656 166.379 22.416C166.379 10.116 176.349 0.145996 188.649 0.145996C195.879 0.145996 202.299 3.58599 206.369 8.92599C209.219 12.666 210.919 17.346 210.919 22.416L210.929 22.426Z" fill="#0AAF3C"/>
<path d="M182.479 26.0662C184.208 26.0662 185.609 24.6648 185.609 22.9362C185.609 21.2075 184.208 19.8062 182.479 19.8062C180.75 19.8062 179.349 21.2075 179.349 22.9362C179.349 24.6648 180.75 26.0662 182.479 26.0662Z" fill="white"/>
<path d="M190.479 19.906C192.208 19.906 193.609 18.5046 193.609 16.776C193.609 15.0473 192.208 13.646 190.479 13.646C188.75 13.646 187.349 15.0473 187.349 16.776C187.349 18.5046 188.75 19.906 190.479 19.906Z" fill="white"/>
<path d="M189.419 29.1062C188.109 29.1062 186.789 28.6362 185.739 27.7162C185.339 27.3662 185.299 26.7662 185.649 26.3662C185.999 25.9662 186.599 25.9262 186.999 26.2762C188.299 27.4162 190.219 27.4962 191.559 26.4662C192.899 25.4362 193.309 23.5662 192.549 22.0062C192.319 21.5262 192.509 20.9562 192.989 20.7262C193.459 20.4962 194.039 20.6862 194.269 21.1662C195.439 23.5362 194.789 26.4062 192.729 27.9962C191.759 28.7462 190.589 29.1162 189.419 29.1162V29.1062Z" fill="white"/>
<path d="M219.059 60.1555C220.788 60.1555 222.189 58.7541 222.189 57.0255C222.189 55.2968 220.788 53.8955 219.059 53.8955C217.33 53.8955 215.929 55.2968 215.929 57.0255C215.929 58.7541 217.33 60.1555 219.059 60.1555Z" fill="white"/>
<path d="M230.709 61.1457C230.489 61.1457 230.259 61.0657 230.079 60.9157L226.269 57.6157C226.039 57.4157 225.909 57.1157 225.939 56.8057C225.969 56.4957 226.139 56.2257 226.409 56.0657L230.629 53.5657C231.089 53.2957 231.669 53.4457 231.939 53.9057C232.209 54.3657 232.059 54.9457 231.599 55.2157L228.529 57.0357L231.329 59.4557C231.729 59.8057 231.769 60.4057 231.429 60.8057C231.239 61.0257 230.969 61.1357 230.699 61.1357L230.709 61.1457Z" fill="white"/>
<path d="M231.489 57.9958C231.489 57.9958 231.449 57.9958 231.429 57.9958L226.689 57.5358C226.339 57.5058 226.079 57.1858 226.119 56.8358C226.159 56.4858 226.469 56.2258 226.819 56.2658L231.559 56.7258C231.909 56.7558 232.169 57.0758 232.129 57.4258C232.099 57.7558 231.819 58.0058 231.489 58.0058V57.9958Z" fill="white"/>
<path d="M224.109 67.2857C221.509 67.2857 219.249 65.4057 218.729 62.8157C218.629 62.2957 218.959 61.7957 219.479 61.6857C219.999 61.5857 220.499 61.9157 220.609 62.4357C220.949 64.1357 222.419 65.3658 224.109 65.3658C225.799 65.3658 227.269 64.1357 227.609 62.4357C227.709 61.9157 228.219 61.5757 228.739 61.6857C229.259 61.7857 229.599 62.2957 229.489 62.8157C228.969 65.4057 226.709 67.2857 224.109 67.2857Z" fill="white"/>
</svg>
