<svg width="60" height="60" viewBox="0 0 60 60" fill="none" xmlns="http://www.w3.org/2000/svg">
<circle cx="30" cy="30" r="29.5" fill="white" stroke="#98D69F"/>
<path fill-rule="evenodd" clip-rule="evenodd" d="M23.3515 45C26.0639 45 28.4743 43.7069 29.9999 41.7035C31.5255 43.7069 33.9359 45 36.6483 45C41.2607 45 44.9998 41.261 44.9998 36.6486C44.9998 33.9361 43.7066 31.5256 41.7031 30C43.7066 28.4745 44.9998 26.064 44.9998 23.3515C44.9998 18.7391 41.2607 15 36.6483 15C33.9359 15 31.5255 16.2931 29.9999 18.2965C28.4743 16.2931 26.0639 15 23.3515 15C18.7391 15 15 18.7391 15 23.3515C15 26.064 16.2932 28.4745 18.2967 30C16.2932 31.5256 15 33.9361 15 36.6486C15 41.261 18.7391 45 23.3515 45Z" fill="#6BC778"/>
</svg>
