<svg width="24" height="24" viewBox="0 0 24 24" fill="none" xmlns="http://www.w3.org/2000/svg">
<path d="M6.66667 5L5 6.66667" stroke="white" stroke-width="1.66667" stroke-linecap="round"/>
<path d="M18.3333 5L20 6.66667" stroke="white" stroke-width="1.66667" stroke-linecap="round"/>
<path fill-rule="evenodd" clip-rule="evenodd" d="M12.5007 18.3333C16.1825 18.3333 19.1673 15.3486 19.1673 11.6667C19.1673 7.98477 16.1825 5 12.5007 5C8.81875 5 5.83398 7.98477 5.83398 11.6667C5.83398 15.3486 8.81875 18.3333 12.5007 18.3333ZM14.8186 10.1037C15.1061 9.74427 15.0478 9.21986 14.6884 8.93235C14.329 8.64484 13.8046 8.70311 13.5171 9.0625L12.3277 10.5492L10.4634 9.30637C10.0805 9.05107 9.56309 9.15455 9.30779 9.53749C9.0525 9.92043 9.15598 10.4378 9.53892 10.6931L11.88 12.2538C12.3296 12.5535 12.9337 12.4598 13.2712 12.0378L14.8186 10.1037Z" fill="white"/>
</svg>
