<svg width="24" height="24" viewBox="0 0 24 24" fill="none" xmlns="http://www.w3.org/2000/svg">
<path d="M6.66667 5L5 6.66667" stroke="#0AAF3B" stroke-width="1.66667" stroke-linecap="round"/>
<path d="M18.3333 5L20 6.66667" stroke="#0AAF3B" stroke-width="1.66667" stroke-linecap="round"/>
<path fill-rule="evenodd" clip-rule="evenodd" d="M12.4998 18.3333C16.1817 18.3333 19.1665 15.3486 19.1665 11.6667C19.1665 7.98477 16.1817 5 12.4998 5C8.8179 5 5.83313 7.98477 5.83313 11.6667C5.83313 15.3486 8.8179 18.3333 12.4998 18.3333ZM14.8177 10.1037C15.1052 9.74427 15.0469 9.21986 14.6876 8.93235C14.3282 8.64484 13.8038 8.70311 13.5163 9.0625L12.3269 10.5492L10.4626 9.30637C10.0796 9.05107 9.56223 9.15455 9.30694 9.53749C9.05165 9.92043 9.15512 10.4378 9.53807 10.6931L11.8791 12.2538C12.3287 12.5535 12.9328 12.4598 13.2704 12.0378L14.8177 10.1037Z" fill="#0AAF3B"/>
</svg>
