<svg xmlns="http://www.w3.org/2000/svg" version="1.1" xmlns:xlink="http://www.w3.org/1999/xlink" xmlns:svgjs="http://svgjs.dev/svgjs" width="1000" height="1000"><style>
    #light-icon {
      display: inline;
    }
    #dark-icon {
      display: none;
    }

    @media (prefers-color-scheme: dark) {
      #light-icon {
        display: none;
      }
      #dark-icon {
        display: inline;
      }
    }
  </style><g id="light-icon"><svg xmlns="http://www.w3.org/2000/svg" version="1.1" xmlns:xlink="http://www.w3.org/1999/xlink" xmlns:svgjs="http://svgjs.dev/svgjs" width="1000" height="1000"><g clip-path="url(#SvgjsClipPath1187)"><rect width="1000" height="1000" fill="#ffffff"></rect><g transform="matrix(28.571428571428573,0,0,28.571428571428573,14.289868763514903,0)"><svg xmlns="http://www.w3.org/2000/svg" version="1.1" xmlns:xlink="http://www.w3.org/1999/xlink" xmlns:svgjs="http://svgjs.dev/svgjs" width="34" height="35"><svg width="34" height="35" viewBox="0 0 34 35" fill="none" xmlns="http://www.w3.org/2000/svg">
<path d="M33.9959 9.96782C33.9959 13.0402 32.5299 15.7726 30.2606 17.5021C28.6713 18.7132 26.6868 19.4314 24.5324 19.4314C23.4232 19.4314 22.3566 19.2402 21.3665 18.8874C21.3495 18.8832 21.3368 18.8747 21.3198 18.8704C20.3296 18.5262 16.998 17.4979 16.998 17.4979C16.998 17.4979 18.0264 14.1663 18.3706 13.1762C18.3749 13.1592 18.3834 13.1464 18.3876 13.1294C18.7403 12.1393 18.9316 11.0727 18.9316 9.96356C18.9316 7.80908 18.2134 5.82033 16.998 4.23103C18.7276 1.96182 21.4557 0.5 24.5281 0.5C29.7549 0.5 33.9917 4.73672 33.9917 9.96356L33.9959 9.96782Z" fill="#078935"></path>
<path d="M33.9955 25.0364C33.9955 30.2632 29.7588 34.4999 24.5319 34.4999C21.4596 34.4999 18.7271 33.0381 17.0019 30.7689C15.7908 29.1796 15.0684 27.1909 15.0684 25.0364C15.0684 23.9273 15.2596 22.8607 15.6123 21.8705C15.6165 21.8535 15.625 21.8408 15.6293 21.8238C15.9777 20.8337 17.0019 17.5021 17.0019 17.5021C17.0019 17.5021 20.3335 18.5262 21.3236 18.8747C21.3406 18.8789 21.3533 18.8874 21.3703 18.8917C22.3604 19.2444 23.4271 19.4356 24.5362 19.4356C26.6907 19.4356 28.6752 18.7174 30.2645 17.5063C32.5337 19.2359 33.9997 21.964 33.9997 25.0406L33.9955 25.0364Z" fill="#0AAF3C"></path>
<path d="M15.064 25.0364C15.064 27.1909 15.7822 29.1797 16.9975 30.769C15.268 33.0382 12.5398 34.5 9.46747 34.5C4.24063 34.5 0.00390625 30.2633 0.00390625 25.0364C0.00390625 21.9641 1.46998 19.2317 3.73919 17.5021C5.32849 16.291 7.31299 15.5729 9.46747 15.5729C10.5766 15.5729 11.6432 15.7641 12.6333 16.1168C12.6503 16.1211 12.6631 16.1295 12.6801 16.1338C13.6702 16.478 17.0018 17.5064 17.0018 17.5064C17.0018 17.5064 15.9734 20.838 15.6292 21.8281C15.6249 21.8451 15.6165 21.8578 15.6122 21.8748C15.2595 22.865 15.0683 23.9316 15.0683 25.0407L15.064 25.0364Z" fill="#078935"></path>
<path d="M18.9314 9.96781C18.9314 11.0769 18.7402 12.1435 18.3874 13.1337C18.3832 13.1507 18.3747 13.1634 18.3704 13.1804C18.022 14.1705 16.9979 17.5021 16.9979 17.5021C16.9979 17.5021 13.6663 16.478 12.6762 16.1295C12.6592 16.1253 12.6464 16.1168 12.6294 16.1125C11.6393 15.7598 10.5769 15.5686 9.46357 15.5686C7.30909 15.5686 5.32459 16.2868 3.73529 17.4979C1.46607 15.7683 0 13.0402 0 9.96356C0 4.73671 4.23672 0.5 9.46357 0.5C12.5359 0.5 15.2641 1.96182 16.9936 4.23103C18.2047 5.82033 18.9271 7.80908 18.9271 9.96356L18.9314 9.96781Z" fill="#0AAF3C"></path>
<path d="M6.84376 11.5147C7.57834 11.5147 8.17384 10.9192 8.17384 10.1846C8.17384 9.44999 7.57834 8.85449 6.84376 8.85449C6.10917 8.85449 5.51367 9.44999 5.51367 10.1846C5.51367 10.9192 6.10917 11.5147 6.84376 11.5147Z" fill="white"></path>
<path d="M10.2422 8.8971C10.9768 8.8971 11.5723 8.3016 11.5723 7.56701C11.5723 6.83243 10.9768 6.23694 10.2422 6.23694C9.50761 6.23694 8.91211 6.83243 8.91211 7.56701C8.91211 8.3016 9.50761 8.8971 10.2422 8.8971Z" fill="white"></path>
<path d="M9.79319 12.8064C9.23651 12.8064 8.67557 12.6067 8.22938 12.2157C8.0594 12.067 8.0424 11.812 8.19113 11.642C8.33987 11.4721 8.59483 11.4551 8.76481 11.6038C9.31724 12.0882 10.1331 12.1222 10.7026 11.6845C11.272 11.2468 11.4462 10.4522 11.1233 9.78927C11.0255 9.58529 11.1063 9.34307 11.3102 9.24533C11.51 9.1476 11.7564 9.22834 11.8542 9.43231C12.3514 10.4394 12.0751 11.659 11.1998 12.3347C10.7876 12.6534 10.2904 12.8106 9.79319 12.8106V12.8064Z" fill="white"></path>
<path d="M22.3867 26.0012C23.1213 26.0012 23.7168 25.4057 23.7168 24.6711C23.7168 23.9366 23.1213 23.3411 22.3867 23.3411C21.6521 23.3411 21.0566 23.9366 21.0566 24.6711C21.0566 25.4057 21.6521 26.0012 22.3867 26.0012Z" fill="white"></path>
<path d="M27.3413 26.4218C27.2478 26.4218 27.1501 26.3878 27.0736 26.324L25.4545 24.9217C25.3568 24.8367 25.3016 24.7092 25.3143 24.5775C25.3271 24.4457 25.3993 24.331 25.514 24.263L27.3073 23.2007C27.5028 23.0859 27.7493 23.1497 27.864 23.3451C27.9787 23.5406 27.915 23.7871 27.7195 23.9018L26.4149 24.6752L27.6048 25.7036C27.7748 25.8523 27.7918 26.1073 27.6473 26.2773C27.5665 26.3708 27.4518 26.4175 27.3371 26.4175L27.3413 26.4218Z" fill="white"></path>
<path d="M27.6724 25.0833C27.6724 25.0833 27.6554 25.0833 27.6469 25.0833L25.6326 24.8878C25.4839 24.8751 25.3734 24.7391 25.3904 24.5904C25.4074 24.4416 25.5391 24.3312 25.6879 24.3482L27.7021 24.5436C27.8508 24.5564 27.9613 24.6924 27.9443 24.8411C27.9316 24.9813 27.8126 25.0876 27.6724 25.0876V25.0833Z" fill="white"></path>
<path d="M24.534 29.0311C23.4292 29.0311 22.4688 28.2322 22.2478 27.1316C22.2053 26.9106 22.3456 26.6981 22.5665 26.6514C22.7875 26.6089 23 26.7491 23.0467 26.9701C23.1912 27.6925 23.8159 28.2152 24.534 28.2152C25.2522 28.2152 25.8769 27.6925 26.0213 26.9701C26.0638 26.7491 26.2806 26.6046 26.5015 26.6514C26.7225 26.6939 26.867 26.9106 26.8202 27.1316C26.5993 28.2322 25.6389 29.0311 24.534 29.0311Z" fill="white"></path>
</svg></svg></g></g><defs><clipPath id="SvgjsClipPath1187"><rect width="1000" height="1000" x="0" y="0" rx="300" ry="300"></rect></clipPath></defs></svg></g><g id="dark-icon"><svg xmlns="http://www.w3.org/2000/svg" version="1.1" xmlns:xlink="http://www.w3.org/1999/xlink" xmlns:svgjs="http://svgjs.dev/svgjs" width="1000" height="1000"><g><g transform="matrix(28.571428571428573,0,0,28.571428571428573,14.289868763514903,0)"><svg xmlns="http://www.w3.org/2000/svg" version="1.1" xmlns:xlink="http://www.w3.org/1999/xlink" xmlns:svgjs="http://svgjs.dev/svgjs" width="34" height="35"><svg width="34" height="35" viewBox="0 0 34 35" fill="none" xmlns="http://www.w3.org/2000/svg">
<path d="M33.9959 9.96782C33.9959 13.0402 32.5299 15.7726 30.2606 17.5021C28.6713 18.7132 26.6868 19.4314 24.5324 19.4314C23.4232 19.4314 22.3566 19.2402 21.3665 18.8874C21.3495 18.8832 21.3368 18.8747 21.3198 18.8704C20.3296 18.5262 16.998 17.4979 16.998 17.4979C16.998 17.4979 18.0264 14.1663 18.3706 13.1762C18.3749 13.1592 18.3834 13.1464 18.3876 13.1294C18.7403 12.1393 18.9316 11.0727 18.9316 9.96356C18.9316 7.80908 18.2134 5.82033 16.998 4.23103C18.7276 1.96182 21.4557 0.5 24.5281 0.5C29.7549 0.5 33.9917 4.73672 33.9917 9.96356L33.9959 9.96782Z" fill="#078935"></path>
<path d="M33.9955 25.0364C33.9955 30.2632 29.7588 34.4999 24.5319 34.4999C21.4596 34.4999 18.7271 33.0381 17.0019 30.7689C15.7908 29.1796 15.0684 27.1909 15.0684 25.0364C15.0684 23.9273 15.2596 22.8607 15.6123 21.8705C15.6165 21.8535 15.625 21.8408 15.6293 21.8238C15.9777 20.8337 17.0019 17.5021 17.0019 17.5021C17.0019 17.5021 20.3335 18.5262 21.3236 18.8747C21.3406 18.8789 21.3533 18.8874 21.3703 18.8917C22.3604 19.2444 23.4271 19.4356 24.5362 19.4356C26.6907 19.4356 28.6752 18.7174 30.2645 17.5063C32.5337 19.2359 33.9997 21.964 33.9997 25.0406L33.9955 25.0364Z" fill="#0AAF3C"></path>
<path d="M15.064 25.0364C15.064 27.1909 15.7822 29.1797 16.9975 30.769C15.268 33.0382 12.5398 34.5 9.46747 34.5C4.24063 34.5 0.00390625 30.2633 0.00390625 25.0364C0.00390625 21.9641 1.46998 19.2317 3.73919 17.5021C5.32849 16.291 7.31299 15.5729 9.46747 15.5729C10.5766 15.5729 11.6432 15.7641 12.6333 16.1168C12.6503 16.1211 12.6631 16.1295 12.6801 16.1338C13.6702 16.478 17.0018 17.5064 17.0018 17.5064C17.0018 17.5064 15.9734 20.838 15.6292 21.8281C15.6249 21.8451 15.6165 21.8578 15.6122 21.8748C15.2595 22.865 15.0683 23.9316 15.0683 25.0407L15.064 25.0364Z" fill="#078935"></path>
<path d="M18.9314 9.96781C18.9314 11.0769 18.7402 12.1435 18.3874 13.1337C18.3832 13.1507 18.3747 13.1634 18.3704 13.1804C18.022 14.1705 16.9979 17.5021 16.9979 17.5021C16.9979 17.5021 13.6663 16.478 12.6762 16.1295C12.6592 16.1253 12.6464 16.1168 12.6294 16.1125C11.6393 15.7598 10.5769 15.5686 9.46357 15.5686C7.30909 15.5686 5.32459 16.2868 3.73529 17.4979C1.46607 15.7683 0 13.0402 0 9.96356C0 4.73671 4.23672 0.5 9.46357 0.5C12.5359 0.5 15.2641 1.96182 16.9936 4.23103C18.2047 5.82033 18.9271 7.80908 18.9271 9.96356L18.9314 9.96781Z" fill="#0AAF3C"></path>
<path d="M6.84376 11.5147C7.57834 11.5147 8.17384 10.9192 8.17384 10.1846C8.17384 9.44999 7.57834 8.85449 6.84376 8.85449C6.10917 8.85449 5.51367 9.44999 5.51367 10.1846C5.51367 10.9192 6.10917 11.5147 6.84376 11.5147Z" fill="white"></path>
<path d="M10.2422 8.8971C10.9768 8.8971 11.5723 8.3016 11.5723 7.56701C11.5723 6.83243 10.9768 6.23694 10.2422 6.23694C9.50761 6.23694 8.91211 6.83243 8.91211 7.56701C8.91211 8.3016 9.50761 8.8971 10.2422 8.8971Z" fill="white"></path>
<path d="M9.79319 12.8064C9.23651 12.8064 8.67557 12.6067 8.22938 12.2157C8.0594 12.067 8.0424 11.812 8.19113 11.642C8.33987 11.4721 8.59483 11.4551 8.76481 11.6038C9.31724 12.0882 10.1331 12.1222 10.7026 11.6845C11.272 11.2468 11.4462 10.4522 11.1233 9.78927C11.0255 9.58529 11.1063 9.34307 11.3102 9.24533C11.51 9.1476 11.7564 9.22834 11.8542 9.43231C12.3514 10.4394 12.0751 11.659 11.1998 12.3347C10.7876 12.6534 10.2904 12.8106 9.79319 12.8106V12.8064Z" fill="white"></path>
<path d="M22.3867 26.0012C23.1213 26.0012 23.7168 25.4057 23.7168 24.6711C23.7168 23.9366 23.1213 23.3411 22.3867 23.3411C21.6521 23.3411 21.0566 23.9366 21.0566 24.6711C21.0566 25.4057 21.6521 26.0012 22.3867 26.0012Z" fill="white"></path>
<path d="M27.3413 26.4218C27.2478 26.4218 27.1501 26.3878 27.0736 26.324L25.4545 24.9217C25.3568 24.8367 25.3016 24.7092 25.3143 24.5775C25.3271 24.4457 25.3993 24.331 25.514 24.263L27.3073 23.2007C27.5028 23.0859 27.7493 23.1497 27.864 23.3451C27.9787 23.5406 27.915 23.7871 27.7195 23.9018L26.4149 24.6752L27.6048 25.7036C27.7748 25.8523 27.7918 26.1073 27.6473 26.2773C27.5665 26.3708 27.4518 26.4175 27.3371 26.4175L27.3413 26.4218Z" fill="white"></path>
<path d="M27.6724 25.0833C27.6724 25.0833 27.6554 25.0833 27.6469 25.0833L25.6326 24.8878C25.4839 24.8751 25.3734 24.7391 25.3904 24.5904C25.4074 24.4416 25.5391 24.3312 25.6879 24.3482L27.7021 24.5436C27.8508 24.5564 27.9613 24.6924 27.9443 24.8411C27.9316 24.9813 27.8126 25.0876 27.6724 25.0876V25.0833Z" fill="white"></path>
<path d="M24.534 29.0311C23.4292 29.0311 22.4688 28.2322 22.2478 27.1316C22.2053 26.9106 22.3456 26.6981 22.5665 26.6514C22.7875 26.6089 23 26.7491 23.0467 26.9701C23.1912 27.6925 23.8159 28.2152 24.534 28.2152C25.2522 28.2152 25.8769 27.6925 26.0213 26.9701C26.0638 26.7491 26.2806 26.6046 26.5015 26.6514C26.7225 26.6939 26.867 26.9106 26.8202 27.1316C26.5993 28.2322 25.6389 29.0311 24.534 29.0311Z" fill="white"></path>
</svg></svg></g></g></svg></g></svg>